<svg width="176" height="94" viewBox="0 0 176 94" fill="none" xmlns="http://www.w3.org/2000/svg">
<g filter="url(#filter0_d_0_279)">
<rect x="10.385" y="0.26416" width="144.092" height="25.9625" fill="#0344DC"/>
<path d="M42.1406 7.09V9.078H45.3466V10.926H42.1406V13.082H45.7666V15H39.7466V5.172H45.7666V7.09H42.1406ZM51.9408 15L50.4428 12.83L49.1828 15H46.5928L49.1688 11.01L46.5228 7.188H49.2108L50.7088 9.344L51.9688 7.188H54.5588L51.9408 11.122L54.6288 15H51.9408ZM57.9452 8.294C58.1786 7.93 58.5006 7.636 58.9112 7.412C59.3219 7.188 59.8026 7.076 60.3532 7.076C60.9972 7.076 61.5806 7.23933 62.1032 7.566C62.6259 7.89267 63.0366 8.35933 63.3352 8.966C63.6432 9.57267 63.7972 10.2773 63.7972 11.08C63.7972 11.8827 63.6432 12.592 63.3352 13.208C63.0366 13.8147 62.6259 14.286 62.1032 14.622C61.5806 14.9487 60.9972 15.112 60.3532 15.112C59.8119 15.112 59.3312 15 58.9112 14.776C58.5006 14.552 58.1786 14.2627 57.9452 13.908V18.724H55.5512V7.188H57.9452V8.294ZM61.3612 11.08C61.3612 10.4827 61.1932 10.016 60.8572 9.68C60.5306 9.33467 60.1246 9.162 59.6392 9.162C59.1632 9.162 58.7572 9.33467 58.4212 9.68C58.0946 10.0253 57.9312 10.4967 57.9312 11.094C57.9312 11.6913 58.0946 12.1627 58.4212 12.508C58.7572 12.8533 59.1632 13.026 59.6392 13.026C60.1152 13.026 60.5212 12.8533 60.8572 12.508C61.1932 12.1533 61.3612 11.6773 61.3612 11.08ZM67.4472 4.64V15H65.0532V4.64H67.4472ZM72.7381 15.112C71.9728 15.112 71.2821 14.9487 70.6661 14.622C70.0594 14.2953 69.5788 13.8287 69.2241 13.222C68.8788 12.6153 68.7061 11.906 68.7061 11.094C68.7061 10.2913 68.8834 9.58667 69.2381 8.98C69.5928 8.364 70.0781 7.89267 70.6941 7.566C71.3101 7.23933 72.0008 7.076 72.7661 7.076C73.5314 7.076 74.2221 7.23933 74.8381 7.566C75.4541 7.89267 75.9394 8.364 76.2941 8.98C76.6488 9.58667 76.8261 10.2913 76.8261 11.094C76.8261 11.8967 76.6441 12.606 76.2801 13.222C75.9254 13.8287 75.4354 14.2953 74.8101 14.622C74.1941 14.9487 73.5034 15.112 72.7381 15.112ZM72.7381 13.04C73.1954 13.04 73.5828 12.872 73.9001 12.536C74.2268 12.2 74.3901 11.7193 74.3901 11.094C74.3901 10.4687 74.2314 9.988 73.9141 9.652C73.6061 9.316 73.2234 9.148 72.7661 9.148C72.2994 9.148 71.9121 9.316 71.6041 9.652C71.2961 9.97867 71.1421 10.4593 71.1421 11.094C71.1421 11.7193 71.2914 12.2 71.5901 12.536C71.8981 12.872 72.2808 13.04 72.7381 13.04ZM80.4902 8.49C80.7702 8.06067 81.1202 7.72467 81.5402 7.482C81.9602 7.23 82.4268 7.104 82.9402 7.104V9.638H82.2822C81.6848 9.638 81.2368 9.76867 80.9382 10.03C80.6395 10.282 80.4902 10.73 80.4902 11.374V15H78.0962V7.188H80.4902V8.49ZM83.6084 11.08C83.6084 10.2773 83.7578 9.57267 84.0564 8.966C84.3644 8.35933 84.7798 7.89267 85.3024 7.566C85.8251 7.23933 86.4084 7.076 87.0524 7.076C87.6031 7.076 88.0838 7.188 88.4944 7.412C88.9144 7.636 89.2364 7.93 89.4604 8.294V7.188H91.8544V15H89.4604V13.894C89.2271 14.258 88.9004 14.552 88.4804 14.776C88.0698 15 87.5891 15.112 87.0384 15.112C86.4038 15.112 85.8251 14.9487 85.3024 14.622C84.7798 14.286 84.3644 13.8147 84.0564 13.208C83.7578 12.592 83.6084 11.8827 83.6084 11.08ZM89.4604 11.094C89.4604 10.4967 89.2924 10.0253 88.9564 9.68C88.6298 9.33467 88.2284 9.162 87.7524 9.162C87.2764 9.162 86.8704 9.33467 86.5344 9.68C86.2078 10.016 86.0444 10.4827 86.0444 11.08C86.0444 11.6773 86.2078 12.1533 86.5344 12.508C86.8704 12.8533 87.2764 13.026 87.7524 13.026C88.2284 13.026 88.6298 12.8533 88.9564 12.508C89.2924 12.1627 89.4604 11.6913 89.4604 11.094ZM97.9404 12.97V15H96.7224C95.8544 15 95.1777 14.79 94.6924 14.37C94.2071 13.9407 93.9644 13.2453 93.9644 12.284V9.176H93.0124V7.188H93.9644V5.284H96.3584V7.188H97.9264V9.176H96.3584V12.312C96.3584 12.5453 96.4144 12.7133 96.5264 12.816C96.6384 12.9187 96.8251 12.97 97.0864 12.97H97.9404ZM100.478 6.376C100.058 6.376 99.7126 6.25467 99.4419 6.012C99.1806 5.76 99.0499 5.452 99.0499 5.088C99.0499 4.71467 99.1806 4.40667 99.4419 4.164C99.7126 3.912 100.058 3.786 100.478 3.786C100.889 3.786 101.225 3.912 101.486 4.164C101.757 4.40667 101.892 4.71467 101.892 5.088C101.892 5.452 101.757 5.76 101.486 6.012C101.225 6.25467 100.889 6.376 100.478 6.376ZM101.668 7.188V15H99.2739V7.188H101.668ZM106.959 15.112C106.193 15.112 105.503 14.9487 104.887 14.622C104.28 14.2953 103.799 13.8287 103.445 13.222C103.099 12.6153 102.927 11.906 102.927 11.094C102.927 10.2913 103.104 9.58667 103.459 8.98C103.813 8.364 104.299 7.89267 104.915 7.566C105.531 7.23933 106.221 7.076 106.987 7.076C107.752 7.076 108.443 7.23933 109.059 7.566C109.675 7.89267 110.16 8.364 110.515 8.98C110.869 9.58667 111.047 10.2913 111.047 11.094C111.047 11.8967 110.865 12.606 110.501 13.222C110.146 13.8287 109.656 14.2953 109.031 14.622C108.415 14.9487 107.724 15.112 106.959 15.112ZM106.959 13.04C107.416 13.04 107.803 12.872 108.121 12.536C108.447 12.2 108.611 11.7193 108.611 11.094C108.611 10.4687 108.452 9.988 108.135 9.652C107.827 9.316 107.444 9.148 106.987 9.148C106.52 9.148 106.133 9.316 105.825 9.652C105.517 9.97867 105.363 10.4593 105.363 11.094C105.363 11.7193 105.512 12.2 105.811 12.536C106.119 12.872 106.501 13.04 106.959 13.04ZM117.077 7.104C117.992 7.104 118.72 7.40267 119.261 8C119.812 8.588 120.087 9.4 120.087 10.436V15H117.707V10.758C117.707 10.2353 117.572 9.82933 117.301 9.54C117.03 9.25067 116.666 9.106 116.209 9.106C115.752 9.106 115.388 9.25067 115.117 9.54C114.846 9.82933 114.711 10.2353 114.711 10.758V15H112.317V7.188H114.711V8.224C114.954 7.87867 115.28 7.608 115.691 7.412C116.102 7.20667 116.564 7.104 117.077 7.104Z" fill="white"/>
<circle cx="16.2267" cy="38.559" r="14.4957" fill="#000E61"/>
<path d="M9.77456 41.4449C9.33712 41.782 9.25581 42.41 9.59296 42.8474C9.9301 43.2848 10.558 43.3661 10.9955 43.029L10.385 42.2369L9.77456 41.4449ZM22.044 34.1438C22.1149 33.5961 21.7284 33.0946 21.1807 33.0237L12.2552 31.868C11.7075 31.7971 11.206 32.1836 11.1351 32.7313C11.0641 33.279 11.4507 33.7805 11.9984 33.8515L19.9321 34.8787L18.9049 42.8125C18.8339 43.3602 19.2205 43.8617 19.7682 43.9326C20.3159 44.0036 20.8174 43.617 20.8883 43.0693L22.044 34.1438ZM10.385 42.2369L10.9955 43.029L21.6627 34.8075L21.0523 34.0154L20.4418 33.2234L9.77456 41.4449L10.385 42.2369Z" fill="white"/>
</g>
<g filter="url(#filter1_d_0_279)">
<rect x="26.2964" y="34.062" width="139.765" height="25.9625" rx="12.9812" transform="rotate(-5.5333 26.2964 34.062)" fill="#E2DC00"/>
<path d="M59.0625 35.5146L60.0101 45.2968L57.6273 45.5276L56.6796 35.7454L59.0625 35.5146ZM65.7134 36.8113C66.6238 36.7231 67.3772 36.9502 67.9736 37.4925C68.5784 38.0247 68.9308 38.8064 69.0307 39.8375L69.4707 44.3803L67.1018 44.6098L66.6928 40.3875C66.6424 39.8673 66.4685 39.4762 66.1712 39.2143C65.8739 38.9525 65.4977 38.8436 65.0425 38.8877C64.5873 38.9318 64.2389 39.1109 63.9974 39.4249C63.7559 39.739 63.6604 40.1562 63.7108 40.6764L64.1198 44.8986L61.7369 45.1295L60.9837 37.3539L63.3665 37.123L63.4664 38.1542C63.6746 37.7871 63.9737 37.4862 64.3635 37.2515C64.7525 37.0075 65.2025 36.8608 65.7134 36.8113ZM75.103 35.9017C76.0134 35.8135 76.7668 36.0406 77.3632 36.5829C77.968 37.1151 78.3204 37.8967 78.4203 38.9279L78.8604 43.4706L76.4915 43.7001L76.0824 39.4779C76.032 38.9577 75.8582 38.5666 75.5609 38.3047C75.2636 38.0428 74.8873 37.9339 74.4321 37.978C73.9769 38.0221 73.6286 38.2012 73.3871 38.5153C73.1455 38.8294 73.05 39.2466 73.1004 39.7668L73.5094 43.989L71.1266 44.2199L70.3733 36.4443L72.7562 36.2134L72.856 37.2446C73.0643 36.8775 73.3633 36.5766 73.7532 36.3419C74.1421 36.0979 74.5921 35.9512 75.103 35.9017ZM84.0664 43.0788C83.3047 43.1526 82.6015 43.0566 81.9568 42.7909C81.3215 42.5242 80.7981 42.1061 80.3866 41.5365C79.9844 40.9659 79.7441 40.2765 79.6658 39.4683C79.5884 38.6694 79.697 37.9509 79.9915 37.3129C80.2851 36.6656 80.7227 36.1496 81.3043 35.7651C81.886 35.3805 82.5577 35.1514 83.3194 35.0776C84.0812 35.0038 84.7844 35.0997 85.429 35.3655C86.0737 35.6312 86.6022 36.0536 87.0146 36.6325C87.4261 37.2022 87.6706 37.8864 87.748 38.6854C87.8254 39.4843 87.7126 40.2079 87.4097 40.8561C87.1152 41.4941 86.6725 42.0059 86.0815 42.3913C85.4999 42.7759 84.8282 43.005 84.0664 43.0788ZM83.8667 41.0165C84.3219 40.9724 84.6912 40.7678 84.9746 40.4028C85.2674 40.0368 85.3836 39.5427 85.3233 38.9203C85.263 38.2978 85.0587 37.8347 84.7105 37.5309C84.3715 37.2261 83.9744 37.0958 83.5192 37.1399C83.0547 37.1849 82.6854 37.3895 82.4112 37.7536C82.1362 38.1085 82.0292 38.6017 82.0904 39.2334C82.1507 39.8559 82.3457 40.3199 82.6754 40.6255C83.0144 40.9303 83.4114 41.0606 83.8667 41.0165ZM92.6704 39.8823L93.8192 34.1729L96.3553 33.9272L94.3495 41.9701L91.4093 42.255L87.8969 34.7466L90.447 34.4996L92.6704 39.8823ZM97.2598 37.7498C97.1824 36.9509 97.2631 36.2351 97.5019 35.6025C97.7499 34.9689 98.1183 34.4644 98.6071 34.0889C99.0958 33.7133 99.6607 33.4945 100.302 33.4324C100.85 33.3793 101.339 33.4444 101.769 33.6278C102.209 33.8102 102.558 34.0718 102.816 34.4125L102.709 33.3117L105.092 33.0808L105.845 40.8564L103.463 41.0873L103.356 39.9864C103.159 40.3712 102.862 40.6954 102.465 40.9588C102.078 41.2214 101.611 41.3792 101.063 41.4323C100.431 41.4935 99.8392 41.3867 99.2875 41.112C98.7348 40.8279 98.276 40.3989 97.9109 39.8247C97.5542 39.2404 97.3372 38.5488 97.2598 37.7498ZM103.086 37.1995C103.028 36.6049 102.816 36.152 102.448 35.8407C102.089 35.5284 101.673 35.3953 101.2 35.4412C100.726 35.4871 100.338 35.6981 100.037 36.0742C99.7444 36.4401 99.6269 36.9204 99.6845 37.5149C99.7421 38.1095 99.9505 38.5675 100.31 38.889C100.678 39.2004 101.098 39.3331 101.572 39.2872C102.046 39.2413 102.429 39.0307 102.721 38.6555C103.022 38.2794 103.143 37.794 103.086 37.1995ZM111.707 38.2491L111.903 40.2696L110.691 40.3871C109.827 40.4708 109.133 40.327 108.609 39.9557C108.085 39.5752 107.776 38.9065 107.684 37.9497L107.384 34.8561L106.436 34.9479L106.245 32.9692L107.192 32.8774L107.009 30.9823L109.391 30.7514L109.575 32.6466L111.136 32.4954L111.327 34.4741L109.767 34.6253L110.069 37.7467C110.092 37.9789 110.164 38.1407 110.285 38.2321C110.406 38.3235 110.597 38.3566 110.857 38.3314L111.707 38.2491ZM113.597 31.4411C113.179 31.4816 112.824 31.3941 112.531 31.1787C112.246 30.9531 112.087 30.6591 112.052 30.2968C112.016 29.9252 112.116 29.6061 112.353 29.3393C112.598 29.0624 112.929 28.9037 113.347 28.8632C113.756 28.8236 114.103 28.9166 114.387 29.1422C114.68 29.3577 114.844 29.6512 114.88 30.0228C114.915 30.3851 114.81 30.7047 114.565 30.9816C114.329 31.2484 114.006 31.4015 113.597 31.4411ZM114.86 32.1346L115.613 39.9102L113.23 40.141L112.477 32.3654L114.86 32.1346ZM120.622 37.1745L121.77 31.4651L124.307 31.2194L122.301 39.2623L119.36 39.5472L115.848 32.0389L118.398 31.7918L120.622 37.1745ZM133.004 34.1746C133.025 34.3975 133.034 34.6311 133.029 34.8754L127.637 35.3978C127.721 35.8773 127.91 36.234 128.204 36.468C128.507 36.6919 128.859 36.7844 129.258 36.7457C129.853 36.6881 130.242 36.3973 130.425 35.8731L132.962 35.6274C132.881 36.151 132.689 36.6338 132.385 37.0758C132.09 37.517 131.698 37.8784 131.21 38.1602C130.721 38.4419 130.161 38.6134 129.529 38.6746C128.768 38.7484 128.074 38.6515 127.448 38.3839C126.822 38.1164 126.312 37.6969 125.919 37.1255C125.526 36.554 125.291 35.8642 125.212 35.056C125.134 34.2478 125.228 33.526 125.495 32.8906C125.771 32.2544 126.19 31.7449 126.753 31.3622C127.316 30.9794 127.983 30.7507 128.755 30.676C129.507 30.6031 130.191 30.6962 130.807 30.9554C131.423 31.2146 131.922 31.621 132.304 32.1748C132.695 32.7276 132.928 33.3942 133.004 34.1746ZM130.504 33.7838C130.465 33.375 130.294 33.0634 129.992 32.8488C129.69 32.6343 129.33 32.5473 128.912 32.5878C128.512 32.6265 128.184 32.7754 127.928 33.0347C127.681 33.293 127.546 33.639 127.522 34.0727L130.504 33.7838Z" fill="#000E61"/>
</g>
<g filter="url(#filter2_d_0_279)">
<path d="M0 82.9115C0 68.5728 11.6238 56.949 25.9625 56.949H121.158C121.158 71.2877 109.534 82.9115 95.1958 82.9115H0Z" fill="white"/>
<path d="M30.7545 61.424C31.7905 61.424 32.6958 61.6293 33.4705 62.04C34.2452 62.4506 34.8425 63.0293 35.2625 63.776C35.6918 64.5133 35.9065 65.3673 35.9065 66.338C35.9065 67.2993 35.6918 68.1533 35.2625 68.9C34.8425 69.6466 34.2405 70.2253 33.4565 70.636C32.6818 71.0466 31.7812 71.252 30.7545 71.252H27.0725V61.424H30.7545ZM30.6005 69.18C31.5058 69.18 32.2105 68.9326 32.7145 68.438C33.2185 67.9433 33.4705 67.2433 33.4705 66.338C33.4705 65.4326 33.2185 64.728 32.7145 64.224C32.2105 63.72 31.5058 63.468 30.6005 63.468H29.4665V69.18H30.6005ZM45.2244 63.44L40.3244 74.962H37.7484L39.5404 70.986L36.3624 63.44H39.0364L40.8424 68.326L42.6344 63.44H45.2244ZM50.8501 63.356C51.7647 63.356 52.4927 63.6546 53.0341 64.252C53.5847 64.84 53.8601 65.652 53.8601 66.688V71.252H51.4801V67.01C51.4801 66.4873 51.3447 66.0813 51.0741 65.792C50.8034 65.5026 50.4394 65.358 49.9821 65.358C49.5247 65.358 49.1607 65.5026 48.8901 65.792C48.6194 66.0813 48.4841 66.4873 48.4841 67.01V71.252H46.0901V63.44H48.4841V64.476C48.7267 64.1306 49.0534 63.86 49.4641 63.664C49.8747 63.4586 50.3367 63.356 50.8501 63.356ZM55.0477 67.332C55.0477 66.5293 55.197 65.8246 55.4957 65.218C55.8037 64.6113 56.219 64.1446 56.7417 63.818C57.2643 63.4913 57.8477 63.328 58.4917 63.328C59.0423 63.328 59.523 63.44 59.9337 63.664C60.3537 63.888 60.6757 64.182 60.8997 64.546V63.44H63.2937V71.252H60.8997V70.146C60.6663 70.51 60.3397 70.804 59.9197 71.028C59.509 71.252 59.0283 71.364 58.4777 71.364C57.843 71.364 57.2643 71.2006 56.7417 70.874C56.219 70.538 55.8037 70.0666 55.4957 69.46C55.197 68.844 55.0477 68.1346 55.0477 67.332ZM60.8997 67.346C60.8997 66.7486 60.7317 66.2773 60.3957 65.932C60.069 65.5866 59.6677 65.414 59.1917 65.414C58.7157 65.414 58.3097 65.5866 57.9737 65.932C57.647 66.268 57.4837 66.7346 57.4837 67.332C57.4837 67.9293 57.647 68.4053 57.9737 68.76C58.3097 69.1053 58.7157 69.278 59.1917 69.278C59.6677 69.278 60.069 69.1053 60.3957 68.76C60.7317 68.4146 60.8997 67.9433 60.8997 67.346ZM74.9936 63.356C75.9643 63.356 76.7343 63.65 77.3036 64.238C77.8823 64.826 78.1716 65.6426 78.1716 66.688V71.252H75.7916V67.01C75.7916 66.506 75.6563 66.1186 75.3856 65.848C75.1243 65.568 74.7603 65.428 74.2936 65.428C73.8269 65.428 73.4583 65.568 73.1876 65.848C72.9263 66.1186 72.7956 66.506 72.7956 67.01V71.252H70.4156V67.01C70.4156 66.506 70.2803 66.1186 70.0096 65.848C69.7483 65.568 69.3843 65.428 68.9176 65.428C68.4509 65.428 68.0823 65.568 67.8116 65.848C67.5503 66.1186 67.4196 66.506 67.4196 67.01V71.252H65.0256V63.44H67.4196V64.42C67.6623 64.0933 67.9796 63.8366 68.3716 63.65C68.7636 63.454 69.2069 63.356 69.7016 63.356C70.2896 63.356 70.8123 63.482 71.2696 63.734C71.7363 63.986 72.1003 64.3453 72.3616 64.812C72.6323 64.3826 73.0009 64.0326 73.4676 63.762C73.9343 63.4913 74.4429 63.356 74.9936 63.356ZM81.0499 62.628C80.6299 62.628 80.2846 62.5066 80.0139 62.264C79.7526 62.012 79.6219 61.704 79.6219 61.34C79.6219 60.9666 79.7526 60.6586 80.0139 60.416C80.2846 60.164 80.6299 60.038 81.0499 60.038C81.4606 60.038 81.7966 60.164 82.0579 60.416C82.3286 60.6586 82.4639 60.9666 82.4639 61.34C82.4639 61.704 82.3286 62.012 82.0579 62.264C81.7966 62.5066 81.4606 62.628 81.0499 62.628ZM82.2399 63.44V71.252H79.8459V63.44H82.2399ZM83.4988 67.346C83.4988 66.534 83.6622 65.8246 83.9888 65.218C84.3248 64.6113 84.7868 64.1446 85.3748 63.818C85.9722 63.4913 86.6535 63.328 87.4188 63.328C88.3988 63.328 89.2155 63.5846 89.8688 64.098C90.5315 64.6113 90.9655 65.3346 91.1708 66.268H88.6228C88.4082 65.6706 87.9928 65.372 87.3768 65.372C86.9382 65.372 86.5882 65.5446 86.3268 65.89C86.0655 66.226 85.9348 66.7113 85.9348 67.346C85.9348 67.9806 86.0655 68.4706 86.3268 68.816C86.5882 69.152 86.9382 69.32 87.3768 69.32C87.9928 69.32 88.4082 69.0213 88.6228 68.424H91.1708C90.9655 69.3386 90.5315 70.0573 89.8688 70.58C89.2062 71.1026 88.3895 71.364 87.4188 71.364C86.6535 71.364 85.9722 71.2006 85.3748 70.874C84.7868 70.5473 84.3248 70.0806 83.9888 69.474C83.6622 68.8673 83.4988 68.158 83.4988 67.346Z" fill="#0344DC"/>
</g>
<defs>
<filter id="filter0_d_0_279" x="1.73096" y="0.26416" width="161.746" height="63.7905" filterUnits="userSpaceOnUse" color-interpolation-filters="sRGB">
<feFlood flood-opacity="0" result="BackgroundImageFix"/>
<feColorMatrix in="SourceAlpha" type="matrix" values="0 0 0 0 0 0 0 0 0 0 0 0 0 0 0 0 0 0 127 0" result="hardAlpha"/>
<feOffset dx="5" dy="7"/>
<feGaussianBlur stdDeviation="2"/>
<feComposite in2="hardAlpha" operator="out"/>
<feColorMatrix type="matrix" values="0 0 0 0 0 0 0 0 0 0 0 0 0 0 0 0 0 0 0.2 0"/>
<feBlend mode="normal" in2="BackgroundImageFix" result="effect1_dropShadow_0_279"/>
<feBlend mode="normal" in="SourceGraphic" in2="effect1_dropShadow_0_279" result="shape"/>
</filter>
<filter id="filter1_d_0_279" x="27.4866" y="21.7756" width="148.236" height="47.9376" filterUnits="userSpaceOnUse" color-interpolation-filters="sRGB">
<feFlood flood-opacity="0" result="BackgroundImageFix"/>
<feColorMatrix in="SourceAlpha" type="matrix" values="0 0 0 0 0 0 0 0 0 0 0 0 0 0 0 0 0 0 127 0" result="hardAlpha"/>
<feOffset dx="5" dy="7"/>
<feGaussianBlur stdDeviation="2"/>
<feComposite in2="hardAlpha" operator="out"/>
<feColorMatrix type="matrix" values="0 0 0 0 0 0 0 0 0 0 0 0 0 0 0 0 0 0 0.2 0"/>
<feBlend mode="normal" in2="BackgroundImageFix" result="effect1_dropShadow_0_279"/>
<feBlend mode="normal" in="SourceGraphic" in2="effect1_dropShadow_0_279" result="shape"/>
</filter>
<filter id="filter2_d_0_279" x="0" y="56.949" width="130.158" height="36.9625" filterUnits="userSpaceOnUse" color-interpolation-filters="sRGB">
<feFlood flood-opacity="0" result="BackgroundImageFix"/>
<feColorMatrix in="SourceAlpha" type="matrix" values="0 0 0 0 0 0 0 0 0 0 0 0 0 0 0 0 0 0 127 0" result="hardAlpha"/>
<feOffset dx="5" dy="7"/>
<feGaussianBlur stdDeviation="2"/>
<feComposite in2="hardAlpha" operator="out"/>
<feColorMatrix type="matrix" values="0 0 0 0 0 0 0 0 0 0 0 0 0 0 0 0 0 0 0.2 0"/>
<feBlend mode="normal" in2="BackgroundImageFix" result="effect1_dropShadow_0_279"/>
<feBlend mode="normal" in="SourceGraphic" in2="effect1_dropShadow_0_279" result="shape"/>
</filter>
</defs>
</svg>
