<svg width="261" height="27" viewBox="0 0 261 27" fill="none" xmlns="http://www.w3.org/2000/svg">
<path d="M248.634 26.2559H12.6208C5.81056 26.2559 0.265625 20.6756 0.265625 13.9047V12.9003C0.265625 6.09223 5.84777 0.549072 12.6208 0.549072H248.634C255.444 0.549072 260.989 6.12943 260.989 12.9003V13.9047C260.989 20.7128 255.444 26.2559 248.634 26.2559Z" fill="#140F61"/>
<path d="M245.434 19.7083H15.784C12.4347 19.7083 9.71802 16.9925 9.71802 13.6443V13.1607C9.71802 9.81245 12.4347 7.09668 15.784 7.09668H245.434C248.783 7.09668 251.499 9.81245 251.499 13.1607V13.6443C251.499 16.9553 248.783 19.7083 245.434 19.7083Z" fill="#080833"/>
</svg>
