<svg width="285" height="116" viewBox="0 0 285 116" fill="none" xmlns="http://www.w3.org/2000/svg">
<g filter="url(#filter0_d_0_146)">
<path d="M227.418 104.655C203.137 104.655 183.448 84.9644 183.448 60.6821V57.4151C183.448 33.1328 203.137 13.442 227.418 13.442C251.699 13.442 271.388 33.1328 271.388 57.4151V60.6821C271.417 84.9644 251.728 104.655 227.418 104.655Z" fill="#000E61"/>
<path d="M143.598 104.655H95.5071V53.2944C95.5071 31.2785 113.342 13.442 135.357 13.442H183.448V64.8028C183.448 86.8187 165.612 104.655 143.598 104.655Z" fill="white"/>
<path d="M95.301 104.655H40.4707C22.1939 104.655 7.3606 89.8209 7.3606 71.5429V13.442H95.301V104.655Z" fill="#0344DC"/>
<path d="M149.631 45.8773C151.485 45.2298 152.427 43.5227 152.427 41.845C152.427 39.6669 150.926 37.5183 147.895 37.5183H141.949V40.3145H147.335C148.601 40.3145 149.219 41.0797 149.219 41.845C149.219 42.6102 148.601 43.3755 147.335 43.3755H141.949V46.1422H146.099L149.749 51.3519H153.928L149.631 45.8773Z" fill="#000E61"/>
<path d="M128.323 72.3966H124.762C124.791 72.7203 124.85 72.9852 124.997 73.2207C125.144 73.4562 125.321 73.6327 125.556 73.7505C125.792 73.8682 126.027 73.9271 126.322 73.9271C126.675 73.9271 126.969 73.8388 127.234 73.6622C127.469 73.4856 127.646 73.2501 127.705 72.9558H128.293C128.176 73.3679 127.97 73.721 127.617 73.9859C127.263 74.2508 126.851 74.3686 126.322 74.3686C125.91 74.3686 125.556 74.2803 125.233 74.1037C124.909 73.9271 124.673 73.6622 124.497 73.3384C124.32 73.0147 124.232 72.632 124.232 72.1611C124.232 71.6902 124.32 71.337 124.497 70.9838C124.673 70.66 124.909 70.3951 125.233 70.2185C125.556 70.0419 125.91 69.9536 126.322 69.9536C126.734 69.9536 127.087 70.0419 127.381 70.2185C127.675 70.3951 127.911 70.6306 128.087 70.9249C128.264 71.2192 128.323 71.5724 128.323 71.9256C128.323 72.1611 128.323 72.2788 128.323 72.3966ZM127.587 71.1309C127.44 70.8955 127.263 70.7483 127.028 70.6306C126.792 70.5128 126.557 70.454 126.263 70.454C125.851 70.454 125.497 70.5717 125.233 70.8366C124.938 71.1015 124.791 71.4547 124.762 71.9551H127.764C127.764 71.6313 127.705 71.337 127.587 71.1309Z" fill="#000E61"/>
<path d="M131.207 74.3097L130.089 72.5731L129.029 74.3097H128.441L129.824 72.1611L128.47 70.0125H129.088L130.177 71.7196L131.237 70.0125H131.796L130.442 72.1316L131.825 74.3097H131.207Z" fill="#000E61"/>
<path d="M138.595 74.1037C138.271 73.9271 138.006 73.6622 137.829 73.3384C137.653 73.0147 137.564 72.632 137.564 72.1611C137.564 71.6902 137.653 71.337 137.859 70.9838C138.035 70.66 138.3 70.3951 138.624 70.2185C138.948 70.0419 139.301 69.9536 139.713 69.9536C140.125 69.9536 140.478 70.0419 140.802 70.2185C141.126 70.3951 141.391 70.66 141.567 70.9838C141.744 71.3075 141.832 71.6902 141.832 72.1611C141.832 72.6026 141.744 72.9852 141.538 73.309C141.361 73.6327 141.096 73.8976 140.772 74.0742C140.449 74.2508 140.066 74.3391 139.684 74.3391C139.271 74.398 138.918 74.2803 138.595 74.1037ZM140.478 73.7211C140.714 73.6033 140.92 73.3973 141.067 73.1324C141.214 72.8675 141.302 72.5437 141.302 72.1905C141.302 71.8079 141.243 71.4841 141.096 71.2487C140.949 70.9838 140.743 70.8072 140.508 70.66C140.272 70.5423 140.007 70.454 139.713 70.454C139.419 70.454 139.183 70.5128 138.918 70.66C138.683 70.7777 138.477 70.9838 138.33 71.2487C138.183 71.5136 138.124 71.8373 138.124 72.1905C138.124 72.5732 138.183 72.8969 138.33 73.1324C138.477 73.3973 138.653 73.5739 138.889 73.7211C139.124 73.8388 139.389 73.9271 139.684 73.9271C139.978 73.8976 140.213 73.8388 140.478 73.7211Z" fill="#000E61"/>
<path d="M143.568 70.1891C143.804 70.0419 144.128 69.983 144.481 69.983V70.5423H144.334C143.922 70.5423 143.627 70.66 143.362 70.866C143.127 71.0721 143.009 71.4253 143.009 71.955V74.3391H142.45V70.0419H143.009V70.8072C143.156 70.5423 143.333 70.3362 143.568 70.1891Z" fill="#000E61"/>
<path d="M148.807 72.3966H145.246C145.275 72.7203 145.334 72.9852 145.481 73.2207C145.628 73.4562 145.805 73.6327 146.04 73.7505C146.276 73.8682 146.511 73.9271 146.806 73.9271C147.159 73.9271 147.453 73.8388 147.718 73.6622C147.953 73.4856 148.13 73.2501 148.189 72.9558H148.778C148.66 73.3679 148.454 73.721 148.101 73.9859C147.747 74.2508 147.335 74.3686 146.806 74.3686C146.394 74.3686 146.04 74.2803 145.717 74.1037C145.393 73.9271 145.158 73.6622 144.981 73.3384C144.804 73.0147 144.716 72.632 144.716 72.1611C144.716 71.6902 144.804 71.337 144.981 70.9838C145.158 70.66 145.393 70.3951 145.717 70.2185C146.04 70.0419 146.394 69.9536 146.806 69.9536C147.218 69.9536 147.571 70.0419 147.865 70.2185C148.16 70.3951 148.395 70.6306 148.572 70.9249C148.748 71.2192 148.807 71.5724 148.807 71.9256C148.836 72.1611 148.836 72.2788 148.807 72.3966ZM148.071 71.1309C147.924 70.8955 147.747 70.7483 147.512 70.6306C147.277 70.5128 147.041 70.454 146.747 70.454C146.335 70.454 145.982 70.5717 145.717 70.8366C145.422 71.1015 145.275 71.4547 145.246 71.9551H148.248C148.277 71.6313 148.218 71.337 148.071 71.1309Z" fill="#000E61"/>
<path d="M136.946 69.9536H136.387V74.3097H136.946V69.9536Z" fill="#000E61"/>
<path d="M132.738 73.3678V70.9837V70.0419H132.208V74.3097H132.738V73.3678Z" fill="#000E61"/>
<path d="M135.533 70.8072C135.386 70.5423 135.21 70.3362 134.945 70.1891C134.709 70.0419 134.415 69.983 134.091 69.983C133.768 69.983 133.473 70.0713 133.238 70.2185C133.002 70.3657 132.826 70.5717 132.708 70.8072V71.7784C132.708 71.5136 132.767 71.2487 132.885 71.0426C133.002 70.8366 133.149 70.66 133.355 70.5717C133.562 70.454 133.768 70.3951 134.003 70.3951C134.238 70.3951 134.474 70.454 134.65 70.5717C134.856 70.6894 135.004 70.8366 135.121 71.0426C135.239 71.2487 135.298 71.4841 135.298 71.7784C135.298 72.0728 135.239 72.3082 135.121 72.5143C135.004 72.7203 134.856 72.8969 134.65 72.9852C134.444 73.1029 134.238 73.1618 134.003 73.1618C133.768 73.1618 133.562 73.1029 133.355 72.9852C133.149 72.8675 133.002 72.7203 132.885 72.5143C132.767 72.3082 132.708 72.0728 132.708 71.7784V72.7497C132.826 72.9852 133.002 73.1618 133.238 73.3384C133.473 73.4856 133.768 73.5739 134.091 73.5739C134.415 73.5739 134.68 73.515 134.945 73.3678C135.18 73.2207 135.386 73.0146 135.533 72.7497C135.681 72.4848 135.739 72.1611 135.739 71.8079C135.769 71.3958 135.681 71.0721 135.533 70.8072Z" fill="#000E61"/>
<path d="M132.061 51.7934C128.411 51.7934 124.173 49.3504 124.173 44.4057C124.173 39.4609 128.411 37.0179 132.061 37.0179C135.681 37.0179 139.948 39.4609 139.948 44.4057C139.948 49.3504 135.681 51.7934 132.061 51.7934ZM132.061 40.2262C129.971 40.2262 127.587 41.6095 127.587 44.4351C127.587 47.2607 130 48.6146 132.061 48.6146C134.121 48.6146 136.534 47.2607 136.534 44.4351C136.534 41.6095 134.121 40.2262 132.061 40.2262ZM135.328 41.9333C136.269 41.9333 136.858 42.5514 136.858 43.4638C136.858 44.4057 136.269 44.9943 135.328 44.9943C134.386 44.9943 133.797 44.4057 133.797 43.4638C133.797 42.5514 134.386 41.9333 135.328 41.9333Z" fill="#000E61"/>
<path d="M143.362 53.6182V56.4143H140.007V53.6182H143.362ZM140.037 58.5629H143.392V67.4517H140.037V58.5629Z" fill="#000E61"/>
<path d="M124.497 53.6182V67.4517H127.852V59.2399L132.532 67.4517H135.857L127.852 53.6182H124.497Z" fill="#000E61"/>
<path d="M138.565 53.6182L134.474 60.741L136.152 63.4488L138.565 59.2399V53.6182Z" fill="#000E61"/>
<path d="M145.217 59.7108L149.837 53.6182H153.722L148.984 59.7991L154.605 67.4517H150.691L145.217 59.7108Z" fill="#000E61"/>
<path d="M153.428 70.9543C153.222 70.9543 153.074 71.1309 153.074 71.3664C153.074 71.4253 153.074 71.4841 153.104 71.543L153.545 70.9838C153.516 70.9543 153.486 70.9543 153.428 70.9543Z" fill="#000E61"/>
<path d="M153.31 71.7489C153.339 71.7489 153.398 71.7784 153.428 71.7784C153.634 71.7784 153.781 71.6018 153.781 71.3663C153.781 71.3074 153.781 71.2486 153.752 71.1897L153.31 71.7489Z" fill="#000E61"/>
<path d="M150.72 70.0125V74.2803H154.605V70.0125H150.72ZM152.486 73.4856V73.7799H151.309V73.4856C151.309 73.1618 151.485 72.9558 151.838 72.9558H151.956C152.044 72.9558 152.133 72.8969 152.133 72.838C152.133 72.7792 152.074 72.7203 151.956 72.7203H151.426V72.426H152.044C152.309 72.426 152.545 72.6026 152.545 72.838C152.545 73.1029 152.339 73.2501 152.015 73.2501H151.868C151.75 73.2501 151.691 73.3384 151.691 73.4856H152.486ZM152.015 71.5135H151.868C151.75 71.5135 151.691 71.6018 151.691 71.749H152.486V72.0433H151.309V71.749C151.309 71.4252 151.485 71.2192 151.838 71.2192H151.956C152.044 71.2192 152.133 71.1603 152.133 71.1015C152.133 71.0426 152.074 70.9837 151.956 70.9837H151.426V70.6894H152.044C152.309 70.6894 152.545 70.866 152.545 71.1015C152.515 71.3664 152.309 71.5135 152.015 71.5135ZM153.398 73.7799H152.751V73.4856H153.31C153.428 73.4856 153.487 73.4267 153.487 73.3678C153.487 73.2795 153.428 73.2501 153.31 73.2501H152.751V72.426H153.781V72.7203H153.163V72.9263H153.369C153.634 72.9263 153.899 73.0735 153.899 73.3678C153.899 73.6033 153.663 73.7799 153.398 73.7799ZM153.428 72.0728C152.986 72.0728 152.662 71.7784 152.662 71.3664C152.662 70.9249 152.957 70.66 153.428 70.66C153.869 70.66 154.193 70.9543 154.193 71.3664C154.193 71.7784 153.899 72.0728 153.428 72.0728Z" fill="#000E61"/>
<path d="M62.3969 45.8773C64.251 45.2298 65.1928 43.5227 65.1928 41.845C65.1928 39.6669 63.6919 37.5183 60.6604 37.5183H54.7153V40.3145H60.1012C61.3668 40.3145 61.9848 41.0797 61.9848 41.845C61.9848 42.6102 61.3668 43.3755 60.1012 43.3755H54.7153V46.1422H58.8651L62.5146 51.3519H66.6938L62.3969 45.8773Z" fill="#E2DC00"/>
<path d="M41.0592 72.3966H37.498C37.5275 72.7203 37.5863 72.9852 37.7335 73.2207C37.8806 73.4562 38.0572 73.6327 38.2927 73.7505C38.5281 73.8682 38.7636 73.9271 39.0579 73.9271C39.4111 73.9271 39.7054 73.8388 39.9702 73.6622C40.2057 73.4856 40.3823 73.2501 40.4411 72.9558H41.0298C40.912 73.3679 40.706 73.721 40.3529 73.9859C39.9997 74.2508 39.5876 74.3686 39.0579 74.3686C38.6458 74.3686 38.2927 74.2803 37.9689 74.1037C37.6452 73.9271 37.4097 73.6622 37.2331 73.3384C37.0566 73.0147 36.9683 72.632 36.9683 72.1611C36.9683 71.6902 37.0566 71.337 37.2331 70.9838C37.4097 70.66 37.6452 70.3951 37.9689 70.2185C38.2927 70.0419 38.6458 69.9536 39.0579 69.9536C39.4699 69.9536 39.8231 70.0419 40.1174 70.2185C40.4117 70.3951 40.6472 70.6306 40.8237 70.9249C41.0003 71.2192 41.0592 71.5724 41.0592 71.9256C41.0886 72.1611 41.0886 72.2788 41.0592 72.3966ZM40.3234 71.1309C40.1763 70.8955 39.9997 70.7483 39.7642 70.6306C39.5288 70.5128 39.2933 70.454 38.999 70.454C38.587 70.454 38.2338 70.5717 37.9689 70.8366C37.6746 71.1015 37.5275 71.4547 37.498 71.9551H40.5C40.5294 71.6313 40.4706 71.337 40.3234 71.1309Z" fill="#E2DC00"/>
<path d="M43.9728 74.3097L42.8544 72.5731L41.7949 74.3097H41.2063L42.5896 72.1611L41.2357 70.0125H41.8538L42.9427 71.7196L44.0023 70.0125H44.5615L43.2076 72.1316L44.5909 74.3097H43.9728Z" fill="#E2DC00"/>
<path d="M51.3602 74.1037C51.0364 73.9271 50.7715 73.6622 50.595 73.3384C50.4184 73.0147 50.3301 72.632 50.3301 72.1611C50.3301 71.6902 50.4184 71.337 50.6244 70.9838C50.801 70.66 51.0659 70.3951 51.3896 70.2185C51.7133 70.0419 52.0665 69.9536 52.4786 69.9536C52.8906 69.9536 53.2438 70.0419 53.5675 70.2185C53.8913 70.3951 54.1561 70.66 54.3327 70.9838C54.5093 71.3075 54.5976 71.6902 54.5976 72.1611C54.5976 72.6026 54.5093 72.9852 54.3033 73.309C54.1267 73.6327 53.8618 73.8976 53.5381 74.0742C53.2143 74.2508 52.8317 74.3391 52.4491 74.3391C52.0371 74.398 51.6545 74.2803 51.3602 74.1037ZM53.2143 73.7211C53.4498 73.6033 53.6558 73.3973 53.803 73.1324C53.9501 72.8675 54.0384 72.5437 54.0384 72.1905C54.0384 71.8079 53.9795 71.4841 53.8324 71.2487C53.6852 70.9838 53.4792 70.8072 53.2438 70.66C53.0083 70.5423 52.7434 70.454 52.4491 70.454C52.1548 70.454 51.9194 70.5128 51.6545 70.66C51.419 70.7777 51.213 70.9838 51.0659 71.2487C50.9187 71.5136 50.8598 71.8373 50.8598 72.1905C50.8598 72.5732 50.9187 72.8969 51.0659 73.1324C51.213 73.3973 51.3896 73.5739 51.625 73.7211C51.8605 73.8388 52.1254 73.9271 52.4197 73.9271C52.714 73.9271 52.9789 73.8388 53.2143 73.7211Z" fill="#E2DC00"/>
<path d="M56.334 70.1891C56.5694 70.0419 56.8932 69.983 57.2463 69.983V70.5423H57.0992C56.6871 70.5423 56.3928 70.66 56.1279 70.866C55.8925 71.0721 55.7748 71.4253 55.7748 71.955V74.3391H55.2156V70.0419H55.7748V70.8072C55.8925 70.5423 56.0985 70.3362 56.334 70.1891Z" fill="#E2DC00"/>
<path d="M61.5729 72.3966H58.0117C58.0411 72.7203 58.1 72.9852 58.2471 73.2207C58.3943 73.4562 58.5709 73.6327 58.8063 73.7505C59.0418 73.8682 59.2772 73.9271 59.5715 73.9271C59.9247 73.9271 60.219 73.8388 60.4839 73.6622C60.7194 73.4856 60.896 73.2501 60.9548 72.9558H61.5434C61.4257 73.3679 61.2197 73.721 60.8665 73.9859C60.5133 74.2508 60.1013 74.3686 59.5715 74.3686C59.1595 74.3686 58.8063 74.2803 58.4826 74.1037C58.1588 73.9271 57.9234 73.6622 57.7468 73.3384C57.5702 73.0147 57.4819 72.632 57.4819 72.1611C57.4819 71.6902 57.5702 71.337 57.7468 70.9838C57.9234 70.66 58.1588 70.3951 58.4826 70.2185C58.8063 70.0419 59.1595 69.9536 59.5715 69.9536C59.9836 69.9536 60.3368 70.0419 60.6311 70.2185C60.9254 70.3951 61.1608 70.6306 61.3374 70.9249C61.514 71.2192 61.5729 71.5724 61.5729 71.9256C61.5729 72.1611 61.5729 72.2788 61.5729 72.3966ZM60.8371 71.1309C60.6899 70.8955 60.5133 70.7483 60.2779 70.6306C60.0424 70.5128 59.807 70.454 59.5127 70.454C59.1006 70.454 58.7475 70.5717 58.4826 70.8366C58.1883 71.1015 58.0411 71.4547 58.0117 71.9551H61.0137C61.0431 71.6313 60.9548 71.337 60.8371 71.1309Z" fill="#E2DC00"/>
<path d="M49.6825 69.9536H49.1233V74.3097H49.6825V69.9536Z" fill="#E2DC00"/>
<path d="M45.5034 73.3678V70.9837V70.0419H44.9736V74.3097H45.5034V73.3678Z" fill="#E2DC00"/>
<path d="M48.2993 70.8072C48.1521 70.5423 47.9755 70.3362 47.7107 70.1891C47.4752 70.0419 47.1809 69.983 46.8571 69.983C46.5334 69.983 46.2391 70.0713 46.0036 70.2185C45.7682 70.3657 45.5916 70.5717 45.4739 70.8072V71.7784C45.4739 71.5136 45.5327 71.2487 45.6505 71.0426C45.7682 70.8366 45.9153 70.66 46.1214 70.5717C46.3274 70.454 46.5334 70.3951 46.7688 70.3951C47.0043 70.3951 47.2398 70.454 47.4163 70.5717C47.6224 70.6894 47.7695 70.8366 47.8872 71.0426C48.005 71.2487 48.0638 71.4841 48.0638 71.7784C48.0638 72.0728 48.005 72.3082 47.8872 72.5143C47.7695 72.7203 47.6224 72.8969 47.4163 72.9852C47.2103 73.1029 47.0043 73.1618 46.7688 73.1618C46.5334 73.1618 46.3274 73.1029 46.1214 72.9852C45.9153 72.8675 45.7682 72.7203 45.6505 72.5143C45.5327 72.3082 45.4739 72.0728 45.4739 71.7784V72.7497C45.5916 72.9852 45.7682 73.1618 46.0036 73.3384C46.2391 73.4856 46.5334 73.5739 46.8571 73.5739C47.1809 73.5739 47.4458 73.515 47.7107 73.3678C47.9461 73.2207 48.1521 73.0146 48.2993 72.7497C48.4464 72.4848 48.5053 72.1611 48.5053 71.8079C48.5053 71.3958 48.4464 71.0721 48.2993 70.8072Z" fill="#E2DC00"/>
<path d="M44.8265 51.7934C41.1771 51.7934 36.939 49.3504 36.939 44.4057C36.939 39.4609 41.1771 37.0179 44.8265 37.0179C48.4466 37.0179 52.7141 39.4609 52.7141 44.4057C52.7141 49.3504 48.4466 51.7934 44.8265 51.7934ZM44.8265 40.2262C42.7369 40.2262 40.353 41.6095 40.353 44.4351C40.353 47.2607 42.7663 48.6146 44.8265 48.6146C46.8867 48.6146 49.3001 47.2607 49.3001 44.4351C49.3001 41.6095 46.8867 40.2262 44.8265 40.2262ZM48.0934 41.9333C49.0352 41.9333 49.6238 42.5514 49.6238 43.4638C49.6238 44.4057 49.0352 44.9943 48.0934 44.9943C47.1516 44.9943 46.563 44.4057 46.563 43.4638C46.5335 42.5514 47.1222 41.9333 48.0934 41.9333Z" fill="#E2DC00"/>
<path d="M56.1281 53.6182V56.4143H52.7729V53.6182H56.1281ZM52.7729 58.5629H56.1281V67.4517H52.7729V58.5629Z" fill="#E2DC00"/>
<path d="M37.2627 53.6182V67.4517H40.5884V59.2399L45.268 67.4517H48.5937L40.5884 53.6182H37.2627Z" fill="#E2DC00"/>
<path d="M51.3014 53.6182L47.2104 60.741L48.888 63.4488L51.3014 59.2399V53.6182Z" fill="#E2DC00"/>
<path d="M57.9529 59.7108L62.5736 53.6182H66.4879L61.7495 59.7991L67.3709 67.4517H63.4565L57.9529 59.7108Z" fill="#E2DC00"/>
<path d="M66.1937 70.9543C65.9877 70.9543 65.8406 71.1309 65.8406 71.3664C65.8406 71.4253 65.8406 71.4841 65.87 71.543L66.3115 70.9838C66.282 70.9543 66.2232 70.9543 66.1937 70.9543Z" fill="#E2DC00"/>
<path d="M66.0759 71.7489C66.1054 71.7489 66.1642 71.7784 66.1937 71.7784C66.3997 71.7784 66.5468 71.6018 66.5468 71.3663C66.5468 71.3074 66.5468 71.2486 66.5174 71.1897L66.0759 71.7489Z" fill="#E2DC00"/>
<path d="M63.4858 70.0125V74.2803H67.3708V70.0125H63.4858ZM65.2223 73.4856V73.7799H64.045V73.4856C64.045 73.1618 64.2216 72.9558 64.5748 72.9558H64.6925C64.7808 72.9558 64.8691 72.8969 64.8691 72.838C64.8691 72.7792 64.8102 72.7203 64.6925 72.7203H64.1628V72.426H64.7808C65.0457 72.426 65.2811 72.6026 65.2811 72.838C65.2811 73.1029 65.0751 73.2501 64.7514 73.2501H64.6337C64.5159 73.2501 64.4571 73.3384 64.4571 73.4856H65.2223ZM64.7514 71.5135H64.6337C64.5159 71.5135 64.4571 71.6018 64.4571 71.749H65.2517V72.0433H64.0745V71.749C64.0745 71.4252 64.2511 71.2192 64.6042 71.2192H64.7219C64.8102 71.2192 64.8985 71.1603 64.8985 71.1015C64.8985 71.0426 64.8397 70.9837 64.7219 70.9837H64.1628V70.6894H64.7808C65.0457 70.6894 65.2811 70.866 65.2811 71.1015C65.2811 71.3664 65.0751 71.5135 64.7514 71.5135ZM66.1346 73.7799H65.5166V73.4856H66.0758C66.1935 73.4856 66.2524 73.4267 66.2524 73.3678C66.2524 73.2795 66.1935 73.2501 66.0758 73.2501H65.5166V72.426H66.5467V72.7203H65.9286V72.9263H66.1346C66.3995 72.9263 66.6644 73.0735 66.6644 73.3678C66.635 73.6033 66.3995 73.7799 66.1346 73.7799ZM66.1935 72.0728C65.752 72.0728 65.4283 71.7784 65.4283 71.3664C65.4283 70.9249 65.7226 70.66 66.1935 70.66C66.635 70.66 66.9587 70.9543 66.9587 71.3664C66.9293 71.7784 66.635 72.0728 66.1935 72.0728Z" fill="#E2DC00"/>
<path d="M239.131 39.6608C237.447 41.637 234.948 42.9021 232.167 42.9021C229.386 42.9021 226.876 41.637 225.203 39.6608H218.71C220.896 44.9515 226.113 48.7053 232.178 48.7053C238.232 48.7053 243.46 44.9515 245.645 39.6608H239.131Z" fill="white"/>
<path d="M222.108 59.1613C224.451 56.8819 227.953 55.9095 231.278 56.9656C234.603 58.0216 236.904 60.8238 237.5 64.0443L243.167 65.8427C243.386 59.475 239.382 53.4523 233.035 51.4343C226.688 49.4163 219.933 52.0303 216.441 57.3524L222.108 59.1613Z" fill="white"/>
<path d="M219.369 63.4065L217.048 60.7193L213.284 64.243L213.649 64.6821C213.66 64.6926 214.883 66.1982 214.078 67.1288C213.378 67.9339 212.447 67.4739 212.186 67.317L209.247 63.8456L214.172 59.4332L215.071 58.6176L212.97 56.3173L204.605 63.7097L209.749 69.8788C210.032 70.2134 210.387 70.4643 210.785 70.6316C210.931 70.6839 211.454 70.8826 212.175 70.9453C213.859 71.1021 215.385 70.4852 216.483 69.2305C217.466 68.1012 217.811 66.6792 217.466 65.2049L219.369 63.4065Z" fill="white"/>
<path d="M245.363 66.3447L241.975 65.2677L240.605 70.2448L241.149 70.433C241.17 70.4435 243 71.0813 242.79 72.2942C242.613 73.3398 241.578 73.4339 241.274 73.4444L236.956 72.0119L238.849 65.6755H238.859L239.194 64.5149L236.193 63.6366L232.92 74.3122L240.532 76.8844C240.94 77.0204 241.379 77.0517 241.808 76.9785C241.964 76.9472 242.508 76.8426 243.156 76.5185C244.673 75.7656 245.655 74.4586 245.938 72.817C246.189 71.3323 245.739 69.9521 244.673 68.8646L245.363 66.3447Z" fill="white"/>
<path d="M277.4 3.84058L7.3606 13.442V104.655H270.919L277.4 3.84058Z" stroke="#000E61" stroke-width="3" stroke-linecap="round"/>
<rect x="5.5" y="11.5815" width="3.2409" height="3.2409" fill="#000E61" stroke="#000E61" stroke-width="3"/>
<rect x="5.97998" y="102.795" width="3.2409" height="3.2409" fill="#000E61" stroke="#000E61" stroke-width="3"/>
<rect x="276.259" y="1.5" width="3.2409" height="3.2409" fill="#000E61" stroke="#000E61" stroke-width="3"/>
<rect x="139.919" y="6.78088" width="3.2409" height="3.2409" fill="#000E61" stroke="#000E61" stroke-width="3"/>
<rect x="139.919" y="102.795" width="3.2409" height="3.2409" fill="#000E61" stroke="#000E61" stroke-width="3"/>
<rect x="270.018" y="102.795" width="3.2409" height="3.2409" fill="#000E61" stroke="#000E61" stroke-width="3"/>
</g>
<defs>
<filter id="filter0_d_0_146" x="0" y="0" width="285" height="115.536" filterUnits="userSpaceOnUse" color-interpolation-filters="sRGB">
<feFlood flood-opacity="0" result="BackgroundImageFix"/>
<feColorMatrix in="SourceAlpha" type="matrix" values="0 0 0 0 0 0 0 0 0 0 0 0 0 0 0 0 0 0 127 0" result="hardAlpha"/>
<feOffset dy="4"/>
<feGaussianBlur stdDeviation="2"/>
<feComposite in2="hardAlpha" operator="out"/>
<feColorMatrix type="matrix" values="0 0 0 0 0 0 0 0 0 0 0 0 0 0 0 0 0 0 0.15 0"/>
<feBlend mode="normal" in2="BackgroundImageFix" result="effect1_dropShadow_0_146"/>
<feBlend mode="normal" in="SourceGraphic" in2="effect1_dropShadow_0_146" result="shape"/>
</filter>
</defs>
</svg>
