<svg width="814" height="150" viewBox="0 0 814 150" fill="none" xmlns="http://www.w3.org/2000/svg">
<g filter="url(#filter0_ii_0_29)">
<path d="M68.1961 114.156L53.0716 95.2588L49.8396 95.8183L53.4553 116.708L39.9757 119.041L30.3976 63.7036L53.0212 59.7877C57.383 59.0328 61.2198 59.1535 64.5316 60.15C67.896 61.1373 70.5721 62.8391 72.56 65.2555C74.5388 67.6193 75.8102 70.4303 76.3742 73.6886C77.0109 77.3672 76.5283 80.8336 74.9265 84.0878C73.3773 87.3329 70.684 89.91 66.8467 91.8191L83.4099 111.523L68.1961 114.156ZM48.1887 86.2801L56.5445 84.8338C59.0144 84.4063 60.7491 83.4836 61.7486 82.0657C62.8006 80.6387 63.1356 78.8216 62.7536 76.6144C62.3898 74.5123 61.4726 72.9661 60.0022 71.9757C58.5843 70.9762 56.6403 70.6902 54.1704 71.1178L45.8146 72.564L48.1887 86.2801ZM97.6838 63.6812L99.3276 74.9217L117.455 72.2707L118.983 82.7196L100.856 85.3705L102.638 97.5609L123.14 94.5626L124.726 105.407L90.6884 110.385L82.5618 54.8161L116.6 49.8383L118.186 60.683L97.6838 63.6812ZM166.328 90.3629L145.515 92.8439L143.353 103.092L129.134 104.787L142.663 46.6165L158.392 44.7415L185.217 98.1014L170.839 99.8154L166.328 90.3629ZM161.583 80.2938L152.238 60.7022L147.84 81.932L161.583 80.2938ZM206.494 39.787C212.391 39.2589 217.648 39.966 222.267 41.9084C226.885 43.8509 230.58 46.8398 233.351 50.8754C236.17 54.8531 237.827 59.6042 238.322 65.1287C238.812 70.6002 238.026 75.5701 235.963 80.0386C233.953 84.5024 230.822 88.1028 226.569 90.8397C222.369 93.5719 217.348 95.1997 211.504 95.7231L190.548 97.6001L185.538 41.664L206.494 39.787ZM209.572 84.0088C214.724 83.5473 218.609 81.7804 221.225 78.7081C223.842 75.6357 224.919 71.5232 224.458 66.3705C223.996 61.2178 222.203 57.3357 219.077 54.7241C215.952 52.1125 211.813 51.0374 206.66 51.4989L200.206 52.077L203.118 84.5869L209.572 84.0088ZM292.252 33.5445L275.2 72.286L276.36 90.8097L262.707 91.6647L261.547 73.141L239.795 36.8295L255.285 35.8595L267.613 58.6536L276.922 34.5045L292.252 33.5445ZM355.969 31.3121L356.304 42.267L341.431 42.7218L342.812 87.9007L329.139 88.3188L327.757 43.1399L312.884 43.5948L312.549 32.6399L355.969 31.3121ZM390.386 87.8078C385.106 87.8333 380.247 86.6302 375.808 84.1983C371.423 81.7662 367.913 78.3698 365.279 74.0092C362.697 69.595 361.393 64.6413 361.367 59.148C361.34 53.6547 362.596 48.7153 365.135 44.3296C367.727 39.9436 371.204 36.5134 375.565 34.0389C379.98 31.5642 384.827 30.314 390.107 30.2884C395.387 30.2628 400.22 31.4661 404.605 33.8982C409.043 36.3301 412.527 39.7266 415.054 44.0877C417.636 48.4486 418.939 53.3757 418.966 58.869C418.993 64.3622 417.737 69.3284 415.198 73.7674C412.659 78.1531 409.209 81.5832 404.848 84.0576C400.487 86.5321 395.666 87.7822 390.386 87.8078ZM390.326 75.3279C394.805 75.3062 398.372 73.7956 401.024 70.796C403.729 67.7962 405.07 63.843 405.046 58.9364C405.022 53.9764 403.643 50.0364 400.909 47.1163C398.228 44.1426 394.647 42.6666 390.167 42.6883C385.634 42.7102 382.015 44.1945 379.309 47.1409C376.656 50.0872 375.342 54.0669 375.367 59.0802C375.391 64.0401 376.743 68.0069 379.424 70.9807C382.158 73.9008 385.792 75.3499 390.326 75.3279ZM457.669 42.6566L457.355 54.0123L475.668 54.5186L475.376 65.0746L457.063 64.5682L456.723 76.8835L477.435 77.4562L477.132 88.412L442.745 87.4612L444.297 31.3227L478.684 32.2735L478.381 43.2293L457.669 42.6566ZM519.706 90.4946L509.155 72.7356L498.214 89.4012L482.714 88.6126L502.142 61.0041L485.168 32.5048L501.068 33.3137L511.471 50.8249L522.24 34.3909L537.74 35.1794L518.484 62.5564L535.606 91.3035L519.706 90.4946ZM587.313 56.9994C587.066 60.2434 586.096 63.165 584.401 65.7642C582.71 68.3102 580.26 70.2904 577.05 71.7049C573.841 73.1194 569.949 73.6531 565.376 73.306L556.92 72.6643L555.394 92.7665L541.754 91.7312L546.004 35.7323L568.1 37.4093C572.567 37.7483 576.284 38.806 579.252 40.5823C582.219 42.3586 584.371 44.6614 585.708 47.4906C587.044 50.3199 587.579 53.4895 587.313 56.9994ZM565.162 62.3785C567.768 62.5763 569.755 62.112 571.124 60.9857C572.494 59.8595 573.263 58.1795 573.432 55.946C573.602 53.7124 573.095 51.9356 571.912 50.6156C570.728 49.2956 568.833 48.5367 566.227 48.3389L558.809 47.7759L557.743 61.8155L565.162 62.3785ZM605.581 86.3613L623.419 88.0802L622.406 98.5915L590.951 95.5603L596.339 39.6593L609.955 40.9715L605.581 86.3613ZM654.519 102.998C649.277 102.366 644.605 100.567 640.504 97.6013C636.456 94.6422 633.396 90.8353 631.325 86.1806C629.313 81.4793 628.636 76.4018 629.294 70.9479C629.951 65.4941 631.813 60.7494 634.878 56.7139C637.996 52.6848 641.872 49.7141 646.508 47.8019C651.196 45.896 656.162 45.2591 661.404 45.891C666.646 46.523 671.291 48.3185 675.339 51.2777C679.44 54.2432 682.473 58.0469 684.439 62.6889C686.457 67.3372 687.137 72.3882 686.48 77.8421C685.822 83.2959 683.958 88.0671 680.886 92.1555C677.821 96.191 673.971 99.1649 669.335 101.077C664.7 102.989 659.761 103.63 654.519 102.998ZM656.013 90.6073C660.461 91.1435 664.187 90.0886 667.192 87.4425C670.25 84.8029 672.072 81.0474 672.66 76.176C673.253 71.2516 672.376 67.1706 670.026 63.9328C667.736 60.6484 664.367 58.7381 659.919 58.2019C655.419 57.6593 651.643 58.6813 648.591 61.268C645.592 63.8611 643.793 67.6463 643.193 72.6236C642.599 77.5479 643.448 81.6523 645.738 84.9367C648.087 88.1745 651.512 90.0647 656.013 90.6073ZM718.208 111.019L709.761 88.3359L706.517 87.8552L703.409 108.826L689.877 106.821L698.108 51.2677L720.82 54.6329C725.199 55.2817 728.805 56.5978 731.639 58.5811C734.525 60.5723 736.533 63.0265 737.664 65.9439C738.804 68.8084 739.131 71.8762 738.646 75.1471C738.099 78.8402 736.555 81.9812 734.015 84.5701C731.528 87.1669 728.163 88.7711 723.921 89.3826L733.481 113.282L718.208 111.019ZM707.935 78.2797L716.324 79.5226C718.803 79.89 720.74 79.5569 722.133 78.5233C723.579 77.4975 724.466 75.8767 724.794 73.6609C725.107 71.5506 724.72 69.7949 723.634 68.3939C722.6 67.0007 720.844 66.1204 718.364 65.753L709.976 64.51L707.935 78.2797ZM761.977 72.2508L760.052 83.4467L778.108 86.55L776.319 96.9574L758.263 93.854L756.176 105.996L776.597 109.506L774.74 120.308L740.838 114.48L750.351 59.1319L784.254 64.9591L782.397 75.7607L761.977 72.2508Z" stroke="url(#paint0_linear_0_29)" stroke-width="59.3679" stroke-linejoin="round"/>
</g>
<defs>
<filter id="filter0_ii_0_29" x="-3.41244" y="-2.14339" width="817.35" height="157.635" filterUnits="userSpaceOnUse" color-interpolation-filters="sRGB">
<feFlood flood-opacity="0" result="BackgroundImageFix"/>
<feBlend mode="normal" in="SourceGraphic" in2="BackgroundImageFix" result="shape"/>
<feColorMatrix in="SourceAlpha" type="matrix" values="0 0 0 0 0 0 0 0 0 0 0 0 0 0 0 0 0 0 127 0" result="hardAlpha"/>
<feOffset dx="-4.12118" dy="5.4949"/>
<feGaussianBlur stdDeviation="5.15147"/>
<feComposite in2="hardAlpha" operator="arithmetic" k2="-1" k3="1"/>
<feColorMatrix type="matrix" values="0 0 0 0 1 0 0 0 0 1 0 0 0 0 1 0 0 0 0.7 0"/>
<feBlend mode="normal" in2="shape" result="effect1_innerShadow_0_29"/>
<feColorMatrix in="SourceAlpha" type="matrix" values="0 0 0 0 0 0 0 0 0 0 0 0 0 0 0 0 0 0 127 0" result="hardAlpha"/>
<feOffset dy="-2.74745"/>
<feGaussianBlur stdDeviation="4.8"/>
<feComposite in2="hardAlpha" operator="arithmetic" k2="-1" k3="1"/>
<feColorMatrix type="matrix" values="0 0 0 0 0 0 0 0 0 0 0 0 0 0 0 0 0 0 0.8 0"/>
<feBlend mode="normal" in2="effect1_innerShadow_0_29" result="effect2_innerShadow_0_29"/>
</filter>
<linearGradient id="paint0_linear_0_29" x1="407.018" y1="28.9917" x2="407.018" y2="140.476" gradientUnits="userSpaceOnUse">
<stop offset="0.625" stop-color="#000E61"/>
<stop offset="0.947115" stop-color="#013EF9"/>
</linearGradient>
</defs>
</svg>
