<svg width="755" height="91" viewBox="0 0 755 91" fill="none" xmlns="http://www.w3.org/2000/svg">
<path d="M38.196 84.1562L23.0714 65.2589L19.8395 65.8183L23.4551 86.7077L9.97556 89.0408L0.397473 33.7036L23.0211 29.7878C27.3829 29.0328 31.2197 29.1535 34.5315 30.15C37.8958 31.1373 40.572 32.8392 42.5599 35.2555C44.5387 37.6193 45.8101 40.4304 46.374 43.6886C47.0107 47.3672 46.5282 50.8336 44.9264 54.0878C43.3772 57.3329 40.6839 59.91 36.8466 61.8191L53.4097 81.523L38.196 84.1562ZM18.1886 56.2801L26.5443 54.8338C29.0143 54.4063 30.749 53.4836 31.7485 52.0657C32.8005 50.6387 33.1355 48.8216 32.7535 46.6144C32.3896 44.5124 31.4725 42.9661 30.002 41.9757C28.5841 40.9763 26.6402 40.6903 24.1703 41.1178L15.8145 42.564L18.1886 56.2801ZM67.6835 33.6813L69.3274 44.9217L87.4546 42.2707L88.9826 52.7196L70.8555 55.3706L72.6382 67.5609L93.1401 64.5626L94.7261 75.4073L60.6881 80.3851L52.5616 24.8162L86.5995 19.8384L88.1855 30.683L67.6835 33.6813ZM136.328 60.3629L115.515 62.844L113.353 73.0919L99.1337 74.787L112.663 16.6165L128.392 14.7415L155.217 68.1014L140.838 69.8154L136.328 60.3629ZM131.583 50.2938L122.238 30.7022L117.84 51.9321L131.583 50.2938ZM176.494 9.78704C182.391 9.25892 187.648 9.96606 192.266 11.9085C196.885 13.8509 200.579 16.8399 203.35 20.8754C206.17 24.8531 207.827 29.6042 208.322 35.1287C208.812 40.6002 208.025 45.5701 205.962 50.0387C203.953 54.5024 200.821 58.1028 196.569 60.8398C192.369 63.572 187.347 65.1998 181.504 65.7231L160.548 67.6001L155.538 11.664L176.494 9.78704ZM179.571 54.0088C184.724 53.5473 188.609 51.7804 191.225 48.7081C193.841 45.6358 194.919 41.5233 194.457 36.3705C193.996 31.2178 192.202 27.3357 189.077 24.7241C185.951 22.1125 181.812 21.0375 176.66 21.499L170.205 22.0771L173.117 54.5869L179.571 54.0088ZM262.252 3.54456L245.2 42.286L246.36 60.8098L232.707 61.6648L231.547 43.141L209.795 6.82954L225.284 5.85954L237.613 28.6536L246.922 4.50455L262.252 3.54456ZM325.968 1.31208L326.303 12.267L311.43 12.7218L312.812 57.9007L299.138 58.3188L297.757 13.1399L282.884 13.5948L282.549 2.63989L325.968 1.31208ZM360.386 57.8078C355.106 57.8333 350.247 56.6302 345.808 54.1983C341.423 51.7662 337.913 48.3699 335.279 44.0092C332.697 39.595 331.393 34.6413 331.367 29.148C331.34 23.6547 332.596 18.7153 335.135 14.3296C337.727 9.94363 341.204 6.51342 345.565 4.03893C349.98 1.56418 354.827 0.314012 360.107 0.288432C365.387 0.262853 370.22 1.46612 374.605 3.89824C379.043 6.3301 382.527 9.7266 385.054 14.0877C387.636 18.4486 388.939 23.3757 388.966 28.869C388.993 34.3622 387.737 39.3284 385.198 43.7674C382.659 48.1531 379.209 51.5832 374.848 54.0577C370.486 56.5321 365.666 57.7822 360.386 57.8078ZM360.325 45.3279C364.805 45.3062 368.371 43.7956 371.024 40.796C373.729 37.7962 375.07 33.843 375.046 28.9364C375.022 23.9765 373.643 20.0364 370.909 17.1163C368.228 14.1426 364.647 12.6666 360.167 12.6883C355.634 12.7102 352.014 14.1945 349.309 17.1409C346.656 20.0872 345.342 24.0669 345.367 29.0802C345.391 34.0401 346.743 38.007 349.424 40.9807C352.158 43.9008 355.792 45.3499 360.325 45.3279ZM427.669 12.6566L427.355 24.0123L445.668 24.5186L445.376 35.0746L427.063 34.5682L426.722 46.8835L447.434 47.4562L447.131 58.412L412.745 57.4612L414.297 1.32267L448.684 2.27349L448.381 13.2293L427.669 12.6566ZM489.706 60.4946L479.155 42.7355L468.214 59.4012L452.714 58.6126L472.142 31.0041L455.168 2.50483L471.067 3.31371L481.471 20.8249L492.24 4.39086L507.74 5.17941L488.484 32.5564L505.606 61.3035L489.706 60.4946ZM557.312 26.9994C557.066 30.2434 556.096 33.165 554.401 35.7641C552.71 38.3102 550.26 40.2904 547.05 41.7049C543.84 43.1194 539.949 43.6531 535.375 43.306L526.92 42.6643L525.394 62.7665L511.753 61.7312L516.003 5.73223L538.1 7.40923C542.567 7.74827 546.284 8.80594 549.252 10.5823C552.219 12.3586 554.371 14.6614 555.707 17.4906C557.044 20.3199 557.579 23.4894 557.312 26.9994ZM535.162 32.3785C537.768 32.5763 539.755 32.112 541.124 30.9857C542.493 29.8594 543.263 28.1795 543.432 25.9459C543.602 23.7124 543.095 21.9356 541.911 20.6155C540.728 19.2955 538.833 18.5366 536.227 18.3389L528.809 17.7758L527.743 31.8155L535.162 32.3785ZM575.581 56.3612L593.418 58.0802L592.405 68.5915L560.951 65.5603L566.338 9.65927L579.955 10.9715L575.581 56.3612ZM624.519 72.9975C619.277 72.3655 614.605 70.5668 610.504 67.6013C606.456 64.6421 603.396 60.8352 601.325 56.1805C599.313 51.4793 598.636 46.4017 599.293 40.9479C599.951 35.494 601.812 30.7494 604.877 26.7139C607.995 22.6848 611.872 19.7141 616.508 17.8019C621.196 15.896 626.161 15.259 631.403 15.891C636.645 16.523 641.291 18.3185 645.339 21.2776C649.44 24.2432 652.473 28.0469 654.438 32.6888C656.457 37.3371 657.137 42.3882 656.479 47.842C655.822 53.2959 653.957 58.067 650.886 62.1555C647.821 66.1909 643.971 69.1648 639.335 71.0771C634.7 72.9893 629.761 73.6295 624.519 72.9975ZM626.012 60.6072C630.46 61.1434 634.187 60.0885 637.192 57.4425C640.25 54.8029 642.072 51.0473 642.659 46.1759C643.253 41.2516 642.375 37.1705 640.026 33.9327C637.736 30.6484 634.367 28.7381 629.919 28.2019C625.418 27.6593 621.642 28.6813 618.591 31.268C615.592 33.8611 613.793 37.6463 613.193 42.6235C612.599 47.5479 613.447 51.6523 615.737 54.9366C618.087 58.1744 621.512 60.0646 626.012 60.6072ZM688.207 81.0189L679.761 58.3359L676.516 57.8551L673.409 78.8262L659.877 76.8211L668.108 21.2676L690.82 24.6329C695.199 25.2817 698.805 26.5978 701.638 28.5811C704.524 30.5723 706.533 33.0265 707.664 35.9438C708.803 38.8084 709.131 41.8762 708.646 45.1471C708.099 48.8401 706.555 51.9811 704.015 54.5701C701.527 57.1669 698.162 58.771 693.92 59.3825L703.481 83.2819L688.207 81.0189ZM677.935 48.2797L686.324 49.5226C688.803 49.89 690.74 49.5569 692.133 48.5232C693.579 47.4974 694.466 45.8766 694.794 43.6608C695.107 41.5505 694.72 39.7949 693.634 38.3938C692.6 37.0006 690.843 36.1203 688.364 35.7529L679.975 34.51L677.935 48.2797ZM731.976 42.2508L730.052 53.4466L748.107 56.55L746.318 66.9573L728.263 63.854L726.176 75.9959L746.597 79.5058L744.74 90.3074L710.837 84.4802L720.351 29.1318L754.253 34.9591L752.397 45.7607L731.976 42.2508Z" fill="#E2DC00"/>
</svg>
