<svg width="31" height="38" viewBox="0 0 31 38" fill="none" xmlns="http://www.w3.org/2000/svg">
<path d="M25.631 8.87731C27.4852 8.22978 28.427 6.52266 28.427 4.84497C28.427 2.66693 26.926 0.518311 23.8946 0.518311H17.9495V3.31445H23.3354C24.6009 3.31445 25.219 4.07971 25.219 4.84497C25.219 5.61024 24.6009 6.3755 23.3354 6.3755H17.9495V9.14221H22.0993L25.7487 14.3519H29.928L25.631 8.87731Z" fill="#000E61"/>
<path d="M4.32287 35.3966H0.761692C0.791123 35.7203 0.849991 35.9852 0.997147 36.2207C1.1443 36.4562 1.32089 36.6327 1.55634 36.7505C1.79179 36.8682 2.02724 36.9271 2.32155 36.9271C2.67473 36.9271 2.96903 36.8388 3.23391 36.6622C3.46936 36.4856 3.64595 36.2501 3.70481 35.9558H4.29344C4.17571 36.3679 3.9697 36.721 3.61652 36.9859C3.26335 37.2508 2.85131 37.3686 2.32155 37.3686C1.90951 37.3686 1.55634 37.2803 1.23259 37.1037C0.90885 36.9271 0.6734 36.6622 0.496813 36.3384C0.320225 36.0147 0.231934 35.632 0.231934 35.1611C0.231934 34.6902 0.320225 34.337 0.496813 33.9838C0.6734 33.66 0.90885 33.3951 1.23259 33.2185C1.55634 33.0419 1.90951 32.9536 2.32155 32.9536C2.73359 32.9536 3.08676 33.0419 3.38107 33.2185C3.67538 33.3951 3.91084 33.6306 4.08742 33.9249C4.26401 34.2192 4.32287 34.5724 4.32287 34.9256C4.32287 35.1611 4.32287 35.2788 4.32287 35.3966ZM3.58709 34.1309C3.43993 33.8955 3.26335 33.7483 3.0279 33.6306C2.79245 33.5128 2.557 33.454 2.26269 33.454C1.85065 33.454 1.49747 33.5717 1.23259 33.8366C0.938281 34.1015 0.791123 34.4547 0.761692 34.9551H3.76368C3.76368 34.6313 3.70481 34.337 3.58709 34.1309Z" fill="#000E61"/>
<path d="M7.20721 37.3097L6.08882 35.5731L5.0293 37.3097H4.44067L5.82394 35.1611L4.47011 33.0125H5.08816L6.17711 34.7196L7.23664 33.0125H7.79583L6.442 35.1316L7.82526 37.3097H7.20721Z" fill="#000E61"/>
<path d="M14.5945 37.1037C14.2708 36.9271 14.0059 36.6622 13.8293 36.3384C13.6527 36.0147 13.5645 35.632 13.5645 35.1611C13.5645 34.6902 13.6527 34.337 13.8588 33.9838C14.0354 33.66 14.3002 33.3951 14.624 33.2185C14.9477 33.0419 15.3009 32.9536 15.7129 32.9536C16.125 32.9536 16.4781 33.0419 16.8019 33.2185C17.1256 33.3951 17.3905 33.66 17.5671 33.9838C17.7437 34.3075 17.832 34.6902 17.832 35.1611C17.832 35.6026 17.7437 35.9852 17.5377 36.309C17.3611 36.6327 17.0962 36.8976 16.7725 37.0742C16.4487 37.2508 16.0661 37.3391 15.6835 37.3391C15.2715 37.398 14.9183 37.2803 14.5945 37.1037ZM16.4781 36.7211C16.7136 36.6033 16.9196 36.3973 17.0668 36.1324C17.2139 35.8675 17.3022 35.5437 17.3022 35.1905C17.3022 34.8079 17.2434 34.4841 17.0962 34.2487C16.949 33.9838 16.743 33.8072 16.5076 33.66C16.2721 33.5423 16.0072 33.454 15.7129 33.454C15.4186 33.454 15.1832 33.5128 14.9183 33.66C14.6828 33.7777 14.4768 33.9838 14.3297 34.2487C14.1825 34.5136 14.1236 34.8373 14.1236 35.1905C14.1236 35.5732 14.1825 35.8969 14.3297 36.1324C14.4768 36.3973 14.6534 36.5739 14.8889 36.7211C15.1243 36.8388 15.3892 36.9271 15.6835 36.9271C15.9778 36.8976 16.2133 36.8388 16.4781 36.7211Z" fill="#000E61"/>
<path d="M19.5683 33.1891C19.8038 33.0419 20.1275 32.983 20.4807 32.983V33.5423H20.3335C19.9215 33.5423 19.6272 33.66 19.3623 33.866C19.1269 34.0721 19.0091 34.4253 19.0091 34.955V37.3391H18.45V33.0419H19.0091V33.8072C19.1563 33.5423 19.3329 33.3362 19.5683 33.1891Z" fill="#000E61"/>
<path d="M24.807 35.3966H21.2458C21.2753 35.7203 21.3341 35.9852 21.4813 36.2207C21.6284 36.4562 21.805 36.6327 22.0405 36.7505C22.2759 36.8682 22.5114 36.9271 22.8057 36.9271C23.1588 36.9271 23.4532 36.8388 23.718 36.6622C23.9535 36.4856 24.1301 36.2501 24.1889 35.9558H24.7776C24.6598 36.3679 24.4538 36.721 24.1007 36.9859C23.7475 37.2508 23.3354 37.3686 22.8057 37.3686C22.3936 37.3686 22.0405 37.2803 21.7167 37.1037C21.393 36.9271 21.1575 36.6622 20.9809 36.3384C20.8044 36.0147 20.7161 35.632 20.7161 35.1611C20.7161 34.6902 20.8044 34.337 20.9809 33.9838C21.1575 33.66 21.393 33.3951 21.7167 33.2185C22.0405 33.0419 22.3936 32.9536 22.8057 32.9536C23.2177 32.9536 23.5709 33.0419 23.8652 33.2185C24.1595 33.3951 24.395 33.6306 24.5715 33.9249C24.7481 34.2192 24.807 34.5724 24.807 34.9256C24.8364 35.1611 24.8364 35.2788 24.807 35.3966ZM24.0712 34.1309C23.9241 33.8955 23.7475 33.7483 23.512 33.6306C23.2766 33.5128 23.0411 33.454 22.7468 33.454C22.3348 33.454 21.9816 33.5717 21.7167 33.8366C21.4224 34.1015 21.2753 34.4547 21.2458 34.9551H24.2478C24.2772 34.6313 24.2184 34.337 24.0712 34.1309Z" fill="#000E61"/>
<path d="M12.9462 32.9536H12.387V37.3097H12.9462V32.9536Z" fill="#000E61"/>
<path d="M8.73752 36.3678V33.9837V33.0419H8.20776V37.3097H8.73752V36.3678Z" fill="#000E61"/>
<path d="M11.5334 33.8072C11.3862 33.5423 11.2097 33.3362 10.9448 33.1891C10.7093 33.0419 10.415 32.983 10.0913 32.983C9.76753 32.983 9.47322 33.0713 9.23777 33.2185C9.00233 33.3657 8.82573 33.5717 8.70801 33.8072V34.7784C8.70801 34.5136 8.76687 34.2487 8.8846 34.0426C9.00232 33.8366 9.14948 33.66 9.3555 33.5717C9.56152 33.454 9.76753 33.3951 10.003 33.3951C10.2384 33.3951 10.4739 33.454 10.6505 33.5717C10.8565 33.6894 11.0036 33.8366 11.1214 34.0426C11.2391 34.2487 11.298 34.4841 11.298 34.7784C11.298 35.0728 11.2391 35.3082 11.1214 35.5143C11.0036 35.7203 10.8565 35.8969 10.6505 35.9852C10.4445 36.1029 10.2384 36.1618 10.003 36.1618C9.76753 36.1618 9.56152 36.1029 9.3555 35.9852C9.14948 35.8675 9.00232 35.7203 8.8846 35.5143C8.76687 35.3082 8.70801 35.0728 8.70801 34.7784V35.7497C8.82573 35.9852 9.00233 36.1618 9.23777 36.3384C9.47322 36.4856 9.76753 36.5739 10.0913 36.5739C10.415 36.5739 10.6799 36.515 10.9448 36.3678C11.1802 36.2207 11.3862 36.0146 11.5334 35.7497C11.6806 35.4848 11.7394 35.1611 11.7394 34.8079C11.7689 34.3958 11.6806 34.0721 11.5334 33.8072Z" fill="#000E61"/>
<path d="M8.06067 14.7934C4.4112 14.7934 0.173096 12.3504 0.173096 7.40565C0.173096 2.46089 4.4112 0.0179443 8.06067 0.0179443C11.6807 0.0179443 15.9482 2.46089 15.9482 7.40565C15.9482 12.3504 11.6807 14.7934 8.06067 14.7934ZM8.06067 3.22615C5.97105 3.22615 3.58712 4.60951 3.58712 7.43509C3.58712 10.2607 6.00048 11.6146 8.06067 11.6146C10.1208 11.6146 12.5342 10.2607 12.5342 7.43509C12.5342 4.60951 10.1208 3.22615 8.06067 3.22615ZM11.3275 4.93327C12.2693 4.93327 12.8579 5.55137 12.8579 6.46379C12.8579 7.40565 12.2693 7.99431 11.3275 7.99431C10.3857 7.99431 9.7971 7.40565 9.7971 6.46379C9.7971 5.55137 10.3857 4.93327 11.3275 4.93327Z" fill="#000E61"/>
<path d="M19.3622 16.6182V19.4143H16.0071V16.6182H19.3622ZM16.0365 21.5629H19.3917V30.4517H16.0365V21.5629Z" fill="#000E61"/>
<path d="M0.496826 16.6182V30.4517H3.85198V22.2399L8.53154 30.4517H11.8573L3.85198 16.6182H0.496826Z" fill="#000E61"/>
<path d="M14.5651 16.6182L10.4741 23.741L12.1517 26.4488L14.5651 22.2399V16.6182Z" fill="#000E61"/>
<path d="M21.2166 22.7108L25.8373 16.6182H29.7222L24.9838 22.7991L30.6051 30.4517H26.6908L21.2166 22.7108Z" fill="#000E61"/>
<path d="M29.4276 33.9543C29.2216 33.9543 29.0745 34.1309 29.0745 34.3664C29.0745 34.4253 29.0745 34.4841 29.1039 34.543L29.5454 33.9838C29.5159 33.9543 29.4865 33.9543 29.4276 33.9543Z" fill="#000E61"/>
<path d="M29.3101 34.7489C29.3395 34.7489 29.3984 34.7784 29.4278 34.7784C29.6338 34.7784 29.781 34.6018 29.781 34.3663C29.781 34.3074 29.781 34.2486 29.7515 34.1897L29.3101 34.7489Z" fill="#000E61"/>
<path d="M26.72 33.0125V37.2803H30.6049V33.0125H26.72ZM28.4858 36.4856V36.7799H27.3086V36.4856C27.3086 36.1618 27.4852 35.9558 27.8384 35.9558H27.9561C28.0444 35.9558 28.1327 35.8969 28.1327 35.838C28.1327 35.7792 28.0738 35.7203 27.9561 35.7203H27.4263V35.426H28.0444C28.3093 35.426 28.5447 35.6026 28.5447 35.838C28.5447 36.1029 28.3387 36.2501 28.0149 36.2501H27.8678C27.7501 36.2501 27.6912 36.3384 27.6912 36.4856H28.4858ZM28.0149 34.5135H27.8678C27.7501 34.5135 27.6912 34.6018 27.6912 34.749H28.4858V35.0433H27.3086V34.749C27.3086 34.4252 27.4852 34.2192 27.8384 34.2192H27.9561C28.0444 34.2192 28.1327 34.1603 28.1327 34.1015C28.1327 34.0426 28.0738 33.9837 27.9561 33.9837H27.4263V33.6894H28.0444C28.3093 33.6894 28.5447 33.866 28.5447 34.1015C28.5153 34.3664 28.3093 34.5135 28.0149 34.5135ZM29.3982 36.7799H28.7507V36.4856H29.3099C29.4276 36.4856 29.4865 36.4267 29.4865 36.3678C29.4865 36.2795 29.4276 36.2501 29.3099 36.2501H28.7507V35.426H29.7808V35.7203H29.1628V35.9263H29.3688C29.6337 35.9263 29.8985 36.0735 29.8985 36.3678C29.8985 36.6033 29.6631 36.7799 29.3982 36.7799ZM29.4276 35.0728C28.9862 35.0728 28.6624 34.7784 28.6624 34.3664C28.6624 33.9249 28.9567 33.66 29.4276 33.66C29.8691 33.66 30.1928 33.9543 30.1928 34.3664C30.1928 34.7784 29.8985 35.0728 29.4276 35.0728Z" fill="#000E61"/>
</svg>
