<svg width="32" height="38" viewBox="0 0 32 38" fill="none" xmlns="http://www.w3.org/2000/svg">
<path d="M26.3969 8.87731C28.251 8.22978 29.1928 6.52266 29.1928 4.84497C29.1928 2.66693 27.6919 0.518311 24.6604 0.518311H18.7153V3.31445H24.1012C25.3668 3.31445 25.9848 4.07971 25.9848 4.84497C25.9848 5.61024 25.3668 6.3755 24.1012 6.3755H18.7153V9.14221H22.8651L26.5146 14.3519H30.6938L26.3969 8.87731Z" fill="#E2DC00"/>
<path d="M5.0592 35.3966H1.49802C1.52746 35.7203 1.58632 35.9852 1.73347 36.2207C1.88063 36.4562 2.05722 36.6327 2.29267 36.7505C2.52812 36.8682 2.76357 36.9271 3.05788 36.9271C3.41105 36.9271 3.70537 36.8388 3.97025 36.6622C4.2057 36.4856 4.38228 36.2501 4.44115 35.9558H5.02977C4.91204 36.3679 4.70603 36.721 4.35285 36.9859C3.99968 37.2508 3.58764 37.3686 3.05788 37.3686C2.64584 37.3686 2.29267 37.2803 1.96892 37.1037C1.64518 36.9271 1.40973 36.6622 1.23314 36.3384C1.05656 36.0147 0.968262 35.632 0.968262 35.1611C0.968262 34.6902 1.05656 34.337 1.23314 33.9838C1.40973 33.66 1.64518 33.3951 1.96892 33.2185C2.29267 33.0419 2.64584 32.9536 3.05788 32.9536C3.46991 32.9536 3.82309 33.0419 4.1174 33.2185C4.41171 33.3951 4.64716 33.6306 4.82375 33.9249C5.00034 34.2192 5.0592 34.5724 5.0592 34.9256C5.08863 35.1611 5.08863 35.2788 5.0592 35.3966ZM4.32342 34.1309C4.17626 33.8955 3.99968 33.7483 3.76423 33.6306C3.52878 33.5128 3.29333 33.454 2.99902 33.454C2.58698 33.454 2.2338 33.5717 1.96892 33.8366C1.67461 34.1015 1.52746 34.4547 1.49802 34.9551H4.50001C4.52944 34.6313 4.47058 34.337 4.32342 34.1309Z" fill="#E2DC00"/>
<path d="M7.97283 37.3097L6.85445 35.5731L5.79492 37.3097H5.2063L6.58956 35.1611L5.23573 33.0125H5.85378L6.94274 34.7196L8.00226 33.0125H8.56146L7.20762 35.1316L8.59089 37.3097H7.97283Z" fill="#E2DC00"/>
<path d="M15.3602 37.1037C15.0364 36.9271 14.7715 36.6622 14.595 36.3384C14.4184 36.0147 14.3301 35.632 14.3301 35.1611C14.3301 34.6902 14.4184 34.337 14.6244 33.9838C14.801 33.66 15.0659 33.3951 15.3896 33.2185C15.7133 33.0419 16.0665 32.9536 16.4786 32.9536C16.8906 32.9536 17.2438 33.0419 17.5675 33.2185C17.8913 33.3951 18.1561 33.66 18.3327 33.9838C18.5093 34.3075 18.5976 34.6902 18.5976 35.1611C18.5976 35.6026 18.5093 35.9852 18.3033 36.309C18.1267 36.6327 17.8618 36.8976 17.5381 37.0742C17.2143 37.2508 16.8317 37.3391 16.4491 37.3391C16.0371 37.398 15.6545 37.2803 15.3602 37.1037ZM17.2143 36.7211C17.4498 36.6033 17.6558 36.3973 17.803 36.1324C17.9501 35.8675 18.0384 35.5437 18.0384 35.1905C18.0384 34.8079 17.9795 34.4841 17.8324 34.2487C17.6852 33.9838 17.4792 33.8072 17.2438 33.66C17.0083 33.5423 16.7434 33.454 16.4491 33.454C16.1548 33.454 15.9194 33.5128 15.6545 33.66C15.419 33.7777 15.213 33.9838 15.0659 34.2487C14.9187 34.5136 14.8598 34.8373 14.8598 35.1905C14.8598 35.5732 14.9187 35.8969 15.0659 36.1324C15.213 36.3973 15.3896 36.5739 15.625 36.7211C15.8605 36.8388 16.1254 36.9271 16.4197 36.9271C16.714 36.9271 16.9789 36.8388 17.2143 36.7211Z" fill="#E2DC00"/>
<path d="M20.334 33.1891C20.5694 33.0419 20.8932 32.983 21.2463 32.983V33.5423H21.0992C20.6871 33.5423 20.3928 33.66 20.1279 33.866C19.8925 34.0721 19.7748 34.4253 19.7748 34.955V37.3391H19.2156V33.0419H19.7748V33.8072C19.8925 33.5423 20.0985 33.3362 20.334 33.1891Z" fill="#E2DC00"/>
<path d="M25.5729 35.3966H22.0117C22.0411 35.7203 22.1 35.9852 22.2471 36.2207C22.3943 36.4562 22.5709 36.6327 22.8063 36.7505C23.0418 36.8682 23.2772 36.9271 23.5715 36.9271C23.9247 36.9271 24.219 36.8388 24.4839 36.6622C24.7194 36.4856 24.896 36.2501 24.9548 35.9558H25.5434C25.4257 36.3679 25.2197 36.721 24.8665 36.9859C24.5133 37.2508 24.1013 37.3686 23.5715 37.3686C23.1595 37.3686 22.8063 37.2803 22.4826 37.1037C22.1588 36.9271 21.9234 36.6622 21.7468 36.3384C21.5702 36.0147 21.4819 35.632 21.4819 35.1611C21.4819 34.6902 21.5702 34.337 21.7468 33.9838C21.9234 33.66 22.1588 33.3951 22.4826 33.2185C22.8063 33.0419 23.1595 32.9536 23.5715 32.9536C23.9836 32.9536 24.3368 33.0419 24.6311 33.2185C24.9254 33.3951 25.1608 33.6306 25.3374 33.9249C25.514 34.2192 25.5729 34.5724 25.5729 34.9256C25.5729 35.1611 25.5729 35.2788 25.5729 35.3966ZM24.8371 34.1309C24.6899 33.8955 24.5133 33.7483 24.2779 33.6306C24.0424 33.5128 23.807 33.454 23.5127 33.454C23.1006 33.454 22.7475 33.5717 22.4826 33.8366C22.1883 34.1015 22.0411 34.4547 22.0117 34.9551H25.0137C25.0431 34.6313 24.9548 34.337 24.8371 34.1309Z" fill="#E2DC00"/>
<path d="M13.6825 32.9536H13.1233V37.3097H13.6825V32.9536Z" fill="#E2DC00"/>
<path d="M9.5034 36.3678V33.9837V33.0419H8.97363V37.3097H9.5034V36.3678Z" fill="#E2DC00"/>
<path d="M12.2993 33.8072C12.1521 33.5423 11.9755 33.3362 11.7107 33.1891C11.4752 33.0419 11.1809 32.983 10.8571 32.983C10.5334 32.983 10.2391 33.0713 10.0036 33.2185C9.76819 33.3657 9.5916 33.5717 9.47388 33.8072V34.7784C9.47388 34.5136 9.53274 34.2487 9.65047 34.0426C9.76819 33.8366 9.91534 33.66 10.1214 33.5717C10.3274 33.454 10.5334 33.3951 10.7688 33.3951C11.0043 33.3951 11.2398 33.454 11.4163 33.5717C11.6224 33.6894 11.7695 33.8366 11.8872 34.0426C12.005 34.2487 12.0638 34.4841 12.0638 34.7784C12.0638 35.0728 12.005 35.3082 11.8872 35.5143C11.7695 35.7203 11.6224 35.8969 11.4163 35.9852C11.2103 36.1029 11.0043 36.1618 10.7688 36.1618C10.5334 36.1618 10.3274 36.1029 10.1214 35.9852C9.91534 35.8675 9.76819 35.7203 9.65047 35.5143C9.53274 35.3082 9.47388 35.0728 9.47388 34.7784V35.7497C9.5916 35.9852 9.76819 36.1618 10.0036 36.3384C10.2391 36.4856 10.5334 36.5739 10.8571 36.5739C11.1809 36.5739 11.4458 36.515 11.7107 36.3678C11.9461 36.2207 12.1521 36.0146 12.2993 35.7497C12.4464 35.4848 12.5053 35.1611 12.5053 34.8079C12.5053 34.3958 12.4464 34.0721 12.2993 33.8072Z" fill="#E2DC00"/>
<path d="M8.82653 14.7934C5.17706 14.7934 0.938965 12.3504 0.938965 7.40565C0.938965 2.46089 5.17706 0.0179443 8.82653 0.0179443C12.4466 0.0179443 16.7141 2.46089 16.7141 7.40565C16.7141 12.3504 12.4466 14.7934 8.82653 14.7934ZM8.82653 3.22615C6.73691 3.22615 4.35298 4.60951 4.35298 7.43509C4.35298 10.2607 6.76635 11.6146 8.82653 11.6146C10.8867 11.6146 13.3001 10.2607 13.3001 7.43509C13.3001 4.60951 10.8867 3.22615 8.82653 3.22615ZM12.0934 4.93327C13.0352 4.93327 13.6238 5.55137 13.6238 6.46379C13.6238 7.40565 13.0352 7.99431 12.0934 7.99431C11.1516 7.99431 10.563 7.40565 10.563 6.46379C10.5335 5.55137 11.1222 4.93327 12.0934 4.93327Z" fill="#E2DC00"/>
<path d="M20.1281 16.6182V19.4143H16.7729V16.6182H20.1281ZM16.7729 21.5629H20.1281V30.4517H16.7729V21.5629Z" fill="#E2DC00"/>
<path d="M1.2627 16.6182V30.4517H4.58842V22.2399L9.26799 30.4517H12.5937L4.58842 16.6182H1.2627Z" fill="#E2DC00"/>
<path d="M15.3014 16.6182L11.2104 23.741L12.888 26.4488L15.3014 22.2399V16.6182Z" fill="#E2DC00"/>
<path d="M21.9529 22.7108L26.5736 16.6182H30.4879L25.7495 22.7991L31.3709 30.4517H27.4565L21.9529 22.7108Z" fill="#E2DC00"/>
<path d="M30.1937 33.9543C29.9877 33.9543 29.8406 34.1309 29.8406 34.3664C29.8406 34.4253 29.8406 34.4841 29.87 34.543L30.3115 33.9838C30.282 33.9543 30.2232 33.9543 30.1937 33.9543Z" fill="#E2DC00"/>
<path d="M30.0759 34.7489C30.1054 34.7489 30.1642 34.7784 30.1937 34.7784C30.3997 34.7784 30.5468 34.6018 30.5468 34.3663C30.5468 34.3074 30.5468 34.2486 30.5174 34.1897L30.0759 34.7489Z" fill="#E2DC00"/>
<path d="M27.4858 33.0125V37.2803H31.3708V33.0125H27.4858ZM29.2223 36.4856V36.7799H28.045V36.4856C28.045 36.1618 28.2216 35.9558 28.5748 35.9558H28.6925C28.7808 35.9558 28.8691 35.8969 28.8691 35.838C28.8691 35.7792 28.8102 35.7203 28.6925 35.7203H28.1628V35.426H28.7808C29.0457 35.426 29.2811 35.6026 29.2811 35.838C29.2811 36.1029 29.0751 36.2501 28.7514 36.2501H28.6337C28.5159 36.2501 28.4571 36.3384 28.4571 36.4856H29.2223ZM28.7514 34.5135H28.6337C28.5159 34.5135 28.4571 34.6018 28.4571 34.749H29.2517V35.0433H28.0745V34.749C28.0745 34.4252 28.2511 34.2192 28.6042 34.2192H28.7219C28.8102 34.2192 28.8985 34.1603 28.8985 34.1015C28.8985 34.0426 28.8397 33.9837 28.7219 33.9837H28.1628V33.6894H28.7808C29.0457 33.6894 29.2811 33.866 29.2811 34.1015C29.2811 34.3664 29.0751 34.5135 28.7514 34.5135ZM30.1346 36.7799H29.5166V36.4856H30.0758C30.1935 36.4856 30.2524 36.4267 30.2524 36.3678C30.2524 36.2795 30.1935 36.2501 30.0758 36.2501H29.5166V35.426H30.5467V35.7203H29.9286V35.9263H30.1346C30.3995 35.9263 30.6644 36.0735 30.6644 36.3678C30.635 36.6033 30.3995 36.7799 30.1346 36.7799ZM30.1935 35.0728C29.752 35.0728 29.4283 34.7784 29.4283 34.3664C29.4283 33.9249 29.7226 33.66 30.1935 33.66C30.635 33.66 30.9587 33.9543 30.9587 34.3664C30.9293 34.7784 30.635 35.0728 30.1935 35.0728Z" fill="#E2DC00"/>
</svg>
