<svg width="42" height="39" viewBox="0 0 42 39" fill="none" xmlns="http://www.w3.org/2000/svg">
<path d="M35.1309 0.660767C33.4475 2.63696 30.9485 3.90215 28.1672 3.90215C25.3858 3.90215 22.8764 2.63696 21.2034 0.660767H14.7102C16.8955 5.95153 22.1131 9.70526 28.1776 9.70526C34.2317 9.70526 39.4597 5.95153 41.645 0.660767H35.1309Z" fill="white"/>
<path d="M18.1083 20.1613C20.4505 17.8819 23.9533 16.9095 27.2783 17.9656C30.6033 19.0216 32.9037 21.8238 33.4997 25.0443L39.1669 26.8427C39.3864 20.475 35.3818 14.4523 29.0349 12.4343C22.6881 10.4163 15.9335 13.0303 12.4412 18.3524L18.1083 20.1613Z" fill="white"/>
<path d="M15.3689 24.4065L13.0477 21.7193L9.28351 25.243L9.64947 25.6821C9.65993 25.6926 10.8833 27.1982 10.0782 28.1288C9.37761 28.9339 8.44703 28.4739 8.18562 28.317L5.24747 24.8456L10.1723 20.4332L11.0715 19.6176L8.96983 17.3173L0.60498 24.7097L5.74936 30.8788C6.03168 31.2134 6.38718 31.4643 6.78451 31.6316C6.9309 31.6839 7.4537 31.8826 8.17517 31.9453C9.85859 32.1021 11.3852 31.4852 12.4831 30.2305C13.4659 29.1012 13.811 27.6792 13.4659 26.2049L15.3689 24.4065Z" fill="white"/>
<path d="M41.3626 27.3447L37.9749 26.2677L36.6051 31.2448L37.1488 31.433C37.1698 31.4435 38.9996 32.0813 38.7904 33.2942C38.6127 34.3398 37.5775 34.4339 37.2743 34.4444L32.956 33.0119L34.8485 26.6755H34.859L35.1936 25.5149L32.1927 24.6366L28.9199 35.3122L36.5319 37.8844C36.9397 38.0204 37.3789 38.0517 37.8076 37.9785C37.9644 37.9472 38.5081 37.8426 39.1564 37.5185C40.6725 36.7656 41.6554 35.4586 41.9377 33.817C42.1887 32.3323 41.7391 30.9521 40.6725 29.8646L41.3626 27.3447Z" fill="white"/>
</svg>
