<svg width="201" height="236" viewBox="0 0 201 236" fill="none" xmlns="http://www.w3.org/2000/svg">
<g clip-path="url(#clip0_0_219)" filter="url(#filter0_df_0_219)">
<path d="M202.791 46.189C192.682 52.833 180.038 55.1571 167.824 51.4362C155.493 47.6795 146.292 38.7008 141.604 27.5488L113.065 18.8549C115.443 45.5967 133.216 69.4073 159.758 77.493C186.3 85.5788 214.447 75.7573 231.212 54.8472L202.791 46.189Z" fill="white"/>
<path d="M101.277 111.055C114.725 103.983 131.312 104.306 144.563 113.467C157.815 122.629 163.951 138.296 162.22 153.668L184.664 169.309C194.321 140.977 184.947 108.556 159.897 90.9384C134.81 73.4409 101.544 76.0527 78.9874 95.3299L101.277 111.055Z" fill="white"/>
<path d="M83.4732 126.525L76.9188 111.388L55.5608 122.095L56.6189 124.52C56.5823 124.64 59.9333 133.019 55.1646 136.034C51.0122 138.711 47.5244 135.415 46.5698 134.336L38.4132 114.769L66.0666 101.512L71.0411 99.0851L65.0309 85.9535L18.2422 108.098L32.3294 142.743C33.0642 144.544 34.3421 146.247 35.8839 147.506C36.3979 147.925 38.4903 149.482 41.5514 150.809C48.7304 153.784 56.2672 153.058 62.8039 148.874C68.6878 145.147 72.156 139.239 72.6805 132.041L83.4732 126.525Z" fill="white"/>
<path d="M193.517 174.371L180.067 165.018L167.264 185.558L169.356 187.116C169.474 187.151 176.581 192.47 173.956 197.715C171.706 202.154 167.096 201.275 165.687 200.846L148.72 188.713L165.74 162.756L168.842 158.05L156.897 150.075L127.954 193.687L157.791 215.391C159.369 216.529 161.329 217.258 163.281 217.59C164.023 217.684 166.518 217.919 169.776 217.334C177.496 216.007 183.519 211.403 187.082 204.342C190.154 198.05 190.179 191.225 186.983 184.864L193.517 174.371Z" fill="white"/>
</g>
<defs>
<filter id="filter0_df_0_219" x="-16" y="-10.2" width="259.056" height="251.527" filterUnits="userSpaceOnUse" color-interpolation-filters="sRGB">
<feFlood flood-opacity="0" result="BackgroundImageFix"/>
<feColorMatrix in="SourceAlpha" type="matrix" values="0 0 0 0 0 0 0 0 0 0 0 0 0 0 0 0 0 0 127 0" result="hardAlpha"/>
<feOffset dx="-12" dy="14"/>
<feGaussianBlur stdDeviation="2"/>
<feComposite in2="hardAlpha" operator="out"/>
<feColorMatrix type="matrix" values="0 0 0 0 0 0 0 0 0 0 0 0 0 0 0 0 0 0 0.15 0"/>
<feBlend mode="normal" in2="BackgroundImageFix" result="effect1_dropShadow_0_219"/>
<feBlend mode="normal" in="SourceGraphic" in2="effect1_dropShadow_0_219" result="shape"/>
<feGaussianBlur stdDeviation="5.1" result="effect2_foregroundBlur_0_219"/>
</filter>
<clipPath id="clip0_0_219">
<rect width="189.927" height="175.601" fill="white" transform="translate(51.1733) rotate(16.9429)"/>
</clipPath>
</defs>
</svg>
