<svg width="715" height="61" viewBox="0 0 715 61" fill="none" xmlns="http://www.w3.org/2000/svg">
<mask id="path-1-outside-1_0_256" maskUnits="userSpaceOnUse" x="216" y="0" width="283" height="61" fill="black">
<rect fill="white" x="216" width="283" height="61"/>
<path d="M228.839 30.4C228.839 26.9333 229.589 23.85 231.089 21.15C232.589 18.4167 234.673 16.3 237.339 14.8C240.039 13.2667 243.089 12.5 246.489 12.5C250.656 12.5 254.223 13.6 257.189 15.8C260.156 18 262.139 21 263.139 24.8H253.739C253.039 23.3333 252.039 22.2167 250.739 21.45C249.473 20.6833 248.023 20.3 246.389 20.3C243.756 20.3 241.623 21.2167 239.989 23.05C238.356 24.8833 237.539 27.3333 237.539 30.4C237.539 33.4667 238.356 35.9167 239.989 37.75C241.623 39.5833 243.756 40.5 246.389 40.5C248.023 40.5 249.473 40.1167 250.739 39.35C252.039 38.5833 253.039 37.4667 253.739 36H263.139C262.139 39.8 260.156 42.8 257.189 45C254.223 47.1667 250.656 48.25 246.489 48.25C243.089 48.25 240.039 47.5 237.339 46C234.673 44.4667 232.589 42.35 231.089 39.65C229.589 36.95 228.839 33.8667 228.839 30.4ZM290.225 41.8H277.125L275.025 48H266.075L278.775 12.9H288.675L301.375 48H292.325L290.225 41.8ZM288.025 35.2L283.675 22.35L279.375 35.2H288.025ZM344.991 12.9V48H336.441V26.95L328.591 48H321.691L313.791 26.9V48H305.241V12.9H315.341L325.191 37.2L334.941 12.9H344.991ZM377.889 24.2C377.889 26.2333 377.422 28.1 376.489 29.8C375.556 31.4667 374.122 32.8167 372.189 33.85C370.256 34.8833 367.856 35.4 364.989 35.4H359.689V48H351.139V12.9H364.989C367.789 12.9 370.156 13.3833 372.089 14.35C374.022 15.3167 375.472 16.65 376.439 18.35C377.406 20.05 377.889 22 377.889 24.2ZM364.339 28.6C365.972 28.6 367.189 28.2167 367.989 27.45C368.789 26.6833 369.189 25.6 369.189 24.2C369.189 22.8 368.789 21.7167 367.989 20.95C367.189 20.1833 365.972 19.8 364.339 19.8H359.689V28.6H364.339ZM390.74 12.9V33.9C390.74 36 391.257 37.6167 392.29 38.75C393.324 39.8833 394.84 40.45 396.84 40.45C398.84 40.45 400.374 39.8833 401.44 38.75C402.507 37.6167 403.04 36 403.04 33.9V12.9H411.59V33.85C411.59 36.9833 410.924 39.6333 409.59 41.8C408.257 43.9667 406.457 45.6 404.19 46.7C401.957 47.8 399.457 48.35 396.69 48.35C393.924 48.35 391.44 47.8167 389.24 46.75C387.074 45.65 385.357 44.0167 384.09 41.85C382.824 39.65 382.19 36.9833 382.19 33.85V12.9H390.74ZM430.294 48.35C427.727 48.35 425.427 47.9333 423.394 47.1C421.361 46.2667 419.727 45.0333 418.494 43.4C417.294 41.7667 416.661 39.8 416.594 37.5H425.694C425.827 38.8 426.277 39.8 427.044 40.5C427.811 41.1667 428.811 41.5 430.044 41.5C431.311 41.5 432.311 41.2167 433.044 40.65C433.777 40.05 434.144 39.2333 434.144 38.2C434.144 37.3333 433.844 36.6167 433.244 36.05C432.677 35.4833 431.961 35.0167 431.094 34.65C430.261 34.2833 429.061 33.8667 427.494 33.4C425.227 32.7 423.377 32 421.944 31.3C420.511 30.6 419.277 29.5667 418.244 28.2C417.211 26.8333 416.694 25.05 416.694 22.85C416.694 19.5833 417.877 17.0333 420.244 15.2C422.611 13.3333 425.694 12.4 429.494 12.4C433.361 12.4 436.477 13.3333 438.844 15.2C441.211 17.0333 442.477 19.6 442.644 22.9H433.394C433.327 21.7667 432.911 20.8833 432.144 20.25C431.377 19.5833 430.394 19.25 429.194 19.25C428.161 19.25 427.327 19.5333 426.694 20.1C426.061 20.6333 425.744 21.4167 425.744 22.45C425.744 23.5833 426.277 24.4667 427.344 25.1C428.411 25.7333 430.077 26.4167 432.344 27.15C434.611 27.9167 436.444 28.65 437.844 29.35C439.277 30.05 440.511 31.0667 441.544 32.4C442.577 33.7333 443.094 35.45 443.094 37.55C443.094 39.55 442.577 41.3667 441.544 43C440.544 44.6333 439.077 45.9333 437.144 46.9C435.211 47.8667 432.927 48.35 430.294 48.35ZM480.202 30C482.235 30.4333 483.868 31.45 485.102 33.05C486.335 34.6167 486.952 36.4167 486.952 38.45C486.952 41.3833 485.918 43.7167 483.852 45.45C481.818 47.15 478.968 48 475.302 48H458.952V12.9H474.752C478.318 12.9 481.102 13.7167 483.102 15.35C485.135 16.9833 486.152 19.2 486.152 22C486.152 24.0667 485.602 25.7833 484.502 27.15C483.435 28.5167 482.002 29.4667 480.202 30ZM467.502 27.1H473.102C474.502 27.1 475.568 26.8 476.302 26.2C477.068 25.5667 477.452 24.65 477.452 23.45C477.452 22.25 477.068 21.3333 476.302 20.7C475.568 20.0667 474.502 19.75 473.102 19.75H467.502V27.1ZM473.802 41.1C475.235 41.1 476.335 40.7833 477.102 40.15C477.902 39.4833 478.302 38.5333 478.302 37.3C478.302 36.0667 477.885 35.1 477.052 34.4C476.252 33.7 475.135 33.35 473.702 33.35H467.502V41.1H473.802Z"/>
</mask>
<g filter="url(#filter0_ii_0_256)">
<path d="M228.839 30.4C228.839 26.9333 229.589 23.85 231.089 21.15C232.589 18.4167 234.673 16.3 237.339 14.8C240.039 13.2667 243.089 12.5 246.489 12.5C250.656 12.5 254.223 13.6 257.189 15.8C260.156 18 262.139 21 263.139 24.8H253.739C253.039 23.3333 252.039 22.2167 250.739 21.45C249.473 20.6833 248.023 20.3 246.389 20.3C243.756 20.3 241.623 21.2167 239.989 23.05C238.356 24.8833 237.539 27.3333 237.539 30.4C237.539 33.4667 238.356 35.9167 239.989 37.75C241.623 39.5833 243.756 40.5 246.389 40.5C248.023 40.5 249.473 40.1167 250.739 39.35C252.039 38.5833 253.039 37.4667 253.739 36H263.139C262.139 39.8 260.156 42.8 257.189 45C254.223 47.1667 250.656 48.25 246.489 48.25C243.089 48.25 240.039 47.5 237.339 46C234.673 44.4667 232.589 42.35 231.089 39.65C229.589 36.95 228.839 33.8667 228.839 30.4ZM290.225 41.8H277.125L275.025 48H266.075L278.775 12.9H288.675L301.375 48H292.325L290.225 41.8ZM288.025 35.2L283.675 22.35L279.375 35.2H288.025ZM344.991 12.9V48H336.441V26.95L328.591 48H321.691L313.791 26.9V48H305.241V12.9H315.341L325.191 37.2L334.941 12.9H344.991ZM377.889 24.2C377.889 26.2333 377.422 28.1 376.489 29.8C375.556 31.4667 374.122 32.8167 372.189 33.85C370.256 34.8833 367.856 35.4 364.989 35.4H359.689V48H351.139V12.9H364.989C367.789 12.9 370.156 13.3833 372.089 14.35C374.022 15.3167 375.472 16.65 376.439 18.35C377.406 20.05 377.889 22 377.889 24.2ZM364.339 28.6C365.972 28.6 367.189 28.2167 367.989 27.45C368.789 26.6833 369.189 25.6 369.189 24.2C369.189 22.8 368.789 21.7167 367.989 20.95C367.189 20.1833 365.972 19.8 364.339 19.8H359.689V28.6H364.339ZM390.74 12.9V33.9C390.74 36 391.257 37.6167 392.29 38.75C393.324 39.8833 394.84 40.45 396.84 40.45C398.84 40.45 400.374 39.8833 401.44 38.75C402.507 37.6167 403.04 36 403.04 33.9V12.9H411.59V33.85C411.59 36.9833 410.924 39.6333 409.59 41.8C408.257 43.9667 406.457 45.6 404.19 46.7C401.957 47.8 399.457 48.35 396.69 48.35C393.924 48.35 391.44 47.8167 389.24 46.75C387.074 45.65 385.357 44.0167 384.09 41.85C382.824 39.65 382.19 36.9833 382.19 33.85V12.9H390.74ZM430.294 48.35C427.727 48.35 425.427 47.9333 423.394 47.1C421.361 46.2667 419.727 45.0333 418.494 43.4C417.294 41.7667 416.661 39.8 416.594 37.5H425.694C425.827 38.8 426.277 39.8 427.044 40.5C427.811 41.1667 428.811 41.5 430.044 41.5C431.311 41.5 432.311 41.2167 433.044 40.65C433.777 40.05 434.144 39.2333 434.144 38.2C434.144 37.3333 433.844 36.6167 433.244 36.05C432.677 35.4833 431.961 35.0167 431.094 34.65C430.261 34.2833 429.061 33.8667 427.494 33.4C425.227 32.7 423.377 32 421.944 31.3C420.511 30.6 419.277 29.5667 418.244 28.2C417.211 26.8333 416.694 25.05 416.694 22.85C416.694 19.5833 417.877 17.0333 420.244 15.2C422.611 13.3333 425.694 12.4 429.494 12.4C433.361 12.4 436.477 13.3333 438.844 15.2C441.211 17.0333 442.477 19.6 442.644 22.9H433.394C433.327 21.7667 432.911 20.8833 432.144 20.25C431.377 19.5833 430.394 19.25 429.194 19.25C428.161 19.25 427.327 19.5333 426.694 20.1C426.061 20.6333 425.744 21.4167 425.744 22.45C425.744 23.5833 426.277 24.4667 427.344 25.1C428.411 25.7333 430.077 26.4167 432.344 27.15C434.611 27.9167 436.444 28.65 437.844 29.35C439.277 30.05 440.511 31.0667 441.544 32.4C442.577 33.7333 443.094 35.45 443.094 37.55C443.094 39.55 442.577 41.3667 441.544 43C440.544 44.6333 439.077 45.9333 437.144 46.9C435.211 47.8667 432.927 48.35 430.294 48.35ZM480.202 30C482.235 30.4333 483.868 31.45 485.102 33.05C486.335 34.6167 486.952 36.4167 486.952 38.45C486.952 41.3833 485.918 43.7167 483.852 45.45C481.818 47.15 478.968 48 475.302 48H458.952V12.9H474.752C478.318 12.9 481.102 13.7167 483.102 15.35C485.135 16.9833 486.152 19.2 486.152 22C486.152 24.0667 485.602 25.7833 484.502 27.15C483.435 28.5167 482.002 29.4667 480.202 30ZM467.502 27.1H473.102C474.502 27.1 475.568 26.8 476.302 26.2C477.068 25.5667 477.452 24.65 477.452 23.45C477.452 22.25 477.068 21.3333 476.302 20.7C475.568 20.0667 474.502 19.75 473.102 19.75H467.502V27.1ZM473.802 41.1C475.235 41.1 476.335 40.7833 477.102 40.15C477.902 39.4833 478.302 38.5333 478.302 37.3C478.302 36.0667 477.885 35.1 477.052 34.4C476.252 33.7 475.135 33.35 473.702 33.35H467.502V41.1H473.802Z" fill="#E2DC00"/>
</g>
<path d="M231.089 21.15L241.557 26.9655C241.567 26.9474 241.577 26.9293 241.587 26.9111L231.089 21.15ZM237.339 14.8L243.21 25.237C243.225 25.229 243.239 25.221 243.253 25.2129L237.339 14.8ZM257.189 15.8L264.322 6.18132L264.322 6.18131L257.189 15.8ZM263.139 24.8V36.7749C266.853 36.7749 270.356 35.0521 272.623 32.1111C274.891 29.1701 275.665 25.3437 274.72 21.7525L263.139 24.8ZM253.739 24.8L242.932 29.9579C244.92 34.1229 249.124 36.7749 253.739 36.7749V24.8ZM250.739 21.45L244.539 31.6945C244.578 31.7182 244.617 31.7416 244.656 31.7648L250.739 21.45ZM239.989 23.05L248.931 31.0158V31.0158L239.989 23.05ZM239.989 37.75L231.048 45.7158L239.989 37.75ZM250.739 39.35L244.656 29.0352C244.617 29.0584 244.578 29.0818 244.539 29.1055L250.739 39.35ZM253.739 36V24.0251C249.124 24.0251 244.92 26.6771 242.932 30.8421L253.739 36ZM263.139 36L274.72 39.0475C275.665 35.4563 274.891 31.6299 272.623 28.6889C270.356 25.7479 266.853 24.0251 263.139 24.0251V36ZM257.189 45L264.252 54.6704C264.276 54.6533 264.299 54.636 264.322 54.6187L257.189 45ZM237.339 46L231.37 56.3811C231.421 56.4104 231.473 56.4394 231.524 56.4679L237.339 46ZM231.089 39.65L241.557 33.8345V33.8345L231.089 39.65ZM228.839 30.4H240.814C240.814 28.7149 241.162 27.6774 241.557 26.9655L231.089 21.15L220.622 15.3345C218.017 20.0226 216.865 25.1518 216.865 30.4H228.839ZM231.089 21.15L241.587 26.9111C242.033 26.0984 242.531 25.6191 243.21 25.237L237.339 14.8L231.469 4.36297C226.814 6.98093 223.145 10.7349 220.591 15.3889L231.089 21.15ZM237.339 14.8L243.253 25.2129C243.982 24.7988 244.96 24.4749 246.489 24.4749V12.5V0.525102C241.219 0.525102 236.097 1.73453 231.426 4.38709L237.339 14.8ZM246.489 12.5V24.4749C248.432 24.4749 249.414 24.942 250.057 25.4187L257.189 15.8L264.322 6.18131C259.032 2.25798 252.88 0.525102 246.489 0.525102V12.5ZM257.189 15.8L250.056 25.4187C250.691 25.8895 251.204 26.4991 251.559 27.8475L263.139 24.8L274.72 21.7525C273.075 15.5009 269.621 10.1105 264.322 6.18132L257.189 15.8ZM263.139 24.8V12.8251H253.739V24.8V36.7749H263.139V24.8ZM253.739 24.8L264.547 19.6421C262.903 16.1979 260.335 13.2065 256.823 11.1352L250.739 21.45L244.656 31.7648C244.254 31.5275 243.87 31.2157 243.544 30.8512C243.222 30.4923 243.032 30.1671 242.932 29.9579L253.739 24.8ZM250.739 21.45L256.94 11.2055C253.614 9.19227 249.976 8.3251 246.389 8.3251V20.3V32.2749C246.264 32.2749 245.999 32.2593 245.641 32.1647C245.276 32.0681 244.896 31.9107 244.539 31.6945L250.739 21.45ZM246.389 20.3V8.3251C240.619 8.3251 235.133 10.4992 231.048 15.0842L239.989 23.05L248.931 31.0158C248.65 31.3305 248.177 31.7168 247.542 31.9897C246.928 32.2537 246.481 32.2749 246.389 32.2749V20.3ZM239.989 23.05L231.048 15.0842C227.009 19.6185 225.565 25.1553 225.565 30.4H237.539H249.514C249.514 29.9192 249.579 29.849 249.512 30.0493C249.478 30.1516 249.416 30.3045 249.312 30.4862C249.207 30.6693 249.078 30.85 248.931 31.0158L239.989 23.05ZM237.539 30.4H225.565C225.565 35.6447 227.009 41.1815 231.048 45.7158L239.989 37.75L248.931 29.7842C249.078 29.95 249.207 30.1307 249.312 30.3138C249.416 30.4955 249.478 30.6484 249.512 30.7507C249.579 30.951 249.514 30.8808 249.514 30.4H237.539ZM239.989 37.75L231.048 45.7158C235.133 50.3008 240.619 52.4749 246.389 52.4749V40.5V28.5251C246.481 28.5251 246.928 28.5463 247.542 28.8103C248.177 29.0832 248.65 29.4695 248.931 29.7842L239.989 37.75ZM246.389 40.5V52.4749C249.976 52.4749 253.614 51.6077 256.94 49.5945L250.739 39.35L244.539 29.1055C244.896 28.8893 245.276 28.7319 245.641 28.6353C245.999 28.5407 246.264 28.5251 246.389 28.5251V40.5ZM250.739 39.35L256.823 49.6648C260.335 47.5935 262.903 44.6021 264.547 41.1579L253.739 36L242.932 30.8421C243.032 30.6329 243.222 30.3077 243.544 29.9488C243.87 29.5843 244.254 29.2725 244.656 29.0352L250.739 39.35ZM253.739 36V47.9749H263.139V36V24.0251H253.739V36ZM263.139 36L251.559 32.9525C251.204 34.3009 250.691 34.9105 250.057 35.3813L257.189 45L264.322 54.6187C269.621 50.6895 273.075 45.2991 274.72 39.0475L263.139 36ZM257.189 45L250.127 35.3296C249.48 35.802 248.473 36.2751 246.489 36.2751V48.25V60.2249C252.84 60.2249 258.966 58.5314 264.252 54.6704L257.189 45ZM246.489 48.25V36.2751C244.915 36.2751 243.901 35.9466 243.155 35.5321L237.339 46L231.524 56.4679C236.178 59.0534 241.264 60.2249 246.489 60.2249V48.25ZM237.339 46L243.309 35.6189C242.537 35.175 242.005 34.6403 241.557 33.8345L231.089 39.65L220.622 45.4655C223.174 50.0597 226.809 53.7583 231.37 56.3811L237.339 46ZM231.089 39.65L241.557 33.8345C241.162 33.1226 240.814 32.0851 240.814 30.4H228.839H216.865C216.865 35.6482 218.017 40.7774 220.622 45.4655L231.089 39.65ZM290.225 41.8L301.567 37.9584C299.921 33.0966 295.358 29.8251 290.225 29.8251V41.8ZM277.125 41.8V29.8251C271.992 29.8251 267.43 33.0966 265.783 37.9584L277.125 41.8ZM275.025 48V59.9749C280.158 59.9749 284.721 56.7034 286.367 51.8416L275.025 48ZM266.075 48L254.815 43.9257C253.487 47.5958 254.031 51.6828 256.273 54.8778C258.514 58.0728 262.172 59.9749 266.075 59.9749V48ZM278.775 12.9V0.925102C273.733 0.925102 269.231 4.08398 267.515 8.8257L278.775 12.9ZM288.675 12.9L299.936 8.8257C298.22 4.08398 293.718 0.925102 288.675 0.925102V12.9ZM301.375 48V59.9749C305.278 59.9749 308.936 58.0728 311.178 54.8778C313.42 51.6828 313.964 47.5958 312.636 43.9257L301.375 48ZM292.325 48L280.983 51.8416C282.63 56.7034 287.192 59.9749 292.325 59.9749V48ZM288.025 35.2V47.1749C291.884 47.1749 295.507 45.3151 297.756 42.1792C300.005 39.0433 300.605 35.0156 299.368 31.3603L288.025 35.2ZM283.675 22.35L295.018 18.5103C293.369 13.6402 288.796 10.3661 283.654 10.3751C278.513 10.3841 273.951 13.6742 272.319 18.55L283.675 22.35ZM279.375 35.2L268.019 31.4C266.797 35.0526 267.406 39.0702 269.657 42.1962C271.907 45.3222 275.524 47.1749 279.375 47.1749V35.2ZM290.225 41.8V29.8251H277.125V41.8V53.7749H290.225V41.8ZM277.125 41.8L265.783 37.9584L263.683 44.1584L275.025 48L286.367 51.8416L288.467 45.6416L277.125 41.8ZM275.025 48V36.0251H266.075V48V59.9749H275.025V48ZM266.075 48L277.336 52.0743L290.036 16.9743L278.775 12.9L267.515 8.8257L254.815 43.9257L266.075 48ZM278.775 12.9V24.8749H288.675V12.9V0.925102H278.775V12.9ZM288.675 12.9L277.415 16.9743L290.115 52.0743L301.375 48L312.636 43.9257L299.936 8.8257L288.675 12.9ZM301.375 48V36.0251H292.325V48V59.9749H301.375V48ZM292.325 48L303.667 44.1584L301.567 37.9584L290.225 41.8L278.883 45.6416L280.983 51.8416L292.325 48ZM288.025 35.2L299.368 31.3603L295.018 18.5103L283.675 22.35L272.333 26.1897L276.683 39.0397L288.025 35.2ZM283.675 22.35L272.319 18.55L268.019 31.4L279.375 35.2L290.731 39L295.031 26.15L283.675 22.35ZM279.375 35.2V47.1749H288.025V35.2V23.2251H279.375V35.2ZM344.991 12.9H356.966C356.966 6.28645 351.604 0.925102 344.991 0.925102V12.9ZM344.991 48V59.9749C351.604 59.9749 356.966 54.6136 356.966 48H344.991ZM336.441 48H324.466C324.466 54.6136 329.827 59.9749 336.441 59.9749V48ZM336.441 26.95H348.416C348.416 21.1565 344.268 16.1938 338.566 15.1653C332.865 14.1368 327.245 17.3374 325.221 22.7658L336.441 26.95ZM328.591 48V59.9749C333.59 59.9749 338.064 56.8687 339.811 52.1842L328.591 48ZM321.691 48L310.476 52.1988C312.227 56.8757 316.697 59.9749 321.691 59.9749V48ZM313.791 26.9L325.005 22.7012C322.975 17.2782 317.355 14.085 311.657 15.1167C305.959 16.1484 301.816 21.1094 301.816 26.9H313.791ZM313.791 48V59.9749C320.404 59.9749 325.766 54.6136 325.766 48H313.791ZM305.241 48H293.266C293.266 54.6136 298.627 59.9749 305.241 59.9749V48ZM305.241 12.9V0.925102C298.627 0.925102 293.266 6.28645 293.266 12.9H305.241ZM315.341 12.9L326.438 8.4015C324.607 3.88217 320.217 0.925102 315.341 0.925102V12.9ZM325.191 37.2L314.093 41.6985C315.928 46.225 320.328 49.1835 325.212 49.1749C330.096 49.1662 334.486 46.1921 336.304 41.6592L325.191 37.2ZM334.941 12.9V0.925102C330.049 0.925102 325.649 3.90069 323.827 8.44081L334.941 12.9ZM344.991 12.9H333.016V48H344.991H356.966V12.9H344.991ZM344.991 48V36.0251H336.441V48V59.9749H344.991V48ZM336.441 48H348.416V26.95H336.441H324.466V48H336.441ZM336.441 26.95L325.221 22.7658L317.371 43.8158L328.591 48L339.811 52.1842L347.661 31.1342L336.441 26.95ZM328.591 48V36.0251H321.691V48V59.9749H328.591V48ZM321.691 48L332.905 43.8012L325.005 22.7012L313.791 26.9L302.576 31.0988L310.476 52.1988L321.691 48ZM313.791 26.9H301.816V48H313.791H325.766V26.9H313.791ZM313.791 48V36.0251H305.241V48V59.9749H313.791V48ZM305.241 48H317.216V12.9H305.241H293.266V48H305.241ZM305.241 12.9V24.8749H315.341V12.9V0.925102H305.241V12.9ZM315.341 12.9L304.243 17.3985L314.093 41.6985L325.191 37.2L336.288 32.7015L326.438 8.4015L315.341 12.9ZM325.191 37.2L336.304 41.6592L346.054 17.3592L334.941 12.9L323.827 8.44081L314.077 32.7408L325.191 37.2ZM334.941 12.9V24.8749H344.991V12.9V0.925102H334.941V12.9ZM376.489 29.8L386.937 35.651C386.954 35.6217 386.97 35.5924 386.986 35.563L376.489 29.8ZM372.189 33.85L366.544 23.289V23.289L372.189 33.85ZM359.689 35.4V23.4251C353.076 23.4251 347.714 28.7864 347.714 35.4H359.689ZM359.689 48V59.9749C366.303 59.9749 371.664 54.6136 371.664 48H359.689ZM351.139 48H339.164C339.164 54.6136 344.526 59.9749 351.139 59.9749V48ZM351.139 12.9V0.925102C344.526 0.925102 339.164 6.28645 339.164 12.9H351.139ZM372.089 14.35L377.444 3.63932V3.63932L372.089 14.35ZM359.689 19.8V7.8251C353.076 7.8251 347.714 13.1864 347.714 19.8H359.689ZM359.689 28.6H347.714C347.714 35.2136 353.076 40.5749 359.689 40.5749V28.6ZM377.889 24.2H365.914C365.914 24.2495 365.911 24.2719 365.911 24.271C365.912 24.2697 365.914 24.2516 365.922 24.2207C365.93 24.1895 365.941 24.1543 365.955 24.1183C365.969 24.0824 365.982 24.0546 365.992 24.037L376.489 29.8L386.986 35.563C388.936 32.0103 389.864 28.1469 389.864 24.2H377.889ZM376.489 29.8L366.041 23.949C366.188 23.6861 366.36 23.4803 366.504 23.3454C366.639 23.2184 366.682 23.2153 366.544 23.289L372.189 33.85L377.834 44.411C381.48 42.4621 384.728 39.5963 386.937 35.651L376.489 29.8ZM372.189 33.85L366.544 23.289C366.8 23.1523 366.473 23.4251 364.989 23.4251V35.4V47.3749C369.239 47.3749 373.711 46.6143 377.834 44.411L372.189 33.85ZM364.989 35.4V23.4251H359.689V35.4V47.3749H364.989V35.4ZM359.689 35.4H347.714V48H359.689H371.664V35.4H359.689ZM359.689 48V36.0251H351.139V48V59.9749H359.689V48ZM351.139 48H363.114V12.9H351.139H339.164V48H351.139ZM351.139 12.9V24.8749H364.989V12.9V0.925102H351.139V12.9ZM364.989 12.9V24.8749C366.46 24.8749 366.88 25.1338 366.734 25.0607L372.089 14.35L377.444 3.63932C373.431 1.63283 369.118 0.925102 364.989 0.925102V12.9ZM372.089 14.35L366.734 25.0607C366.796 25.0918 366.695 25.0501 366.521 24.8897C366.339 24.7226 366.164 24.5059 366.029 24.2692L376.439 18.35L386.849 12.4308C384.587 8.45319 381.267 5.55086 377.444 3.63932L372.089 14.35ZM376.439 18.35L366.029 24.2692C365.996 24.2101 365.967 24.15 365.945 24.0929C365.922 24.0361 365.909 23.9928 365.903 23.9685C365.891 23.9164 365.914 23.9799 365.914 24.2H377.889H389.864C389.864 20.189 388.964 16.1515 386.849 12.4308L376.439 18.35ZM364.339 28.6V40.5749C367.613 40.5749 372.383 39.8253 376.275 36.0957L367.989 27.45L359.704 18.8043C361.995 16.608 364.332 16.6251 364.339 16.6251V28.6ZM367.989 27.45L376.275 36.0957C380.017 32.5092 381.164 27.953 381.164 24.2H369.189H357.214C357.214 23.7759 357.273 22.9494 357.655 21.9147C358.057 20.8269 358.737 19.7308 359.704 18.8043L367.989 27.45ZM369.189 24.2H381.164C381.164 20.447 380.017 15.8908 376.275 12.3043L367.989 20.95L359.704 29.5957C358.737 28.6692 358.057 27.5731 357.655 26.4853C357.273 25.4506 357.214 24.6241 357.214 24.2H369.189ZM367.989 20.95L376.275 12.3043C372.383 8.57466 367.613 7.8251 364.339 7.8251V19.8V31.7749C364.332 31.7749 361.995 31.792 359.704 29.5957L367.989 20.95ZM364.339 19.8V7.8251H359.689V19.8V31.7749H364.339V19.8ZM359.689 19.8H347.714V28.6H359.689H371.664V19.8H359.689ZM359.689 28.6V40.5749H364.339V28.6V16.6251H359.689V28.6ZM390.74 12.9H402.715C402.715 6.28645 397.354 0.925102 390.74 0.925102V12.9ZM392.29 38.75L383.441 46.8181V46.8181L392.29 38.75ZM401.44 38.75L410.16 46.9572L410.16 46.9572L401.44 38.75ZM403.04 12.9V0.925102C396.427 0.925102 391.065 6.28645 391.065 12.9H403.04ZM411.59 12.9H423.565C423.565 6.28645 418.204 0.925102 411.59 0.925102V12.9ZM409.59 41.8L419.789 48.076V48.076L409.59 41.8ZM404.19 46.7L398.962 35.9267C398.941 35.9369 398.92 35.9471 398.899 35.9575L404.19 46.7ZM389.24 46.75L383.819 57.4276C383.885 57.4607 383.95 57.4933 384.016 57.5252L389.24 46.75ZM384.09 41.85L373.713 47.825C373.726 47.848 373.739 47.8709 373.752 47.8937L384.09 41.85ZM382.19 12.9V0.925102C375.577 0.925102 370.215 6.28645 370.215 12.9H382.19ZM390.74 12.9H378.765V33.9H390.74H402.715V12.9H390.74ZM390.74 33.9H378.765C378.765 37.8726 379.756 42.7758 383.441 46.8181L392.29 38.75L401.139 30.6819C402.758 32.4576 402.715 34.1274 402.715 33.9H390.74ZM392.29 38.75L383.441 46.8181C387.383 51.1408 392.555 52.4249 396.84 52.4249V40.45V28.4751C396.947 28.4751 397.538 28.4876 398.394 28.8075C399.314 29.1513 400.304 29.7657 401.139 30.6819L392.29 38.75ZM396.84 40.45V52.4249C401.148 52.4249 406.229 51.1341 410.16 46.9572L401.44 38.75L392.72 30.5428C393.52 29.6934 394.459 29.1178 395.339 28.7926C396.161 28.4889 396.73 28.4751 396.84 28.4751V40.45ZM401.44 38.75L410.16 46.9572C413.959 42.921 415.015 37.9643 415.015 33.9H403.04H391.065C391.065 34.0357 391.055 32.3124 392.72 30.5428L401.44 38.75ZM403.04 33.9H415.015V12.9H403.04H391.065V33.9H403.04ZM403.04 12.9V24.8749H411.59V12.9V0.925102H403.04V12.9ZM411.59 12.9H399.615V33.85H411.59H423.565V12.9H411.59ZM411.59 33.85H399.615C399.615 35.2798 399.321 35.6381 399.392 35.524L409.59 41.8L419.789 48.076C422.526 43.6285 423.565 38.6868 423.565 33.85H411.59ZM409.59 41.8L399.392 35.524C399.241 35.7691 399.156 35.8323 398.962 35.9267L404.19 46.7L409.418 57.4733C413.757 55.3677 417.273 52.1643 419.789 48.076L409.59 41.8ZM404.19 46.7L398.899 35.9575C398.488 36.1601 397.829 36.3751 396.69 36.3751V48.35V60.3249C401.085 60.3249 405.426 59.4399 409.481 57.4425L404.19 46.7ZM396.69 48.35V36.3751C395.494 36.3751 394.834 36.1538 394.465 35.9748L389.24 46.75L384.016 57.5252C388.047 59.4796 392.353 60.3249 396.69 60.3249V48.35ZM389.24 46.75L394.661 36.0724C394.619 36.0508 394.598 36.0367 394.592 36.0326C394.586 36.0286 394.584 36.0268 394.582 36.0245C394.58 36.0221 394.567 36.0097 394.544 35.9803C394.52 35.9505 394.48 35.8955 394.428 35.8063L384.09 41.85L373.752 47.8937C376.139 51.9761 379.533 55.2514 383.819 57.4276L389.24 46.75ZM384.09 41.85L394.468 35.875C394.467 35.8727 394.165 35.3735 394.165 33.85H382.19H370.215C370.215 38.5932 371.18 43.4273 373.713 47.825L384.09 41.85ZM382.19 33.85H394.165V12.9H382.19H370.215V33.85H382.19ZM382.19 12.9V24.8749H390.74V12.9V0.925102H382.19V12.9ZM423.394 47.1L418.853 58.1804L423.394 47.1ZM418.494 43.4L408.844 50.4901C408.875 50.5323 408.906 50.5743 408.938 50.6161L418.494 43.4ZM416.594 37.5V25.5251C413.358 25.5251 410.26 26.8349 408.005 29.156C405.75 31.4772 404.531 34.6122 404.624 37.847L416.594 37.5ZM425.694 37.5L437.607 36.2782C436.98 30.1698 431.835 25.5251 425.694 25.5251V37.5ZM427.044 40.5L418.97 49.3433C419.041 49.4085 419.113 49.4729 419.186 49.5363L427.044 40.5ZM433.044 40.65L440.366 50.1256C440.454 50.0576 440.541 49.9884 440.627 49.9181L433.044 40.65ZM433.244 36.05L424.777 44.5175C424.857 44.5982 424.939 44.6776 425.022 44.7559L433.244 36.05ZM431.094 34.65L426.271 45.6108C426.324 45.6337 426.376 45.6563 426.428 45.6785L431.094 34.65ZM427.494 33.4L423.961 44.8417C423.999 44.8535 424.037 44.8651 424.076 44.8766L427.494 33.4ZM421.944 31.3L416.689 42.0603L421.944 31.3ZM418.244 28.2L427.796 20.9778V20.9778L418.244 28.2ZM420.244 15.2L427.578 24.6667C427.605 24.6454 427.633 24.6239 427.66 24.6023L420.244 15.2ZM438.844 15.2L431.428 24.6023C431.456 24.6239 431.483 24.6454 431.511 24.6668L438.844 15.2ZM442.644 22.9V34.8749C445.925 34.8749 449.062 33.5289 451.323 31.1512C453.583 28.7736 454.769 25.5726 454.604 22.296L442.644 22.9ZM433.394 22.9L421.44 23.6032C421.812 29.9327 427.054 34.8749 433.394 34.8749V22.9ZM432.144 20.25L424.286 29.2863C424.363 29.3526 424.44 29.4179 424.518 29.4822L432.144 20.25ZM426.694 20.1L434.408 29.2597C434.499 29.1826 434.59 29.1041 434.679 29.0242L426.694 20.1ZM427.344 25.1L433.458 14.8033V14.8033L427.344 25.1ZM432.344 27.15L436.181 15.8064C436.131 15.7895 436.081 15.7728 436.03 15.7565L432.344 27.15ZM437.844 29.35L432.489 40.0607C432.522 40.0774 432.556 40.0939 432.589 40.1103L437.844 29.35ZM441.544 32.4L432.079 39.7355V39.7355L441.544 32.4ZM441.544 43L431.424 36.5977C431.393 36.6473 431.362 36.6972 431.331 36.7473L441.544 43ZM437.144 46.9L431.789 36.1893V36.1893L437.144 46.9ZM430.294 48.35V36.3751C429.027 36.3751 428.307 36.1717 427.935 36.0196L423.394 47.1L418.853 58.1804C422.548 59.6949 426.428 60.3249 430.294 60.3249V48.35ZM423.394 47.1L427.935 36.0196C427.866 35.9912 427.831 35.9722 427.824 35.968C427.817 35.9641 427.831 35.9717 427.86 35.9935C427.889 36.0156 427.925 36.0456 427.962 36.0825C427.999 36.1194 428.029 36.1547 428.051 36.1839L418.494 43.4L408.938 50.6161C411.561 54.0906 414.983 56.5945 418.853 58.1804L423.394 47.1ZM418.494 43.4L428.145 36.3099C428.322 36.5519 428.447 36.8104 428.518 37.0293C428.584 37.2356 428.568 37.3003 428.564 37.153L416.594 37.5L404.624 37.847C404.752 42.2373 406.014 46.6389 408.844 50.4901L418.494 43.4ZM416.594 37.5V49.4749H425.694V37.5V25.5251H416.594V37.5ZM425.694 37.5L413.782 38.7218C414.135 42.163 415.512 46.1862 418.97 49.3433L427.044 40.5L435.118 31.6567C437.043 33.4138 437.52 35.437 437.607 36.2782L425.694 37.5ZM427.044 40.5L419.186 49.5363C422.574 52.4824 426.568 53.4749 430.044 53.4749V41.5V29.5251C431.053 29.5251 433.047 29.8509 434.902 31.4637L427.044 40.5ZM430.044 41.5V53.4749C433.001 53.4749 436.885 52.8153 440.366 50.1256L433.044 40.65L425.722 31.1744C427.736 29.6181 429.621 29.5251 430.044 29.5251V41.5ZM433.044 40.65L440.627 49.9181C444.415 46.819 446.119 42.4545 446.119 38.2H434.144H422.169C422.169 37.2853 422.337 36.0371 422.945 34.6827C423.566 33.2985 424.477 32.1872 425.461 31.3819L433.044 40.65ZM434.144 38.2H446.119C446.119 34.2242 444.593 30.2972 441.466 27.3441L433.244 36.05L425.022 44.7559C424.183 43.9635 423.409 42.9159 422.873 41.6365C422.343 40.37 422.169 39.1708 422.169 38.2H434.144ZM433.244 36.05L441.712 27.5825C439.882 25.7528 437.803 24.4861 435.76 23.6215L431.094 34.65L426.428 45.6785C426.118 45.5473 425.473 45.2139 424.777 44.5175L433.244 36.05ZM431.094 34.65L435.917 23.6892C434.403 23.0231 432.646 22.4397 430.913 21.9234L427.494 33.4L424.076 44.8766C425.476 45.2936 426.119 45.5436 426.271 45.6108L431.094 34.65ZM427.494 33.4L431.028 21.9583C429.096 21.3619 427.88 20.8722 427.199 20.5397L421.944 31.3L416.689 42.0603C418.875 43.1278 421.359 44.0381 423.961 44.8417L427.494 33.4ZM421.944 31.3L427.199 20.5397C427.363 20.6198 427.513 20.7192 427.635 20.821C427.753 20.9205 427.803 20.9872 427.796 20.9778L418.244 28.2L408.692 35.4222C410.774 38.1755 413.442 40.4743 416.689 42.0603L421.944 31.3ZM418.244 28.2L427.796 20.9778C428.233 21.5553 428.469 22.11 428.584 22.5052C428.691 22.8747 428.669 23.0244 428.669 22.85H416.694H404.719C404.719 26.9113 405.69 31.4509 408.692 35.4222L418.244 28.2ZM416.694 22.85H428.669C428.669 22.6772 428.695 22.9877 428.444 23.5282C428.178 24.1016 427.806 24.4895 427.578 24.6667L420.244 15.2L412.911 5.73325C407.322 10.0623 404.719 16.2681 404.719 22.85H416.694ZM420.244 15.2L427.66 24.6023C427.589 24.6581 427.593 24.6244 427.801 24.5613C428.037 24.4899 428.565 24.3749 429.494 24.3749V12.4V0.425103C423.718 0.425103 417.807 1.87046 412.828 5.79772L420.244 15.2ZM429.494 12.4V24.3749C430.476 24.3749 431.039 24.4946 431.296 24.5716C431.525 24.64 431.521 24.6752 431.428 24.6023L438.844 15.2L446.26 5.79772C441.246 1.84313 435.281 0.425103 429.494 0.425103V12.4ZM438.844 15.2L431.511 24.6668C431.437 24.6098 431.315 24.5023 431.179 24.3373C431.042 24.1707 430.923 23.9858 430.831 23.7995C430.638 23.4084 430.671 23.236 430.684 23.504L442.644 22.9L454.604 22.296C454.282 15.9157 451.611 9.94265 446.178 5.73325L438.844 15.2ZM442.644 22.9V10.9251H433.394V22.9V34.8749H442.644V22.9ZM433.394 22.9L445.348 22.1968C445.117 18.26 443.476 14.0785 439.771 11.0178L432.144 20.25L424.518 29.4822C423.568 28.6979 422.758 27.6776 422.201 26.4962C421.66 25.3491 421.482 24.3187 421.44 23.6032L433.394 22.9ZM432.144 20.25L440.002 11.2137C436.673 8.31926 432.731 7.2751 429.194 7.2751V19.25V31.2249C428.686 31.2249 427.91 31.1537 426.987 30.841C426.037 30.519 425.104 29.9976 424.286 29.2863L432.144 20.25ZM429.194 19.25V7.2751C425.881 7.2751 421.989 8.24124 418.709 11.1758L426.694 20.1L434.679 29.0242C432.666 30.8254 430.44 31.2249 429.194 31.2249V19.25ZM426.694 20.1L418.981 10.9403C414.993 14.2983 413.769 18.8368 413.769 22.45H425.744H437.719C437.719 23.1383 437.615 24.2618 437.084 25.5756C436.526 26.9556 435.616 28.2422 434.408 29.2597L426.694 20.1ZM425.744 22.45H413.769C413.769 28.2707 416.945 32.8522 421.23 35.3967L427.344 25.1L433.458 14.8033C434.28 15.2914 435.455 16.2159 436.395 17.773C437.366 19.3798 437.719 21.0564 437.719 22.45H425.744ZM427.344 25.1L421.23 35.3967C423.473 36.7283 426.168 37.7377 428.658 38.5434L432.344 27.15L436.03 15.7565C435.1 15.4557 434.416 15.2041 433.937 15.0077C433.426 14.7984 433.318 14.7204 433.458 14.8033L427.344 25.1ZM432.344 27.15L428.507 38.4936C430.495 39.1659 431.764 39.6985 432.489 40.0607L437.844 29.35L443.199 18.6393C441.124 17.6015 438.727 16.6675 436.181 15.8064L432.344 27.15ZM437.844 29.35L432.589 40.1103C432.46 40.0471 432.334 39.9657 432.227 39.8777C432.122 39.7913 432.076 39.7316 432.079 39.7355L441.544 32.4L451.009 25.0645C448.919 22.3679 446.274 20.1402 443.099 18.5897L437.844 29.35ZM441.544 32.4L432.079 39.7355C431.641 39.1698 431.378 38.5978 431.24 38.1387C431.109 37.7051 431.119 37.4741 431.119 37.55H443.094H455.069C455.069 33.4579 454.034 28.9674 451.009 25.0645L441.544 32.4ZM443.094 37.55H431.119C431.119 37.5074 431.126 37.3549 431.189 37.1367C431.251 36.9156 431.342 36.728 431.424 36.5977L441.544 43L451.664 49.4023C453.953 45.7844 455.069 41.7336 455.069 37.55H443.094ZM441.544 43L431.331 36.7473C431.464 36.5302 431.619 36.3557 431.751 36.2386C431.876 36.128 431.915 36.1261 431.789 36.1893L437.144 46.9L442.499 57.6107C446.172 55.7742 449.441 53.035 451.757 49.2527L441.544 43ZM437.144 46.9L431.789 36.1893C431.842 36.1626 431.468 36.3751 430.294 36.3751V48.35V60.3249C434.387 60.3249 438.579 59.5707 442.499 57.6107L437.144 46.9ZM480.202 30L476.8 18.5185C471.548 20.0744 468.022 24.9947 468.236 30.4674C468.45 35.9401 472.349 40.5703 477.706 41.7119L480.202 30ZM485.102 33.05L475.617 40.3608C475.642 40.393 475.667 40.4252 475.692 40.4572L485.102 33.05ZM483.852 45.45L491.533 54.637C491.537 54.633 491.542 54.6291 491.547 54.6251L483.852 45.45ZM458.952 48H446.977C446.977 54.6136 452.338 59.9749 458.952 59.9749V48ZM458.952 12.9V0.925102C452.338 0.925102 446.977 6.28645 446.977 12.9H458.952ZM483.102 15.35L475.527 24.6249C475.552 24.6454 475.577 24.6657 475.602 24.6859L483.102 15.35ZM484.502 27.15L475.173 19.6416C475.135 19.6882 475.098 19.7351 475.062 19.7822L484.502 27.15ZM467.502 27.1H455.527C455.527 33.7136 460.888 39.0749 467.502 39.0749V27.1ZM476.302 26.2L483.885 35.4681C483.899 35.4561 483.914 35.4442 483.928 35.4322L476.302 26.2ZM476.302 20.7L468.475 29.7629C468.541 29.82 468.608 29.8765 468.675 29.9322L476.302 20.7ZM467.502 19.75V7.7751C460.888 7.7751 455.527 13.1364 455.527 19.75H467.502ZM477.102 40.15L484.728 49.3822C484.741 49.3713 484.755 49.3603 484.768 49.3494L477.102 40.15ZM477.052 34.4L469.166 43.412C469.227 43.465 469.288 43.5175 469.349 43.5692L477.052 34.4ZM467.502 33.35V21.3751C460.888 21.3751 455.527 26.7364 455.527 33.35H467.502ZM467.502 41.1H455.527C455.527 47.7136 460.888 53.0749 467.502 53.0749V41.1ZM480.202 30L477.706 41.7119C477.475 41.6627 477.077 41.5358 476.624 41.2538C476.166 40.9691 475.83 40.6361 475.617 40.3608L485.102 33.05L494.586 25.7392C491.564 21.8194 487.42 19.2946 482.698 18.2881L480.202 30ZM485.102 33.05L475.692 40.4572C475.516 40.2328 475.31 39.8913 475.161 39.4561C475.012 39.0236 474.977 38.6629 474.977 38.45H486.952H498.926C498.926 33.7873 497.441 29.3656 494.511 25.6428L485.102 33.05ZM486.952 38.45H474.977C474.977 38.4949 474.974 38.1233 475.227 37.551C475.493 36.9512 475.871 36.5144 476.156 36.2749L483.852 45.45L491.547 54.6251C496.585 50.3998 498.926 44.5724 498.926 38.45H486.952ZM483.852 45.45L476.171 36.263C476.547 35.9482 476.822 35.8706 476.767 35.8871C476.675 35.9143 476.234 36.0251 475.302 36.0251V48V59.9749C480.706 59.9749 486.646 58.7222 491.533 54.637L483.852 45.45ZM475.302 48V36.0251H458.952V48V59.9749H475.302V48ZM458.952 48H470.926V12.9H458.952H446.977V48H458.952ZM458.952 12.9V24.8749H474.752V12.9V0.925102H458.952V12.9ZM474.752 12.9V24.8749C475.645 24.8749 476.063 24.9797 476.143 25.003C476.188 25.0164 475.91 24.9377 475.527 24.6249L483.102 15.35L490.676 6.07505C485.85 2.13353 480.036 0.925102 474.752 0.925102V12.9ZM483.102 15.35L475.602 24.6859C475.271 24.4202 474.825 23.9289 474.504 23.2297C474.195 22.5558 474.177 22.0685 474.177 22H486.152H498.126C498.126 15.8771 495.694 10.1056 490.601 6.01413L483.102 15.35ZM486.152 22H474.177C474.177 21.9714 474.181 21.665 474.335 21.1838C474.497 20.6799 474.775 20.1365 475.173 19.6416L484.502 27.15L493.83 34.6584C496.936 30.7997 498.126 26.2906 498.126 22H486.152ZM484.502 27.15L475.062 19.7822C475.316 19.4562 475.642 19.1502 476.011 18.906C476.372 18.6669 476.664 18.5587 476.8 18.5185L480.202 30L483.603 41.4815C487.587 40.3013 491.211 38.0163 493.942 34.5178L484.502 27.15ZM467.502 27.1V39.0749H473.102V27.1V15.1251H467.502V27.1ZM473.102 27.1V39.0749C475.99 39.0749 480.198 38.4845 483.885 35.4681L476.302 26.2L468.719 16.9319C470.939 15.1155 473.013 15.1251 473.102 15.1251V27.1ZM476.302 26.2L483.928 35.4322C488.02 32.0517 489.426 27.4075 489.426 23.45H477.452H465.477C465.477 22.7857 465.583 21.6929 466.116 20.4175C466.675 19.0821 467.562 17.8872 468.675 16.9678L476.302 26.2ZM477.452 23.45H489.426C489.426 19.4925 488.02 14.8483 483.928 11.4678L476.302 20.7L468.675 29.9322C467.562 29.0128 466.675 27.8179 466.116 26.4825C465.583 25.2071 465.477 24.1143 465.477 23.45H477.452ZM476.302 20.7L484.129 11.6371C480.429 8.44163 476.12 7.7751 473.102 7.7751V19.75V31.7249C472.883 31.7249 470.708 31.6917 468.475 29.7629L476.302 20.7ZM473.102 19.75V7.7751H467.502V19.75V31.7249H473.102V19.75ZM467.502 19.75H455.527V27.1H467.502H479.476V19.75H467.502ZM473.802 41.1V53.0749C476.818 53.0749 481.043 52.4262 484.728 49.3822L477.102 40.15L469.475 30.9178C471.626 29.1405 473.651 29.1251 473.802 29.1251V41.1ZM477.102 40.15L484.768 49.3494C488.81 45.9806 490.276 41.3615 490.276 37.3H478.302H466.327C466.327 36.628 466.437 35.5456 466.965 34.2906C467.516 32.9816 468.38 31.8303 469.435 30.9506L477.102 40.15ZM478.302 37.3H490.276C490.276 33.0577 488.676 28.5254 484.754 25.2308L477.052 34.4L469.349 43.5692C468.388 42.7616 467.548 41.6785 466.992 40.39C466.454 39.1419 466.327 38.0371 466.327 37.3H478.302ZM477.052 34.4L484.937 25.388C481.293 22.1992 477.016 21.3751 473.702 21.3751V33.35V45.3249C473.254 45.3249 471.21 45.2008 469.166 43.412L477.052 34.4ZM473.702 33.35V21.3751H467.502V33.35V45.3249H473.702V33.35ZM467.502 33.35H455.527V41.1H467.502H479.476V33.35H467.502ZM467.502 41.1V53.0749H473.802V41.1V29.1251H467.502V41.1Z" fill="url(#paint0_linear_0_256)" mask="url(#path-1-outside-1_0_256)"/>
<path d="M228.339 30.4C228.339 26.9333 229.089 23.85 230.589 21.15C232.089 18.4167 234.173 16.3 236.839 14.8C239.539 13.2667 242.589 12.5 245.989 12.5C250.156 12.5 253.723 13.6 256.689 15.8C259.656 18 261.639 21 262.639 24.8H253.239C252.539 23.3333 251.539 22.2167 250.239 21.45C248.973 20.6833 247.523 20.3 245.889 20.3C243.256 20.3 241.123 21.2167 239.489 23.05C237.856 24.8833 237.039 27.3333 237.039 30.4C237.039 33.4667 237.856 35.9167 239.489 37.75C241.123 39.5833 243.256 40.5 245.889 40.5C247.523 40.5 248.973 40.1167 250.239 39.35C251.539 38.5833 252.539 37.4667 253.239 36H262.639C261.639 39.8 259.656 42.8 256.689 45C253.723 47.1667 250.156 48.25 245.989 48.25C242.589 48.25 239.539 47.5 236.839 46C234.173 44.4667 232.089 42.35 230.589 39.65C229.089 36.95 228.339 33.8667 228.339 30.4ZM289.725 41.8H276.625L274.525 48H265.575L278.275 12.9H288.175L300.875 48H291.825L289.725 41.8ZM287.525 35.2L283.175 22.35L278.875 35.2H287.525ZM344.491 12.9V48H335.941V26.95L328.091 48H321.191L313.291 26.9V48H304.741V12.9H314.841L324.691 37.2L334.441 12.9H344.491ZM377.389 24.2C377.389 26.2333 376.922 28.1 375.989 29.8C375.056 31.4667 373.622 32.8167 371.689 33.85C369.756 34.8833 367.356 35.4 364.489 35.4H359.189V48H350.639V12.9H364.489C367.289 12.9 369.656 13.3833 371.589 14.35C373.522 15.3167 374.972 16.65 375.939 18.35C376.906 20.05 377.389 22 377.389 24.2ZM363.839 28.6C365.472 28.6 366.689 28.2167 367.489 27.45C368.289 26.6833 368.689 25.6 368.689 24.2C368.689 22.8 368.289 21.7167 367.489 20.95C366.689 20.1833 365.472 19.8 363.839 19.8H359.189V28.6H363.839ZM390.24 12.9V33.9C390.24 36 390.757 37.6167 391.79 38.75C392.824 39.8833 394.34 40.45 396.34 40.45C398.34 40.45 399.874 39.8833 400.94 38.75C402.007 37.6167 402.54 36 402.54 33.9V12.9H411.09V33.85C411.09 36.9833 410.424 39.6333 409.09 41.8C407.757 43.9667 405.957 45.6 403.69 46.7C401.457 47.8 398.957 48.35 396.19 48.35C393.424 48.35 390.94 47.8167 388.74 46.75C386.574 45.65 384.857 44.0167 383.59 41.85C382.324 39.65 381.69 36.9833 381.69 33.85V12.9H390.24ZM429.794 48.35C427.227 48.35 424.927 47.9333 422.894 47.1C420.861 46.2667 419.227 45.0333 417.994 43.4C416.794 41.7667 416.161 39.8 416.094 37.5H425.194C425.327 38.8 425.777 39.8 426.544 40.5C427.311 41.1667 428.311 41.5 429.544 41.5C430.811 41.5 431.811 41.2167 432.544 40.65C433.277 40.05 433.644 39.2333 433.644 38.2C433.644 37.3333 433.344 36.6167 432.744 36.05C432.177 35.4833 431.461 35.0167 430.594 34.65C429.761 34.2833 428.561 33.8667 426.994 33.4C424.727 32.7 422.877 32 421.444 31.3C420.011 30.6 418.777 29.5667 417.744 28.2C416.711 26.8333 416.194 25.05 416.194 22.85C416.194 19.5833 417.377 17.0333 419.744 15.2C422.111 13.3333 425.194 12.4 428.994 12.4C432.861 12.4 435.977 13.3333 438.344 15.2C440.711 17.0333 441.977 19.6 442.144 22.9H432.894C432.827 21.7667 432.411 20.8833 431.644 20.25C430.877 19.5833 429.894 19.25 428.694 19.25C427.661 19.25 426.827 19.5333 426.194 20.1C425.561 20.6333 425.244 21.4167 425.244 22.45C425.244 23.5833 425.777 24.4667 426.844 25.1C427.911 25.7333 429.577 26.4167 431.844 27.15C434.111 27.9167 435.944 28.65 437.344 29.35C438.777 30.05 440.011 31.0667 441.044 32.4C442.077 33.7333 442.594 35.45 442.594 37.55C442.594 39.55 442.077 41.3667 441.044 43C440.044 44.6333 438.577 45.9333 436.644 46.9C434.711 47.8667 432.427 48.35 429.794 48.35ZM479.702 30C481.735 30.4333 483.368 31.45 484.602 33.05C485.835 34.6167 486.452 36.4167 486.452 38.45C486.452 41.3833 485.418 43.7167 483.352 45.45C481.318 47.15 478.468 48 474.802 48H458.452V12.9H474.252C477.818 12.9 480.602 13.7167 482.602 15.35C484.635 16.9833 485.652 19.2 485.652 22C485.652 24.0667 485.102 25.7833 484.002 27.15C482.935 28.5167 481.502 29.4667 479.702 30ZM467.002 27.1H472.602C474.002 27.1 475.068 26.8 475.802 26.2C476.568 25.5667 476.952 24.65 476.952 23.45C476.952 22.25 476.568 21.3333 475.802 20.7C475.068 20.0667 474.002 19.75 472.602 19.75H467.002V27.1ZM473.302 41.1C474.735 41.1 475.835 40.7833 476.602 40.15C477.402 39.4833 477.802 38.5333 477.802 37.3C477.802 36.0667 477.385 35.1 476.552 34.4C475.752 33.7 474.635 33.35 473.202 33.35H467.002V41.1H473.302Z" fill="#E2DC00"/>
<defs>
<filter id="filter0_ii_0_256" x="215.867" y="-1.57077" width="283.06" height="63.8915" filterUnits="userSpaceOnUse" color-interpolation-filters="sRGB">
<feFlood flood-opacity="0" result="BackgroundImageFix"/>
<feBlend mode="normal" in="SourceGraphic" in2="BackgroundImageFix" result="shape"/>
<feColorMatrix in="SourceAlpha" type="matrix" values="0 0 0 0 0 0 0 0 0 0 0 0 0 0 0 0 0 0 127 0" result="hardAlpha"/>
<feOffset dx="-0.997908" dy="1.99582"/>
<feGaussianBlur stdDeviation="1.99582"/>
<feComposite in2="hardAlpha" operator="arithmetic" k2="-1" k3="1"/>
<feColorMatrix type="matrix" values="0 0 0 0 1 0 0 0 0 1 0 0 0 0 1 0 0 0 0.5 0"/>
<feBlend mode="normal" in2="shape" result="effect1_innerShadow_0_256"/>
<feColorMatrix in="SourceAlpha" type="matrix" values="0 0 0 0 0 0 0 0 0 0 0 0 0 0 0 0 0 0 127 0" result="hardAlpha"/>
<feOffset dy="-1.99582"/>
<feGaussianBlur stdDeviation="2.99372"/>
<feComposite in2="hardAlpha" operator="arithmetic" k2="-1" k3="1"/>
<feColorMatrix type="matrix" values="0 0 0 0 0 0 0 0 0 0 0 0 0 0 0 0 0 0 0.5 0"/>
<feBlend mode="normal" in2="effect1_innerShadow_0_256" result="effect2_innerShadow_0_256"/>
</filter>
<linearGradient id="paint0_linear_0_256" x1="378.158" y1="-133.686" x2="378.65" y2="194.687" gradientUnits="userSpaceOnUse">
<stop offset="0.451923" stop-color="#000E61"/>
<stop offset="1" stop-color="#013EF9"/>
</linearGradient>
</defs>
</svg>
