<svg width="715" height="61" viewBox="0 0 715 61" fill="none" xmlns="http://www.w3.org/2000/svg">
<mask id="path-1-outside-1_0_253" maskUnits="userSpaceOnUse" x="217" y="0" width="288" height="61" fill="black">
<rect fill="white" x="217" width="288" height="61"/>
<path d="M229.886 30.4C229.886 26.9333 230.636 23.85 232.136 21.15C233.636 18.4167 235.72 16.3 238.386 14.8C241.086 13.2667 244.136 12.5 247.536 12.5C251.703 12.5 255.27 13.6 258.236 15.8C261.203 18 263.186 21 264.186 24.8H254.786C254.086 23.3333 253.086 22.2167 251.786 21.45C250.52 20.6833 249.07 20.3 247.436 20.3C244.803 20.3 242.67 21.2167 241.036 23.05C239.403 24.8833 238.586 27.3333 238.586 30.4C238.586 33.4667 239.403 35.9167 241.036 37.75C242.67 39.5833 244.803 40.5 247.436 40.5C249.07 40.5 250.52 40.1167 251.786 39.35C253.086 38.5833 254.086 37.4667 254.786 36H264.186C263.186 39.8 261.203 42.8 258.236 45C255.27 47.1667 251.703 48.25 247.536 48.25C244.136 48.25 241.086 47.5 238.386 46C235.72 44.4667 233.636 42.35 232.136 39.65C230.636 36.95 229.886 33.8667 229.886 30.4ZM291.272 41.8H278.172L276.072 48H267.122L279.822 12.9H289.722L302.422 48H293.372L291.272 41.8ZM289.072 35.2L284.722 22.35L280.422 35.2H289.072ZM346.038 12.9V48H337.488V26.95L329.638 48H322.738L314.838 26.9V48H306.288V12.9H316.387L326.238 37.2L335.988 12.9H346.038ZM378.936 24.2C378.936 26.2333 378.469 28.1 377.536 29.8C376.603 31.4667 375.169 32.8167 373.236 33.85C371.303 34.8833 368.903 35.4 366.036 35.4H360.736V48H352.186V12.9H366.036C368.836 12.9 371.203 13.3833 373.136 14.35C375.069 15.3167 376.519 16.65 377.486 18.35C378.453 20.05 378.936 22 378.936 24.2ZM365.386 28.6C367.019 28.6 368.236 28.2167 369.036 27.45C369.836 26.6833 370.236 25.6 370.236 24.2C370.236 22.8 369.836 21.7167 369.036 20.95C368.236 20.1833 367.019 19.8 365.386 19.8H360.736V28.6H365.386ZM391.787 12.9V33.9C391.787 36 392.304 37.6167 393.337 38.75C394.37 39.8833 395.887 40.45 397.887 40.45C399.887 40.45 401.42 39.8833 402.487 38.75C403.554 37.6167 404.087 36 404.087 33.9V12.9H412.637V33.85C412.637 36.9833 411.97 39.6333 410.637 41.8C409.304 43.9667 407.504 45.6 405.237 46.7C403.004 47.8 400.504 48.35 397.737 48.35C394.97 48.35 392.487 47.8167 390.287 46.75C388.12 45.65 386.404 44.0167 385.137 41.85C383.87 39.65 383.237 36.9833 383.237 33.85V12.9H391.787ZM431.341 48.35C428.774 48.35 426.474 47.9333 424.441 47.1C422.408 46.2667 420.774 45.0333 419.541 43.4C418.341 41.7667 417.708 39.8 417.641 37.5H426.741C426.874 38.8 427.324 39.8 428.091 40.5C428.858 41.1667 429.858 41.5 431.091 41.5C432.358 41.5 433.358 41.2167 434.091 40.65C434.824 40.05 435.191 39.2333 435.191 38.2C435.191 37.3333 434.891 36.6167 434.291 36.05C433.724 35.4833 433.008 35.0167 432.141 34.65C431.308 34.2833 430.108 33.8667 428.541 33.4C426.274 32.7 424.424 32 422.991 31.3C421.558 30.6 420.324 29.5667 419.291 28.2C418.258 26.8333 417.741 25.05 417.741 22.85C417.741 19.5833 418.924 17.0333 421.291 15.2C423.658 13.3333 426.741 12.4 430.541 12.4C434.408 12.4 437.524 13.3333 439.891 15.2C442.258 17.0333 443.524 19.6 443.691 22.9H434.441C434.374 21.7667 433.958 20.8833 433.191 20.25C432.424 19.5833 431.441 19.25 430.241 19.25C429.208 19.25 428.374 19.5333 427.741 20.1C427.108 20.6333 426.791 21.4167 426.791 22.45C426.791 23.5833 427.324 24.4667 428.391 25.1C429.458 25.7333 431.124 26.4167 433.391 27.15C435.658 27.9167 437.491 28.65 438.891 29.35C440.324 30.05 441.558 31.0667 442.591 32.4C443.624 33.7333 444.141 35.45 444.141 37.55C444.141 39.55 443.624 41.3667 442.591 43C441.591 44.6333 440.124 45.9333 438.191 46.9C436.258 47.8667 433.974 48.35 431.341 48.35ZM481.848 41.8H468.748L466.648 48H457.698L470.398 12.9H480.298L492.998 48H483.948L481.848 41.8ZM479.648 35.2L475.298 22.35L470.998 35.2H479.648Z"/>
</mask>
<g filter="url(#filter0_ii_0_253)">
<path d="M229.886 30.4C229.886 26.9333 230.636 23.85 232.136 21.15C233.636 18.4167 235.72 16.3 238.386 14.8C241.086 13.2667 244.136 12.5 247.536 12.5C251.703 12.5 255.27 13.6 258.236 15.8C261.203 18 263.186 21 264.186 24.8H254.786C254.086 23.3333 253.086 22.2167 251.786 21.45C250.52 20.6833 249.07 20.3 247.436 20.3C244.803 20.3 242.67 21.2167 241.036 23.05C239.403 24.8833 238.586 27.3333 238.586 30.4C238.586 33.4667 239.403 35.9167 241.036 37.75C242.67 39.5833 244.803 40.5 247.436 40.5C249.07 40.5 250.52 40.1167 251.786 39.35C253.086 38.5833 254.086 37.4667 254.786 36H264.186C263.186 39.8 261.203 42.8 258.236 45C255.27 47.1667 251.703 48.25 247.536 48.25C244.136 48.25 241.086 47.5 238.386 46C235.72 44.4667 233.636 42.35 232.136 39.65C230.636 36.95 229.886 33.8667 229.886 30.4ZM291.272 41.8H278.172L276.072 48H267.122L279.822 12.9H289.722L302.422 48H293.372L291.272 41.8ZM289.072 35.2L284.722 22.35L280.422 35.2H289.072ZM346.038 12.9V48H337.488V26.95L329.638 48H322.738L314.838 26.9V48H306.288V12.9H316.387L326.238 37.2L335.988 12.9H346.038ZM378.936 24.2C378.936 26.2333 378.469 28.1 377.536 29.8C376.603 31.4667 375.169 32.8167 373.236 33.85C371.303 34.8833 368.903 35.4 366.036 35.4H360.736V48H352.186V12.9H366.036C368.836 12.9 371.203 13.3833 373.136 14.35C375.069 15.3167 376.519 16.65 377.486 18.35C378.453 20.05 378.936 22 378.936 24.2ZM365.386 28.6C367.019 28.6 368.236 28.2167 369.036 27.45C369.836 26.6833 370.236 25.6 370.236 24.2C370.236 22.8 369.836 21.7167 369.036 20.95C368.236 20.1833 367.019 19.8 365.386 19.8H360.736V28.6H365.386ZM391.787 12.9V33.9C391.787 36 392.304 37.6167 393.337 38.75C394.37 39.8833 395.887 40.45 397.887 40.45C399.887 40.45 401.42 39.8833 402.487 38.75C403.554 37.6167 404.087 36 404.087 33.9V12.9H412.637V33.85C412.637 36.9833 411.97 39.6333 410.637 41.8C409.304 43.9667 407.504 45.6 405.237 46.7C403.004 47.8 400.504 48.35 397.737 48.35C394.97 48.35 392.487 47.8167 390.287 46.75C388.12 45.65 386.404 44.0167 385.137 41.85C383.87 39.65 383.237 36.9833 383.237 33.85V12.9H391.787ZM431.341 48.35C428.774 48.35 426.474 47.9333 424.441 47.1C422.408 46.2667 420.774 45.0333 419.541 43.4C418.341 41.7667 417.708 39.8 417.641 37.5H426.741C426.874 38.8 427.324 39.8 428.091 40.5C428.858 41.1667 429.858 41.5 431.091 41.5C432.358 41.5 433.358 41.2167 434.091 40.65C434.824 40.05 435.191 39.2333 435.191 38.2C435.191 37.3333 434.891 36.6167 434.291 36.05C433.724 35.4833 433.008 35.0167 432.141 34.65C431.308 34.2833 430.108 33.8667 428.541 33.4C426.274 32.7 424.424 32 422.991 31.3C421.558 30.6 420.324 29.5667 419.291 28.2C418.258 26.8333 417.741 25.05 417.741 22.85C417.741 19.5833 418.924 17.0333 421.291 15.2C423.658 13.3333 426.741 12.4 430.541 12.4C434.408 12.4 437.524 13.3333 439.891 15.2C442.258 17.0333 443.524 19.6 443.691 22.9H434.441C434.374 21.7667 433.958 20.8833 433.191 20.25C432.424 19.5833 431.441 19.25 430.241 19.25C429.208 19.25 428.374 19.5333 427.741 20.1C427.108 20.6333 426.791 21.4167 426.791 22.45C426.791 23.5833 427.324 24.4667 428.391 25.1C429.458 25.7333 431.124 26.4167 433.391 27.15C435.658 27.9167 437.491 28.65 438.891 29.35C440.324 30.05 441.558 31.0667 442.591 32.4C443.624 33.7333 444.141 35.45 444.141 37.55C444.141 39.55 443.624 41.3667 442.591 43C441.591 44.6333 440.124 45.9333 438.191 46.9C436.258 47.8667 433.974 48.35 431.341 48.35ZM481.848 41.8H468.748L466.648 48H457.698L470.398 12.9H480.298L492.998 48H483.948L481.848 41.8ZM479.648 35.2L475.298 22.35L470.998 35.2H479.648Z" fill="#E2DC00"/>
</g>
<path d="M232.136 21.15L242.604 26.9655C242.614 26.9474 242.624 26.9293 242.634 26.9111L232.136 21.15ZM238.386 14.8L244.257 25.237C244.271 25.229 244.286 25.221 244.3 25.2129L238.386 14.8ZM258.236 15.8L265.369 6.18132L265.369 6.18131L258.236 15.8ZM264.186 24.8V36.7749C267.9 36.7749 271.403 35.0521 273.67 32.1111C275.938 29.1701 276.712 25.3437 275.767 21.7525L264.186 24.8ZM254.786 24.8L243.979 29.9579C245.967 34.1229 250.171 36.7749 254.786 36.7749V24.8ZM251.786 21.45L245.586 31.6945C245.625 31.7182 245.664 31.7416 245.703 31.7648L251.786 21.45ZM241.036 23.05L249.978 31.0158V31.0158L241.036 23.05ZM241.036 37.75L232.095 45.7158L241.036 37.75ZM251.786 39.35L245.703 29.0352C245.664 29.0584 245.625 29.0818 245.586 29.1055L251.786 39.35ZM254.786 36V24.0251C250.171 24.0251 245.967 26.6771 243.979 30.8421L254.786 36ZM264.186 36L275.767 39.0475C276.712 35.4563 275.938 31.6299 273.67 28.6889C271.403 25.7479 267.9 24.0251 264.186 24.0251V36ZM258.236 45L265.299 54.6704C265.322 54.6533 265.346 54.636 265.369 54.6187L258.236 45ZM238.386 46L232.417 56.3811C232.468 56.4104 232.519 56.4394 232.571 56.4679L238.386 46ZM232.136 39.65L242.604 33.8345V33.8345L232.136 39.65ZM229.886 30.4H241.861C241.861 28.7149 242.209 27.6774 242.604 26.9655L232.136 21.15L221.668 15.3345C219.064 20.0226 217.911 25.1518 217.911 30.4H229.886ZM232.136 21.15L242.634 26.9111C243.08 26.0984 243.578 25.6191 244.257 25.237L238.386 14.8L232.516 4.36297C227.861 6.98093 224.192 10.7349 221.638 15.3889L232.136 21.15ZM238.386 14.8L244.3 25.2129C245.029 24.7988 246.007 24.4749 247.536 24.4749V12.5V0.525102C242.265 0.525102 237.144 1.73453 232.473 4.38709L238.386 14.8ZM247.536 12.5V24.4749C249.479 24.4749 250.461 24.942 251.103 25.4187L258.236 15.8L265.369 6.18131C260.079 2.25798 253.927 0.525102 247.536 0.525102V12.5ZM258.236 15.8L251.103 25.4187C251.738 25.8895 252.251 26.4991 252.606 27.8475L264.186 24.8L275.767 21.7525C274.122 15.5009 270.668 10.1105 265.369 6.18132L258.236 15.8ZM264.186 24.8V12.8251H254.786V24.8V36.7749H264.186V24.8ZM254.786 24.8L265.593 19.6421C263.95 16.1979 261.381 13.2065 257.869 11.1352L251.786 21.45L245.703 31.7648C245.301 31.5275 244.917 31.2157 244.591 30.8512C244.269 30.4923 244.079 30.1671 243.979 29.9579L254.786 24.8ZM251.786 21.45L257.987 11.2055C254.661 9.19227 251.023 8.3251 247.436 8.3251V20.3V32.2749C247.311 32.2749 247.046 32.2593 246.688 32.1647C246.323 32.0681 245.943 31.9107 245.586 31.6945L251.786 21.45ZM247.436 20.3V8.3251C241.666 8.3251 236.18 10.4992 232.095 15.0842L241.036 23.05L249.978 31.0158C249.697 31.3305 249.224 31.7168 248.589 31.9897C247.974 32.2537 247.528 32.2749 247.436 32.2749V20.3ZM241.036 23.05L232.095 15.0842C228.056 19.6185 226.611 25.1553 226.611 30.4H238.586H250.561C250.561 29.9192 250.626 29.849 250.559 30.0493C250.525 30.1516 250.463 30.3045 250.359 30.4862C250.254 30.6693 250.125 30.85 249.978 31.0158L241.036 23.05ZM238.586 30.4H226.611C226.611 35.6447 228.056 41.1815 232.095 45.7158L241.036 37.75L249.978 29.7842C250.125 29.95 250.254 30.1307 250.359 30.3138C250.463 30.4955 250.525 30.6484 250.559 30.7507C250.626 30.951 250.561 30.8808 250.561 30.4H238.586ZM241.036 37.75L232.095 45.7158C236.18 50.3008 241.666 52.4749 247.436 52.4749V40.5V28.5251C247.528 28.5251 247.974 28.5463 248.589 28.8103C249.224 29.0832 249.697 29.4695 249.978 29.7842L241.036 37.75ZM247.436 40.5V52.4749C251.023 52.4749 254.661 51.6077 257.987 49.5945L251.786 39.35L245.586 29.1055C245.943 28.8893 246.323 28.7319 246.688 28.6353C247.046 28.5407 247.311 28.5251 247.436 28.5251V40.5ZM251.786 39.35L257.869 49.6648C261.381 47.5935 263.95 44.6021 265.593 41.1579L254.786 36L243.979 30.8421C244.079 30.6329 244.269 30.3077 244.591 29.9488C244.917 29.5843 245.301 29.2725 245.703 29.0352L251.786 39.35ZM254.786 36V47.9749H264.186V36V24.0251H254.786V36ZM264.186 36L252.606 32.9525C252.251 34.3009 251.738 34.9105 251.103 35.3813L258.236 45L265.369 54.6187C270.668 50.6895 274.122 45.2991 275.767 39.0475L264.186 36ZM258.236 45L251.174 35.3296C250.527 35.802 249.519 36.2751 247.536 36.2751V48.25V60.2249C253.887 60.2249 260.012 58.5314 265.299 54.6704L258.236 45ZM247.536 48.25V36.2751C245.961 36.2751 244.948 35.9466 244.202 35.5321L238.386 46L232.571 56.4679C237.225 59.0534 242.311 60.2249 247.536 60.2249V48.25ZM238.386 46L244.355 35.6189C243.584 35.175 243.052 34.6403 242.604 33.8345L232.136 39.65L221.668 45.4655C224.221 50.0597 227.856 53.7583 232.417 56.3811L238.386 46ZM232.136 39.65L242.604 33.8345C242.209 33.1226 241.861 32.0851 241.861 30.4H229.886H217.911C217.911 35.6482 219.064 40.7774 221.668 45.4655L232.136 39.65ZM291.272 41.8L302.614 37.9584C300.967 33.0966 296.405 29.8251 291.272 29.8251V41.8ZM278.172 41.8V29.8251C273.039 29.8251 268.477 33.0966 266.83 37.9584L278.172 41.8ZM276.072 48V59.9749C281.205 59.9749 285.768 56.7034 287.414 51.8416L276.072 48ZM267.122 48L255.862 43.9257C254.534 47.5958 255.078 51.6828 257.32 54.8778C259.561 58.0728 263.219 59.9749 267.122 59.9749V48ZM279.822 12.9V0.925102C274.78 0.925102 270.277 4.08398 268.562 8.8257L279.822 12.9ZM289.722 12.9L300.983 8.8257C299.267 4.08398 294.765 0.925102 289.722 0.925102V12.9ZM302.422 48V59.9749C306.325 59.9749 309.983 58.0728 312.225 54.8778C314.467 51.6828 315.011 47.5958 313.683 43.9257L302.422 48ZM293.372 48L282.03 51.8416C283.677 56.7034 288.239 59.9749 293.372 59.9749V48ZM289.072 35.2V47.1749C292.931 47.1749 296.554 45.3151 298.803 42.1792C301.052 39.0433 301.652 35.0156 300.415 31.3603L289.072 35.2ZM284.722 22.35L296.065 18.5103C294.416 13.6402 289.843 10.3661 284.701 10.3751C279.56 10.3841 274.998 13.6742 273.366 18.55L284.722 22.35ZM280.422 35.2L269.066 31.4C267.844 35.0526 268.453 39.0702 270.704 42.1962C272.954 45.3222 276.571 47.1749 280.422 47.1749V35.2ZM291.272 41.8V29.8251H278.172V41.8V53.7749H291.272V41.8ZM278.172 41.8L266.83 37.9584L264.73 44.1584L276.072 48L287.414 51.8416L289.514 45.6416L278.172 41.8ZM276.072 48V36.0251H267.122V48V59.9749H276.072V48ZM267.122 48L278.383 52.0743L291.083 16.9743L279.822 12.9L268.562 8.8257L255.862 43.9257L267.122 48ZM279.822 12.9V24.8749H289.722V12.9V0.925102H279.822V12.9ZM289.722 12.9L278.462 16.9743L291.162 52.0743L302.422 48L313.683 43.9257L300.983 8.8257L289.722 12.9ZM302.422 48V36.0251H293.372V48V59.9749H302.422V48ZM293.372 48L304.714 44.1584L302.614 37.9584L291.272 41.8L279.93 45.6416L282.03 51.8416L293.372 48ZM289.072 35.2L300.415 31.3603L296.065 18.5103L284.722 22.35L273.38 26.1897L277.73 39.0397L289.072 35.2ZM284.722 22.35L273.366 18.55L269.066 31.4L280.422 35.2L291.778 39L296.078 26.15L284.722 22.35ZM280.422 35.2V47.1749H289.072V35.2V23.2251H280.422V35.2ZM346.038 12.9H358.012C358.012 6.28645 352.651 0.925102 346.038 0.925102V12.9ZM346.038 48V59.9749C352.651 59.9749 358.012 54.6136 358.012 48H346.038ZM337.487 48H325.513C325.513 54.6136 330.874 59.9749 337.487 59.9749V48ZM337.487 26.95H349.462C349.462 21.1565 345.315 16.1938 339.613 15.1653C333.912 14.1368 328.292 17.3374 326.267 22.7658L337.487 26.95ZM329.638 48V59.9749C334.637 59.9749 339.111 56.8687 340.858 52.1842L329.638 48ZM322.737 48L311.523 52.1988C313.274 56.8757 317.744 59.9749 322.737 59.9749V48ZM314.837 26.9L326.052 22.7012C324.022 17.2782 318.402 14.085 312.704 15.1167C307.006 16.1484 302.863 21.1094 302.863 26.9H314.837ZM314.837 48V59.9749C321.451 59.9749 326.812 54.6136 326.812 48H314.837ZM306.288 48H294.313C294.313 54.6136 299.674 59.9749 306.288 59.9749V48ZM306.288 12.9V0.925102C299.674 0.925102 294.313 6.28645 294.313 12.9H306.288ZM316.388 12.9L327.485 8.4015C325.653 3.88217 321.264 0.925102 316.388 0.925102V12.9ZM326.237 37.2L315.14 41.6985C316.974 46.225 321.374 49.1835 326.259 49.1749C331.143 49.1662 335.532 46.1921 337.351 41.6592L326.237 37.2ZM335.987 12.9V0.925102C331.096 0.925102 326.695 3.90069 324.874 8.44081L335.987 12.9ZM346.038 12.9H334.063V48H346.038H358.012V12.9H346.038ZM346.038 48V36.0251H337.487V48V59.9749H346.038V48ZM337.487 48H349.462V26.95H337.487H325.513V48H337.487ZM337.487 26.95L326.267 22.7658L318.417 43.8158L329.638 48L340.858 52.1842L348.708 31.1342L337.487 26.95ZM329.638 48V36.0251H322.737V48V59.9749H329.638V48ZM322.737 48L333.952 43.8012L326.052 22.7012L314.837 26.9L303.623 31.0988L311.523 52.1988L322.737 48ZM314.837 26.9H302.863V48H314.837H326.812V26.9H314.837ZM314.837 48V36.0251H306.288V48V59.9749H314.837V48ZM306.288 48H318.262V12.9H306.288H294.313V48H306.288ZM306.288 12.9V24.8749H316.388V12.9V0.925102H306.288V12.9ZM316.388 12.9L305.29 17.3985L315.14 41.6985L326.237 37.2L337.335 32.7015L327.485 8.4015L316.388 12.9ZM326.237 37.2L337.351 41.6592L347.101 17.3592L335.987 12.9L324.874 8.44081L315.124 32.7408L326.237 37.2ZM335.987 12.9V24.8749H346.038V12.9V0.925102H335.987V12.9ZM377.536 29.8L387.984 35.651C388 35.6217 388.017 35.5924 388.033 35.563L377.536 29.8ZM373.236 33.85L367.591 23.289V23.289L373.236 33.85ZM360.736 35.4V23.4251C354.122 23.4251 348.761 28.7864 348.761 35.4H360.736ZM360.736 48V59.9749C367.349 59.9749 372.711 54.6136 372.711 48H360.736ZM352.186 48H340.211C340.211 54.6136 345.572 59.9749 352.186 59.9749V48ZM352.186 12.9V0.925102C345.572 0.925102 340.211 6.28645 340.211 12.9H352.186ZM373.136 14.35L378.491 3.63932V3.63932L373.136 14.35ZM360.736 19.8V7.8251C354.122 7.8251 348.761 13.1864 348.761 19.8H360.736ZM360.736 28.6H348.761C348.761 35.2136 354.122 40.5749 360.736 40.5749V28.6ZM378.936 24.2H366.961C366.961 24.2495 366.958 24.2719 366.958 24.271C366.959 24.2697 366.961 24.2516 366.969 24.2207C366.976 24.1895 366.987 24.1543 367.002 24.1183C367.016 24.0824 367.029 24.0546 367.039 24.037L377.536 29.8L388.033 35.563C389.983 32.0103 390.911 28.1469 390.911 24.2H378.936ZM377.536 29.8L367.088 23.949C367.235 23.6861 367.407 23.4803 367.551 23.3454C367.685 23.2184 367.729 23.2153 367.591 23.289L373.236 33.85L378.881 44.411C382.527 42.4621 385.775 39.5963 387.984 35.651L377.536 29.8ZM373.236 33.85L367.591 23.289C367.847 23.1523 367.519 23.4251 366.036 23.4251V35.4V47.3749C370.286 47.3749 374.758 46.6143 378.881 44.411L373.236 33.85ZM366.036 35.4V23.4251H360.736V35.4V47.3749H366.036V35.4ZM360.736 35.4H348.761V48H360.736H372.711V35.4H360.736ZM360.736 48V36.0251H352.186V48V59.9749H360.736V48ZM352.186 48H364.161V12.9H352.186H340.211V48H352.186ZM352.186 12.9V24.8749H366.036V12.9V0.925102H352.186V12.9ZM366.036 12.9V24.8749C367.507 24.8749 367.927 25.1338 367.781 25.0607L373.136 14.35L378.491 3.63932C374.478 1.63283 370.165 0.925102 366.036 0.925102V12.9ZM373.136 14.35L367.781 25.0607C367.843 25.0918 367.742 25.0501 367.568 24.8897C367.386 24.7226 367.211 24.5059 367.076 24.2692L377.486 18.35L387.896 12.4308C385.634 8.45319 382.314 5.55086 378.491 3.63932L373.136 14.35ZM377.486 18.35L367.076 24.2692C367.043 24.2101 367.014 24.15 366.991 24.0929C366.969 24.0361 366.956 23.9928 366.95 23.9685C366.937 23.9164 366.961 23.9799 366.961 24.2H378.936H390.911C390.911 20.189 390.011 16.1515 387.896 12.4308L377.486 18.35ZM365.386 28.6V40.5749C368.66 40.5749 373.43 39.8253 377.321 36.0957L369.036 27.45L360.75 18.8043C363.042 16.608 365.379 16.6251 365.386 16.6251V28.6ZM369.036 27.45L377.321 36.0957C381.064 32.5092 382.211 27.953 382.211 24.2H370.236H358.261C358.261 23.7759 358.32 22.9494 358.702 21.9147C359.104 20.8269 359.784 19.7308 360.75 18.8043L369.036 27.45ZM370.236 24.2H382.211C382.211 20.447 381.064 15.8908 377.321 12.3043L369.036 20.95L360.75 29.5957C359.784 28.6692 359.104 27.5731 358.702 26.4853C358.32 25.4506 358.261 24.6241 358.261 24.2H370.236ZM369.036 20.95L377.321 12.3043C373.43 8.57466 368.66 7.8251 365.386 7.8251V19.8V31.7749C365.379 31.7749 363.042 31.792 360.75 29.5957L369.036 20.95ZM365.386 19.8V7.8251H360.736V19.8V31.7749H365.386V19.8ZM360.736 19.8H348.761V28.6H360.736H372.711V19.8H360.736ZM360.736 28.6V40.5749H365.386V28.6V16.6251H360.736V28.6ZM391.787 12.9H403.762C403.762 6.28645 398.401 0.925102 391.787 0.925102V12.9ZM393.337 38.75L384.488 46.8181V46.8181L393.337 38.75ZM402.487 38.75L411.207 46.9572L411.207 46.9572L402.487 38.75ZM404.087 12.9V0.925102C397.474 0.925102 392.112 6.28645 392.112 12.9H404.087ZM412.637 12.9H424.612C424.612 6.28645 419.251 0.925102 412.637 0.925102V12.9ZM410.637 41.8L420.836 48.076V48.076L410.637 41.8ZM405.237 46.7L400.009 35.9267C399.988 35.9369 399.967 35.9471 399.946 35.9575L405.237 46.7ZM390.287 46.75L384.866 57.4276C384.931 57.4607 384.997 57.4933 385.063 57.5252L390.287 46.75ZM385.137 41.85L374.759 47.825C374.773 47.848 374.786 47.8709 374.799 47.8937L385.137 41.85ZM383.237 12.9V0.925102C376.624 0.925102 371.262 6.28645 371.262 12.9H383.237ZM391.787 12.9H379.812V33.9H391.787H403.762V12.9H391.787ZM391.787 33.9H379.812C379.812 37.8726 380.802 42.7758 384.488 46.8181L393.337 38.75L402.186 30.6819C403.805 32.4576 403.762 34.1274 403.762 33.9H391.787ZM393.337 38.75L384.488 46.8181C388.429 51.1408 393.601 52.4249 397.887 52.4249V40.45V28.4751C397.993 28.4751 398.585 28.4876 399.441 28.8075C400.361 29.1513 401.351 29.7657 402.186 30.6819L393.337 38.75ZM397.887 40.45V52.4249C402.194 52.4249 407.276 51.1341 411.207 46.9572L402.487 38.75L393.767 30.5428C394.566 29.6934 395.506 29.1178 396.386 28.7926C397.208 28.4889 397.777 28.4751 397.887 28.4751V40.45ZM402.487 38.75L411.207 46.9572C415.006 42.921 416.062 37.9643 416.062 33.9H404.087H392.112C392.112 34.0357 392.102 32.3124 393.767 30.5428L402.487 38.75ZM404.087 33.9H416.062V12.9H404.087H392.112V33.9H404.087ZM404.087 12.9V24.8749H412.637V12.9V0.925102H404.087V12.9ZM412.637 12.9H400.662V33.85H412.637H424.612V12.9H412.637ZM412.637 33.85H400.662C400.662 35.2798 400.368 35.6381 400.439 35.524L410.637 41.8L420.836 48.076C423.573 43.6285 424.612 38.6868 424.612 33.85H412.637ZM410.637 41.8L400.439 35.524C400.288 35.7691 400.203 35.8323 400.009 35.9267L405.237 46.7L410.465 57.4733C414.804 55.3677 418.32 52.1643 420.836 48.076L410.637 41.8ZM405.237 46.7L399.946 35.9575C399.534 36.1601 398.876 36.3751 397.737 36.3751V48.35V60.3249C402.132 60.3249 406.473 59.4399 410.528 57.4425L405.237 46.7ZM397.737 48.35V36.3751C396.541 36.3751 395.881 36.1538 395.511 35.9748L390.287 46.75L385.063 57.5252C389.094 59.4796 393.4 60.3249 397.737 60.3249V48.35ZM390.287 46.75L395.708 36.0724C395.666 36.0508 395.645 36.0367 395.639 36.0326C395.633 36.0286 395.631 36.0268 395.629 36.0245C395.626 36.0221 395.613 36.0097 395.59 35.9803C395.567 35.9505 395.527 35.8955 395.475 35.8063L385.137 41.85L374.799 47.8937C377.186 51.9761 380.58 55.2514 384.866 57.4276L390.287 46.75ZM385.137 41.85L395.515 35.875C395.514 35.8727 395.212 35.3735 395.212 33.85H383.237H371.262C371.262 38.5932 372.227 43.4273 374.759 47.825L385.137 41.85ZM383.237 33.85H395.212V12.9H383.237H371.262V33.85H383.237ZM383.237 12.9V24.8749H391.787V12.9V0.925102H383.237V12.9ZM424.441 47.1L419.9 58.1804L424.441 47.1ZM419.541 43.4L409.891 50.4901C409.922 50.5323 409.953 50.5743 409.985 50.6161L419.541 43.4ZM417.641 37.5V25.5251C414.405 25.5251 411.307 26.8349 409.052 29.156C406.797 31.4772 405.577 34.6122 405.671 37.847L417.641 37.5ZM426.741 37.5L438.653 36.2782C438.027 30.1698 432.882 25.5251 426.741 25.5251V37.5ZM428.091 40.5L420.017 49.3433C420.088 49.4085 420.16 49.4729 420.233 49.5363L428.091 40.5ZM434.091 40.65L441.413 50.1256C441.501 50.0576 441.588 49.9884 441.674 49.9181L434.091 40.65ZM434.291 36.05L425.823 44.5175C425.904 44.5982 425.986 44.6776 426.069 44.7559L434.291 36.05ZM432.141 34.65L427.318 45.6108C427.37 45.6337 427.423 45.6563 427.475 45.6785L432.141 34.65ZM428.541 33.4L425.008 44.8417C425.046 44.8535 425.084 44.8651 425.122 44.8766L428.541 33.4ZM422.991 31.3L417.736 42.0603L422.991 31.3ZM419.291 28.2L428.843 20.9778V20.9778L419.291 28.2ZM421.291 15.2L428.624 24.6667C428.652 24.6454 428.68 24.6239 428.707 24.6023L421.291 15.2ZM439.891 15.2L432.475 24.6023C432.503 24.6239 432.53 24.6454 432.558 24.6668L439.891 15.2ZM443.691 22.9V34.8749C446.972 34.8749 450.109 33.5289 452.369 31.1512C454.63 28.7736 455.816 25.5726 455.651 22.296L443.691 22.9ZM434.441 22.9L422.487 23.6032C422.859 29.9327 428.101 34.8749 434.441 34.8749V22.9ZM433.191 20.25L425.333 29.2863C425.41 29.3526 425.487 29.4179 425.564 29.4822L433.191 20.25ZM427.741 20.1L435.454 29.2597C435.546 29.1826 435.637 29.1041 435.726 29.0242L427.741 20.1ZM428.391 25.1L434.505 14.8033V14.8033L428.391 25.1ZM433.391 27.15L437.228 15.8064C437.178 15.7895 437.127 15.7728 437.077 15.7565L433.391 27.15ZM438.891 29.35L433.536 40.0607C433.569 40.0774 433.602 40.0939 433.636 40.1103L438.891 29.35ZM442.591 32.4L433.126 39.7355V39.7355L442.591 32.4ZM442.591 43L432.471 36.5977C432.44 36.6473 432.409 36.6972 432.378 36.7473L442.591 43ZM438.191 46.9L432.836 36.1893V36.1893L438.191 46.9ZM431.341 48.35V36.3751C430.074 36.3751 429.353 36.1717 428.982 36.0196L424.441 47.1L419.9 58.1804C423.595 59.6949 427.475 60.3249 431.341 60.3249V48.35ZM424.441 47.1L428.982 36.0196C428.913 35.9912 428.878 35.9722 428.871 35.968C428.864 35.9641 428.878 35.9717 428.907 35.9935C428.936 36.0156 428.972 36.0456 429.009 36.0825C429.045 36.1194 429.075 36.1547 429.097 36.1839L419.541 43.4L409.985 50.6161C412.608 54.0906 416.03 56.5945 419.9 58.1804L424.441 47.1ZM419.541 43.4L429.191 36.3099C429.369 36.5519 429.494 36.8104 429.564 37.0293C429.631 37.2356 429.615 37.3003 429.611 37.153L417.641 37.5L405.671 37.847C405.798 42.2373 407.061 46.6389 409.891 50.4901L419.541 43.4ZM417.641 37.5V49.4749H426.741V37.5V25.5251H417.641V37.5ZM426.741 37.5L414.829 38.7218C415.182 42.163 416.559 46.1862 420.017 49.3433L428.091 40.5L436.165 31.6567C438.09 33.4138 438.567 35.437 438.653 36.2782L426.741 37.5ZM428.091 40.5L420.233 49.5363C423.621 52.4824 427.615 53.4749 431.091 53.4749V41.5V29.5251C432.1 29.5251 434.094 29.8509 435.949 31.4637L428.091 40.5ZM431.091 41.5V53.4749C434.047 53.4749 437.932 52.8153 441.413 50.1256L434.091 40.65L426.769 31.1744C428.783 29.6181 430.668 29.5251 431.091 29.5251V41.5ZM434.091 40.65L441.674 49.9181C445.462 46.819 447.166 42.4545 447.166 38.2H435.191H423.216C423.216 37.2853 423.384 36.0371 423.992 34.6827C424.613 33.2985 425.524 32.1872 426.508 31.3819L434.091 40.65ZM435.191 38.2H447.166C447.166 34.2242 445.64 30.2972 442.513 27.3441L434.291 36.05L426.069 44.7559C425.23 43.9635 424.455 42.9159 423.92 41.6365C423.39 40.37 423.216 39.1708 423.216 38.2H435.191ZM434.291 36.05L442.759 27.5825C440.929 25.7528 438.85 24.4861 436.807 23.6215L432.141 34.65L427.475 45.6785C427.165 45.5473 426.52 45.2139 425.823 44.5175L434.291 36.05ZM432.141 34.65L436.964 23.6892C435.45 23.0231 433.693 22.4397 431.96 21.9234L428.541 33.4L425.122 44.8766C426.523 45.2936 427.165 45.5436 427.318 45.6108L432.141 34.65ZM428.541 33.4L432.074 21.9583C430.143 21.3619 428.927 20.8722 428.246 20.5397L422.991 31.3L417.736 42.0603C419.922 43.1278 422.405 44.0381 425.008 44.8417L428.541 33.4ZM422.991 31.3L428.246 20.5397C428.41 20.6198 428.56 20.7192 428.682 20.821C428.8 20.9205 428.85 20.9872 428.843 20.9778L419.291 28.2L409.739 35.4222C411.821 38.1755 414.489 40.4743 417.736 42.0603L422.991 31.3ZM419.291 28.2L428.843 20.9778C429.28 21.5553 429.516 22.11 429.63 22.5052C429.737 22.8747 429.716 23.0244 429.716 22.85H417.741H405.766C405.766 26.9113 406.736 31.4509 409.739 35.4222L419.291 28.2ZM417.741 22.85H429.716C429.716 22.6772 429.742 22.9877 429.491 23.5282C429.225 24.1016 428.853 24.4895 428.624 24.6667L421.291 15.2L413.958 5.73325C408.369 10.0623 405.766 16.2681 405.766 22.85H417.741ZM421.291 15.2L428.707 24.6023C428.636 24.6581 428.639 24.6244 428.848 24.5613C429.084 24.4899 429.611 24.3749 430.541 24.3749V12.4V0.425103C424.765 0.425103 418.854 1.87046 413.875 5.79772L421.291 15.2ZM430.541 12.4V24.3749C431.523 24.3749 432.086 24.4946 432.343 24.5716C432.572 24.64 432.568 24.6752 432.475 24.6023L439.891 15.2L447.307 5.79772C442.293 1.84313 436.328 0.425103 430.541 0.425103V12.4ZM439.891 15.2L432.558 24.6668C432.484 24.6098 432.362 24.5023 432.226 24.3373C432.089 24.1707 431.97 23.9858 431.878 23.7995C431.685 23.4084 431.718 23.236 431.731 23.504L443.691 22.9L455.651 22.296C455.328 15.9157 452.658 9.94265 447.224 5.73325L439.891 15.2ZM443.691 22.9V10.9251H434.441V22.9V34.8749H443.691V22.9ZM434.441 22.9L446.395 22.1968C446.164 18.26 444.523 14.0785 440.818 11.0178L433.191 20.25L425.564 29.4822C424.615 28.6979 423.805 27.6776 423.248 26.4962C422.707 25.3491 422.529 24.3187 422.487 23.6032L434.441 22.9ZM433.191 20.25L441.049 11.2137C437.72 8.31926 433.778 7.2751 430.241 7.2751V19.25V31.2249C429.733 31.2249 428.957 31.1537 428.034 30.841C427.084 30.519 426.151 29.9976 425.333 29.2863L433.191 20.25ZM430.241 19.25V7.2751C426.928 7.2751 423.036 8.24124 419.756 11.1758L427.741 20.1L435.726 29.0242C433.713 30.8254 431.487 31.2249 430.241 31.2249V19.25ZM427.741 20.1L420.028 10.9403C416.04 14.2983 414.816 18.8368 414.816 22.45H426.791H438.766C438.766 23.1383 438.662 24.2618 438.131 25.5756C437.573 26.9556 436.663 28.2422 435.454 29.2597L427.741 20.1ZM426.791 22.45H414.816C414.816 28.2707 417.992 32.8522 422.277 35.3967L428.391 25.1L434.505 14.8033C435.327 15.2914 436.502 16.2159 437.442 17.773C438.412 19.3798 438.766 21.0564 438.766 22.45H426.791ZM428.391 25.1L422.277 35.3967C424.52 36.7283 427.215 37.7377 429.705 38.5434L433.391 27.15L437.077 15.7565C436.147 15.4557 435.463 15.2041 434.984 15.0077C434.473 14.7984 434.365 14.7204 434.505 14.8033L428.391 25.1ZM433.391 27.15L429.554 38.4936C431.542 39.1659 432.811 39.6985 433.536 40.0607L438.891 29.35L444.246 18.6393C442.171 17.6015 439.774 16.6675 437.228 15.8064L433.391 27.15ZM438.891 29.35L433.636 40.1103C433.507 40.0471 433.381 39.9657 433.274 39.8777C433.169 39.7913 433.123 39.7316 433.126 39.7355L442.591 32.4L452.056 25.0645C449.966 22.3679 447.321 20.1402 444.146 18.5897L438.891 29.35ZM442.591 32.4L433.126 39.7355C432.687 39.1698 432.425 38.5978 432.287 38.1387C432.156 37.7051 432.166 37.4741 432.166 37.55H444.141H456.116C456.116 33.4579 455.081 28.9674 452.056 25.0645L442.591 32.4ZM444.141 37.55H432.166C432.166 37.5074 432.173 37.3549 432.235 37.1367C432.298 36.9156 432.389 36.728 432.471 36.5977L442.591 43L452.711 49.4023C455 45.7844 456.116 41.7336 456.116 37.55H444.141ZM442.591 43L432.378 36.7473C432.511 36.5302 432.666 36.3557 432.798 36.2386C432.923 36.128 432.962 36.1261 432.836 36.1893L438.191 46.9L443.546 57.6107C447.219 55.7742 450.488 53.035 452.804 49.2527L442.591 43ZM438.191 46.9L432.836 36.1893C432.889 36.1626 432.515 36.3751 431.341 36.3751V48.35V60.3249C435.434 60.3249 439.626 59.5707 443.546 57.6107L438.191 46.9ZM481.848 41.8L493.19 37.9584C491.544 33.0966 486.982 29.8251 481.848 29.8251V41.8ZM468.748 41.8V29.8251C463.615 29.8251 459.053 33.0966 457.406 37.9584L468.748 41.8ZM466.648 48V59.9749C471.782 59.9749 476.344 56.7034 477.99 51.8416L466.648 48ZM457.698 48L446.438 43.9257C445.11 47.5958 445.654 51.6828 447.896 54.8778C450.137 58.0728 453.795 59.9749 457.698 59.9749V48ZM470.398 12.9V0.925102C465.356 0.925102 460.854 4.08398 459.138 8.8257L470.398 12.9ZM480.298 12.9L491.559 8.8257C489.843 4.08398 485.341 0.925102 480.298 0.925102V12.9ZM492.998 48V59.9749C496.901 59.9749 500.56 58.0728 502.801 54.8778C505.043 51.6828 505.587 47.5958 504.259 43.9257L492.998 48ZM483.948 48L472.606 51.8416C474.253 56.7034 478.815 59.9749 483.948 59.9749V48ZM479.648 35.2V47.1749C483.508 47.1749 487.13 45.3151 489.379 42.1792C491.628 39.0433 492.228 35.0156 490.991 31.3603L479.648 35.2ZM475.298 22.35L486.641 18.5103C484.992 13.6402 480.419 10.3661 475.278 10.3751C470.136 10.3841 465.574 13.6742 463.942 18.55L475.298 22.35ZM470.998 35.2L459.642 31.4C458.42 35.0526 459.03 39.0702 461.28 42.1962C463.53 45.3222 467.147 47.1749 470.998 47.1749V35.2ZM481.848 41.8V29.8251H468.748V41.8V53.7749H481.848V41.8ZM468.748 41.8L457.406 37.9584L455.306 44.1584L466.648 48L477.99 51.8416L480.09 45.6416L468.748 41.8ZM466.648 48V36.0251H457.698V48V59.9749H466.648V48ZM457.698 48L468.959 52.0743L481.659 16.9743L470.398 12.9L459.138 8.8257L446.438 43.9257L457.698 48ZM470.398 12.9V24.8749H480.298V12.9V0.925102H470.398V12.9ZM480.298 12.9L469.038 16.9743L481.738 52.0743L492.998 48L504.259 43.9257L491.559 8.8257L480.298 12.9ZM492.998 48V36.0251H483.948V48V59.9749H492.998V48ZM483.948 48L495.29 44.1584L493.19 37.9584L481.848 41.8L470.506 45.6416L472.606 51.8416L483.948 48ZM479.648 35.2L490.991 31.3603L486.641 18.5103L475.298 22.35L463.956 26.1897L468.306 39.0397L479.648 35.2ZM475.298 22.35L463.942 18.55L459.642 31.4L470.998 35.2L482.354 39L486.654 26.15L475.298 22.35ZM470.998 35.2V47.1749H479.648V35.2V23.2251H470.998V35.2Z" fill="url(#paint0_linear_0_253)" mask="url(#path-1-outside-1_0_253)"/>
<path d="M226.386 30.4C226.386 26.9333 227.136 23.85 228.636 21.15C230.136 18.4167 232.22 16.3 234.886 14.8C237.586 13.2667 240.636 12.5 244.036 12.5C248.203 12.5 251.77 13.6 254.736 15.8C257.703 18 259.686 21 260.686 24.8H251.286C250.586 23.3333 249.586 22.2167 248.286 21.45C247.02 20.6833 245.57 20.3 243.936 20.3C241.303 20.3 239.17 21.2167 237.536 23.05C235.903 24.8833 235.086 27.3333 235.086 30.4C235.086 33.4667 235.903 35.9167 237.536 37.75C239.17 39.5833 241.303 40.5 243.936 40.5C245.57 40.5 247.02 40.1167 248.286 39.35C249.586 38.5833 250.586 37.4667 251.286 36H260.686C259.686 39.8 257.703 42.8 254.736 45C251.77 47.1667 248.203 48.25 244.036 48.25C240.636 48.25 237.586 47.5 234.886 46C232.22 44.4667 230.136 42.35 228.636 39.65C227.136 36.95 226.386 33.8667 226.386 30.4ZM287.772 41.8H274.672L272.572 48H263.622L276.322 12.9H286.222L298.922 48H289.872L287.772 41.8ZM285.572 35.2L281.222 22.35L276.922 35.2H285.572ZM342.538 12.9V48H333.988V26.95L326.138 48H319.238L311.338 26.9V48H302.788V12.9H312.887L322.738 37.2L332.488 12.9H342.538ZM375.436 24.2C375.436 26.2333 374.969 28.1 374.036 29.8C373.103 31.4667 371.669 32.8167 369.736 33.85C367.803 34.8833 365.403 35.4 362.536 35.4H357.236V48H348.686V12.9H362.536C365.336 12.9 367.703 13.3833 369.636 14.35C371.569 15.3167 373.019 16.65 373.986 18.35C374.953 20.05 375.436 22 375.436 24.2ZM361.886 28.6C363.519 28.6 364.736 28.2167 365.536 27.45C366.336 26.6833 366.736 25.6 366.736 24.2C366.736 22.8 366.336 21.7167 365.536 20.95C364.736 20.1833 363.519 19.8 361.886 19.8H357.236V28.6H361.886ZM388.287 12.9V33.9C388.287 36 388.804 37.6167 389.837 38.75C390.87 39.8833 392.387 40.45 394.387 40.45C396.387 40.45 397.92 39.8833 398.987 38.75C400.054 37.6167 400.587 36 400.587 33.9V12.9H409.137V33.85C409.137 36.9833 408.47 39.6333 407.137 41.8C405.804 43.9667 404.004 45.6 401.737 46.7C399.504 47.8 397.004 48.35 394.237 48.35C391.47 48.35 388.987 47.8167 386.787 46.75C384.62 45.65 382.904 44.0167 381.637 41.85C380.37 39.65 379.737 36.9833 379.737 33.85V12.9H388.287ZM427.841 48.35C425.274 48.35 422.974 47.9333 420.941 47.1C418.908 46.2667 417.274 45.0333 416.041 43.4C414.841 41.7667 414.208 39.8 414.141 37.5H423.241C423.374 38.8 423.824 39.8 424.591 40.5C425.358 41.1667 426.358 41.5 427.591 41.5C428.858 41.5 429.858 41.2167 430.591 40.65C431.324 40.05 431.691 39.2333 431.691 38.2C431.691 37.3333 431.391 36.6167 430.791 36.05C430.224 35.4833 429.508 35.0167 428.641 34.65C427.808 34.2833 426.608 33.8667 425.041 33.4C422.774 32.7 420.924 32 419.491 31.3C418.058 30.6 416.824 29.5667 415.791 28.2C414.758 26.8333 414.241 25.05 414.241 22.85C414.241 19.5833 415.424 17.0333 417.791 15.2C420.158 13.3333 423.241 12.4 427.041 12.4C430.908 12.4 434.024 13.3333 436.391 15.2C438.758 17.0333 440.024 19.6 440.191 22.9H430.941C430.874 21.7667 430.458 20.8833 429.691 20.25C428.924 19.5833 427.941 19.25 426.741 19.25C425.708 19.25 424.874 19.5333 424.241 20.1C423.608 20.6333 423.291 21.4167 423.291 22.45C423.291 23.5833 423.824 24.4667 424.891 25.1C425.958 25.7333 427.624 26.4167 429.891 27.15C432.158 27.9167 433.991 28.65 435.391 29.35C436.824 30.05 438.058 31.0667 439.091 32.4C440.124 33.7333 440.641 35.45 440.641 37.55C440.641 39.55 440.124 41.3667 439.091 43C438.091 44.6333 436.624 45.9333 434.691 46.9C432.758 47.8667 430.474 48.35 427.841 48.35ZM478.348 41.8H465.248L463.148 48H454.198L466.898 12.9H476.798L489.498 48H480.448L478.348 41.8ZM476.148 35.2L471.798 22.35L467.498 35.2H476.148Z" fill="#E2DC00"/>
<defs>
<filter id="filter0_ii_0_253" x="216.913" y="-1.57077" width="288.06" height="63.8915" filterUnits="userSpaceOnUse" color-interpolation-filters="sRGB">
<feFlood flood-opacity="0" result="BackgroundImageFix"/>
<feBlend mode="normal" in="SourceGraphic" in2="BackgroundImageFix" result="shape"/>
<feColorMatrix in="SourceAlpha" type="matrix" values="0 0 0 0 0 0 0 0 0 0 0 0 0 0 0 0 0 0 127 0" result="hardAlpha"/>
<feOffset dx="-0.997908" dy="1.99582"/>
<feGaussianBlur stdDeviation="1.99582"/>
<feComposite in2="hardAlpha" operator="arithmetic" k2="-1" k3="1"/>
<feColorMatrix type="matrix" values="0 0 0 0 1 0 0 0 0 1 0 0 0 0 1 0 0 0 0.5 0"/>
<feBlend mode="normal" in2="shape" result="effect1_innerShadow_0_253"/>
<feColorMatrix in="SourceAlpha" type="matrix" values="0 0 0 0 0 0 0 0 0 0 0 0 0 0 0 0 0 0 127 0" result="hardAlpha"/>
<feOffset dy="-1.99582"/>
<feGaussianBlur stdDeviation="2.99372"/>
<feComposite in2="hardAlpha" operator="arithmetic" k2="-1" k3="1"/>
<feColorMatrix type="matrix" values="0 0 0 0 0 0 0 0 0 0 0 0 0 0 0 0 0 0 0.5 0"/>
<feBlend mode="normal" in2="effect1_innerShadow_0_253" result="effect2_innerShadow_0_253"/>
</filter>
<linearGradient id="paint0_linear_0_253" x1="381.158" y1="-133.686" x2="381.65" y2="194.687" gradientUnits="userSpaceOnUse">
<stop offset="0.451923" stop-color="#000E61"/>
<stop offset="1" stop-color="#013EF9"/>
</linearGradient>
</defs>
</svg>
