<svg width="343" height="51" viewBox="0 0 343 51" fill="none" xmlns="http://www.w3.org/2000/svg">
<mask id="path-1-outside-1_2074_21" maskUnits="userSpaceOnUse" x="29" y="3" width="286" height="44" fill="black">
<rect fill="white" x="29" y="3" width="286" height="44"/>
<path d="M47.6563 14.94C49.8763 14.94 51.8163 15.38 53.4763 16.26C55.1363 17.14 56.4163 18.38 57.3163 19.98C58.2363 21.56 58.6963 23.39 58.6963 25.47C58.6963 27.53 58.2363 29.36 57.3163 30.96C56.4163 32.56 55.1263 33.8 53.4463 34.68C51.7863 35.56 49.8563 36 47.6563 36H39.7663V14.94H47.6563ZM47.3263 31.56C49.2663 31.56 50.7763 31.03 51.8563 29.97C52.9363 28.91 53.4763 27.41 53.4763 25.47C53.4763 23.53 52.9363 22.02 51.8563 20.94C50.7763 19.86 49.2663 19.32 47.3263 19.32H44.8963V31.56H47.3263ZM69.1831 36.24C67.5431 36.24 66.0631 35.89 64.7431 35.19C63.4431 34.49 62.4131 33.49 61.6531 32.19C60.9131 30.89 60.5431 29.37 60.5431 27.63C60.5431 25.91 60.9231 24.4 61.6831 23.1C62.4431 21.78 63.4831 20.77 64.8031 20.07C66.1231 19.37 67.6031 19.02 69.2431 19.02C70.8831 19.02 72.3631 19.37 73.6831 20.07C75.0031 20.77 76.0431 21.78 76.8031 23.1C77.5631 24.4 77.9431 25.91 77.9431 27.63C77.9431 29.35 77.5531 30.87 76.7731 32.19C76.0131 33.49 74.9631 34.49 73.6231 35.19C72.3031 35.89 70.8231 36.24 69.1831 36.24ZM69.1831 31.8C70.1631 31.8 70.9931 31.44 71.6731 30.72C72.3731 30 72.7231 28.97 72.7231 27.63C72.7231 26.29 72.3831 25.26 71.7031 24.54C71.0431 23.82 70.2231 23.46 69.2431 23.46C68.2431 23.46 67.4131 23.82 66.7531 24.54C66.0931 25.24 65.7631 26.27 65.7631 27.63C65.7631 28.97 66.0831 30 66.7231 30.72C67.3831 31.44 68.2031 31.8 69.1831 31.8ZM104.695 19.26L100.165 36H94.4947L91.8547 25.14L89.1247 36H83.4847L78.9247 19.26H84.0547L86.4247 31.23L89.2447 19.26H94.6747L97.5247 31.17L99.8647 19.26H104.695ZM116.851 19.08C118.811 19.08 120.371 19.72 121.531 21C122.711 22.26 123.301 24 123.301 26.22V36H118.201V26.91C118.201 25.79 117.911 24.92 117.331 24.3C116.751 23.68 115.971 23.37 114.991 23.37C114.011 23.37 113.231 23.68 112.651 24.3C112.071 24.92 111.781 25.79 111.781 26.91V36H106.651V19.26H111.781V21.48C112.301 20.74 113.001 20.16 113.881 19.74C114.761 19.3 115.751 19.08 116.851 19.08ZM131.996 13.8V36H126.866V13.8H131.996ZM143.334 36.24C141.694 36.24 140.214 35.89 138.894 35.19C137.594 34.49 136.564 33.49 135.804 32.19C135.064 30.89 134.694 29.37 134.694 27.63C134.694 25.91 135.074 24.4 135.834 23.1C136.594 21.78 137.634 20.77 138.954 20.07C140.274 19.37 141.754 19.02 143.394 19.02C145.034 19.02 146.514 19.37 147.834 20.07C149.154 20.77 150.194 21.78 150.954 23.1C151.714 24.4 152.094 25.91 152.094 27.63C152.094 29.35 151.704 30.87 150.924 32.19C150.164 33.49 149.114 34.49 147.774 35.19C146.454 35.89 144.974 36.24 143.334 36.24ZM143.334 31.8C144.314 31.8 145.144 31.44 145.824 30.72C146.524 30 146.874 28.97 146.874 27.63C146.874 26.29 146.534 25.26 145.854 24.54C145.194 23.82 144.374 23.46 143.394 23.46C142.394 23.46 141.564 23.82 140.904 24.54C140.244 25.24 139.914 26.27 139.914 27.63C139.914 28.97 140.234 30 140.874 30.72C141.534 31.44 142.354 31.8 143.334 31.8ZM153.795 27.6C153.795 25.88 154.115 24.37 154.755 23.07C155.415 21.77 156.305 20.77 157.425 20.07C158.545 19.37 159.795 19.02 161.175 19.02C162.355 19.02 163.385 19.26 164.265 19.74C165.165 20.22 165.855 20.85 166.335 21.63V19.26H171.465V36H166.335V33.63C165.835 34.41 165.135 35.04 164.235 35.52C163.355 36 162.325 36.24 161.145 36.24C159.785 36.24 158.545 35.89 157.425 35.19C156.305 34.47 155.415 33.46 154.755 32.16C154.115 30.84 153.795 29.32 153.795 27.6ZM166.335 27.63C166.335 26.35 165.975 25.34 165.255 24.6C164.555 23.86 163.695 23.49 162.675 23.49C161.655 23.49 160.785 23.86 160.065 24.6C159.365 25.32 159.015 26.32 159.015 27.6C159.015 28.88 159.365 29.9 160.065 30.66C160.785 31.4 161.655 31.77 162.675 31.77C163.695 31.77 164.555 31.4 165.255 30.66C165.975 29.92 166.335 28.91 166.335 27.63ZM174.156 27.6C174.156 25.88 174.476 24.37 175.116 23.07C175.776 21.77 176.666 20.77 177.786 20.07C178.906 19.37 180.156 19.02 181.536 19.02C182.636 19.02 183.636 19.25 184.536 19.71C185.456 20.17 186.176 20.79 186.696 21.57V13.8H191.826V36H186.696V33.6C186.216 34.4 185.526 35.04 184.626 35.52C183.746 36 182.716 36.24 181.536 36.24C180.156 36.24 178.906 35.89 177.786 35.19C176.666 34.47 175.776 33.46 175.116 32.16C174.476 30.84 174.156 29.32 174.156 27.6ZM186.696 27.63C186.696 26.35 186.336 25.34 185.616 24.6C184.916 23.86 184.056 23.49 183.036 23.49C182.016 23.49 181.146 23.86 180.426 24.6C179.726 25.32 179.376 26.32 179.376 27.6C179.376 28.88 179.726 29.9 180.426 30.66C181.146 31.4 182.016 31.77 183.036 31.77C184.056 31.77 184.916 31.4 185.616 30.66C186.336 29.92 186.696 28.91 186.696 27.63ZM201.025 25.44C201.025 23.36 201.475 21.51 202.375 19.89C203.275 18.25 204.525 16.98 206.125 16.08C207.745 15.16 209.575 14.7 211.615 14.7C214.115 14.7 216.255 15.36 218.035 16.68C219.815 18 221.005 19.8 221.605 22.08H215.965C215.545 21.2 214.945 20.53 214.165 20.07C213.405 19.61 212.535 19.38 211.555 19.38C209.975 19.38 208.695 19.93 207.715 21.03C206.735 22.13 206.245 23.6 206.245 25.44C206.245 27.28 206.735 28.75 207.715 29.85C208.695 30.95 209.975 31.5 211.555 31.5C212.535 31.5 213.405 31.27 214.165 30.81C214.945 30.35 215.545 29.68 215.965 28.8H221.605C221.005 31.08 219.815 32.88 218.035 34.2C216.255 35.5 214.115 36.15 211.615 36.15C209.575 36.15 207.745 35.7 206.125 34.8C204.525 33.88 203.275 32.61 202.375 30.99C201.475 29.37 201.025 27.52 201.025 25.44ZM240.527 27.36C240.527 27.84 240.497 28.34 240.437 28.86H228.827C228.907 29.9 229.237 30.7 229.817 31.26C230.417 31.8 231.147 32.07 232.007 32.07C233.287 32.07 234.177 31.53 234.677 30.45H240.137C239.857 31.55 239.347 32.54 238.607 33.42C237.887 34.3 236.977 34.99 235.877 35.49C234.777 35.99 233.547 36.24 232.187 36.24C230.547 36.24 229.087 35.89 227.807 35.19C226.527 34.49 225.527 33.49 224.807 32.19C224.087 30.89 223.727 29.37 223.727 27.63C223.727 25.89 224.077 24.37 224.777 23.07C225.497 21.77 226.497 20.77 227.777 20.07C229.057 19.37 230.527 19.02 232.187 19.02C233.807 19.02 235.247 19.36 236.507 20.04C237.767 20.72 238.747 21.69 239.447 22.95C240.167 24.21 240.527 25.68 240.527 27.36ZM235.277 26.01C235.277 25.13 234.977 24.43 234.377 23.91C233.777 23.39 233.027 23.13 232.127 23.13C231.267 23.13 230.537 23.38 229.937 23.88C229.357 24.38 228.997 25.09 228.857 26.01H235.277ZM253.433 19.08C255.393 19.08 256.953 19.72 258.113 21C259.293 22.26 259.883 24 259.883 26.22V36H254.783V26.91C254.783 25.79 254.493 24.92 253.913 24.3C253.333 23.68 252.553 23.37 251.573 23.37C250.593 23.37 249.813 23.68 249.233 24.3C248.653 24.92 248.363 25.79 248.363 26.91V36H243.233V19.26H248.363V21.48C248.883 20.74 249.583 20.16 250.463 19.74C251.343 19.3 252.333 19.08 253.433 19.08ZM272.778 31.65V36H270.168C268.308 36 266.858 35.55 265.818 34.65C264.778 33.73 264.258 32.24 264.258 30.18V23.52H262.218V19.26H264.258V15.18H269.388V19.26H272.748V23.52H269.388V30.24C269.388 30.74 269.508 31.1 269.748 31.32C269.988 31.54 270.388 31.65 270.948 31.65H272.778ZM291.415 27.36C291.415 27.84 291.385 28.34 291.325 28.86H279.715C279.795 29.9 280.125 30.7 280.705 31.26C281.305 31.8 282.035 32.07 282.895 32.07C284.175 32.07 285.065 31.53 285.565 30.45H291.025C290.745 31.55 290.235 32.54 289.495 33.42C288.775 34.3 287.865 34.99 286.765 35.49C285.665 35.99 284.435 36.24 283.075 36.24C281.435 36.24 279.975 35.89 278.695 35.19C277.415 34.49 276.415 33.49 275.695 32.19C274.975 30.89 274.615 29.37 274.615 27.63C274.615 25.89 274.965 24.37 275.665 23.07C276.385 21.77 277.385 20.77 278.665 20.07C279.945 19.37 281.415 19.02 283.075 19.02C284.695 19.02 286.135 19.36 287.395 20.04C288.655 20.72 289.635 21.69 290.335 22.95C291.055 24.21 291.415 25.68 291.415 27.36ZM286.165 26.01C286.165 25.13 285.865 24.43 285.265 23.91C284.665 23.39 283.915 23.13 283.015 23.13C282.155 23.13 281.425 23.38 280.825 23.88C280.245 24.38 279.885 25.09 279.745 26.01H286.165ZM299.252 22.05C299.852 21.13 300.602 20.41 301.502 19.89C302.402 19.35 303.402 19.08 304.502 19.08V24.51H303.092C301.812 24.51 300.852 24.79 300.212 25.35C299.572 25.89 299.252 26.85 299.252 28.23V36H294.122V19.26H299.252V22.05Z"/>
</mask>
<g filter="url(#filter0_ii_2074_21)">
<path d="M47.6563 14.94C49.8763 14.94 51.8163 15.38 53.4763 16.26C55.1363 17.14 56.4163 18.38 57.3163 19.98C58.2363 21.56 58.6963 23.39 58.6963 25.47C58.6963 27.53 58.2363 29.36 57.3163 30.96C56.4163 32.56 55.1263 33.8 53.4463 34.68C51.7863 35.56 49.8563 36 47.6563 36H39.7663V14.94H47.6563ZM47.3263 31.56C49.2663 31.56 50.7763 31.03 51.8563 29.97C52.9363 28.91 53.4763 27.41 53.4763 25.47C53.4763 23.53 52.9363 22.02 51.8563 20.94C50.7763 19.86 49.2663 19.32 47.3263 19.32H44.8963V31.56H47.3263ZM69.1831 36.24C67.5431 36.24 66.0631 35.89 64.7431 35.19C63.4431 34.49 62.4131 33.49 61.6531 32.19C60.9131 30.89 60.5431 29.37 60.5431 27.63C60.5431 25.91 60.9231 24.4 61.6831 23.1C62.4431 21.78 63.4831 20.77 64.8031 20.07C66.1231 19.37 67.6031 19.02 69.2431 19.02C70.8831 19.02 72.3631 19.37 73.6831 20.07C75.0031 20.77 76.0431 21.78 76.8031 23.1C77.5631 24.4 77.9431 25.91 77.9431 27.63C77.9431 29.35 77.5531 30.87 76.7731 32.19C76.0131 33.49 74.9631 34.49 73.6231 35.19C72.3031 35.89 70.8231 36.24 69.1831 36.24ZM69.1831 31.8C70.1631 31.8 70.9931 31.44 71.6731 30.72C72.3731 30 72.7231 28.97 72.7231 27.63C72.7231 26.29 72.3831 25.26 71.7031 24.54C71.0431 23.82 70.2231 23.46 69.2431 23.46C68.2431 23.46 67.4131 23.82 66.7531 24.54C66.0931 25.24 65.7631 26.27 65.7631 27.63C65.7631 28.97 66.0831 30 66.7231 30.72C67.3831 31.44 68.2031 31.8 69.1831 31.8ZM104.695 19.26L100.165 36H94.4947L91.8547 25.14L89.1247 36H83.4847L78.9247 19.26H84.0547L86.4247 31.23L89.2447 19.26H94.6747L97.5247 31.17L99.8647 19.26H104.695ZM116.851 19.08C118.811 19.08 120.371 19.72 121.531 21C122.711 22.26 123.301 24 123.301 26.22V36H118.201V26.91C118.201 25.79 117.911 24.92 117.331 24.3C116.751 23.68 115.971 23.37 114.991 23.37C114.011 23.37 113.231 23.68 112.651 24.3C112.071 24.92 111.781 25.79 111.781 26.91V36H106.651V19.26H111.781V21.48C112.301 20.74 113.001 20.16 113.881 19.74C114.761 19.3 115.751 19.08 116.851 19.08ZM131.996 13.8V36H126.866V13.8H131.996ZM143.334 36.24C141.694 36.24 140.214 35.89 138.894 35.19C137.594 34.49 136.564 33.49 135.804 32.19C135.064 30.89 134.694 29.37 134.694 27.63C134.694 25.91 135.074 24.4 135.834 23.1C136.594 21.78 137.634 20.77 138.954 20.07C140.274 19.37 141.754 19.02 143.394 19.02C145.034 19.02 146.514 19.37 147.834 20.07C149.154 20.77 150.194 21.78 150.954 23.1C151.714 24.4 152.094 25.91 152.094 27.63C152.094 29.35 151.704 30.87 150.924 32.19C150.164 33.49 149.114 34.49 147.774 35.19C146.454 35.89 144.974 36.24 143.334 36.24ZM143.334 31.8C144.314 31.8 145.144 31.44 145.824 30.72C146.524 30 146.874 28.97 146.874 27.63C146.874 26.29 146.534 25.26 145.854 24.54C145.194 23.82 144.374 23.46 143.394 23.46C142.394 23.46 141.564 23.82 140.904 24.54C140.244 25.24 139.914 26.27 139.914 27.63C139.914 28.97 140.234 30 140.874 30.72C141.534 31.44 142.354 31.8 143.334 31.8ZM153.795 27.6C153.795 25.88 154.115 24.37 154.755 23.07C155.415 21.77 156.305 20.77 157.425 20.07C158.545 19.37 159.795 19.02 161.175 19.02C162.355 19.02 163.385 19.26 164.265 19.74C165.165 20.22 165.855 20.85 166.335 21.63V19.26H171.465V36H166.335V33.63C165.835 34.41 165.135 35.04 164.235 35.52C163.355 36 162.325 36.24 161.145 36.24C159.785 36.24 158.545 35.89 157.425 35.19C156.305 34.47 155.415 33.46 154.755 32.16C154.115 30.84 153.795 29.32 153.795 27.6ZM166.335 27.63C166.335 26.35 165.975 25.34 165.255 24.6C164.555 23.86 163.695 23.49 162.675 23.49C161.655 23.49 160.785 23.86 160.065 24.6C159.365 25.32 159.015 26.32 159.015 27.6C159.015 28.88 159.365 29.9 160.065 30.66C160.785 31.4 161.655 31.77 162.675 31.77C163.695 31.77 164.555 31.4 165.255 30.66C165.975 29.92 166.335 28.91 166.335 27.63ZM174.156 27.6C174.156 25.88 174.476 24.37 175.116 23.07C175.776 21.77 176.666 20.77 177.786 20.07C178.906 19.37 180.156 19.02 181.536 19.02C182.636 19.02 183.636 19.25 184.536 19.71C185.456 20.17 186.176 20.79 186.696 21.57V13.8H191.826V36H186.696V33.6C186.216 34.4 185.526 35.04 184.626 35.52C183.746 36 182.716 36.24 181.536 36.24C180.156 36.24 178.906 35.89 177.786 35.19C176.666 34.47 175.776 33.46 175.116 32.16C174.476 30.84 174.156 29.32 174.156 27.6ZM186.696 27.63C186.696 26.35 186.336 25.34 185.616 24.6C184.916 23.86 184.056 23.49 183.036 23.49C182.016 23.49 181.146 23.86 180.426 24.6C179.726 25.32 179.376 26.32 179.376 27.6C179.376 28.88 179.726 29.9 180.426 30.66C181.146 31.4 182.016 31.77 183.036 31.77C184.056 31.77 184.916 31.4 185.616 30.66C186.336 29.92 186.696 28.91 186.696 27.63ZM201.025 25.44C201.025 23.36 201.475 21.51 202.375 19.89C203.275 18.25 204.525 16.98 206.125 16.08C207.745 15.16 209.575 14.7 211.615 14.7C214.115 14.7 216.255 15.36 218.035 16.68C219.815 18 221.005 19.8 221.605 22.08H215.965C215.545 21.2 214.945 20.53 214.165 20.07C213.405 19.61 212.535 19.38 211.555 19.38C209.975 19.38 208.695 19.93 207.715 21.03C206.735 22.13 206.245 23.6 206.245 25.44C206.245 27.28 206.735 28.75 207.715 29.85C208.695 30.95 209.975 31.5 211.555 31.5C212.535 31.5 213.405 31.27 214.165 30.81C214.945 30.35 215.545 29.68 215.965 28.8H221.605C221.005 31.08 219.815 32.88 218.035 34.2C216.255 35.5 214.115 36.15 211.615 36.15C209.575 36.15 207.745 35.7 206.125 34.8C204.525 33.88 203.275 32.61 202.375 30.99C201.475 29.37 201.025 27.52 201.025 25.44ZM240.527 27.36C240.527 27.84 240.497 28.34 240.437 28.86H228.827C228.907 29.9 229.237 30.7 229.817 31.26C230.417 31.8 231.147 32.07 232.007 32.07C233.287 32.07 234.177 31.53 234.677 30.45H240.137C239.857 31.55 239.347 32.54 238.607 33.42C237.887 34.3 236.977 34.99 235.877 35.49C234.777 35.99 233.547 36.24 232.187 36.24C230.547 36.24 229.087 35.89 227.807 35.19C226.527 34.49 225.527 33.49 224.807 32.19C224.087 30.89 223.727 29.37 223.727 27.63C223.727 25.89 224.077 24.37 224.777 23.07C225.497 21.77 226.497 20.77 227.777 20.07C229.057 19.37 230.527 19.02 232.187 19.02C233.807 19.02 235.247 19.36 236.507 20.04C237.767 20.72 238.747 21.69 239.447 22.95C240.167 24.21 240.527 25.68 240.527 27.36ZM235.277 26.01C235.277 25.13 234.977 24.43 234.377 23.91C233.777 23.39 233.027 23.13 232.127 23.13C231.267 23.13 230.537 23.38 229.937 23.88C229.357 24.38 228.997 25.09 228.857 26.01H235.277ZM253.433 19.08C255.393 19.08 256.953 19.72 258.113 21C259.293 22.26 259.883 24 259.883 26.22V36H254.783V26.91C254.783 25.79 254.493 24.92 253.913 24.3C253.333 23.68 252.553 23.37 251.573 23.37C250.593 23.37 249.813 23.68 249.233 24.3C248.653 24.92 248.363 25.79 248.363 26.91V36H243.233V19.26H248.363V21.48C248.883 20.74 249.583 20.16 250.463 19.74C251.343 19.3 252.333 19.08 253.433 19.08ZM272.778 31.65V36H270.168C268.308 36 266.858 35.55 265.818 34.65C264.778 33.73 264.258 32.24 264.258 30.18V23.52H262.218V19.26H264.258V15.18H269.388V19.26H272.748V23.52H269.388V30.24C269.388 30.74 269.508 31.1 269.748 31.32C269.988 31.54 270.388 31.65 270.948 31.65H272.778ZM291.415 27.36C291.415 27.84 291.385 28.34 291.325 28.86H279.715C279.795 29.9 280.125 30.7 280.705 31.26C281.305 31.8 282.035 32.07 282.895 32.07C284.175 32.07 285.065 31.53 285.565 30.45H291.025C290.745 31.55 290.235 32.54 289.495 33.42C288.775 34.3 287.865 34.99 286.765 35.49C285.665 35.99 284.435 36.24 283.075 36.24C281.435 36.24 279.975 35.89 278.695 35.19C277.415 34.49 276.415 33.49 275.695 32.19C274.975 30.89 274.615 29.37 274.615 27.63C274.615 25.89 274.965 24.37 275.665 23.07C276.385 21.77 277.385 20.77 278.665 20.07C279.945 19.37 281.415 19.02 283.075 19.02C284.695 19.02 286.135 19.36 287.395 20.04C288.655 20.72 289.635 21.69 290.335 22.95C291.055 24.21 291.415 25.68 291.415 27.36ZM286.165 26.01C286.165 25.13 285.865 24.43 285.265 23.91C284.665 23.39 283.915 23.13 283.015 23.13C282.155 23.13 281.425 23.38 280.825 23.88C280.245 24.38 279.885 25.09 279.745 26.01H286.165ZM299.252 22.05C299.852 21.13 300.602 20.41 301.502 19.89C302.402 19.35 303.402 19.08 304.502 19.08V24.51H303.092C301.812 24.51 300.852 24.79 300.212 25.35C299.572 25.89 299.252 26.85 299.252 28.23V36H294.122V19.26H299.252V22.05Z" fill="#E2DC00"/>
</g>
<path d="M53.4762 16.26L58.16 7.42471L58.16 7.42471L53.4762 16.26ZM57.3162 19.98L48.6005 24.8826C48.6248 24.9259 48.6495 24.969 48.6745 25.0119L57.3162 19.98ZM57.3162 30.96L48.6472 25.9753C48.6315 26.0026 48.6159 26.0299 48.6005 26.0574L57.3162 30.96ZM53.4463 34.68L48.8062 25.8217C48.7916 25.8293 48.777 25.837 48.7625 25.8447L53.4463 34.68ZM39.7663 36H29.7662C29.7662 41.5228 34.2434 46 39.7663 46V36ZM39.7663 14.94V4.94C34.2434 4.94 29.7662 9.41715 29.7662 14.94H39.7663ZM44.8962 19.32V9.32C39.3734 9.32 34.8963 13.7972 34.8963 19.32H44.8962ZM44.8962 31.56H34.8963C34.8963 37.0828 39.3734 41.56 44.8962 41.56V31.56ZM47.6562 14.94V24.94C48.1067 24.94 48.3983 24.9846 48.5644 25.0223C48.7241 25.0585 48.7868 25.0923 48.7925 25.0953L53.4762 16.26L58.16 7.42471C54.8165 5.65225 51.213 4.94 47.6562 4.94V14.94ZM53.4762 16.26L48.7925 25.0953C48.8178 25.1087 48.8183 25.111 48.8011 25.0987C48.7836 25.086 48.7559 25.064 48.7233 25.0324C48.6906 25.0007 48.6614 24.9676 48.6375 24.9365C48.6139 24.9057 48.6022 24.8856 48.6005 24.8826L57.3162 19.98L66.032 15.0774C64.1695 11.7663 61.471 9.17994 58.16 7.42471L53.4762 16.26ZM57.3162 19.98L48.6745 25.0119C48.6474 24.9653 48.6443 24.9409 48.653 24.9753C48.6633 25.0166 48.6963 25.169 48.6963 25.47H58.6963H68.6963C68.6963 21.8699 67.8845 18.2566 65.958 14.9481L57.3162 19.98ZM58.6963 25.47H48.6963C48.6963 25.7526 48.6652 25.901 48.653 25.9497C48.6422 25.9925 48.6383 25.9907 48.6472 25.9753L57.3162 30.96L65.9853 35.9447C67.8754 32.6577 68.6963 29.0716 68.6963 25.47H58.6963ZM57.3162 30.96L48.6005 26.0574C48.6061 26.0474 48.6217 26.0215 48.6491 25.986C48.6767 25.9502 48.709 25.914 48.7438 25.8806C48.82 25.8074 48.8589 25.794 48.8062 25.8217L53.4463 34.68L58.0863 43.5383C61.4188 41.7928 64.1517 39.2054 66.032 35.8626L57.3162 30.96ZM53.4463 34.68L48.7625 25.8447C48.7496 25.8515 48.6849 25.8851 48.531 25.9202C48.3708 25.9567 48.0901 26 47.6562 26V36V46C51.2096 46 54.799 45.2811 58.13 43.5153L53.4463 34.68ZM47.6562 36V26H39.7663V36V46H47.6562V36ZM39.7663 36H49.7663V14.94H39.7663H29.7662V36H39.7663ZM39.7663 14.94V24.94H47.6562V14.94V4.94H39.7663V14.94ZM47.3263 31.56V41.56C51.1146 41.56 55.4247 40.4795 58.8609 37.1068L51.8563 29.97L44.8516 22.8332C45.4188 22.2764 46.0536 21.9193 46.6019 21.7268C47.1097 21.5486 47.4001 21.56 47.3263 21.56V31.56ZM51.8563 29.97L58.8609 37.1068C62.3584 33.6742 63.4762 29.2994 63.4762 25.47H53.4762H43.4763C43.4763 25.5276 43.4668 25.206 43.6624 24.6628C43.8738 24.0757 44.2611 23.4127 44.8516 22.8332L51.8563 29.97ZM53.4762 25.47H63.4762C63.4762 21.6307 62.3552 17.2969 58.9273 13.8689L51.8563 20.94L44.7852 28.0111C44.227 27.4529 43.8578 26.8163 43.6552 26.2498C43.4674 25.7244 43.4763 25.4143 43.4763 25.47H53.4762ZM51.8563 20.94L58.9273 13.8689C55.4994 10.441 51.1656 9.32 47.3263 9.32V19.32V29.32C47.3819 29.32 47.0718 29.3289 46.5464 29.141C45.9799 28.9384 45.3434 28.5693 44.7852 28.0111L51.8563 20.94ZM47.3263 19.32V9.32H44.8962V19.32V29.32H47.3263V19.32ZM44.8962 19.32H34.8963V31.56H44.8962H54.8963V19.32H44.8962ZM44.8962 31.56V41.56H47.3263V31.56V21.56H44.8962V31.56ZM64.7431 35.19L60.0021 43.9947C60.0208 44.0047 60.0394 44.0147 60.0581 44.0246L64.7431 35.19ZM61.6531 32.19L52.9625 37.137C52.9815 37.1704 53.0007 37.2038 53.0202 37.237L61.6531 32.19ZM61.6831 23.1L70.3161 28.147C70.3272 28.1279 70.3383 28.1088 70.3493 28.0896L61.6831 23.1ZM64.8031 20.07L69.4882 28.9046V28.9046L64.8031 20.07ZM73.6831 20.07L68.9981 28.9046L68.9981 28.9046L73.6831 20.07ZM76.8031 23.1L68.1369 28.0896C68.1479 28.1088 68.159 28.1279 68.1702 28.147L76.8031 23.1ZM76.7731 32.19L68.1639 27.1027C68.1559 27.1161 68.148 27.1296 68.1402 27.143L76.7731 32.19ZM73.6231 35.19L68.9929 26.3265C68.9746 26.3361 68.9564 26.3457 68.9381 26.3554L73.6231 35.19ZM71.6731 30.72L64.5032 23.7492C64.4695 23.7838 64.4361 23.8187 64.403 23.8538L71.6731 30.72ZM71.7031 24.54L64.3316 31.2972C64.3651 31.3338 64.3989 31.3702 64.433 31.4062L71.7031 24.54ZM66.7531 24.54L74.029 31.4001C74.0611 31.3661 74.093 31.3318 74.1247 31.2972L66.7531 24.54ZM66.7231 30.72L59.249 37.3636C59.2829 37.4018 59.3171 37.4396 59.3516 37.4772L66.7231 30.72ZM69.1831 36.24V26.24C69.0779 26.24 69.074 26.2292 69.1445 26.2459C69.2191 26.2636 69.3216 26.2989 69.4282 26.3554L64.7431 35.19L60.0581 44.0246C62.9584 45.5627 66.0725 46.24 69.1831 46.24V36.24ZM64.7431 35.19L69.4841 26.3853C69.6241 26.4607 69.7949 26.5786 69.9614 26.7402C70.127 26.9009 70.2316 27.0499 70.2861 27.143L61.6531 32.19L53.0202 37.237C54.6881 40.0901 57.0506 42.4054 60.0021 43.9947L64.7431 35.19ZM61.6531 32.19L70.3438 27.243C70.4548 27.4381 70.5119 27.6073 70.5369 27.7099C70.5601 27.8051 70.5431 27.791 70.5431 27.63H60.5431H50.5431C50.5431 30.8189 51.2333 34.0992 52.9625 37.137L61.6531 32.19ZM60.5431 27.63H70.5431C70.5431 27.508 70.5563 27.5268 70.5258 27.648C70.4935 27.7763 70.4282 27.9553 70.3161 28.147L61.6831 23.1L53.0502 18.053C51.2738 21.0916 50.5431 24.3928 50.5431 27.63H60.5431ZM61.6831 23.1L70.3493 28.0896C70.2903 28.1922 70.1778 28.3535 70 28.5263C69.8211 28.7 69.6377 28.8253 69.4882 28.9046L64.8031 20.07L60.1181 11.2354C57.1019 12.8349 54.6965 15.1931 53.0169 18.1104L61.6831 23.1ZM64.8031 20.07L69.4882 28.9046C69.3816 28.9611 69.2791 28.9964 69.2045 29.0141C69.134 29.0308 69.1379 29.02 69.2431 29.02V19.02V9.02C66.1325 9.02 63.0184 9.69733 60.1181 11.2354L64.8031 20.07ZM69.2431 19.02V29.02C69.3483 29.02 69.3522 29.0308 69.2817 29.0141C69.2071 28.9964 69.1046 28.9611 68.9981 28.9046L73.6831 20.07L78.3682 11.2354C75.4678 9.69733 72.3538 9.02 69.2431 9.02V19.02ZM73.6831 20.07L68.9981 28.9046C68.8486 28.8253 68.6652 28.7 68.4863 28.5263C68.3084 28.3535 68.1959 28.1922 68.1369 28.0896L76.8031 23.1L85.4694 18.1104C83.7897 15.1931 81.3843 12.8349 78.3682 11.2354L73.6831 20.07ZM76.8031 23.1L68.1702 28.147C68.0581 27.9553 67.9928 27.7763 67.9605 27.648C67.93 27.5268 67.9431 27.508 67.9431 27.63H77.9431H87.9431C87.9431 24.3928 87.2125 21.0916 85.4361 18.053L76.8031 23.1ZM77.9431 27.63H67.9431C67.9431 27.7312 67.9322 27.7003 67.9644 27.5747C67.9983 27.4426 68.0627 27.2739 68.1639 27.1027L76.7731 32.19L85.3824 37.2773C87.18 34.2351 87.9431 30.9165 87.9431 27.63H77.9431ZM76.7731 32.19L68.1402 27.143C68.2149 27.0151 68.3395 26.8447 68.5191 26.6736C68.6984 26.5028 68.8709 26.3903 68.9929 26.3265L73.6231 35.19L78.2533 44.0535C81.2528 42.4866 83.6932 40.167 85.4061 37.237L76.7731 32.19ZM73.6231 35.19L68.9381 26.3554C69.0446 26.2989 69.1472 26.2636 69.2217 26.2459C69.2922 26.2292 69.2883 26.24 69.1831 26.24V36.24V46.24C72.2938 46.24 75.4078 45.5627 78.3082 44.0246L73.6231 35.19ZM69.1831 31.8V41.8C72.9472 41.8 76.3968 40.2825 78.9433 37.5862L71.6731 30.72L64.403 23.8538C64.9039 23.3234 65.6214 22.7635 66.5614 22.3558C67.5038 21.947 68.4193 21.8 69.1831 21.8V31.8ZM71.6731 30.72L78.8431 37.6908C81.8986 34.548 82.7231 30.6781 82.7231 27.63H72.7231H62.7231C62.7231 27.2619 62.8477 25.452 64.5032 23.7492L71.6731 30.72ZM72.7231 27.63H82.7231C82.7231 24.6551 81.9491 20.8247 78.9733 17.6738L71.7031 24.54L64.433 31.4062C62.8171 29.6953 62.7231 27.9249 62.7231 27.63H72.7231ZM71.7031 24.54L79.0747 17.7828C76.5133 14.9886 73.0155 13.46 69.2431 13.46V23.46V33.46C68.4809 33.46 67.5456 33.3133 66.5732 32.8864C65.6001 32.4592 64.8542 31.8673 64.3316 31.2972L71.7031 24.54ZM69.2431 23.46V13.46C65.5159 13.46 61.9864 14.9412 59.3816 17.7828L66.7531 24.54L74.1247 31.2972C73.5826 31.8886 72.8227 32.4822 71.8498 32.9042C70.8825 33.3238 69.9671 33.46 69.2431 33.46V23.46ZM66.7531 24.54L59.4772 17.6799C56.4566 20.8835 55.7631 24.7769 55.7631 27.63H65.7631H75.7631C75.7631 27.7631 75.7296 29.5965 74.029 31.4001L66.7531 24.54ZM65.7631 27.63H55.7631C55.7631 30.4616 56.4419 34.2056 59.249 37.3636L66.7231 30.72L74.1972 24.0764C75.7244 25.7944 75.7631 27.4784 75.7631 27.63H65.7631ZM66.7231 30.72L59.3516 37.4772C61.9129 40.2714 65.4108 41.8 69.1831 41.8V31.8V21.8C69.9454 21.8 70.8806 21.9467 71.853 22.3736C72.8262 22.8008 73.5721 23.3927 74.0947 23.9628L66.7231 30.72ZM104.695 19.26L114.347 21.8721C115.161 18.867 114.528 15.6545 112.636 13.1822C110.744 10.71 107.808 9.26 104.695 9.26V19.26ZM100.165 36V46C104.682 46 108.638 42.9722 109.817 38.6121L100.165 36ZM94.4947 36L84.7777 38.3621C85.8673 42.8446 89.8817 46 94.4947 46V36ZM91.8547 25.14L101.572 22.7779C100.485 18.3096 96.4921 15.158 91.8937 15.1401C87.2954 15.1221 83.2775 18.2424 82.1564 22.702L91.8547 25.14ZM89.1247 36V46C93.7085 46 97.7054 42.8835 98.823 38.438L89.1247 36ZM83.4847 36L73.8363 38.6282C75.0218 42.9803 78.974 46 83.4847 46V36ZM78.9247 19.26V9.26C75.8085 9.26 72.8704 10.7127 70.9785 13.1889C69.0867 15.665 68.4572 18.8816 69.2763 21.8882L78.9247 19.26ZM84.0547 19.26L93.8643 17.3178C92.937 12.6346 88.8288 9.26 84.0547 9.26V19.26ZM86.4247 31.23L76.6151 33.1722C77.5293 37.7893 81.5393 41.1439 86.2452 41.2284C90.9511 41.3129 95.0789 38.1044 96.1582 33.5231L86.4247 31.23ZM89.2447 19.26V9.26C84.6052 9.26 80.575 12.451 79.5112 16.9669L89.2447 19.26ZM94.6747 19.26L104.4 16.9328C103.323 12.4334 99.3011 9.26 94.6747 9.26V19.26ZM97.5247 31.17L87.7993 33.4972C88.8937 38.0709 93.0272 41.264 97.729 41.1679C102.431 41.0718 106.43 37.7125 107.337 33.0979L97.5247 31.17ZM99.8647 19.26V9.26C95.0851 9.26 90.9737 12.6422 90.0523 17.3321L99.8647 19.26ZM104.695 19.26L95.0419 16.6479L90.5119 33.3879L100.165 36L109.817 38.6121L114.347 21.8721L104.695 19.26ZM100.165 36V26H94.4947V36V46H100.165V36ZM94.4947 36L104.212 33.6379L101.572 22.7779L91.8547 25.14L82.1377 27.5021L84.7777 38.3621L94.4947 36ZM91.8547 25.14L82.1564 22.702L79.4264 33.562L89.1247 36L98.823 38.438L101.553 27.578L91.8547 25.14ZM89.1247 36V26H83.4847V36V46H89.1247V36ZM83.4847 36L93.1331 33.3718L88.5731 16.6318L78.9247 19.26L69.2763 21.8882L73.8363 38.6282L83.4847 36ZM78.9247 19.26V29.26H84.0547V19.26V9.26H78.9247V19.26ZM84.0547 19.26L74.2451 21.2022L76.6151 33.1722L86.4247 31.23L96.2343 29.2878L93.8643 17.3178L84.0547 19.26ZM86.4247 31.23L96.1582 33.5231L98.9782 21.5531L89.2447 19.26L79.5112 16.9669L76.6912 28.9369L86.4247 31.23ZM89.2447 19.26V29.26H94.6747V19.26V9.26H89.2447V19.26ZM94.6747 19.26L84.9493 21.5872L87.7993 33.4972L97.5247 31.17L107.25 28.8428L104.4 16.9328L94.6747 19.26ZM97.5247 31.17L107.337 33.0979L109.677 21.1879L99.8647 19.26L90.0523 17.3321L87.7123 29.2421L97.5247 31.17ZM99.8647 19.26V29.26H104.695V19.26V9.26H99.8647V19.26ZM121.531 21L114.121 27.7152C114.158 27.7556 114.195 27.7957 114.232 27.8356L121.531 21ZM123.301 36V46C128.824 46 133.301 41.5228 133.301 36H123.301ZM118.201 36H108.201C108.201 41.5228 112.678 46 118.201 46V36ZM117.331 24.3L110.028 31.1316L110.028 31.1316L117.331 24.3ZM112.651 24.3L119.954 31.1316L119.954 31.1316L112.651 24.3ZM111.781 36V46C117.304 46 121.781 41.5228 121.781 36H111.781ZM106.651 36H96.651C96.651 41.5228 101.128 46 106.651 46V36ZM106.651 19.26V9.26C101.128 9.26 96.651 13.7372 96.651 19.26H106.651ZM111.781 19.26H121.781C121.781 13.7372 117.304 9.26 111.781 9.26V19.26ZM111.781 21.48H101.781C101.781 25.8414 104.608 29.6997 108.766 31.0147C112.924 32.3296 117.455 30.7979 119.963 27.2295L111.781 21.48ZM113.881 19.74L118.188 28.7648C118.244 28.7385 118.298 28.7116 118.353 28.6843L113.881 19.74ZM116.851 19.08V29.08C116.738 29.08 116.299 29.0593 115.695 28.8117C115.062 28.552 114.517 28.1516 114.121 27.7152L121.531 21L128.941 14.2848C125.62 10.6206 121.213 9.08 116.851 9.08V19.08ZM121.531 21L114.232 27.8356C113.787 27.3599 113.521 26.8518 113.388 26.4612C113.268 26.1072 113.301 25.982 113.301 26.22H123.301H133.301C133.301 22.2134 132.199 17.7619 128.83 14.1644L121.531 21ZM123.301 26.22H113.301V36H123.301H133.301V26.22H123.301ZM123.301 36V26H118.201V36V46H123.301V36ZM118.201 36H128.201V26.91H118.201H108.201V36H118.201ZM118.201 26.91H128.201C128.201 24.0844 127.442 20.47 124.634 17.4684L117.331 24.3L110.028 31.1316C108.38 29.37 108.201 27.4956 108.201 26.91H118.201ZM117.331 24.3L124.634 17.4684C121.866 14.5093 118.271 13.37 114.991 13.37V23.37V33.37C114.425 33.37 113.582 33.2789 112.618 32.8955C111.622 32.4996 110.733 31.8852 110.028 31.1316L117.331 24.3ZM114.991 23.37V13.37C111.711 13.37 108.117 14.5093 105.348 17.4684L112.651 24.3L119.954 31.1316C119.249 31.8852 118.36 32.4996 117.364 32.8955C116.4 33.2789 115.557 33.37 114.991 33.37V23.37ZM112.651 24.3L105.348 17.4684C102.54 20.47 101.781 24.0844 101.781 26.91H111.781H121.781C121.781 27.4956 121.602 29.37 119.954 31.1316L112.651 24.3ZM111.781 26.91H101.781V36H111.781H121.781V26.91H111.781ZM111.781 36V26H106.651V36V46H111.781V36ZM106.651 36H116.651V19.26H106.651H96.651V36H106.651ZM106.651 19.26V29.26H111.781V19.26V9.26H106.651V19.26ZM111.781 19.26H101.781V21.48H111.781H121.781V19.26H111.781ZM111.781 21.48L119.963 27.2295C119.418 28.0053 118.735 28.5039 118.188 28.7648L113.881 19.74L109.574 10.7152C107.267 11.8161 105.184 13.4747 103.599 15.7305L111.781 21.48ZM113.881 19.74L118.353 28.6843C117.688 29.0169 117.118 29.08 116.851 29.08V19.08V9.08C114.384 9.08 111.834 9.5831 109.409 10.7957L113.881 19.74ZM131.996 13.8H141.996C141.996 8.27715 137.519 3.8 131.996 3.8V13.8ZM131.996 36V46C137.519 46 141.996 41.5228 141.996 36H131.996ZM126.866 36H116.866C116.866 41.5228 121.343 46 126.866 46V36ZM126.866 13.8V3.8C121.343 3.8 116.866 8.27715 116.866 13.8L126.866 13.8ZM131.996 13.8H121.996V36H131.996H141.996V13.8H131.996ZM131.996 36V26H126.866V36V46H131.996V36ZM126.866 36H136.866V13.8H126.866H116.866V36H126.866ZM126.866 13.8V23.8H131.996V13.8V3.8H126.866V13.8ZM138.894 35.19L134.153 43.9947C134.171 44.0047 134.19 44.0147 134.208 44.0246L138.894 35.19ZM135.804 32.19L127.113 37.137C127.132 37.1704 127.151 37.2038 127.171 37.237L135.804 32.19ZM135.834 23.1L144.466 28.147C144.478 28.1279 144.489 28.1088 144.5 28.0896L135.834 23.1ZM138.954 20.07L143.639 28.9046V28.9046L138.954 20.07ZM147.834 20.07L143.148 28.9046V28.9046L147.834 20.07ZM150.954 23.1L142.287 28.0896C142.298 28.1088 142.309 28.1279 142.321 28.147L150.954 23.1ZM150.924 32.19L142.314 27.1027C142.306 27.1161 142.298 27.1296 142.291 27.143L150.924 32.19ZM147.774 35.19L143.143 26.3265C143.125 26.3361 143.107 26.3457 143.088 26.3554L147.774 35.19ZM145.824 30.72L138.654 23.7492C138.62 23.7838 138.587 23.8187 138.553 23.8538L145.824 30.72ZM145.854 24.54L138.482 31.2972C138.516 31.3338 138.549 31.3702 138.583 31.4062L145.854 24.54ZM140.904 24.54L148.179 31.4001C148.212 31.3661 148.243 31.3318 148.275 31.2972L140.904 24.54ZM140.874 30.72L133.399 37.3636C133.433 37.4018 133.467 37.4396 133.502 37.4772L140.874 30.72ZM143.334 36.24V26.24C143.228 26.24 143.224 26.2292 143.295 26.2459C143.369 26.2636 143.472 26.2989 143.579 26.3554L138.894 35.19L134.208 44.0246C137.109 45.5627 140.223 46.24 143.334 46.24V36.24ZM138.894 35.19L143.635 26.3853C143.774 26.4607 143.945 26.5786 144.112 26.7402C144.277 26.9009 144.382 27.0499 144.436 27.143L135.804 32.19L127.171 37.237C128.839 40.0901 131.201 42.4054 134.153 43.9947L138.894 35.19ZM135.804 32.19L144.494 27.243C144.605 27.4381 144.662 27.6073 144.687 27.7099C144.71 27.8051 144.694 27.791 144.694 27.63H134.694H124.694C124.694 30.8189 125.384 34.0992 127.113 37.137L135.804 32.19ZM134.694 27.63H144.694C144.694 27.508 144.707 27.5268 144.676 27.648C144.644 27.7763 144.579 27.9553 144.466 28.147L135.834 23.1L127.201 18.053C125.424 21.0916 124.694 24.3928 124.694 27.63H134.694ZM135.834 23.1L144.5 28.0896C144.441 28.1922 144.328 28.3535 144.15 28.5263C143.971 28.7 143.788 28.8253 143.639 28.9046L138.954 20.07L134.268 11.2354C131.252 12.8349 128.847 15.1931 127.167 18.1104L135.834 23.1ZM138.954 20.07L143.639 28.9046C143.532 28.9611 143.429 28.9964 143.355 29.0141C143.284 29.0308 143.288 29.02 143.394 29.02V19.02V9.02C140.283 9.02 137.169 9.69733 134.268 11.2354L138.954 20.07ZM143.394 19.02V29.02C143.499 29.02 143.503 29.0308 143.432 29.0141C143.358 28.9964 143.255 28.9611 143.148 28.9046L147.834 20.07L152.519 11.2354C149.618 9.69733 146.504 9.02 143.394 9.02V19.02ZM147.834 20.07L143.148 28.9046C142.999 28.8253 142.816 28.7 142.637 28.5263C142.459 28.3535 142.346 28.1922 142.287 28.0896L150.954 23.1L159.62 18.1104C157.94 15.1931 155.535 12.8349 152.519 11.2354L147.834 20.07ZM150.954 23.1L142.321 28.147C142.208 27.9553 142.143 27.7763 142.111 27.648C142.08 27.5268 142.094 27.508 142.094 27.63H152.094H162.094C162.094 24.3928 161.363 21.0916 159.586 18.053L150.954 23.1ZM152.094 27.63H142.094C142.094 27.7312 142.083 27.7003 142.115 27.5747C142.149 27.4426 142.213 27.2739 142.314 27.1027L150.924 32.19L159.533 37.2773C161.33 34.2351 162.094 30.9165 162.094 27.63H152.094ZM150.924 32.19L142.291 27.143C142.365 27.0151 142.49 26.8447 142.669 26.6736C142.849 26.5028 143.021 26.3903 143.143 26.3265L147.774 35.19L152.404 44.0535C155.403 42.4866 157.844 40.167 159.556 37.237L150.924 32.19ZM147.774 35.19L143.088 26.3554C143.195 26.2989 143.298 26.2636 143.372 26.2459C143.443 26.2292 143.439 26.24 143.334 26.24V36.24V46.24C146.444 46.24 149.558 45.5627 152.459 44.0246L147.774 35.19ZM143.334 31.8V41.8C147.098 41.8 150.547 40.2825 153.094 37.5862L145.824 30.72L138.553 23.8538C139.054 23.3234 139.772 22.7635 140.712 22.3558C141.654 21.947 142.57 21.8 143.334 21.8V31.8ZM145.824 30.72L152.993 37.6908C156.049 34.548 156.874 30.6781 156.874 27.63H146.874H136.874C136.874 27.2619 136.998 25.452 138.654 23.7492L145.824 30.72ZM146.874 27.63H156.874C156.874 24.6551 156.1 20.8247 153.124 17.6738L145.854 24.54L138.583 31.4062C136.968 29.6953 136.874 27.9249 136.874 27.63H146.874ZM145.854 24.54L153.225 17.7828C150.664 14.9886 147.166 13.46 143.394 13.46V23.46V33.46C142.631 33.46 141.696 33.3133 140.724 32.8864C139.75 32.4592 139.005 31.8673 138.482 31.2972L145.854 24.54ZM143.394 23.46V13.46C139.666 13.46 136.137 14.9412 133.532 17.7828L140.904 24.54L148.275 31.2972C147.733 31.8886 146.973 32.4822 146 32.9042C145.033 33.3238 144.118 33.46 143.394 33.46V23.46ZM140.904 24.54L133.628 17.6799C130.607 20.8835 129.914 24.7769 129.914 27.63H139.914H149.914C149.914 27.7631 149.88 29.5965 148.179 31.4001L140.904 24.54ZM139.914 27.63H129.914C129.914 30.4616 130.592 34.2056 133.399 37.3636L140.874 30.72L148.348 24.0764C149.875 25.7944 149.914 27.4784 149.914 27.63H139.914ZM140.874 30.72L133.502 37.4772C136.063 40.2714 139.561 41.8 143.334 41.8V31.8V21.8C144.096 21.8 145.031 21.9467 146.003 22.3736C146.977 22.8008 147.722 23.3927 148.245 23.9628L140.874 30.72ZM154.755 23.07L145.838 18.5431C145.82 18.5797 145.801 18.6164 145.783 18.6532L154.755 23.07ZM157.425 20.07L162.725 28.55V28.55L157.425 20.07ZM164.265 19.74L159.477 28.519C159.504 28.5339 159.532 28.5488 159.559 28.5635L164.265 19.74ZM166.335 21.63L157.818 26.871C160.163 30.6813 164.754 32.4705 169.059 31.252C173.363 30.0335 176.335 26.104 176.335 21.63H166.335ZM166.335 19.26V9.26C160.812 9.26 156.335 13.7372 156.335 19.26H166.335ZM171.465 19.26H181.465C181.465 13.7372 176.988 9.26 171.465 9.26V19.26ZM171.465 36V46C176.988 46 181.465 41.5228 181.465 36H171.465ZM166.335 36H156.335C156.335 41.5228 160.812 46 166.335 46V36ZM166.335 33.63H176.335C176.335 29.1901 173.408 25.2818 169.147 24.0334C164.886 22.785 160.312 24.4955 157.916 28.2333L166.335 33.63ZM164.235 35.52L159.529 26.6965C159.502 26.7112 159.474 26.7261 159.447 26.741L164.235 35.52ZM157.425 35.19L152.018 43.6018C152.053 43.6247 152.089 43.6475 152.125 43.67L157.425 35.19ZM154.755 32.16L145.757 36.5227C145.784 36.5777 145.811 36.6324 145.838 36.6869L154.755 32.16ZM165.255 24.6L157.99 31.472C158.023 31.5061 158.055 31.5399 158.088 31.5735L165.255 24.6ZM160.065 24.6L152.898 17.6265L152.895 17.6292L160.065 24.6ZM160.065 30.66L152.71 37.4348C152.771 37.5019 152.834 37.5681 152.898 37.6335L160.065 30.66ZM165.255 30.66L158.088 23.6865C158.055 23.7201 158.023 23.7539 157.99 23.788L165.255 30.66ZM153.795 27.6H163.795C163.795 27.3587 163.818 27.2518 163.818 27.2507C163.818 27.2504 163.813 27.2741 163.798 27.3173C163.783 27.3608 163.76 27.4188 163.727 27.4868L154.755 23.07L145.783 18.6532C144.352 21.5613 143.795 24.6326 143.795 27.6H153.795ZM154.755 23.07L163.672 27.5969C163.647 27.6457 163.562 27.797 163.388 27.9933C163.209 28.1942 162.983 28.3889 162.725 28.55L157.425 20.07L152.125 11.59C149.305 13.3524 147.234 15.7945 145.838 18.5431L154.755 23.07ZM157.425 20.07L162.725 28.55C162.491 28.6965 162.208 28.8255 161.899 28.9121C161.593 28.9979 161.339 29.02 161.175 29.02V19.02V9.02C158.009 9.02 154.908 9.85095 152.125 11.59L157.425 20.07ZM161.175 19.02V29.02C160.979 29.02 160.306 28.9713 159.477 28.519L164.265 19.74L169.054 10.961C166.464 9.54869 163.731 9.02 161.175 9.02V19.02ZM164.265 19.74L159.559 28.5635C159.076 28.3058 158.371 27.7689 157.818 26.871L166.335 21.63L174.852 16.389C173.339 13.9311 171.254 12.1342 168.971 10.9165L164.265 19.74ZM166.335 21.63H176.335V19.26H166.335H156.335V21.63H166.335ZM166.335 19.26V29.26H171.465V19.26V9.26H166.335V19.26ZM171.465 19.26H161.465V36H171.465H181.465V19.26H171.465ZM171.465 36V26H166.335V36V46H171.465V36ZM166.335 36H176.335V33.63H166.335H156.335V36H166.335ZM166.335 33.63L157.916 28.2333C158.431 27.4301 159.075 26.9388 159.529 26.6965L164.235 35.52L168.941 44.3435C171.195 43.1412 173.239 41.3899 174.754 39.0267L166.335 33.63ZM164.235 35.52L159.447 26.741C160.276 26.2887 160.949 26.24 161.145 26.24V36.24V46.24C163.701 46.24 166.434 45.7113 169.024 44.299L164.235 35.52ZM161.145 36.24V26.24C161.333 26.24 161.6 26.2655 161.912 26.3535C162.225 26.4421 162.503 26.571 162.725 26.71L157.425 35.19L152.125 43.67C154.883 45.3939 157.97 46.24 161.145 46.24V36.24ZM157.425 35.19L162.833 26.7782C163.06 26.9241 163.26 27.0998 163.42 27.2812C163.577 27.4586 163.652 27.5933 163.672 27.6331L154.755 32.16L145.838 36.6869C147.224 39.4156 149.264 41.8316 152.018 43.6018L157.425 35.19ZM154.755 32.16L163.753 27.7973C163.809 27.9116 163.823 27.9799 163.821 27.9699C163.817 27.9551 163.795 27.8406 163.795 27.6H153.795H143.795C143.795 30.572 144.353 33.6274 145.757 36.5227L154.755 32.16ZM166.335 27.63H176.335C176.335 24.4039 175.371 20.6574 172.422 17.6265L165.255 24.6L158.088 31.5735C157.407 30.874 156.929 30.0646 156.646 29.27C156.375 28.5112 156.335 27.9184 156.335 27.63H166.335ZM165.255 24.6L172.52 17.728C169.928 14.9882 166.439 13.49 162.675 13.49V23.49V33.49C161.949 33.49 161.059 33.3519 160.133 32.9534C159.206 32.5548 158.493 32.0029 157.99 31.472L165.255 24.6ZM162.675 23.49V13.49C158.918 13.49 155.474 14.9782 152.898 17.6265L160.065 24.6L167.232 31.5735C166.752 32.0669 166.066 32.5892 165.171 32.9699C164.274 33.3516 163.403 33.49 162.675 33.49V23.49ZM160.065 24.6L152.895 17.6292C149.919 20.6905 149.015 24.4637 149.015 27.6H159.015H169.015C169.015 27.8581 168.981 28.4369 168.716 29.1935C168.438 29.9891 167.954 30.8308 167.235 31.5708L160.065 24.6ZM159.015 27.6H149.015C149.015 30.7629 149.927 34.4138 152.71 37.4348L160.065 30.66L167.421 23.8852C168.049 24.5679 168.482 25.3385 168.736 26.0794C168.98 26.7885 169.015 27.3366 169.015 27.6H159.015ZM160.065 30.66L152.898 37.6335C155.474 40.2818 158.918 41.77 162.675 41.77V31.77V21.77C163.403 21.77 164.274 21.9084 165.171 22.2901C166.066 22.6708 166.752 23.1931 167.232 23.6865L160.065 30.66ZM162.675 31.77V41.77C166.439 41.77 169.928 40.2718 172.52 37.532L165.255 30.66L157.99 23.788C158.493 23.2571 159.206 22.7052 160.133 22.3066C161.059 21.9081 161.949 21.77 162.675 21.77V31.77ZM165.255 30.66L172.422 37.6335C175.371 34.6026 176.335 30.8561 176.335 27.63H166.335H156.335C156.335 27.3416 156.375 26.7488 156.646 25.99C156.929 25.1954 157.407 24.386 158.088 23.6865L165.255 30.66ZM175.116 23.07L166.2 18.5431C166.181 18.5797 166.163 18.6164 166.145 18.6532L175.116 23.07ZM177.786 20.07L183.086 28.55V28.55L177.786 20.07ZM184.536 19.71L179.985 28.6143C180.012 28.6278 180.038 28.6411 180.064 28.6543L184.536 19.71ZM186.696 21.57L178.376 27.117C180.82 30.7836 185.377 32.4179 189.594 31.1409C193.812 29.8639 196.696 25.9767 196.696 21.57H186.696ZM186.696 13.8V3.8C181.174 3.8 176.696 8.27715 176.696 13.8L186.696 13.8ZM191.826 13.8H201.826C201.826 8.27715 197.349 3.8 191.826 3.8V13.8ZM191.826 36V46C197.349 46 201.826 41.5228 201.826 36H191.826ZM186.696 36H176.696C176.696 41.5228 181.174 46 186.696 46V36ZM186.696 33.6H196.696C196.696 29.1052 193.697 25.1627 189.366 23.9629C185.034 22.763 180.434 24.6008 178.121 28.455L186.696 33.6ZM184.626 35.52L179.921 26.6965C179.893 26.7112 179.865 26.7261 179.838 26.741L184.626 35.52ZM177.786 35.19L172.379 43.6018C172.415 43.6247 172.45 43.6475 172.486 43.67L177.786 35.19ZM175.116 32.16L166.118 36.5227C166.145 36.5777 166.172 36.6324 166.2 36.6869L175.116 32.16ZM185.616 24.6L178.352 31.472C178.384 31.5061 178.416 31.5399 178.449 31.5735L185.616 24.6ZM180.426 24.6L173.259 17.6265L173.256 17.6292L180.426 24.6ZM180.426 30.66L173.071 37.4348C173.133 37.5019 173.196 37.5681 173.259 37.6335L180.426 30.66ZM185.616 30.66L178.449 23.6865C178.416 23.7201 178.384 23.7539 178.352 23.788L185.616 30.66ZM174.156 27.6H184.156C184.156 27.3587 184.179 27.2518 184.179 27.2507C184.179 27.2504 184.174 27.2741 184.159 27.3173C184.145 27.3608 184.122 27.4188 184.088 27.4868L175.116 23.07L166.145 18.6532C164.713 21.5613 164.156 24.6326 164.156 27.6H174.156ZM175.116 23.07L184.033 27.5969C184.008 27.6457 183.924 27.797 183.749 27.9933C183.57 28.1942 183.344 28.3889 183.086 28.55L177.786 20.07L172.486 11.59C169.667 13.3524 167.595 15.7945 166.2 18.5431L175.116 23.07ZM177.786 20.07L183.086 28.55C182.852 28.6965 182.57 28.8255 182.26 28.9121C181.954 28.9979 181.7 29.02 181.536 29.02V19.02V9.02C178.37 9.02 175.269 9.85095 172.486 11.59L177.786 20.07ZM181.536 19.02V29.02C181.197 29.02 180.616 28.9367 179.985 28.6143L184.536 19.71L189.088 10.8057C186.657 9.56331 184.076 9.02 181.536 9.02V19.02ZM184.536 19.71L180.064 28.6543C179.583 28.4137 178.913 27.923 178.376 27.117L186.696 21.57L195.017 16.023C193.44 13.657 191.33 11.9263 189.009 10.7657L184.536 19.71ZM186.696 21.57H196.696V13.8H186.696H176.696V21.57H186.696ZM186.696 13.8V23.8H191.826V13.8V3.8H186.696V13.8ZM191.826 13.8H181.826V36H191.826H201.826V13.8H191.826ZM191.826 36V26H186.696V36V46H191.826V36ZM186.696 36H196.696V33.6H186.696H176.696V36H186.696ZM186.696 33.6L178.121 28.455C178.66 27.5577 179.375 26.9872 179.921 26.6965L184.626 35.52L189.332 44.3435C191.677 43.0928 193.773 41.2423 195.271 38.745L186.696 33.6ZM184.626 35.52L179.838 26.741C180.667 26.2887 181.34 26.24 181.536 26.24V36.24V46.24C184.092 46.24 186.826 45.7113 189.415 44.299L184.626 35.52ZM181.536 36.24V26.24C181.7 26.24 181.954 26.2621 182.26 26.3479C182.57 26.4345 182.852 26.5635 183.086 26.71L177.786 35.19L172.486 43.67C175.269 45.409 178.37 46.24 181.536 46.24V36.24ZM177.786 35.19L183.194 26.7782C183.421 26.9241 183.622 27.0998 183.782 27.2812C183.938 27.4586 184.013 27.5933 184.033 27.6331L175.116 32.16L166.2 36.6869C167.585 39.4156 169.625 41.8316 172.379 43.6018L177.786 35.19ZM175.116 32.16L184.115 27.7973C184.17 27.9116 184.184 27.9799 184.182 27.9699C184.179 27.9551 184.156 27.8406 184.156 27.6H174.156H164.156C164.156 30.572 164.714 33.6274 166.118 36.5227L175.116 32.16ZM186.696 27.63H196.696C196.696 24.4039 195.733 20.6574 192.784 17.6265L185.616 24.6L178.449 31.5735C177.769 30.874 177.29 30.0646 177.007 29.27C176.736 28.5112 176.696 27.9184 176.696 27.63H186.696ZM185.616 24.6L192.881 17.728C190.289 14.9882 186.801 13.49 183.036 13.49V23.49V33.49C182.31 33.49 181.421 33.3519 180.494 32.9534C179.568 32.5548 178.854 32.0029 178.352 31.472L185.616 24.6ZM183.036 23.49V13.49C179.28 13.49 175.836 14.9782 173.259 17.6265L180.426 24.6L187.594 31.5735C187.114 32.0669 186.428 32.5892 185.533 32.9699C184.635 33.3516 183.764 33.49 183.036 33.49V23.49ZM180.426 24.6L173.256 17.6292C170.28 20.6905 169.376 24.4637 169.376 27.6H179.376H189.376C189.376 27.8581 189.342 28.4369 189.077 29.1935C188.799 29.9891 188.316 30.8308 187.596 31.5708L180.426 24.6ZM179.376 27.6H169.376C169.376 30.7629 170.288 34.4138 173.071 37.4348L180.426 30.66L187.782 23.8852C188.411 24.5679 188.843 25.3385 189.098 26.0794C189.341 26.7885 189.376 27.3366 189.376 27.6H179.376ZM180.426 30.66L173.259 37.6335C175.836 40.2818 179.28 41.77 183.036 41.77V31.77V21.77C183.764 21.77 184.635 21.9084 185.533 22.2901C186.428 22.6708 187.114 23.1931 187.594 23.6865L180.426 30.66ZM183.036 31.77V41.77C186.801 41.77 190.289 40.2718 192.881 37.532L185.616 30.66L178.352 23.788C178.854 23.2571 179.568 22.7052 180.494 22.3066C181.421 21.9081 182.31 21.77 183.036 21.77V31.77ZM185.616 30.66L192.784 37.6335C195.733 34.6026 196.696 30.8561 196.696 27.63H186.696H176.696C176.696 27.3416 176.736 26.7488 177.007 25.99C177.29 25.1954 177.769 24.386 178.449 23.6865L185.616 30.66ZM202.375 19.89L211.117 24.7464C211.125 24.7313 211.133 24.7162 211.142 24.701L202.375 19.89ZM206.125 16.08L211.028 24.7958C211.04 24.7891 211.052 24.7824 211.063 24.7756L206.125 16.08ZM218.035 16.68L223.992 8.64763V8.64762L218.035 16.68ZM221.605 22.08V32.08C224.706 32.08 227.632 30.6413 229.525 28.1854C231.418 25.7294 232.065 22.534 231.276 19.5351L221.605 22.08ZM215.965 22.08L206.94 26.3873C208.6 29.8654 212.111 32.08 215.965 32.08V22.08ZM214.165 20.07L208.987 28.625C209.02 28.6447 209.052 28.6643 209.085 28.6837L214.165 20.07ZM207.715 21.03L215.182 27.6821L215.182 27.6821L207.715 21.03ZM214.165 30.81L209.085 22.1963C209.052 22.2157 209.02 22.2353 208.987 22.255L214.165 30.81ZM215.965 28.8V18.8C212.111 18.8 208.6 21.0146 206.94 24.4927L215.965 28.8ZM221.605 28.8L231.276 31.3449C232.065 28.346 231.418 25.1506 229.525 22.6946C227.632 20.2387 224.706 18.8 221.605 18.8V28.8ZM218.035 34.2L223.933 42.2756C223.953 42.2612 223.972 42.2468 223.992 42.2324L218.035 34.2ZM206.125 34.8L201.14 43.4691C201.183 43.4935 201.226 43.5177 201.269 43.5416L206.125 34.8ZM202.375 30.99L211.117 26.1336L202.375 30.99ZM201.025 25.44H211.025C211.025 25.1236 211.059 24.9397 211.079 24.856C211.098 24.7779 211.114 24.7516 211.117 24.7464L202.375 19.89L193.634 15.0336C191.811 18.3138 191.025 21.8723 191.025 25.44H201.025ZM202.375 19.89L211.142 24.701C211.159 24.6706 211.165 24.663 211.159 24.6717C211.152 24.6808 211.137 24.6992 211.115 24.7222C211.092 24.7453 211.069 24.7653 211.049 24.7806C211.029 24.7958 211.02 24.8002 211.028 24.7958L206.125 16.08L201.223 7.36424C197.963 9.19783 195.389 11.8351 193.608 15.079L202.375 19.89ZM206.125 16.08L211.063 24.7756C211.079 24.7668 211.099 24.7562 211.15 24.7433C211.207 24.7292 211.351 24.7 211.615 24.7V14.7V4.7C208.013 4.7 204.453 5.52974 201.187 7.38439L206.125 16.08ZM211.615 14.7V24.7C211.981 24.7 212.137 24.7473 212.148 24.7509C212.156 24.7535 212.146 24.7507 212.124 24.7397C212.102 24.7287 212.086 24.7177 212.079 24.7124L218.035 16.68L223.992 8.64762C220.271 5.8885 215.973 4.7 211.615 4.7V14.7ZM218.035 16.68L212.079 24.7124C212.076 24.7106 212.052 24.692 212.016 24.6548C211.981 24.6173 211.948 24.5754 211.921 24.5349C211.894 24.4948 211.885 24.4722 211.887 24.4776C211.89 24.4841 211.909 24.5294 211.934 24.6249L221.605 22.08L231.276 19.5351C230.137 15.2078 227.719 11.4116 223.992 8.64763L218.035 16.68ZM221.605 22.08V12.08H215.965V22.08V32.08H221.605V22.08ZM215.965 22.08L224.99 17.7727C223.782 15.2414 221.872 13.0058 219.245 11.4563L214.165 20.07L209.085 28.6837C208.596 28.3954 208.141 28.0244 207.751 27.5887C207.365 27.1577 207.106 26.7343 206.94 26.3873L215.965 22.08ZM214.165 20.07L219.343 11.515C216.863 10.014 214.167 9.38 211.555 9.38V19.38V29.38C210.904 29.38 209.947 29.206 208.987 28.625L214.165 20.07ZM211.555 19.38V9.38C207.356 9.38 203.276 10.9801 200.249 14.3779L207.715 21.03L215.182 27.6821C214.756 28.1604 214.139 28.6446 213.358 28.9802C212.594 29.3084 211.941 29.38 211.555 29.38V19.38ZM207.715 21.03L200.249 14.3779C197.259 17.7334 196.245 21.7812 196.245 25.44H206.245H216.245C216.245 25.3989 216.251 25.6645 216.099 26.1198C215.938 26.6052 215.642 27.1659 215.182 27.6821L207.715 21.03ZM206.245 25.44H196.245C196.245 29.0988 197.259 33.1466 200.249 36.5021L207.715 29.85L215.182 23.1979C215.642 23.7141 215.938 24.2748 216.099 24.7602C216.251 25.2155 216.245 25.4811 216.245 25.44H206.245ZM207.715 29.85L200.249 36.5021C203.276 39.8999 207.356 41.5 211.555 41.5V31.5V21.5C211.941 21.5 212.594 21.5716 213.358 21.8998C214.139 22.2354 214.756 22.7196 215.182 23.1979L207.715 29.85ZM211.555 31.5V41.5C214.167 41.5 216.863 40.866 219.343 39.365L214.165 30.81L208.987 22.255C209.947 21.674 210.904 21.5 211.555 21.5V31.5ZM214.165 30.81L219.245 39.4237C221.872 37.8742 223.782 35.6386 224.99 33.1073L215.965 28.8L206.94 24.4927C207.106 24.1457 207.365 23.7223 207.751 23.2913C208.141 22.8556 208.596 22.4846 209.085 22.1963L214.165 30.81ZM215.965 28.8V38.8H221.605V28.8V18.8H215.965V28.8ZM221.605 28.8L211.934 26.2551C211.909 26.3506 211.89 26.3959 211.887 26.4024C211.885 26.4078 211.894 26.3852 211.921 26.3451C211.948 26.3046 211.981 26.2627 212.016 26.2252C212.052 26.188 212.076 26.1694 212.079 26.1676L218.035 34.2L223.992 42.2324C227.719 39.4684 230.137 35.6722 231.276 31.3449L221.605 28.8ZM218.035 34.2L212.137 26.1244C212.145 26.1189 212.16 26.1091 212.179 26.0997C212.197 26.0905 212.203 26.0897 212.189 26.0941C212.165 26.1015 211.995 26.15 211.615 26.15V36.15V46.15C215.939 46.15 220.216 44.9904 223.933 42.2756L218.035 34.2ZM211.615 36.15V26.15C211.334 26.15 211.173 26.1195 211.101 26.1018C211.033 26.0852 211.002 26.0699 210.982 26.0584L206.125 34.8L201.269 43.5416C204.52 45.3481 208.051 46.15 211.615 46.15V36.15ZM206.125 34.8L211.11 26.1309C211.097 26.1236 211.089 26.1185 211.085 26.116C211.082 26.1135 211.081 26.1131 211.084 26.115C211.086 26.1169 211.091 26.1204 211.096 26.1255C211.102 26.1306 211.108 26.1364 211.115 26.1428C211.121 26.1491 211.126 26.1551 211.131 26.1604C211.135 26.1656 211.138 26.1692 211.139 26.1705C211.14 26.1718 211.139 26.17 211.135 26.1645C211.131 26.159 211.125 26.1489 211.117 26.1336L202.375 30.99L193.634 35.8464C195.412 39.0482 197.958 41.6393 201.14 43.4691L206.125 34.8ZM202.375 30.99L211.117 26.1336C211.114 26.1284 211.098 26.1021 211.079 26.024C211.059 25.9403 211.025 25.7564 211.025 25.44H201.025H191.025C191.025 29.0077 191.811 32.5662 193.634 35.8464L202.375 30.99ZM240.437 28.86V38.86C245.516 38.86 249.789 35.0521 250.371 30.0062L240.437 28.86ZM228.827 28.86V18.86C226.041 18.86 223.382 20.0218 221.49 22.0655C219.597 24.1092 218.643 26.8497 218.856 29.627L228.827 28.86ZM229.817 31.26L222.871 38.454C222.955 38.5351 223.04 38.6148 223.127 38.6929L229.817 31.26ZM234.677 30.45V20.45C230.78 20.45 227.239 22.713 225.602 26.2488L234.677 30.45ZM240.137 30.45L249.828 32.9168C250.589 29.9253 249.926 26.7499 248.032 24.3127C246.137 21.8756 243.224 20.45 240.137 20.45V30.45ZM238.607 33.42L230.953 26.984C230.924 27.0183 230.896 27.0529 230.867 27.0876L238.607 33.42ZM235.877 35.49L240.015 44.5937L235.877 35.49ZM227.807 35.19L223.009 43.9637L227.807 35.19ZM224.807 32.19L233.555 27.345L224.807 32.19ZM224.777 23.07L216.029 18.225C216.01 18.2596 215.991 18.2942 215.972 18.329L224.777 23.07ZM227.777 20.07L232.575 28.8437V28.8437L227.777 20.07ZM236.507 20.04L231.757 28.8402L231.757 28.8402L236.507 20.04ZM239.447 22.95L230.705 27.8064C230.725 27.8415 230.744 27.8765 230.764 27.9114L239.447 22.95ZM235.277 26.01V36.01C240.8 36.01 245.277 31.5328 245.277 26.01H235.277ZM234.377 23.91L240.926 16.3531V16.3531L234.377 23.91ZM229.937 23.88L223.535 16.1978C223.492 16.2335 223.45 16.2695 223.407 16.3059L229.937 23.88ZM228.857 26.01L218.971 24.5056C218.532 27.3872 219.373 30.3168 221.272 32.5275C223.172 34.7382 225.942 36.01 228.857 36.01V26.01ZM240.527 27.36H230.527C230.527 27.4244 230.523 27.5405 230.503 27.7138L240.437 28.86L250.371 30.0062C250.471 29.1395 250.527 28.2556 250.527 27.36H240.527ZM240.437 28.86V18.86H228.827V28.86V38.86H240.437V28.86ZM228.827 28.86L218.856 29.627C219.067 32.3719 220.063 35.7433 222.871 38.454L229.817 31.26L236.763 24.066C238.41 25.6567 238.746 27.4281 238.797 28.093L228.827 28.86ZM229.817 31.26L223.127 38.6929C225.69 40.9998 228.853 42.07 232.007 42.07V32.07V22.07C232.637 22.07 233.427 22.1719 234.283 22.4885C235.149 22.8088 235.901 23.2824 236.506 23.8271L229.817 31.26ZM232.007 32.07V42.07C234.057 42.07 236.489 41.6293 238.821 40.2144C241.2 38.7711 242.79 36.7284 243.751 34.6512L234.677 30.45L225.602 26.2488C226.064 25.2516 226.958 24.0189 228.447 23.1156C229.889 22.2407 231.237 22.07 232.007 22.07V32.07ZM234.677 30.45V40.45H240.137V30.45V20.45H234.677V30.45ZM240.137 30.45L230.446 27.9832C230.489 27.8151 230.557 27.6275 230.654 27.4379C230.752 27.2488 230.859 27.0962 230.953 26.984L238.607 33.42L246.26 39.856C247.957 37.8387 249.171 35.4959 249.828 32.9168L240.137 30.45ZM238.607 33.42L230.867 27.0876C231.009 26.9146 231.172 26.7585 231.342 26.6291C231.511 26.5012 231.653 26.4253 231.739 26.3863L235.877 35.49L240.015 44.5937C242.422 43.4993 244.594 41.8943 246.346 39.7524L238.607 33.42ZM235.877 35.49L231.739 26.3863C231.902 26.3122 232.042 26.2723 232.137 26.2529C232.23 26.2341 232.253 26.24 232.187 26.24V36.24V46.24C234.795 46.24 237.461 45.7545 240.015 44.5937L235.877 35.49ZM232.187 36.24V26.24C232.08 26.24 232.093 26.229 232.193 26.253C232.298 26.2783 232.446 26.3293 232.605 26.4163L227.807 35.19L223.009 43.9637C225.935 45.564 229.081 46.24 232.187 46.24V36.24ZM227.807 35.19L232.605 26.4163C232.773 26.5083 232.974 26.6501 233.168 26.8439C233.361 27.0368 233.485 27.2199 233.555 27.345L224.807 32.19L216.059 37.035C217.679 39.9596 220.034 42.337 223.009 43.9637L227.807 35.19ZM224.807 32.19L233.555 27.345C233.659 27.5328 233.708 27.6881 233.728 27.7703C233.745 27.8455 233.727 27.8107 233.727 27.63H223.727H213.727C213.727 30.7739 214.387 34.0168 216.059 37.035L224.807 32.19ZM223.727 27.63H233.727C233.727 27.4296 233.747 27.374 233.734 27.4289C233.728 27.4563 233.714 27.5069 233.689 27.5756C233.663 27.6447 233.628 27.7247 233.581 27.811L224.777 23.07L215.972 18.329C214.358 21.3259 213.727 24.5307 213.727 27.63H223.727ZM224.777 23.07L233.525 27.915C233.455 28.0401 233.331 28.2232 233.138 28.4161C232.944 28.6099 232.743 28.7517 232.575 28.8437L227.777 20.07L222.979 11.2963C220.004 12.923 217.649 15.3004 216.029 18.225L224.777 23.07ZM227.777 20.07L232.575 28.8437C232.406 28.936 232.255 28.9868 232.155 29.0106C232.061 29.033 232.061 29.02 232.187 29.02V19.02V9.02C229.084 9.02 225.922 9.6864 222.979 11.2963L227.777 20.07ZM232.187 19.02V29.02C232.295 29.02 232.284 29.0311 232.184 29.0074C232.078 28.9824 231.926 28.931 231.757 28.8402L236.507 20.04L241.256 11.2398C238.354 9.67368 235.244 9.02 232.187 9.02V19.02ZM236.507 20.04L231.757 28.8402C231.581 28.7451 231.365 28.5955 231.152 28.3847C230.939 28.1744 230.794 27.966 230.705 27.8064L239.447 22.95L248.188 18.0936C246.568 15.1768 244.208 12.8328 241.256 11.2398L236.507 20.04ZM239.447 22.95L230.764 27.9114C230.643 27.6986 230.576 27.5069 230.544 27.3762C230.514 27.2527 230.527 27.2348 230.527 27.36H240.527H250.527C250.527 24.2172 249.84 20.9835 248.129 17.9886L239.447 22.95ZM235.277 26.01H245.277C245.277 22.5825 243.971 18.9919 240.926 16.3531L234.377 23.91L227.827 31.4669C227.034 30.7797 226.332 29.864 225.86 28.7642C225.4 27.6909 225.277 26.7155 225.277 26.01H235.277ZM234.377 23.91L240.926 16.3531C238.265 14.0467 235.09 13.13 232.127 13.13V23.13V33.13C231.609 33.13 230.898 33.0539 230.089 32.7734C229.262 32.4867 228.488 32.0396 227.827 31.4669L234.377 23.91ZM232.127 23.13V13.13C229.18 13.13 226.117 14.0458 223.535 16.1978L229.937 23.88L236.339 31.5622C235.714 32.0831 234.977 32.5031 234.174 32.7781C233.384 33.0487 232.674 33.13 232.127 33.13V23.13ZM229.937 23.88L223.407 16.3059C220.652 18.6809 219.389 21.7558 218.971 24.5056L228.857 26.01L238.743 27.5144C238.604 28.4242 238.061 30.0791 236.466 31.4541L229.937 23.88ZM228.857 26.01V36.01H235.277V26.01V16.01H228.857V26.01ZM258.113 21L250.703 27.7152C250.74 27.7556 250.777 27.7957 250.814 27.8356L258.113 21ZM259.883 36V46C265.406 46 269.883 41.5228 269.883 36H259.883ZM254.783 36H244.783C244.783 41.5228 249.26 46 254.783 46V36ZM253.913 24.3L246.61 31.1316V31.1316L253.913 24.3ZM249.233 24.3L256.536 31.1316L256.536 31.1316L249.233 24.3ZM248.363 36V46C253.886 46 258.363 41.5228 258.363 36H248.363ZM243.233 36H233.233C233.233 41.5228 237.71 46 243.233 46V36ZM243.233 19.26V9.26C237.71 9.26 233.233 13.7372 233.233 19.26H243.233ZM248.363 19.26H258.363C258.363 13.7372 253.886 9.26 248.363 9.26V19.26ZM248.363 21.48H238.363C238.363 25.8414 241.19 29.6997 245.348 31.0147C249.506 32.3296 254.037 30.7979 256.545 27.2295L248.363 21.48ZM250.463 19.74L254.77 28.7648C254.826 28.7385 254.88 28.7116 254.935 28.6843L250.463 19.74ZM253.433 19.08V29.08C253.32 29.08 252.881 29.0593 252.277 28.8117C251.644 28.552 251.099 28.1516 250.703 27.7152L258.113 21L265.523 14.2848C262.202 10.6206 257.795 9.08 253.433 9.08V19.08ZM258.113 21L250.814 27.8356C250.369 27.3599 250.103 26.8518 249.97 26.4612C249.85 26.1072 249.883 25.982 249.883 26.22H259.883H269.883C269.883 22.2134 268.781 17.7619 265.412 14.1644L258.113 21ZM259.883 26.22H249.883V36H259.883H269.883V26.22H259.883ZM259.883 36V26H254.783V36V46H259.883V36ZM254.783 36H264.783V26.91H254.783H244.783V36H254.783ZM254.783 26.91H264.783C264.783 24.0844 264.024 20.47 261.216 17.4684L253.913 24.3L246.61 31.1316C244.962 29.37 244.783 27.4956 244.783 26.91H254.783ZM253.913 24.3L261.216 17.4684C258.448 14.5093 254.853 13.37 251.573 13.37V23.37V33.37C251.007 33.37 250.164 33.2789 249.2 32.8955C248.204 32.4996 247.315 31.8852 246.61 31.1316L253.913 24.3ZM251.573 23.37V13.37C248.293 13.37 244.699 14.5093 241.93 17.4684L249.233 24.3L256.536 31.1316C255.831 31.8852 254.942 32.4996 253.946 32.8955C252.982 33.2789 252.139 33.37 251.573 33.37V23.37ZM249.233 24.3L241.93 17.4684C239.122 20.47 238.363 24.0844 238.363 26.91H248.363H258.363C258.363 27.4956 258.184 29.37 256.536 31.1316L249.233 24.3ZM248.363 26.91H238.363V36H248.363H258.363V26.91H248.363ZM248.363 36V26H243.233V36V46H248.363V36ZM243.233 36H253.233V19.26H243.233H233.233V36H243.233ZM243.233 19.26V29.26H248.363V19.26V9.26H243.233V19.26ZM248.363 19.26H238.363V21.48H248.363H258.363V19.26H248.363ZM248.363 21.48L256.545 27.2295C256 28.0053 255.317 28.5039 254.77 28.7648L250.463 19.74L246.156 10.7152C243.849 11.8161 241.766 13.4747 240.181 15.7305L248.363 21.48ZM250.463 19.74L254.935 28.6843C254.27 29.0169 253.7 29.08 253.433 29.08V19.08V9.08C250.966 9.08 248.416 9.5831 245.991 10.7957L250.463 19.74ZM272.778 31.65H282.778C282.778 26.1272 278.301 21.65 272.778 21.65V31.65ZM272.778 36V46C278.301 46 282.778 41.5228 282.778 36H272.778ZM265.818 34.65L259.192 42.14C259.219 42.164 259.247 42.1879 259.274 42.2117L265.818 34.65ZM264.258 23.52H274.258C274.258 17.9972 269.781 13.52 264.258 13.52V23.52ZM262.218 23.52H252.218C252.218 29.0428 256.695 33.52 262.218 33.52V23.52ZM262.218 19.26V9.26C256.695 9.26 252.218 13.7372 252.218 19.26H262.218ZM264.258 19.26V29.26C269.781 29.26 274.258 24.7828 274.258 19.26H264.258ZM264.258 15.18V5.18C258.735 5.18 254.258 9.65715 254.258 15.18H264.258ZM269.388 15.18H279.388C279.388 9.65715 274.911 5.18 269.388 5.18V15.18ZM269.388 19.26H259.388C259.388 24.7828 263.865 29.26 269.388 29.26V19.26ZM272.748 19.26H282.748C282.748 13.7372 278.271 9.26 272.748 9.26V19.26ZM272.748 23.52V33.52C278.271 33.52 282.748 29.0428 282.748 23.52H272.748ZM269.388 23.52V13.52C263.865 13.52 259.388 17.9972 259.388 23.52H269.388ZM269.748 31.32L262.991 38.6915V38.6915L269.748 31.32ZM272.778 31.65H262.778V36H272.778H282.778V31.65H272.778ZM272.778 36V26H270.168V36V46H272.778V36ZM270.168 36V26C269.859 26 271.03 25.9355 272.362 27.0883L265.818 34.65L259.274 42.2117C262.686 45.1645 266.757 46 270.168 46V36ZM265.818 34.65L272.444 27.16C273.373 27.9817 273.864 28.9002 274.089 29.5475C274.292 30.1293 274.258 30.4117 274.258 30.18H264.258H254.258C254.258 33.7027 255.142 38.5575 259.192 42.14L265.818 34.65ZM264.258 30.18H274.258V23.52H264.258H254.258V30.18H264.258ZM264.258 23.52V13.52H262.218V23.52V33.52H264.258V23.52ZM262.218 23.52H272.218V19.26H262.218H252.218V23.52H262.218ZM262.218 19.26V29.26H264.258V19.26V9.26H262.218V19.26ZM264.258 19.26H274.258V15.18H264.258H254.258V19.26H264.258ZM264.258 15.18V25.18H269.388V15.18V5.18H264.258V15.18ZM269.388 15.18H259.388V19.26H269.388H279.388V15.18H269.388ZM269.388 19.26V29.26H272.748V19.26V9.26H269.388V19.26ZM272.748 19.26H262.748V23.52H272.748H282.748V19.26H272.748ZM272.748 23.52V13.52H269.388V23.52V33.52H272.748V23.52ZM269.388 23.52H259.388V30.24H269.388H279.388V23.52H269.388ZM269.388 30.24H259.388C259.388 32.053 259.795 35.7626 262.991 38.6915L269.748 31.32L276.505 23.9485C279.22 26.4374 279.388 29.427 279.388 30.24H269.388ZM269.748 31.32L262.991 38.6915C266.013 41.4616 269.545 41.65 270.948 41.65V31.65V21.65C271.273 21.65 271.974 21.6765 272.879 21.9254C273.801 22.1788 275.18 22.7334 276.505 23.9485L269.748 31.32ZM270.948 31.65V41.65H272.778V31.65V21.65H270.948V31.65ZM291.325 28.86V38.86C296.405 38.86 300.677 35.0521 301.259 30.0062L291.325 28.86ZM279.715 28.86V18.86C276.93 18.86 274.271 20.0218 272.378 22.0655C270.486 24.1092 269.531 26.8497 269.745 29.627L279.715 28.86ZM280.705 31.26L273.759 38.454C273.843 38.5351 273.929 38.6148 274.016 38.6929L280.705 31.26ZM285.565 30.45V20.45C281.669 20.45 278.128 22.713 276.491 26.2488L285.565 30.45ZM291.025 30.45L300.716 32.9168C301.478 29.9253 300.815 26.7499 298.921 24.3127C297.026 21.8756 294.112 20.45 291.025 20.45V30.45ZM289.495 33.42L281.842 26.984C281.813 27.0183 281.784 27.0529 281.756 27.0876L289.495 33.42ZM286.765 35.49L290.903 44.5937L286.765 35.49ZM278.695 35.19L273.897 43.9637L278.695 35.19ZM275.695 32.19L284.443 27.345L275.695 32.19ZM275.665 23.07L266.917 18.225C266.898 18.2596 266.879 18.2942 266.861 18.329L275.665 23.07ZM278.665 20.07L283.464 28.8437L283.464 28.8437L278.665 20.07ZM287.395 20.04L282.646 28.8402V28.8402L287.395 20.04ZM290.335 22.95L281.594 27.8064C281.613 27.8415 281.633 27.8765 281.653 27.9114L290.335 22.95ZM286.165 26.01V36.01C291.688 36.01 296.165 31.5328 296.165 26.01H286.165ZM285.265 23.91L291.815 16.3531V16.3531L285.265 23.91ZM280.825 23.88L274.424 16.1978C274.381 16.2335 274.338 16.2695 274.296 16.3059L280.825 23.88ZM279.745 26.01L269.859 24.5056C269.421 27.3872 270.261 30.3168 272.161 32.5275C274.061 34.7382 276.831 36.01 279.745 36.01V26.01ZM291.415 27.36H281.415C281.415 27.4244 281.411 27.5405 281.391 27.7138L291.325 28.86L301.259 30.0062C301.359 29.1395 301.415 28.2556 301.415 27.36H291.415ZM291.325 28.86V18.86H279.715V28.86V38.86H291.325V28.86ZM279.715 28.86L269.745 29.627C269.956 32.3719 270.952 35.7433 273.759 38.454L280.705 31.26L287.651 24.066C289.299 25.6567 289.635 27.4281 289.686 28.093L279.715 28.86ZM280.705 31.26L274.016 38.6929C276.579 40.9998 279.741 42.07 282.895 42.07V32.07V22.07C283.525 22.07 284.316 22.1719 285.172 22.4885C286.038 22.8088 286.79 23.2824 287.395 23.8271L280.705 31.26ZM282.895 32.07V42.07C284.946 42.07 287.378 41.6293 289.71 40.2144C292.089 38.7711 293.678 36.7284 294.64 34.6512L285.565 30.45L276.491 26.2488C276.952 25.2516 277.847 24.0189 279.336 23.1156C280.778 22.2407 282.125 22.07 282.895 22.07V32.07ZM285.565 30.45V40.45H291.025V30.45V20.45H285.565V30.45ZM291.025 30.45L281.334 27.9832C281.377 27.8151 281.445 27.6275 281.543 27.4379C281.641 27.2488 281.747 27.0962 281.842 26.984L289.495 33.42L297.149 39.856C298.845 37.8387 300.06 35.4959 300.716 32.9168L291.025 30.45ZM289.495 33.42L281.756 27.0876C281.897 26.9146 282.06 26.7585 282.231 26.6291C282.4 26.5012 282.542 26.4253 282.627 26.3863L286.765 35.49L290.903 44.5937C293.311 43.4993 295.482 41.8943 297.235 39.7524L289.495 33.42ZM286.765 35.49L282.627 26.3863C282.79 26.3122 282.93 26.2723 283.026 26.2529C283.119 26.2341 283.142 26.24 283.075 26.24V36.24V46.24C285.683 46.24 288.35 45.7545 290.903 44.5937L286.765 35.49ZM283.075 36.24V26.24C282.969 26.24 282.981 26.229 283.082 26.253C283.187 26.2783 283.335 26.3293 283.493 26.4163L278.695 35.19L273.897 43.9637C276.824 45.564 279.97 46.24 283.075 46.24V36.24ZM278.695 35.19L283.493 26.4163C283.662 26.5083 283.863 26.6501 284.056 26.8439C284.249 27.0368 284.374 27.2199 284.443 27.345L275.695 32.19L266.947 37.035C268.567 39.9596 270.923 42.337 273.897 43.9637L278.695 35.19ZM275.695 32.19L284.443 27.345C284.547 27.5328 284.597 27.6881 284.616 27.7703C284.634 27.8455 284.615 27.8107 284.615 27.63H274.615H264.615C264.615 30.7739 265.276 34.0168 266.947 37.035L275.695 32.19ZM274.615 27.63H284.615C284.615 27.4296 284.636 27.374 284.623 27.4289C284.617 27.4563 284.603 27.5069 284.577 27.5756C284.552 27.6447 284.517 27.7247 284.47 27.811L275.665 23.07L266.861 18.329C265.247 21.3259 264.615 24.5307 264.615 27.63H274.615ZM275.665 23.07L284.413 27.915C284.344 28.0401 284.219 28.2232 284.026 28.4161C283.833 28.6099 283.632 28.7517 283.464 28.8437L278.665 20.07L273.867 11.2963C270.893 12.923 268.537 15.3004 266.917 18.225L275.665 23.07ZM278.665 20.07L283.464 28.8437C283.295 28.936 283.144 28.9868 283.044 29.0106C282.95 29.033 282.95 29.02 283.075 29.02V19.02V9.02C279.973 9.02 276.811 9.6864 273.867 11.2963L278.665 20.07ZM283.075 19.02V29.02C283.184 29.02 283.173 29.0311 283.072 29.0074C282.967 28.9824 282.814 28.931 282.646 28.8402L287.395 20.04L292.145 11.2398C289.243 9.67368 286.133 9.02 283.075 9.02V19.02ZM287.395 20.04L282.646 28.8402C282.47 28.7451 282.254 28.5955 282.041 28.3847C281.828 28.1744 281.682 27.966 281.594 27.8064L290.335 22.95L299.077 18.0936C297.457 15.1768 295.097 12.8328 292.145 11.2398L287.395 20.04ZM290.335 22.95L281.653 27.9114C281.531 27.6986 281.464 27.5069 281.432 27.3762C281.402 27.2527 281.415 27.2348 281.415 27.36H291.415H301.415C301.415 24.2172 300.729 20.9835 299.018 17.9886L290.335 22.95ZM286.165 26.01H296.165C296.165 22.5825 294.859 18.9919 291.815 16.3531L285.265 23.91L278.716 31.4669C277.923 30.7797 277.22 29.864 276.749 28.7642C276.289 27.6909 276.165 26.7155 276.165 26.01H286.165ZM285.265 23.91L291.815 16.3531C289.153 14.0467 285.979 13.13 283.015 13.13V23.13V33.13C282.498 33.13 281.787 33.0539 280.977 32.7734C280.151 32.4867 279.377 32.0396 278.716 31.4669L285.265 23.91ZM283.015 23.13V13.13C280.069 13.13 277.006 14.0458 274.424 16.1978L280.825 23.88L287.227 31.5622C286.602 32.0831 285.866 32.5031 285.063 32.7781C284.273 33.0487 283.563 33.13 283.015 33.13V23.13ZM280.825 23.88L274.296 16.3059C271.541 18.6809 270.278 21.7558 269.859 24.5056L279.745 26.01L289.632 27.5144C289.493 28.4242 288.95 30.0791 287.355 31.4541L280.825 23.88ZM279.745 26.01V36.01H286.165V26.01V16.01H279.745V26.01ZM299.252 22.05H289.252C289.252 26.4754 292.16 30.3744 296.402 31.6354C300.644 32.8964 305.21 31.2194 307.628 27.5127L299.252 22.05ZM301.502 19.89L306.504 28.5487C306.552 28.5211 306.6 28.4932 306.647 28.4649L301.502 19.89ZM304.502 19.08H314.502C314.502 13.5572 310.025 9.08 304.502 9.08V19.08ZM304.502 24.51V34.51C310.025 34.51 314.502 30.0328 314.502 24.51H304.502ZM300.212 25.35L306.66 32.9929C306.706 32.9543 306.752 32.9152 306.797 32.8758L300.212 25.35ZM299.252 36V46C304.775 46 309.252 41.5228 309.252 36H299.252ZM294.122 36H284.122C284.122 41.5228 288.599 46 294.122 46V36ZM294.122 19.26V9.26C288.599 9.26 284.122 13.7372 284.122 19.26H294.122ZM299.252 19.26H309.252C309.252 13.7372 304.775 9.26 299.252 9.26V19.26ZM299.252 22.05L307.628 27.5127C307.536 27.6539 307.393 27.8384 307.19 28.0339C306.984 28.2309 306.751 28.4061 306.504 28.5487L301.502 19.89L296.499 11.2313C294.162 12.5816 292.284 14.4286 290.876 16.5873L299.252 22.05ZM301.502 19.89L306.647 28.4649C306.315 28.6639 305.937 28.8278 305.533 28.9368C305.133 29.045 304.778 29.08 304.502 29.08V19.08V9.08C301.68 9.08 298.887 9.79687 296.357 11.3151L301.502 19.89ZM304.502 19.08H294.502V24.51H304.502H314.502V19.08H304.502ZM304.502 24.51V14.51H303.092V24.51V34.51H304.502V24.51ZM303.092 24.51V14.51C300.574 14.51 296.818 15.0319 293.627 17.8242L300.212 25.35L306.797 32.8758C305.845 33.7086 304.886 34.1234 304.212 34.32C303.569 34.5074 303.149 34.51 303.092 34.51V24.51ZM300.212 25.35L293.763 17.7071C289.756 21.0877 289.252 25.7672 289.252 28.23H299.252H309.252C309.252 28.2517 309.257 28.8023 308.979 29.6373C308.679 30.5367 308.013 31.8513 306.66 32.9929L300.212 25.35ZM299.252 28.23H289.252V36H299.252H309.252V28.23H299.252ZM299.252 36V26H294.122V36V46H299.252V36ZM294.122 36H304.122V19.26H294.122H284.122V36H294.122ZM294.122 19.26V29.26H299.252V19.26V9.26H294.122V19.26ZM299.252 19.26H289.252V22.05H299.252H309.252V19.26H299.252Z" fill="url(#paint0_linear_2074_21)" mask="url(#path-1-outside-1_2074_21)"/>
<path d="M47.6563 14.94C49.8763 14.94 51.8163 15.38 53.4763 16.26C55.1363 17.14 56.4163 18.38 57.3163 19.98C58.2363 21.56 58.6963 23.39 58.6963 25.47C58.6963 27.53 58.2363 29.36 57.3163 30.96C56.4163 32.56 55.1263 33.8 53.4463 34.68C51.7863 35.56 49.8563 36 47.6563 36H39.7663V14.94H47.6563ZM47.3263 31.56C49.2663 31.56 50.7763 31.03 51.8563 29.97C52.9363 28.91 53.4763 27.41 53.4763 25.47C53.4763 23.53 52.9363 22.02 51.8563 20.94C50.7763 19.86 49.2663 19.32 47.3263 19.32H44.8963V31.56H47.3263ZM69.1831 36.24C67.5431 36.24 66.0631 35.89 64.7431 35.19C63.4431 34.49 62.4131 33.49 61.6531 32.19C60.9131 30.89 60.5431 29.37 60.5431 27.63C60.5431 25.91 60.9231 24.4 61.6831 23.1C62.4431 21.78 63.4831 20.77 64.8031 20.07C66.1231 19.37 67.6031 19.02 69.2431 19.02C70.8831 19.02 72.3631 19.37 73.6831 20.07C75.0031 20.77 76.0431 21.78 76.8031 23.1C77.5631 24.4 77.9431 25.91 77.9431 27.63C77.9431 29.35 77.5531 30.87 76.7731 32.19C76.0131 33.49 74.9631 34.49 73.6231 35.19C72.3031 35.89 70.8231 36.24 69.1831 36.24ZM69.1831 31.8C70.1631 31.8 70.9931 31.44 71.6731 30.72C72.3731 30 72.7231 28.97 72.7231 27.63C72.7231 26.29 72.3831 25.26 71.7031 24.54C71.0431 23.82 70.2231 23.46 69.2431 23.46C68.2431 23.46 67.4131 23.82 66.7531 24.54C66.0931 25.24 65.7631 26.27 65.7631 27.63C65.7631 28.97 66.0831 30 66.7231 30.72C67.3831 31.44 68.2031 31.8 69.1831 31.8ZM104.695 19.26L100.165 36H94.4947L91.8547 25.14L89.1247 36H83.4847L78.9247 19.26H84.0547L86.4247 31.23L89.2447 19.26H94.6747L97.5247 31.17L99.8647 19.26H104.695ZM116.851 19.08C118.811 19.08 120.371 19.72 121.531 21C122.711 22.26 123.301 24 123.301 26.22V36H118.201V26.91C118.201 25.79 117.911 24.92 117.331 24.3C116.751 23.68 115.971 23.37 114.991 23.37C114.011 23.37 113.231 23.68 112.651 24.3C112.071 24.92 111.781 25.79 111.781 26.91V36H106.651V19.26H111.781V21.48C112.301 20.74 113.001 20.16 113.881 19.74C114.761 19.3 115.751 19.08 116.851 19.08ZM131.996 13.8V36H126.866V13.8H131.996ZM143.334 36.24C141.694 36.24 140.214 35.89 138.894 35.19C137.594 34.49 136.564 33.49 135.804 32.19C135.064 30.89 134.694 29.37 134.694 27.63C134.694 25.91 135.074 24.4 135.834 23.1C136.594 21.78 137.634 20.77 138.954 20.07C140.274 19.37 141.754 19.02 143.394 19.02C145.034 19.02 146.514 19.37 147.834 20.07C149.154 20.77 150.194 21.78 150.954 23.1C151.714 24.4 152.094 25.91 152.094 27.63C152.094 29.35 151.704 30.87 150.924 32.19C150.164 33.49 149.114 34.49 147.774 35.19C146.454 35.89 144.974 36.24 143.334 36.24ZM143.334 31.8C144.314 31.8 145.144 31.44 145.824 30.72C146.524 30 146.874 28.97 146.874 27.63C146.874 26.29 146.534 25.26 145.854 24.54C145.194 23.82 144.374 23.46 143.394 23.46C142.394 23.46 141.564 23.82 140.904 24.54C140.244 25.24 139.914 26.27 139.914 27.63C139.914 28.97 140.234 30 140.874 30.72C141.534 31.44 142.354 31.8 143.334 31.8ZM153.795 27.6C153.795 25.88 154.115 24.37 154.755 23.07C155.415 21.77 156.305 20.77 157.425 20.07C158.545 19.37 159.795 19.02 161.175 19.02C162.355 19.02 163.385 19.26 164.265 19.74C165.165 20.22 165.855 20.85 166.335 21.63V19.26H171.465V36H166.335V33.63C165.835 34.41 165.135 35.04 164.235 35.52C163.355 36 162.325 36.24 161.145 36.24C159.785 36.24 158.545 35.89 157.425 35.19C156.305 34.47 155.415 33.46 154.755 32.16C154.115 30.84 153.795 29.32 153.795 27.6ZM166.335 27.63C166.335 26.35 165.975 25.34 165.255 24.6C164.555 23.86 163.695 23.49 162.675 23.49C161.655 23.49 160.785 23.86 160.065 24.6C159.365 25.32 159.015 26.32 159.015 27.6C159.015 28.88 159.365 29.9 160.065 30.66C160.785 31.4 161.655 31.77 162.675 31.77C163.695 31.77 164.555 31.4 165.255 30.66C165.975 29.92 166.335 28.91 166.335 27.63ZM174.156 27.6C174.156 25.88 174.476 24.37 175.116 23.07C175.776 21.77 176.666 20.77 177.786 20.07C178.906 19.37 180.156 19.02 181.536 19.02C182.636 19.02 183.636 19.25 184.536 19.71C185.456 20.17 186.176 20.79 186.696 21.57V13.8H191.826V36H186.696V33.6C186.216 34.4 185.526 35.04 184.626 35.52C183.746 36 182.716 36.24 181.536 36.24C180.156 36.24 178.906 35.89 177.786 35.19C176.666 34.47 175.776 33.46 175.116 32.16C174.476 30.84 174.156 29.32 174.156 27.6ZM186.696 27.63C186.696 26.35 186.336 25.34 185.616 24.6C184.916 23.86 184.056 23.49 183.036 23.49C182.016 23.49 181.146 23.86 180.426 24.6C179.726 25.32 179.376 26.32 179.376 27.6C179.376 28.88 179.726 29.9 180.426 30.66C181.146 31.4 182.016 31.77 183.036 31.77C184.056 31.77 184.916 31.4 185.616 30.66C186.336 29.92 186.696 28.91 186.696 27.63ZM201.025 25.44C201.025 23.36 201.475 21.51 202.375 19.89C203.275 18.25 204.525 16.98 206.125 16.08C207.745 15.16 209.575 14.7 211.615 14.7C214.115 14.7 216.255 15.36 218.035 16.68C219.815 18 221.005 19.8 221.605 22.08H215.965C215.545 21.2 214.945 20.53 214.165 20.07C213.405 19.61 212.535 19.38 211.555 19.38C209.975 19.38 208.695 19.93 207.715 21.03C206.735 22.13 206.245 23.6 206.245 25.44C206.245 27.28 206.735 28.75 207.715 29.85C208.695 30.95 209.975 31.5 211.555 31.5C212.535 31.5 213.405 31.27 214.165 30.81C214.945 30.35 215.545 29.68 215.965 28.8H221.605C221.005 31.08 219.815 32.88 218.035 34.2C216.255 35.5 214.115 36.15 211.615 36.15C209.575 36.15 207.745 35.7 206.125 34.8C204.525 33.88 203.275 32.61 202.375 30.99C201.475 29.37 201.025 27.52 201.025 25.44ZM240.527 27.36C240.527 27.84 240.497 28.34 240.437 28.86H228.827C228.907 29.9 229.237 30.7 229.817 31.26C230.417 31.8 231.147 32.07 232.007 32.07C233.287 32.07 234.177 31.53 234.677 30.45H240.137C239.857 31.55 239.347 32.54 238.607 33.42C237.887 34.3 236.977 34.99 235.877 35.49C234.777 35.99 233.547 36.24 232.187 36.24C230.547 36.24 229.087 35.89 227.807 35.19C226.527 34.49 225.527 33.49 224.807 32.19C224.087 30.89 223.727 29.37 223.727 27.63C223.727 25.89 224.077 24.37 224.777 23.07C225.497 21.77 226.497 20.77 227.777 20.07C229.057 19.37 230.527 19.02 232.187 19.02C233.807 19.02 235.247 19.36 236.507 20.04C237.767 20.72 238.747 21.69 239.447 22.95C240.167 24.21 240.527 25.68 240.527 27.36ZM235.277 26.01C235.277 25.13 234.977 24.43 234.377 23.91C233.777 23.39 233.027 23.13 232.127 23.13C231.267 23.13 230.537 23.38 229.937 23.88C229.357 24.38 228.997 25.09 228.857 26.01H235.277ZM253.433 19.08C255.393 19.08 256.953 19.72 258.113 21C259.293 22.26 259.883 24 259.883 26.22V36H254.783V26.91C254.783 25.79 254.493 24.92 253.913 24.3C253.333 23.68 252.553 23.37 251.573 23.37C250.593 23.37 249.813 23.68 249.233 24.3C248.653 24.92 248.363 25.79 248.363 26.91V36H243.233V19.26H248.363V21.48C248.883 20.74 249.583 20.16 250.463 19.74C251.343 19.3 252.333 19.08 253.433 19.08ZM272.778 31.65V36H270.168C268.308 36 266.858 35.55 265.818 34.65C264.778 33.73 264.258 32.24 264.258 30.18V23.52H262.218V19.26H264.258V15.18H269.388V19.26H272.748V23.52H269.388V30.24C269.388 30.74 269.508 31.1 269.748 31.32C269.988 31.54 270.388 31.65 270.948 31.65H272.778ZM291.415 27.36C291.415 27.84 291.385 28.34 291.325 28.86H279.715C279.795 29.9 280.125 30.7 280.705 31.26C281.305 31.8 282.035 32.07 282.895 32.07C284.175 32.07 285.065 31.53 285.565 30.45H291.025C290.745 31.55 290.235 32.54 289.495 33.42C288.775 34.3 287.865 34.99 286.765 35.49C285.665 35.99 284.435 36.24 283.075 36.24C281.435 36.24 279.975 35.89 278.695 35.19C277.415 34.49 276.415 33.49 275.695 32.19C274.975 30.89 274.615 29.37 274.615 27.63C274.615 25.89 274.965 24.37 275.665 23.07C276.385 21.77 277.385 20.77 278.665 20.07C279.945 19.37 281.415 19.02 283.075 19.02C284.695 19.02 286.135 19.36 287.395 20.04C288.655 20.72 289.635 21.69 290.335 22.95C291.055 24.21 291.415 25.68 291.415 27.36ZM286.165 26.01C286.165 25.13 285.865 24.43 285.265 23.91C284.665 23.39 283.915 23.13 283.015 23.13C282.155 23.13 281.425 23.38 280.825 23.88C280.245 24.38 279.885 25.09 279.745 26.01H286.165ZM299.252 22.05C299.852 21.13 300.602 20.41 301.502 19.89C302.402 19.35 303.402 19.08 304.502 19.08V24.51H303.092C301.812 24.51 300.852 24.79 300.212 25.35C299.572 25.89 299.252 26.85 299.252 28.23V36H294.122V19.26H299.252V22.05Z" fill="#E2DC00"/>
<defs>
<filter id="filter0_ii_2074_21" x="28.7684" y="1.80423" width="285.733" height="46.4316" filterUnits="userSpaceOnUse" color-interpolation-filters="sRGB">
<feFlood flood-opacity="0" result="BackgroundImageFix"/>
<feBlend mode="normal" in="SourceGraphic" in2="BackgroundImageFix" result="shape"/>
<feColorMatrix in="SourceAlpha" type="matrix" values="0 0 0 0 0 0 0 0 0 0 0 0 0 0 0 0 0 0 127 0" result="hardAlpha"/>
<feOffset dx="-0.997908" dy="1.99582"/>
<feGaussianBlur stdDeviation="1.99582"/>
<feComposite in2="hardAlpha" operator="arithmetic" k2="-1" k3="1"/>
<feColorMatrix type="matrix" values="0 0 0 0 1 0 0 0 0 1 0 0 0 0 1 0 0 0 0.5 0"/>
<feBlend mode="normal" in2="shape" result="effect1_innerShadow_2074_21"/>
<feColorMatrix in="SourceAlpha" type="matrix" values="0 0 0 0 0 0 0 0 0 0 0 0 0 0 0 0 0 0 127 0" result="hardAlpha"/>
<feOffset dy="-1.99582"/>
<feGaussianBlur stdDeviation="2.99372"/>
<feComposite in2="hardAlpha" operator="arithmetic" k2="-1" k3="1"/>
<feColorMatrix type="matrix" values="0 0 0 0 0 0 0 0 0 0 0 0 0 0 0 0 0 0 0.5 0"/>
<feBlend mode="normal" in2="effect1_innerShadow_2074_21" result="effect2_innerShadow_2074_21"/>
</filter>
<linearGradient id="paint0_linear_2074_21" x1="181.167" y1="-138.686" x2="182.194" y2="189.684" gradientUnits="userSpaceOnUse">
<stop offset="0.451923" stop-color="#000E61"/>
<stop offset="1" stop-color="#013EF9"/>
</linearGradient>
</defs>
</svg>
