<svg width="291" height="51" viewBox="0 0 291 51" fill="none" xmlns="http://www.w3.org/2000/svg">
<g filter="url(#filter0_ii_0_212)">
<mask id="path-1-outside-1_0_212" maskUnits="userSpaceOnUse" x="0" y="2" width="281" height="45" fill="black">
<rect fill="white" y="2" width="281" height="45"/>
<path d="M21.85 34.175C20.2 34.175 18.6833 33.7917 17.3 33.025C15.9333 32.2583 14.8417 31.1917 14.025 29.825C13.225 28.4417 12.825 26.8917 12.825 25.175C12.825 23.4583 13.225 21.9167 14.025 20.55C14.8417 19.1833 15.9333 18.1167 17.3 17.35C18.6833 16.5833 20.2 16.2 21.85 16.2C23.5 16.2 25.0083 16.5833 26.375 17.35C27.7583 18.1167 28.8417 19.1833 29.625 20.55C30.425 21.9167 30.825 23.4583 30.825 25.175C30.825 26.8917 30.425 28.4417 29.625 29.825C28.825 31.1917 27.7417 32.2583 26.375 33.025C25.0083 33.7917 23.5 34.175 21.85 34.175ZM21.85 30.275C23.25 30.275 24.3667 29.8083 25.2 28.875C26.05 27.9417 26.475 26.7083 26.475 25.175C26.475 23.625 26.05 22.3917 25.2 21.475C24.3667 20.5417 23.25 20.075 21.85 20.075C20.4333 20.075 19.3 20.5333 18.45 21.45C17.6167 22.3667 17.2 23.6083 17.2 25.175C17.2 26.725 17.6167 27.9667 18.45 28.9C19.3 29.8167 20.4333 30.275 21.85 30.275ZM37.4783 22.375C37.9783 21.6083 38.6033 21.0083 39.3533 20.575C40.1033 20.125 40.9367 19.9 41.8533 19.9V24.425H40.6783C39.6117 24.425 38.8117 24.6583 38.2783 25.125C37.745 25.575 37.4783 26.375 37.4783 27.525V34H33.2033V20.05H37.4783V22.375ZM46.0467 18.6C45.2967 18.6 44.68 18.3833 44.1967 17.95C43.73 17.5 43.4967 16.95 43.4967 16.3C43.4967 15.6333 43.73 15.0833 44.1967 14.65C44.68 14.2 45.2967 13.975 46.0467 13.975C46.78 13.975 47.38 14.2 47.8467 14.65C48.33 15.0833 48.5717 15.6333 48.5717 16.3C48.5717 16.95 48.33 17.5 47.8467 17.95C47.38 18.3833 46.78 18.6 46.0467 18.6ZM48.1717 20.05V34H43.8967V20.05H48.1717ZM64.4197 26.8C64.4197 27.2 64.3947 27.6167 64.3447 28.05H54.6697C54.7364 28.9167 55.0114 29.5833 55.4947 30.05C55.9947 30.5 56.6031 30.725 57.3197 30.725C58.3864 30.725 59.1281 30.275 59.5447 29.375H64.0947C63.8614 30.2917 63.4364 31.1167 62.8197 31.85C62.2197 32.5833 61.4614 33.1583 60.5447 33.575C59.6281 33.9917 58.6031 34.2 57.4697 34.2C56.1031 34.2 54.8864 33.9083 53.8197 33.325C52.7531 32.7417 51.9197 31.9083 51.3197 30.825C50.7197 29.7417 50.4197 28.475 50.4197 27.025C50.4197 25.575 50.7114 24.3083 51.2947 23.225C51.8947 22.1417 52.7281 21.3083 53.7947 20.725C54.8614 20.1417 56.0864 19.85 57.4697 19.85C58.8197 19.85 60.0197 20.1333 61.0697 20.7C62.1197 21.2667 62.9364 22.075 63.5197 23.125C64.1197 24.175 64.4197 25.4 64.4197 26.8ZM60.0447 25.675C60.0447 24.9417 59.7947 24.3583 59.2947 23.925C58.7947 23.4917 58.1697 23.275 57.4197 23.275C56.7031 23.275 56.0947 23.4833 55.5947 23.9C55.1114 24.3167 54.8114 24.9083 54.6947 25.675H60.0447ZM75.175 19.9C76.8083 19.9 78.1083 20.4333 79.075 21.5C80.0583 22.55 80.55 24 80.55 25.85V34H76.3V26.425C76.3 25.4917 76.0583 24.7667 75.575 24.25C75.0917 23.7333 74.4417 23.475 73.625 23.475C72.8083 23.475 72.1583 23.7333 71.675 24.25C71.1917 24.7667 70.95 25.4917 70.95 26.425V34H66.675V20.05H70.95V21.9C71.3833 21.2833 71.9667 20.8 72.7 20.45C73.4333 20.0833 74.2583 19.9 75.175 19.9ZM91.2957 30.375V34H89.1207C87.5707 34 86.3624 33.625 85.4957 32.875C84.629 32.1083 84.1957 30.8667 84.1957 29.15V23.6H82.4957V20.05H84.1957V16.65H88.4707V20.05H91.2707V23.6H88.4707V29.2C88.4707 29.6167 88.5707 29.9167 88.7707 30.1C88.9707 30.2833 89.304 30.375 89.7707 30.375H91.2957ZM92.827 27C92.827 25.5667 93.0936 24.3083 93.627 23.225C94.177 22.1417 94.9186 21.3083 95.852 20.725C96.7853 20.1417 97.827 19.85 98.977 19.85C99.9603 19.85 100.819 20.05 101.552 20.45C102.302 20.85 102.877 21.375 103.277 22.025V20.05H107.552V34H103.277V32.025C102.86 32.675 102.277 33.2 101.527 33.6C100.794 34 99.9353 34.2 98.952 34.2C97.8186 34.2 96.7853 33.9083 95.852 33.325C94.9186 32.725 94.177 31.8833 93.627 30.8C93.0936 29.7 92.827 28.4333 92.827 27ZM103.277 27.025C103.277 25.9583 102.977 25.1167 102.377 24.5C101.794 23.8833 101.077 23.575 100.227 23.575C99.377 23.575 98.652 23.8833 98.052 24.5C97.4686 25.1 97.177 25.9333 97.177 27C97.177 28.0667 97.4686 28.9167 98.052 29.55C98.652 30.1667 99.377 30.475 100.227 30.475C101.077 30.475 101.794 30.1667 102.377 29.55C102.977 28.9333 103.277 28.0917 103.277 27.025ZM116.32 34.2C115.103 34.2 114.02 33.9917 113.07 33.575C112.12 33.1583 111.37 32.5917 110.82 31.875C110.27 31.1417 109.961 30.325 109.895 29.425H114.12C114.17 29.9083 114.395 30.3 114.795 30.6C115.195 30.9 115.686 31.05 116.27 31.05C116.803 31.05 117.211 30.95 117.495 30.75C117.795 30.5333 117.945 30.2583 117.945 29.925C117.945 29.525 117.736 29.2333 117.32 29.05C116.903 28.85 116.228 28.6333 115.295 28.4C114.295 28.1667 113.461 27.925 112.795 27.675C112.128 27.4083 111.553 27 111.07 26.45C110.586 25.8833 110.345 25.125 110.345 24.175C110.345 23.375 110.561 22.65 110.995 22C111.445 21.3333 112.095 20.8083 112.945 20.425C113.811 20.0417 114.836 19.85 116.02 19.85C117.77 19.85 119.145 20.2833 120.145 21.15C121.161 22.0167 121.745 23.1667 121.895 24.6H117.945C117.878 24.1167 117.661 23.7333 117.295 23.45C116.945 23.1667 116.478 23.025 115.895 23.025C115.395 23.025 115.011 23.125 114.745 23.325C114.478 23.5083 114.345 23.7667 114.345 24.1C114.345 24.5 114.553 24.8 114.97 25C115.403 25.2 116.07 25.4 116.97 25.6C118.003 25.8667 118.845 26.1333 119.495 26.4C120.145 26.65 120.711 27.0667 121.195 27.65C121.695 28.2167 121.953 28.9833 121.97 29.95C121.97 30.7667 121.736 31.5 121.27 32.15C120.82 32.7833 120.161 33.2833 119.295 33.65C118.445 34.0167 117.453 34.2 116.32 34.2ZM126.735 18.6C125.985 18.6 125.368 18.3833 124.885 17.95C124.418 17.5 124.185 16.95 124.185 16.3C124.185 15.6333 124.418 15.0833 124.885 14.65C125.368 14.2 125.985 13.975 126.735 13.975C127.468 13.975 128.068 14.2 128.535 14.65C129.018 15.0833 129.26 15.6333 129.26 16.3C129.26 16.95 129.018 17.5 128.535 17.95C128.068 18.3833 127.468 18.6 126.735 18.6ZM128.86 20.05V34H124.585V20.05H128.86ZM148.181 30.9H141.631L140.581 34H136.106L142.456 16.45H147.406L153.756 34H149.231L148.181 30.9ZM147.081 27.6L144.906 21.175L142.756 27.6H147.081ZM164.214 34L159.964 28.15V34H155.689V15.5H159.964V25.725L164.189 20.05H169.464L163.664 27.05L169.514 34H164.214ZM170.293 27C170.293 25.5667 170.559 24.3083 171.093 23.225C171.643 22.1417 172.384 21.3083 173.318 20.725C174.251 20.1417 175.293 19.85 176.443 19.85C177.426 19.85 178.284 20.05 179.018 20.45C179.768 20.85 180.343 21.375 180.743 22.025V20.05H185.018V34H180.743V32.025C180.326 32.675 179.743 33.2 178.993 33.6C178.259 34 177.401 34.2 176.418 34.2C175.284 34.2 174.251 33.9083 173.318 33.325C172.384 32.725 171.643 31.8833 171.093 30.8C170.559 29.7 170.293 28.4333 170.293 27ZM180.743 27.025C180.743 25.9583 180.443 25.1167 179.843 24.5C179.259 23.8833 178.543 23.575 177.693 23.575C176.843 23.575 176.118 23.8833 175.518 24.5C174.934 25.1 174.643 25.9333 174.643 27C174.643 28.0667 174.934 28.9167 175.518 29.55C176.118 30.1667 176.843 30.475 177.693 30.475C178.543 30.475 179.259 30.1667 179.843 29.55C180.443 28.9333 180.743 28.0917 180.743 27.025ZM187.261 27C187.261 25.5667 187.527 24.3083 188.061 23.225C188.611 22.1417 189.352 21.3083 190.286 20.725C191.219 20.1417 192.261 19.85 193.411 19.85C194.327 19.85 195.161 20.0417 195.911 20.425C196.677 20.8083 197.277 21.325 197.711 21.975V15.5H201.986V34H197.711V32C197.311 32.6667 196.736 33.2 195.986 33.6C195.252 34 194.394 34.2 193.411 34.2C192.261 34.2 191.219 33.9083 190.286 33.325C189.352 32.725 188.611 31.8833 188.061 30.8C187.527 29.7 187.261 28.4333 187.261 27ZM197.711 27.025C197.711 25.9583 197.411 25.1167 196.811 24.5C196.227 23.8833 195.511 23.575 194.661 23.575C193.811 23.575 193.086 23.8833 192.486 24.5C191.902 25.1 191.611 25.9333 191.611 27C191.611 28.0667 191.902 28.9167 192.486 29.55C193.086 30.1667 193.811 30.475 194.661 30.475C195.511 30.475 196.227 30.1667 196.811 29.55C197.411 28.9333 197.711 28.0917 197.711 27.025ZM218.228 26.8C218.228 27.2 218.203 27.6167 218.153 28.05H208.478C208.545 28.9167 208.82 29.5833 209.303 30.05C209.803 30.5 210.412 30.725 211.128 30.725C212.195 30.725 212.937 30.275 213.353 29.375H217.903C217.67 30.2917 217.245 31.1167 216.628 31.85C216.028 32.5833 215.27 33.1583 214.353 33.575C213.437 33.9917 212.412 34.2 211.278 34.2C209.912 34.2 208.695 33.9083 207.628 33.325C206.562 32.7417 205.728 31.9083 205.128 30.825C204.528 29.7417 204.228 28.475 204.228 27.025C204.228 25.575 204.52 24.3083 205.103 23.225C205.703 22.1417 206.537 21.3083 207.603 20.725C208.67 20.1417 209.895 19.85 211.278 19.85C212.628 19.85 213.828 20.1333 214.878 20.7C215.928 21.2667 216.745 22.075 217.328 23.125C217.928 24.175 218.228 25.4 218.228 26.8ZM213.853 25.675C213.853 24.9417 213.603 24.3583 213.103 23.925C212.603 23.4917 211.978 23.275 211.228 23.275C210.512 23.275 209.903 23.4833 209.403 23.9C208.92 24.3167 208.62 24.9083 208.503 25.675H213.853ZM238.284 19.9C240.017 19.9 241.392 20.425 242.409 21.475C243.442 22.525 243.959 23.9833 243.959 25.85V34H239.709V26.425C239.709 25.525 239.467 24.8333 238.984 24.35C238.517 23.85 237.867 23.6 237.034 23.6C236.2 23.6 235.542 23.85 235.059 24.35C234.592 24.8333 234.359 25.525 234.359 26.425V34H230.109V26.425C230.109 25.525 229.867 24.8333 229.384 24.35C228.917 23.85 228.267 23.6 227.434 23.6C226.6 23.6 225.942 23.85 225.459 24.35C224.992 24.8333 224.759 25.525 224.759 26.425V34H220.484V20.05H224.759V21.8C225.192 21.2167 225.759 20.7583 226.459 20.425C227.159 20.075 227.95 19.9 228.834 19.9C229.884 19.9 230.817 20.125 231.634 20.575C232.467 21.025 233.117 21.6667 233.584 22.5C234.067 21.7333 234.725 21.1083 235.559 20.625C236.392 20.1417 237.3 19.9 238.284 19.9ZM249.098 18.6C248.348 18.6 247.732 18.3833 247.248 17.95C246.782 17.5 246.548 16.95 246.548 16.3C246.548 15.6333 246.782 15.0833 247.248 14.65C247.732 14.2 248.348 13.975 249.098 13.975C249.832 13.975 250.432 14.2 250.898 14.65C251.382 15.0833 251.623 15.6333 251.623 16.3C251.623 16.95 251.382 17.5 250.898 17.95C250.432 18.3833 249.832 18.6 249.098 18.6ZM251.223 20.05V34H246.948V20.05H251.223ZM262.846 34L258.596 28.15V34H254.321V15.5H258.596V25.725L262.821 20.05H268.096L262.296 27.05L268.146 34H262.846Z"/>
</mask>
<path d="M17.3 33.025L11.4413 43.4688C11.4592 43.4789 11.4772 43.4889 11.4952 43.4989L17.3 33.025ZM14.025 29.825L3.65876 35.8199C3.68734 35.8694 3.71628 35.9186 3.74557 35.9676L14.025 29.825ZM14.025 20.55L3.74557 14.4074C3.72707 14.4384 3.70871 14.4694 3.69049 14.5005L14.025 20.55ZM17.3 17.35L11.4952 6.87611C11.4772 6.88609 11.4592 6.89611 11.4413 6.90618L17.3 17.35ZM26.375 17.35L20.5163 27.7938C20.5342 27.8039 20.5522 27.8139 20.5702 27.8239L26.375 17.35ZM29.625 20.55L19.2357 26.5049C19.2538 26.5365 19.2721 26.568 19.2905 26.5995L29.625 20.55ZM29.625 29.825L39.9595 35.8745C39.9701 35.8563 39.9807 35.8381 39.9912 35.8199L29.625 29.825ZM26.375 33.025L32.2337 43.4688H32.2337L26.375 33.025ZM25.2 28.875L16.3465 20.8119C16.32 20.841 16.2937 20.8702 16.2675 20.8995L25.2 28.875ZM25.2 21.475L16.2675 29.4505C16.3175 29.5065 16.3681 29.5621 16.4192 29.6172L25.2 21.475ZM18.45 21.45L9.66919 13.3078C9.64242 13.3367 9.61578 13.3657 9.5893 13.3948L18.45 21.45ZM18.45 28.9L9.51747 36.8755C9.56752 36.9315 9.6181 36.9871 9.66919 37.0422L18.45 28.9ZM21.85 34.175V22.2001C21.9604 22.2001 22.1574 22.214 22.4093 22.2777C22.6639 22.342 22.9027 22.4391 23.1048 22.5511L17.3 33.025L11.4952 43.4989C14.733 45.2933 18.2603 46.1499 21.85 46.1499V34.175ZM17.3 33.025L23.1587 22.5812C23.3662 22.6976 23.6003 22.8653 23.8251 23.085C24.0492 23.3039 24.2059 23.5175 24.3044 23.6824L14.025 29.825L3.74557 35.9676C5.61696 39.0993 8.22039 41.662 11.4413 43.4688L17.3 33.025ZM14.025 29.825L24.3912 23.8301C24.5361 24.0806 24.649 24.3576 24.72 24.6327C24.7898 24.9031 24.7999 25.0965 24.7999 25.175H12.825H0.850103C0.850103 28.835 1.72689 32.4794 3.65876 35.8199L14.025 29.825ZM12.825 25.175H24.7999C24.7999 25.253 24.7899 25.4543 24.7161 25.7387C24.6409 26.0286 24.5196 26.3259 24.3595 26.5995L14.025 20.55L3.69049 14.5005C1.72677 17.8552 0.850103 21.5165 0.850103 25.175H12.825ZM14.025 20.55L24.3044 26.6926C24.2059 26.8575 24.0492 27.0711 23.8251 27.29C23.6003 27.5097 23.3662 27.6774 23.1587 27.7938L17.3 17.35L11.4413 6.90618C8.22039 8.71301 5.61696 11.2757 3.74557 14.4074L14.025 20.55ZM17.3 17.35L23.1048 27.8239C22.9027 27.9359 22.6639 28.033 22.4093 28.0973C22.1574 28.161 21.9604 28.1749 21.85 28.1749V16.2V4.2251C18.2603 4.2251 14.733 5.08166 11.4952 6.87611L17.3 17.35ZM21.85 16.2V28.1749C21.74 28.1749 21.5352 28.1611 21.2692 28.0935C20.9998 28.025 20.7412 27.92 20.5163 27.7938L26.375 17.35L32.2337 6.90618C28.9818 5.08193 25.4392 4.2251 21.85 4.2251V16.2ZM26.375 17.35L20.5702 27.8239C20.3507 27.7022 20.086 27.5165 19.8234 27.2579C19.5605 26.9991 19.3665 26.733 19.2357 26.5049L29.625 20.55L40.0143 14.5951C38.1393 11.3239 35.467 8.69793 32.1798 6.87611L26.375 17.35ZM29.625 20.55L19.2905 26.5995C19.1304 26.3259 19.0091 26.0286 18.9339 25.7387C18.8601 25.4543 18.8501 25.253 18.8501 25.175H30.825H42.7999C42.7999 21.5165 41.9232 17.8552 39.9595 14.5005L29.625 20.55ZM30.825 25.175H18.8501C18.8501 25.0965 18.8602 24.9031 18.93 24.6327C19.001 24.3576 19.1139 24.0806 19.2588 23.8301L29.625 29.825L39.9912 35.8199C41.9231 32.4794 42.7999 28.835 42.7999 25.175H30.825ZM29.625 29.825L19.2905 23.7755C19.4005 23.5876 19.5711 23.3532 19.8109 23.1171C20.0512 22.8805 20.2995 22.7028 20.5163 22.5812L26.375 33.025L32.2337 43.4688C35.4768 41.6495 38.0965 39.0571 39.9595 35.8745L29.625 29.825ZM26.375 33.025L20.5163 22.5812C20.7412 22.455 20.9998 22.35 21.2692 22.2815C21.5352 22.2139 21.74 22.2001 21.85 22.2001V34.175V46.1499C25.4392 46.1499 28.9818 45.2931 32.2337 43.4688L26.375 33.025ZM21.85 30.275V42.2499C26.2095 42.2499 30.7428 40.647 34.1325 36.8505L25.2 28.875L16.2675 20.8995C17.0002 20.0789 17.9721 19.3559 19.1201 18.8761C20.2355 18.41 21.2107 18.3001 21.85 18.3001V30.275ZM25.2 28.875L34.0535 36.9381C37.3231 33.348 38.4499 29.018 38.4499 25.175H26.475H14.5001C14.5001 24.8414 14.5463 24.1856 14.8347 23.3486C15.135 22.4772 15.6373 21.5906 16.3465 20.8119L25.2 28.875ZM26.475 25.175H38.4499C38.4499 21.3638 37.3473 16.9634 33.9808 13.3328L25.2 21.475L16.4192 29.6172C15.6622 28.8009 15.1408 27.8771 14.8347 26.9888C14.542 26.1393 14.5001 25.4845 14.5001 25.175H26.475ZM25.2 21.475L34.1325 13.4995C30.7428 9.70304 26.2095 8.1001 21.85 8.1001V20.075V32.0499C21.2107 32.0499 20.2355 31.94 19.1201 31.4739C17.9721 30.9941 17.0002 30.2711 16.2675 29.4505L25.2 21.475ZM21.85 20.075V8.1001C17.5901 8.1001 13.098 9.61008 9.66919 13.3078L18.45 21.45L27.2308 29.5922C26.4879 30.3934 25.5283 31.0748 24.4271 31.5202C23.3593 31.952 22.439 32.0499 21.85 32.0499V20.075ZM18.45 21.45L9.5893 13.3948C6.26279 17.054 5.2251 21.447 5.2251 25.175H17.2H29.1749C29.1749 25.4403 29.1407 26.0576 28.8652 26.8784C28.5766 27.7385 28.073 28.6667 27.3107 29.5052L18.45 21.45ZM17.2 25.175H5.2251C5.2251 28.9352 6.28673 33.257 9.51747 36.8755L18.45 28.9L27.3825 20.9245C28.0968 21.7245 28.582 22.615 28.8652 23.4591C29.1366 24.2678 29.1749 24.8861 29.1749 25.175H17.2ZM18.45 28.9L9.66919 37.0422C13.098 40.7399 17.5901 42.2499 21.85 42.2499V30.275V18.3001C22.439 18.3001 23.3593 18.398 24.4271 18.8298C25.5283 19.2752 26.4879 19.9566 27.2308 20.7578L18.45 28.9ZM37.4783 22.375H25.5034C25.5034 27.6743 28.9865 32.3434 34.0661 33.8535C39.1457 35.3635 44.6138 33.3553 47.5086 28.9165L37.4783 22.375ZM39.3533 20.575L45.3441 30.9436C45.4011 30.9107 45.4579 30.8773 45.5144 30.8434L39.3533 20.575ZM41.8533 19.9H53.8282C53.8282 13.2864 48.4669 7.9251 41.8533 7.9251V19.9ZM41.8533 24.425V36.3999C48.4669 36.3999 53.8282 31.0386 53.8282 24.425H41.8533ZM38.2783 25.125L46.0006 34.2773C46.0554 34.231 46.1098 34.1843 46.1638 34.137L38.2783 25.125ZM37.4783 34V45.9749C44.0919 45.9749 49.4532 40.6136 49.4532 34H37.4783ZM33.2033 34H21.2284C21.2284 40.6136 26.5898 45.9749 33.2033 45.9749V34ZM33.2033 20.05V8.0751C26.5898 8.0751 21.2284 13.4364 21.2284 20.05H33.2033ZM37.4783 20.05H49.4532C49.4532 13.4364 44.0919 8.0751 37.4783 8.0751V20.05ZM37.4783 22.375L47.5086 28.9165C47.0412 29.6332 46.3148 30.3828 45.3441 30.9436L39.3533 20.575L33.3626 10.2064C30.8919 11.6338 28.9155 13.5834 27.448 15.8335L37.4783 22.375ZM39.3533 20.575L45.5144 30.8434C44.312 31.5648 42.9981 31.8749 41.8533 31.8749V19.9V7.9251C38.8752 7.9251 35.8946 8.68522 33.1923 10.3066L39.3533 20.575ZM41.8533 19.9H29.8784V24.425H41.8533H53.8282V19.9H41.8533ZM41.8533 24.425V12.4501H40.6783V24.425V36.3999H41.8533V24.425ZM40.6783 24.425V12.4501C38.1294 12.4501 33.9812 12.9731 30.3928 16.113L38.2783 25.125L46.1638 34.137C43.6421 36.3435 41.0939 36.3999 40.6783 36.3999V24.425ZM38.2783 25.125L30.5561 15.9727C25.9912 19.8242 25.5034 25.0784 25.5034 27.525H37.4783H49.4532C49.4532 27.8022 49.4303 28.6747 49.0387 29.8493C48.6214 31.1011 47.7373 32.812 46.0006 34.2773L38.2783 25.125ZM37.4783 27.525H25.5034V34H37.4783H49.4532V27.525H37.4783ZM37.4783 34V22.0251H33.2033V34V45.9749H37.4783V34ZM33.2033 34H45.1782V20.05H33.2033H21.2284V34H33.2033ZM33.2033 20.05V32.0249H37.4783V20.05V8.0751H33.2033V20.05ZM37.4783 20.05H25.5034V22.375H37.4783H49.4532V20.05H37.4783ZM44.1967 17.95L35.8845 26.5701C35.9888 26.6707 36.095 26.7694 36.2029 26.8661L44.1967 17.95ZM44.1967 14.65L52.345 23.4251C52.3489 23.4215 52.3527 23.4179 52.3566 23.4144L44.1967 14.65ZM47.8467 14.65L39.5345 23.2701C39.6388 23.3707 39.745 23.4694 39.8529 23.5661L47.8467 14.65ZM47.8467 17.95L55.995 26.7251C55.9989 26.7215 56.0027 26.7179 56.0066 26.7144L47.8467 17.95ZM48.1717 20.05H60.1466C60.1466 13.4364 54.7852 8.0751 48.1717 8.0751V20.05ZM48.1717 34V45.9749C54.7852 45.9749 60.1466 40.6136 60.1466 34H48.1717ZM43.8967 34H31.9218C31.9218 40.6136 37.2831 45.9749 43.8967 45.9749V34ZM43.8967 20.05V8.0751C37.2831 8.0751 31.9218 13.4364 31.9218 20.05H43.8967ZM46.0467 18.6V6.6251C47.7588 6.6251 50.1387 7.19434 52.1905 9.03385L44.1967 17.95L36.2029 26.8661C39.2213 29.5723 42.8346 30.5749 46.0467 30.5749V18.6ZM44.1967 17.95L52.5089 9.32994C53.3359 10.1275 54.131 11.1924 54.6956 12.5232C55.2598 13.8533 55.4716 15.1606 55.4716 16.3H43.4967H31.5218C31.5218 20.1917 33.0703 23.8564 35.8845 26.5701L44.1967 17.95ZM43.4967 16.3H55.4716C55.4716 17.3872 55.2754 18.6975 54.6956 20.0643C54.1104 21.4436 53.2653 22.5705 52.345 23.4251L44.1967 14.65L36.0483 5.87488C33.0157 8.69094 31.5218 12.4793 31.5218 16.3H43.4967ZM44.1967 14.65L52.3566 23.4144C51.4335 24.2738 50.3315 24.9535 49.1262 25.3932C47.9462 25.8238 46.8748 25.9499 46.0467 25.9499V13.975V2.0001C42.711 2.0001 39.0402 3.08936 36.0368 5.88564L44.1967 14.65ZM46.0467 13.975V25.9499C45.1822 25.9499 44.0658 25.8151 42.842 25.3562C41.5918 24.8874 40.4647 24.1671 39.5345 23.2701L47.8467 14.65L56.1589 6.02994C53.1619 3.14003 49.4398 2.0001 46.0467 2.0001V13.975ZM47.8467 14.65L39.8529 23.5661C38.9278 22.7367 38.0468 21.6147 37.4272 20.2047C36.811 18.8024 36.5968 17.4423 36.5968 16.3H48.5717H60.5466C60.5466 12.3353 58.9342 8.50758 55.8405 5.73386L47.8467 14.65ZM48.5717 16.3H36.5968C36.5968 15.1041 36.8277 13.7472 37.4272 12.3828C38.0248 11.0227 38.8542 9.96079 39.6868 9.18565L47.8467 17.95L56.0066 26.7144C58.8788 24.0402 60.5466 20.3342 60.5466 16.3H48.5717ZM47.8467 17.95L39.6984 9.17487C40.6465 8.29448 41.7684 7.61179 42.9795 7.17446C44.163 6.74709 45.2309 6.6251 46.0467 6.6251V18.6V30.5749C49.3117 30.5749 52.9781 29.5265 55.995 26.7251L47.8467 17.95ZM48.1717 20.05H36.1968V34H48.1717H60.1466V20.05H48.1717ZM48.1717 34V22.0251H43.8967V34V45.9749H48.1717V34ZM43.8967 34H55.8716V20.05H43.8967H31.9218V34H43.8967ZM43.8967 20.05V32.0249H48.1717V20.05V8.0751H43.8967V20.05ZM64.3447 28.05V40.0249C70.4272 40.0249 75.5435 35.465 76.2407 29.4226L64.3447 28.05ZM54.6697 28.05V16.0751C51.3342 16.0751 48.1498 17.4663 45.8835 19.9137C43.6172 22.361 42.4743 25.6427 42.7301 28.9684L54.6697 28.05ZM55.4947 30.05L47.177 38.6648C47.2777 38.7619 47.38 38.8573 47.4839 38.9509L55.4947 30.05ZM59.5447 29.375V17.4001C54.879 17.4001 50.6381 20.1101 48.6779 24.3441L59.5447 29.375ZM64.0947 29.375L75.6996 32.329C76.6114 28.7467 75.8178 24.9441 73.5491 22.0257C71.2805 19.1072 67.7912 17.4001 64.0947 17.4001V29.375ZM62.8197 31.85L53.6546 24.143C53.62 24.1841 53.5857 24.2255 53.5517 24.267L62.8197 31.85ZM60.5447 33.575L65.5 44.4765L60.5447 33.575ZM53.8197 33.325L48.074 43.8314L53.8197 33.325ZM51.3197 30.825L61.7953 25.0232L51.3197 30.825ZM51.2947 23.225L40.8192 17.4232C40.7963 17.4645 40.7736 17.5061 40.7512 17.5477L51.2947 23.225ZM53.7947 20.725L59.5404 31.2314L59.5404 31.2314L53.7947 20.725ZM61.0697 20.7L55.3825 31.2382L55.3825 31.2382L61.0697 20.7ZM63.5197 23.125L53.0518 28.9405C53.0751 28.9826 53.0987 29.0245 53.1226 29.0662L63.5197 23.125ZM60.0447 25.675V37.6499C66.6583 37.6499 72.0196 32.2886 72.0196 25.675H60.0447ZM59.2947 23.925L67.1375 14.8757L67.1375 14.8757L59.2947 23.925ZM55.5947 23.9L47.9286 14.7006C47.8773 14.7434 47.8264 14.7865 47.7758 14.8301L55.5947 23.9ZM54.6947 25.675L42.8561 23.8735C42.331 27.3242 43.3376 30.8323 45.6126 33.4796C47.8875 36.1269 51.2042 37.6499 54.6947 37.6499V25.675ZM64.4197 26.8H52.4448C52.4448 26.7024 52.4508 26.6593 52.4488 26.6774L64.3447 28.05L76.2407 29.4226C76.3386 28.574 76.3946 27.6976 76.3946 26.8H64.4197ZM64.3447 28.05V16.0751H54.6697V28.05V40.0249H64.3447V28.05ZM54.6697 28.05L42.7301 28.9684C42.9538 31.8767 44.0263 35.6226 47.177 38.6648L55.4947 30.05L63.8124 21.4352C65.9965 23.544 66.519 25.9566 66.6094 27.1316L54.6697 28.05ZM55.4947 30.05L47.4839 38.9509C50.3348 41.5166 53.8558 42.6999 57.3197 42.6999V30.725V18.7501C58.2308 18.7501 59.3221 18.8967 60.48 19.3249C61.6501 19.7577 62.6715 20.3986 63.5055 21.1491L55.4947 30.05ZM57.3197 30.725V42.6999C59.5418 42.6999 62.2572 42.2214 64.8877 40.6253C67.5742 38.9953 69.351 36.6967 70.4115 34.4059L59.5447 29.375L48.6779 24.3441C49.3218 22.9533 50.5195 21.3297 52.4643 20.1497C54.3531 19.0036 56.1643 18.7501 57.3197 18.7501V30.725ZM59.5447 29.375V41.3499H64.0947V29.375V17.4001H59.5447V29.375ZM64.0947 29.375L52.4899 26.421C52.7074 25.5665 53.126 24.7715 53.6546 24.143L62.8197 31.85L71.9849 39.557C73.7468 37.4618 75.0154 35.0168 75.6996 32.329L64.0947 29.375ZM62.8197 31.85L53.5517 24.267C54.1881 23.4892 54.9404 22.9685 55.5895 22.6735L60.5447 33.575L65.5 44.4765C67.9824 43.3482 70.2514 41.6774 72.0878 39.433L62.8197 31.85ZM60.5447 33.575L55.5895 22.6735C56.4137 22.2988 57.1088 22.2251 57.4697 22.2251V34.2V46.1749C60.0973 46.1749 62.8425 45.6845 65.5 44.4765L60.5447 33.575ZM57.4697 34.2V22.2251C57.8578 22.2251 58.6607 22.3238 59.5654 22.8186L53.8197 33.325L48.074 43.8314C51.1121 45.4929 54.3483 46.1749 57.4697 46.1749V34.2ZM53.8197 33.325L59.5654 22.8186C59.9999 23.0562 60.448 23.3807 60.8623 23.795C61.2753 24.208 61.5812 24.6367 61.7953 25.0232L51.3197 30.825L40.8442 36.6268C42.5217 39.6557 44.9781 42.1383 48.074 43.8314L53.8197 33.325ZM51.3197 30.825L61.7953 25.0232C62.3348 25.9973 62.3946 26.7938 62.3946 27.025H50.4197H38.4448C38.4448 30.1562 39.1047 33.486 40.8442 36.6268L51.3197 30.825ZM50.4197 27.025H62.3946C62.3946 27.2027 62.3491 27.9537 61.8383 28.9023L51.2947 23.225L40.7512 17.5477C39.0737 20.663 38.4448 23.9473 38.4448 27.025H50.4197ZM51.2947 23.225L61.7703 29.0268C61.5562 29.4133 61.2503 29.842 60.8373 30.255C60.423 30.6693 59.9749 30.9938 59.5404 31.2314L53.7947 20.725L48.049 10.2186C44.9531 11.9117 42.4967 14.3943 40.8192 17.4232L51.2947 23.225ZM53.7947 20.725L59.5404 31.2314C58.6147 31.7377 57.8142 31.8249 57.4697 31.8249V19.85V7.8751C54.3586 7.8751 51.1081 8.54566 48.049 10.2186L53.7947 20.725ZM57.4697 19.85V31.8249C57.0986 31.8249 56.2986 31.7326 55.3825 31.2382L61.0697 20.7L66.757 10.1618C63.7409 8.53407 60.5408 7.8751 57.4697 7.8751V19.85ZM61.0697 20.7L55.3825 31.2382C54.942 31.0005 54.4791 30.671 54.0457 30.2421C53.6128 29.8136 53.2854 29.3611 53.0518 28.9405L63.5197 23.125L73.9877 17.3095C72.3021 14.2755 69.8329 11.8219 66.757 10.1618L61.0697 20.7ZM63.5197 23.125L53.1226 29.0662C52.5355 28.0387 52.4448 27.1517 52.4448 26.8H64.4197H76.3946C76.3946 23.6483 75.704 20.3113 73.9169 17.1838L63.5197 23.125ZM60.0447 25.675H72.0196C72.0196 21.8911 70.5651 17.8463 67.1375 14.8757L59.2947 23.925L51.452 32.9743C50.3932 32.0567 49.4696 30.849 48.8506 29.4046C48.2451 27.9919 48.0698 26.68 48.0698 25.675H60.0447ZM59.2947 23.925L67.1375 14.8757C64.1691 12.3031 60.6406 11.3001 57.4197 11.3001V23.275V35.2499C55.6989 35.2499 53.4204 34.6802 51.452 32.9743L59.2947 23.925ZM57.4197 23.275V11.3001C54.2046 11.3001 50.8024 12.3057 47.9286 14.7006L55.5947 23.9L63.2609 33.0994C61.387 34.6609 59.2015 35.2499 57.4197 35.2499V23.275ZM55.5947 23.9L47.7758 14.8301C44.6879 17.4921 43.3062 20.9156 42.8561 23.8735L54.6947 25.675L66.5333 27.4765C66.3166 28.9011 65.5348 31.1413 63.4136 32.9699L55.5947 23.9ZM54.6947 25.675V37.6499H60.0447V25.675V13.7001H54.6947V25.675ZM79.075 21.5L70.2018 29.5414C70.2456 29.5898 70.2899 29.6378 70.3345 29.6855L79.075 21.5ZM80.55 34V45.9749C87.1636 45.9749 92.5249 40.6136 92.5249 34H80.55ZM76.3 34H64.3251C64.3251 40.6136 69.6864 45.9749 76.3 45.9749V34ZM75.575 24.25L66.8301 32.4307L66.8301 32.4307L75.575 24.25ZM71.675 24.25L80.4199 32.4307L80.4199 32.4307L71.675 24.25ZM70.95 34V45.9749C77.5636 45.9749 82.9249 40.6136 82.9249 34H70.95ZM66.675 34H54.7001C54.7001 40.6136 60.0614 45.9749 66.675 45.9749V34ZM66.675 20.05V8.0751C60.0614 8.0751 54.7001 13.4364 54.7001 20.05H66.675ZM70.95 20.05H82.9249C82.9249 13.4364 77.5636 8.0751 70.95 8.0751V20.05ZM70.95 21.9H58.9751C58.9751 27.1227 62.3599 31.743 67.3395 33.3176C72.3192 34.8923 77.745 33.0581 80.7478 28.7849L70.95 21.9ZM72.7 20.45L77.8579 31.2571C77.924 31.2256 77.9898 31.1934 78.0553 31.1607L72.7 20.45ZM75.175 19.9V31.8749C74.6827 31.8749 73.8367 31.7918 72.8299 31.3788C71.7877 30.9512 70.8865 30.297 70.2018 29.5414L79.075 21.5L87.9482 13.4586C84.3941 9.53686 79.6852 7.9251 75.175 7.9251V19.9ZM79.075 21.5L70.3345 29.6855C69.5862 28.8865 69.1066 28.005 68.8406 27.2204C68.5894 26.4797 68.5751 25.9693 68.5751 25.85H80.55H92.5249C92.5249 21.8605 91.4201 17.1635 87.8155 13.3145L79.075 21.5ZM80.55 25.85H68.5751V34H80.55H92.5249V25.85H80.55ZM80.55 34V22.0251H76.3V34V45.9749H80.55V34ZM76.3 34H88.2749V26.425H76.3H64.3251V34H76.3ZM76.3 26.425H88.2749C88.2749 23.4493 87.4712 19.4379 84.3199 16.0693L75.575 24.25L66.8301 32.4307C64.6455 30.0955 64.3251 27.5341 64.3251 26.425H76.3ZM75.575 24.25L84.3199 16.0693C81.2162 12.7515 77.1962 11.5001 73.625 11.5001V23.475V35.4499C72.7687 35.4499 71.5996 35.3126 70.3022 34.797C68.9675 34.2665 67.7799 33.4461 66.8301 32.4307L75.575 24.25ZM73.625 23.475V11.5001C70.0538 11.5001 66.0338 12.7515 62.9301 16.0693L71.675 24.25L80.4199 32.4307C79.4701 33.4461 78.2825 34.2665 76.9478 34.797C75.6504 35.3126 74.4813 35.4499 73.625 35.4499V23.475ZM71.675 24.25L62.9301 16.0693C59.7788 19.4379 58.9751 23.4493 58.9751 26.425H70.95H82.9249C82.9249 27.5341 82.6045 30.0955 80.4199 32.4307L71.675 24.25ZM70.95 26.425H58.9751V34H70.95H82.9249V26.425H70.95ZM70.95 34V22.0251H66.675V34V45.9749H70.95V34ZM66.675 34H78.6499V20.05H66.675H54.7001V34H66.675ZM66.675 20.05V32.0249H70.95V20.05V8.0751H66.675V20.05ZM70.95 20.05H58.9751V21.9H70.95H82.9249V20.05H70.95ZM70.95 21.9L80.7478 28.7849C79.9056 29.9834 78.8331 30.7917 77.8579 31.2571L72.7 20.45L67.5421 9.64288C65.1003 10.8083 62.8611 12.5833 61.1522 15.0151L70.95 21.9ZM72.7 20.45L78.0553 31.1607C76.9382 31.7192 75.8956 31.8749 75.175 31.8749V19.9V7.9251C72.6211 7.9251 69.9284 8.44745 67.3447 9.73932L72.7 20.45ZM91.2957 30.375H103.271C103.271 23.7614 97.9093 18.4001 91.2957 18.4001V30.375ZM91.2957 34V45.9749C97.9093 45.9749 103.271 40.6136 103.271 34H91.2957ZM85.4957 32.875L77.5614 41.8442C77.594 41.873 77.6267 41.9016 77.6596 41.93L85.4957 32.875ZM84.1957 23.6H96.1706C96.1706 16.9864 90.8093 11.6251 84.1957 11.6251V23.6ZM82.4957 23.6H70.5208C70.5208 30.2136 75.8821 35.5749 82.4957 35.5749V23.6ZM82.4957 20.05V8.0751C75.8821 8.0751 70.5208 13.4364 70.5208 20.05H82.4957ZM84.1957 20.05V32.0249C90.8093 32.0249 96.1706 26.6636 96.1706 20.05H84.1957ZM84.1957 16.65V4.6751C77.5822 4.6751 72.2208 10.0364 72.2208 16.65H84.1957ZM88.4707 16.65H100.446C100.446 10.0364 95.0843 4.6751 88.4707 4.6751V16.65ZM88.4707 20.05H76.4958C76.4958 26.6636 81.8571 32.0249 88.4707 32.0249V20.05ZM91.2707 20.05H103.246C103.246 13.4364 97.8843 8.0751 91.2707 8.0751V20.05ZM91.2707 23.6V35.5749C97.8843 35.5749 103.246 30.2136 103.246 23.6H91.2707ZM88.4707 23.6V11.6251C81.8571 11.6251 76.4958 16.9864 76.4958 23.6H88.4707ZM88.7707 30.1L80.679 38.9273L80.679 38.9273L88.7707 30.1ZM91.2957 30.375H79.3208V34H91.2957H103.271V30.375H91.2957ZM91.2957 34V22.0251H89.1207V34V45.9749H91.2957V34ZM89.1207 34V22.0251C89.4281 22.0251 91.3579 22.1118 93.3318 23.82L85.4957 32.875L77.6596 41.93C81.3669 45.1382 85.7133 45.9749 89.1207 45.9749V34ZM85.4957 32.875L93.43 23.9058C96.1675 26.3275 96.1706 29.1152 96.1706 29.15H84.1957H72.2208C72.2208 32.6182 73.0906 37.8892 77.5614 41.8442L85.4957 32.875ZM84.1957 29.15H96.1706V23.6H84.1957H72.2208V29.15H84.1957ZM84.1957 23.6V11.6251H82.4957V23.6V35.5749H84.1957V23.6ZM82.4957 23.6H94.4706V20.05H82.4957H70.5208V23.6H82.4957ZM82.4957 20.05V32.0249H84.1957V20.05V8.0751H82.4957V20.05ZM84.1957 20.05H96.1706V16.65H84.1957H72.2208V20.05H84.1957ZM84.1957 16.65V28.6249H88.4707V16.65V4.6751H84.1957V16.65ZM88.4707 16.65H76.4958V20.05H88.4707H100.446V16.65H88.4707ZM88.4707 20.05V32.0249H91.2707V20.05V8.0751H88.4707V20.05ZM91.2707 20.05H79.2958V23.6H91.2707H103.246V20.05H91.2707ZM91.2707 23.6V11.6251H88.4707V23.6V35.5749H91.2707V23.6ZM88.4707 23.6H76.4958V29.2H88.4707H100.446V23.6H88.4707ZM88.4707 29.2H76.4958C76.4958 31.1889 76.9401 35.5001 80.679 38.9273L88.7707 30.1L96.8624 21.2727C100.201 24.3333 100.446 28.0444 100.446 29.2H88.4707ZM88.7707 30.1L80.679 38.9273C84.2103 42.1644 88.2944 42.3499 89.7707 42.3499V30.375V18.4001C90.2623 18.4001 91.1892 18.4419 92.3459 18.76C93.5222 19.0835 95.2315 19.7776 96.8624 21.2727L88.7707 30.1ZM89.7707 30.375V42.3499H91.2957V30.375V18.4001H89.7707V30.375ZM93.627 23.225L82.9493 17.8041C82.9271 17.8479 82.9051 17.8918 82.8834 17.9359L93.627 23.225ZM95.852 20.725L102.199 30.8797L102.199 30.8797L95.852 20.725ZM101.552 20.45L95.8177 30.9627C95.8506 30.9807 95.8836 30.9984 95.9167 31.0161L101.552 20.45ZM103.277 22.025L93.0784 28.301C95.8863 32.8638 101.383 35.0063 106.538 33.5472C111.693 32.0882 115.252 27.3825 115.252 22.025H103.277ZM103.277 20.05V8.0751C96.6634 8.0751 91.3021 13.4364 91.3021 20.05H103.277ZM107.552 20.05H119.527C119.527 13.4364 114.166 8.0751 107.552 8.0751V20.05ZM107.552 34V45.9749C114.166 45.9749 119.527 40.6136 119.527 34H107.552ZM103.277 34H91.3021C91.3021 40.6136 96.6634 45.9749 103.277 45.9749V34ZM103.277 32.025H115.252C115.252 26.7083 111.746 22.0282 106.644 20.5332C101.542 19.0383 96.0648 21.0865 93.1955 25.5626L103.277 32.025ZM101.527 33.6L95.8917 23.0339C95.8586 23.0516 95.8257 23.0693 95.7927 23.0873L101.527 33.6ZM95.852 33.325L89.3764 43.398C89.4192 43.4255 89.4622 43.4527 89.5053 43.4797L95.852 33.325ZM93.627 30.8L82.8518 36.0243C82.8837 36.0902 82.9162 36.1557 82.9493 36.2209L93.627 30.8ZM102.377 24.5L93.6776 32.7291C93.7162 32.77 93.7551 32.8105 93.7942 32.8507L102.377 24.5ZM98.052 24.5L89.4692 16.1492L89.466 16.1526L98.052 24.5ZM98.052 29.55L89.2439 37.6627C89.3179 37.7431 89.393 37.8224 89.4692 37.9008L98.052 29.55ZM102.377 29.55L93.7942 21.1992C93.7551 21.2395 93.7162 21.28 93.6776 21.3209L102.377 29.55ZM92.827 27H104.802C104.802 27.0605 104.785 27.6717 104.37 28.5141L93.627 23.225L82.8834 17.9359C81.402 20.9449 80.8521 24.0729 80.8521 27H92.827ZM93.627 23.225L104.305 28.6459C103.974 29.2973 103.301 30.1908 102.199 30.8797L95.852 20.725L89.5053 10.5703C86.5364 12.4258 84.38 14.9861 82.9493 17.8041L93.627 23.225ZM95.852 20.725L102.199 30.8797C101.141 31.5406 99.9656 31.8249 98.977 31.8249V19.85V7.8751C95.6883 7.8751 92.4294 8.74271 89.5053 10.5703L95.852 20.725ZM98.977 19.85V31.8249C98.3124 31.8249 97.1313 31.6792 95.8177 30.9627L101.552 20.45L107.286 9.93729C104.506 8.42081 101.608 7.8751 98.977 7.8751V19.85ZM101.552 20.45L95.9167 31.0161C95.0104 30.5327 93.9149 29.6603 93.0784 28.301L103.277 22.025L113.475 15.749C111.839 13.0897 109.594 11.1673 107.187 9.88392L101.552 20.45ZM103.277 22.025H115.252V20.05H103.277H91.3021V22.025H103.277ZM103.277 20.05V32.0249H107.552V20.05V8.0751H103.277V20.05ZM107.552 20.05H95.5771V34H107.552H119.527V20.05H107.552ZM107.552 34V22.0251H103.277V34V45.9749H107.552V34ZM103.277 34H115.252V32.025H103.277H91.3021V34H103.277ZM103.277 32.025L93.1955 25.5626C93.9942 24.3166 95.0198 23.4989 95.8917 23.0339L101.527 33.6L107.162 44.1661C109.534 42.9011 111.726 41.0334 113.358 38.4874L103.277 32.025ZM101.527 33.6L95.7927 23.0873C97.1063 22.3708 98.2874 22.2251 98.952 22.2251V34.2V46.1749C101.583 46.1749 104.481 45.6292 107.261 44.1127L101.527 33.6ZM98.952 34.2V22.2251C99.9927 22.2251 101.17 22.5275 102.199 23.1703L95.852 33.325L89.5053 43.4797C92.4005 45.2892 95.6445 46.1749 98.952 46.1749V34.2ZM95.852 33.325L102.327 23.252C103.35 23.9095 103.986 24.7516 104.305 25.3791L93.627 30.8L82.9493 36.2209C84.3679 39.0151 86.4869 41.5405 89.3764 43.398L95.852 33.325ZM93.627 30.8L104.402 25.5757C104.783 26.3621 104.802 26.9341 104.802 27H92.827H80.8521C80.8521 29.9326 81.4038 33.0379 82.8518 36.0243L93.627 30.8ZM103.277 27.025H115.252C115.252 23.6279 114.229 19.5093 110.96 16.1492L102.377 24.5L93.7942 32.8507C91.725 30.724 91.3021 28.2888 91.3021 27.025H103.277ZM102.377 24.5L111.076 16.2709C108.228 13.2595 104.363 11.6001 100.227 11.6001V23.575V35.5499C99.1715 35.5499 97.9352 35.3509 96.6694 34.8063C95.4032 34.2615 94.4064 33.4996 93.6776 32.7291L102.377 24.5ZM100.227 23.575V11.6001C96.0998 11.6001 92.2925 13.2475 89.4692 16.1492L98.052 24.5L106.635 32.8507C105.929 33.5763 104.963 34.3027 103.732 34.826C102.499 35.3505 101.284 35.5499 100.227 35.5499V23.575ZM98.052 24.5L89.466 16.1526C86.1568 19.5563 85.2021 23.7104 85.2021 27H97.177H109.152C109.152 28.1562 108.78 30.6437 106.638 32.8474L98.052 24.5ZM97.177 27H85.2021C85.2021 30.3214 86.1668 34.3219 89.2439 37.6627L98.052 29.55L106.86 21.4373C108.77 23.5114 109.152 25.8119 109.152 27H97.177ZM98.052 29.55L89.4692 37.9008C92.2925 40.8025 96.0998 42.4499 100.227 42.4499V30.475V18.5001C101.284 18.5001 102.499 18.6995 103.732 19.224C104.963 19.7472 105.929 20.4737 106.635 21.1992L98.052 29.55ZM100.227 30.475V42.4499C104.363 42.4499 108.228 40.7905 111.076 37.7791L102.377 29.55L93.6776 21.3209C94.4064 20.5504 95.4032 19.7885 96.6694 19.2437C97.9352 18.6991 99.1715 18.5001 100.227 18.5001V30.475ZM102.377 29.55L110.96 37.9008C114.229 34.5407 115.252 30.4221 115.252 27.025H103.277H91.3021C91.3021 25.7612 91.725 23.326 93.7942 21.1992L102.377 29.55ZM113.07 33.575L117.88 22.6085L113.07 33.575ZM110.82 31.875L101.24 39.0599C101.266 39.0953 101.293 39.1305 101.32 39.1655L110.82 31.875ZM109.895 29.425V17.4501C106.565 17.4501 103.386 18.8364 101.12 21.2762C98.8542 23.716 97.7066 26.9891 97.9525 30.3096L109.895 29.425ZM114.12 29.425L126.031 28.1928C125.4 22.0889 120.256 17.4501 114.12 17.4501V29.425ZM114.795 30.6L121.98 21.0201V21.0201L114.795 30.6ZM117.495 30.75L124.4 40.5331C124.436 40.5082 124.471 40.4831 124.506 40.4578L117.495 30.75ZM117.32 29.05L112.138 39.8456C112.257 39.9027 112.376 39.9577 112.497 40.0108L117.32 29.05ZM115.295 28.4L118.199 16.7826C118.138 16.7674 118.077 16.7526 118.016 16.7384L115.295 28.4ZM112.795 27.675L108.347 38.7934C108.428 38.8256 108.509 38.857 108.59 38.8874L112.795 27.675ZM111.07 26.45L101.959 34.2211C101.997 34.2659 102.036 34.3105 102.075 34.3548L111.07 26.45ZM110.995 22L101.069 15.3004C101.057 15.3194 101.044 15.3384 101.031 15.3575L110.995 22ZM112.945 20.425L108.101 9.47353C108.074 9.48521 108.048 9.49698 108.022 9.50884L112.945 20.425ZM120.145 21.15L112.302 30.1993C112.327 30.2207 112.351 30.2419 112.376 30.2631L120.145 21.15ZM121.895 24.6V36.5749C125.288 36.5749 128.521 35.1356 130.792 32.6148C133.063 30.0939 134.158 26.728 133.805 23.3536L121.895 24.6ZM117.945 24.6L106.082 26.2362C106.899 32.1614 111.963 36.5749 117.945 36.5749V24.6ZM117.295 23.45L109.76 32.7574C109.83 32.8143 109.901 32.8703 109.973 32.9256L117.295 23.45ZM114.745 23.325L121.529 33.1928C121.664 33.0996 121.798 33.0036 121.93 32.9049L114.745 23.325ZM114.97 25L109.788 35.7956C109.842 35.8218 109.897 35.8474 109.952 35.8727L114.97 25ZM116.97 25.6L119.962 14.005C119.831 13.9712 119.699 13.9396 119.567 13.9103L116.97 25.6ZM119.495 26.4L114.95 37.4788C115.031 37.5123 115.113 37.545 115.196 37.5767L119.495 26.4ZM121.195 27.65L111.974 35.2902C112.053 35.3857 112.133 35.4799 112.215 35.5728L121.195 27.65ZM121.97 29.95H133.945C133.945 29.8812 133.944 29.8124 133.943 29.7436L121.97 29.95ZM121.27 32.15L111.542 25.1662C111.531 25.1821 111.519 25.1981 111.508 25.2141L121.27 32.15ZM119.295 33.65L114.629 22.6215C114.603 22.6324 114.577 22.6434 114.552 22.6545L119.295 33.65ZM116.32 34.2V22.2251C116.476 22.2251 117.074 22.2552 117.88 22.6085L113.07 33.575L108.26 44.5415C110.965 45.7281 113.73 46.1749 116.32 46.1749V34.2ZM113.07 33.575L117.88 22.6085C118.501 22.881 119.469 23.4764 120.32 24.5845L110.82 31.875L101.32 39.1655C103.27 41.707 105.739 43.4357 108.26 44.5415L113.07 33.575ZM110.82 31.875L120.4 24.6901C121.2 25.7574 121.732 27.1199 121.837 28.5404L109.895 29.425L97.9525 30.3096C98.1911 33.5301 99.3393 36.526 101.24 39.0599L110.82 31.875ZM109.895 29.425V41.3999H114.12V29.425V17.4501H109.895V29.425ZM114.12 29.425L102.208 30.6572C102.613 34.5676 104.628 37.9433 107.61 40.1799L114.795 30.6L121.98 21.0201C122.941 21.7407 123.93 22.7586 124.709 24.1163C125.494 25.4814 125.897 26.8954 126.031 28.1928L114.12 29.425ZM114.795 30.6L107.61 40.1799C110.414 42.2834 113.543 43.0249 116.27 43.0249V31.05V19.0751C117.829 19.0751 119.975 19.5166 121.98 21.0201L114.795 30.6ZM116.27 31.05V43.0249C118.033 43.0249 121.276 42.7389 124.4 40.5331L117.495 30.75L110.589 20.9669C113.147 19.1611 115.573 19.0751 116.27 19.0751V31.05ZM117.495 30.75L124.506 40.4578C127.525 38.2773 129.92 34.5696 129.92 29.925H117.945H105.97C105.97 28.2206 106.374 26.3813 107.32 24.647C108.242 22.9556 109.445 21.7923 110.484 21.0422L117.495 30.75ZM117.945 29.925H129.92C129.92 27.5317 129.254 24.8558 127.533 22.446C125.882 20.1348 123.797 18.8171 122.142 18.0892L117.32 29.05L112.497 40.0108C111.259 39.4662 109.487 38.3861 108.044 36.3665C106.531 34.2484 105.97 31.9183 105.97 29.925H117.945ZM117.32 29.05L122.502 18.2544C120.93 17.5001 119.265 17.0492 118.199 16.7826L115.295 28.4L112.39 40.0174C112.532 40.0527 112.64 40.0817 112.72 40.1039C112.759 40.1149 112.789 40.1235 112.81 40.1298C112.82 40.1329 112.828 40.1353 112.833 40.1369C112.839 40.1386 112.841 40.1394 112.841 40.1394C112.841 40.1394 112.838 40.1384 112.832 40.1365C112.826 40.1345 112.817 40.1314 112.805 40.1272C112.781 40.1189 112.742 40.1048 112.689 40.0846C112.636 40.0644 112.563 40.0358 112.475 39.9981C112.386 39.9606 112.272 39.9101 112.138 39.8456L117.32 29.05ZM115.295 28.4L118.016 16.7384C117.686 16.6614 117.436 16.5951 117.255 16.5427C117.071 16.4893 116.993 16.4602 116.999 16.4626L112.795 27.675L108.59 38.8874C109.901 39.3791 111.27 39.7573 112.574 40.0616L115.295 28.4ZM112.795 27.675L117.242 16.5566C118.358 17.003 119.331 17.7105 120.065 18.5452L111.07 26.45L102.075 34.3548C103.775 36.2895 105.898 37.8136 108.347 38.7934L112.795 27.675ZM111.07 26.45L120.181 18.6789C122.008 20.8218 122.32 23.0809 122.32 24.175H110.345H98.3698C98.3698 27.1691 99.1645 30.9449 101.959 34.2211L111.07 26.45ZM110.345 24.175H122.32C122.32 25.6787 121.87 27.2757 120.958 28.6425L110.995 22L101.031 15.3575C99.2532 18.0243 98.3698 21.0713 98.3698 24.175H110.345ZM110.995 22L120.92 28.6996C119.939 30.153 118.716 30.9587 117.868 31.3412L112.945 20.425L108.022 9.50884C105.474 10.6579 102.95 12.5136 101.069 15.3004L110.995 22ZM112.945 20.425L117.789 31.3765C116.8 31.8136 116.102 31.8249 116.02 31.8249V19.85V7.8751C113.57 7.8751 110.823 8.26968 108.101 9.47353L112.945 20.425ZM116.02 19.85V31.8249C115.831 31.8249 114.099 31.7568 112.302 30.1993L120.145 21.15L127.987 12.1007C124.19 8.80991 119.708 7.8751 116.02 7.8751V19.85ZM120.145 21.15L112.376 30.2631C111.724 29.7068 111.116 28.968 110.665 28.0797C110.222 27.2068 110.044 26.4132 109.985 25.8464L121.895 24.6L133.805 23.3536C133.362 19.1277 131.463 15.063 127.913 12.0369L120.145 21.15ZM121.895 24.6V12.6251H117.945V24.6V36.5749H121.895V24.6ZM117.945 24.6L129.807 22.9638C129.337 19.5559 127.607 16.2851 124.617 13.9744L117.295 23.45L109.973 32.9256C108.961 32.1434 108.025 31.112 107.307 29.8423C106.596 28.5837 106.233 27.3296 106.082 26.2362L117.945 24.6ZM117.295 23.45L124.829 14.1426C121.787 11.6795 118.4 11.0501 115.895 11.0501V23.025V34.9999C114.556 34.9999 112.103 34.6538 109.76 32.7574L117.295 23.45ZM115.895 23.025V11.0501C114.035 11.0501 110.705 11.3859 107.56 13.7451L114.745 23.325L121.93 32.9049C119.317 34.8641 116.754 34.9999 115.895 34.9999V23.025ZM114.745 23.325L107.961 13.4572C104.33 15.9535 102.37 19.9649 102.37 24.1H114.345H126.32C126.32 25.5625 126.016 27.3457 125.086 29.1485C124.148 30.9649 122.835 32.2949 121.529 33.1928L114.745 23.325ZM114.345 24.1H102.37C102.37 26.4983 103.036 29.1089 104.665 31.4554C106.226 33.7024 108.198 35.0328 109.788 35.7956L114.97 25L120.152 14.2044C121.324 14.7672 122.985 15.8476 124.337 17.7946C125.758 19.8411 126.32 22.1017 126.32 24.1H114.345ZM114.97 25L109.952 35.8727C111.578 36.6235 113.257 37.042 114.372 37.2897L116.97 25.6L119.567 13.9103C119.316 13.8544 119.218 13.8249 119.236 13.8301C119.249 13.834 119.318 13.8549 119.431 13.8961C119.54 13.9358 119.735 14.0103 119.988 14.1273L114.97 25ZM116.97 25.6L113.977 37.195C114.326 37.2849 114.582 37.3595 114.759 37.4156C114.942 37.4734 114.995 37.4973 114.95 37.4788L119.495 26.4L124.04 15.3212C122.697 14.7704 121.283 14.3459 119.962 14.005L116.97 25.6ZM119.495 26.4L115.196 37.5767C113.763 37.0257 112.683 36.1456 111.974 35.2902L121.195 27.65L130.416 20.0098C128.74 17.9878 126.526 16.2743 123.793 15.2233L119.495 26.4ZM121.195 27.65L112.215 35.5728C110.356 33.465 110.015 31.222 109.997 30.1564L121.97 29.95L133.943 29.7436C133.891 26.7447 133.034 22.9683 130.174 19.7272L121.195 27.65ZM121.97 29.95H109.995C109.995 28.3163 110.516 26.5961 111.542 25.1662L121.27 32.15L130.997 39.1338C132.957 36.4039 133.945 33.2171 133.945 29.95H121.97ZM121.27 32.15L111.508 25.2141C112.592 23.6881 113.884 22.9366 114.629 22.6215L119.295 33.65L123.961 44.6785C126.439 43.6301 129.047 41.8785 131.031 39.0859L121.27 32.15ZM119.295 33.65L114.552 22.6545C115.495 22.2474 116.178 22.2251 116.32 22.2251V34.2V46.1749C118.728 46.1749 121.394 45.7859 124.038 44.6455L119.295 33.65ZM124.885 17.95L116.573 26.5701C116.677 26.6707 116.783 26.7694 116.891 26.8661L124.885 17.95ZM124.885 14.65L133.033 23.4251C133.037 23.4215 133.041 23.4179 133.045 23.4144L124.885 14.65ZM128.535 14.65L120.223 23.2701C120.327 23.3707 120.433 23.4694 120.541 23.5661L128.535 14.65ZM128.535 17.95L136.683 26.7251C136.687 26.7215 136.691 26.7179 136.695 26.7144L128.535 17.95ZM128.86 20.05H140.835C140.835 13.4364 135.474 8.0751 128.86 8.0751V20.05ZM128.86 34V45.9749C135.474 45.9749 140.835 40.6136 140.835 34H128.86ZM124.585 34H112.61C112.61 40.6136 117.972 45.9749 124.585 45.9749V34ZM124.585 20.05V8.0751C117.972 8.0751 112.61 13.4364 112.61 20.05H124.585ZM126.735 18.6V6.6251C128.447 6.6251 130.827 7.19434 132.879 9.03385L124.885 17.95L116.891 26.8661C119.91 29.5723 123.523 30.5749 126.735 30.5749V18.6ZM124.885 17.95L133.197 9.32994C134.024 10.1275 134.819 11.1924 135.384 12.5232C135.948 13.8533 136.16 15.1606 136.16 16.3H124.185H112.21C112.21 20.1917 113.759 23.8564 116.573 26.5701L124.885 17.95ZM124.185 16.3H136.16C136.16 17.3872 135.964 18.6975 135.384 20.0643C134.799 21.4436 133.954 22.5705 133.033 23.4251L124.885 14.65L116.737 5.87488C113.704 8.69094 112.21 12.4793 112.21 16.3H124.185ZM124.885 14.65L133.045 23.4144C132.122 24.2738 131.02 24.9535 129.815 25.3932C128.635 25.8238 127.563 25.9499 126.735 25.9499V13.975V2.0001C123.4 2.0001 119.729 3.08936 116.725 5.88564L124.885 14.65ZM126.735 13.975V25.9499C125.871 25.9499 124.754 25.8151 123.53 25.3562C122.28 24.8874 121.153 24.1671 120.223 23.2701L128.535 14.65L136.847 6.02994C133.85 3.14003 130.128 2.0001 126.735 2.0001V13.975ZM128.535 14.65L120.541 23.5661C119.616 22.7367 118.735 21.6147 118.116 20.2047C117.5 18.8024 117.285 17.4423 117.285 16.3H129.26H141.235C141.235 12.3353 139.623 8.50758 136.529 5.73386L128.535 14.65ZM129.26 16.3H117.285C117.285 15.1041 117.516 13.7472 118.116 12.3828C118.713 11.0227 119.543 9.96079 120.375 9.18565L128.535 17.95L136.695 26.7144C139.567 24.0402 141.235 20.3342 141.235 16.3H129.26ZM128.535 17.95L120.387 9.17487C121.335 8.29448 122.457 7.61179 123.668 7.17446C124.851 6.74709 125.919 6.6251 126.735 6.6251V18.6V30.5749C130 30.5749 133.667 29.5265 136.683 26.7251L128.535 17.95ZM128.86 20.05H116.885V34H128.86H140.835V20.05H128.86ZM128.86 34V22.0251H124.585V34V45.9749H128.86V34ZM124.585 34H136.56V20.05H124.585H112.61V34H124.585ZM124.585 20.05V32.0249H128.86V20.05V8.0751H124.585V20.05ZM148.181 30.9L159.523 27.0584C157.876 22.1966 153.314 18.9251 148.181 18.9251V30.9ZM141.631 30.9V18.9251C136.498 18.9251 131.936 22.1966 130.289 27.0584L141.631 30.9ZM140.581 34V45.9749C145.714 45.9749 150.276 42.7034 151.923 37.8416L140.581 34ZM136.106 34L124.846 29.9257C123.518 33.5958 124.062 37.6828 126.303 40.8778C128.545 44.0728 132.203 45.9749 136.106 45.9749V34ZM142.456 16.45V4.4751C137.413 4.4751 132.911 7.63398 131.196 12.3757L142.456 16.45ZM147.406 16.45L158.667 12.3757C156.951 7.63398 152.449 4.4751 147.406 4.4751V16.45ZM153.756 34V45.9749C157.659 45.9749 161.317 44.0728 163.559 40.8778C165.8 37.6828 166.344 33.5958 165.017 29.9257L153.756 34ZM149.231 34L137.889 37.8416C139.536 42.7034 144.098 45.9749 149.231 45.9749V34ZM147.081 27.6V39.5749C150.94 39.5749 154.563 37.7151 156.812 34.5792C159.061 31.4433 159.661 27.4156 158.424 23.7603L147.081 27.6ZM144.906 21.175L156.249 17.3353C154.6 12.4652 150.027 9.19114 144.885 9.20012C139.744 9.20911 135.182 12.4992 133.55 17.375L144.906 21.175ZM142.756 27.6L131.4 23.7999C130.178 27.4526 130.787 31.4702 133.037 34.5962C135.288 37.7222 138.904 39.5749 142.756 39.5749V27.6ZM148.181 30.9V18.9251H141.631V30.9V42.8749H148.181V30.9ZM141.631 30.9L130.289 27.0584L129.239 30.1584L140.581 34L151.923 37.8416L152.973 34.7416L141.631 30.9ZM140.581 34V22.0251H136.106V34V45.9749H140.581V34ZM136.106 34L147.367 38.0743L153.717 20.5243L142.456 16.45L131.196 12.3757L124.846 29.9257L136.106 34ZM142.456 16.45V28.4249H147.406V16.45V4.4751H142.456V16.45ZM147.406 16.45L136.146 20.5243L142.496 38.0743L153.756 34L165.017 29.9257L158.667 12.3757L147.406 16.45ZM153.756 34V22.0251H149.231V34V45.9749H153.756V34ZM149.231 34L160.573 30.1584L159.523 27.0584L148.181 30.9L136.839 34.7416L137.889 37.8416L149.231 34ZM147.081 27.6L158.424 23.7603L156.249 17.3353L144.906 21.175L133.563 25.0147L135.738 31.4397L147.081 27.6ZM144.906 21.175L133.55 17.375L131.4 23.7999L142.756 27.6L154.112 31.4L156.262 24.975L144.906 21.175ZM142.756 27.6V39.5749H147.081V27.6V15.6251H142.756V27.6ZM164.214 34L154.526 41.0384C156.779 44.1397 160.38 45.9749 164.214 45.9749V34ZM159.964 28.15L169.652 21.1116C166.603 16.9144 161.197 15.1581 156.263 16.7611C151.329 18.3642 147.989 22.9621 147.989 28.15H159.964ZM159.964 34V45.9749C166.577 45.9749 171.939 40.6136 171.939 34H159.964ZM155.689 34H143.714C143.714 40.6136 149.075 45.9749 155.689 45.9749V34ZM155.689 15.5V3.5251C149.075 3.5251 143.714 8.88645 143.714 15.5H155.689ZM159.964 15.5H171.939C171.939 8.88645 166.577 3.5251 159.964 3.5251V15.5ZM159.964 25.725H147.989C147.989 30.8871 151.297 35.4683 156.197 37.0921C161.097 38.7158 166.486 37.0167 169.569 32.876L159.964 25.725ZM164.189 20.05V8.0751C160.405 8.0751 156.843 9.86369 154.583 12.899L164.189 20.05ZM169.464 20.05L178.685 27.6902C181.645 24.117 182.275 19.155 180.301 14.9555C178.327 10.756 174.104 8.0751 169.464 8.0751V20.05ZM163.664 27.05L154.443 19.4098C150.748 23.8684 150.774 30.3316 154.502 34.7614L163.664 27.05ZM169.514 34V45.9749C174.171 45.9749 178.406 43.2748 180.371 39.0525C182.335 34.8301 181.674 29.8515 178.675 26.2886L169.514 34ZM164.214 34L173.902 26.9616L169.652 21.1116L159.964 28.15L150.276 35.1884L154.526 41.0384L164.214 34ZM159.964 28.15H147.989V34H159.964H171.939V28.15H159.964ZM159.964 34V22.0251H155.689V34V45.9749H159.964V34ZM155.689 34H167.664V15.5H155.689H143.714V34H155.689ZM155.689 15.5V27.4749H159.964V15.5V3.5251H155.689V15.5ZM159.964 15.5H147.989V25.725H159.964H171.939V15.5H159.964ZM159.964 25.725L169.569 32.876L173.794 27.201L164.189 20.05L154.583 12.899L150.358 18.574L159.964 25.725ZM164.189 20.05V32.0249H169.464V20.05V8.0751H164.189V20.05ZM169.464 20.05L160.243 12.4098L154.443 19.4098L163.664 27.05L172.885 34.6902L178.685 27.6902L169.464 20.05ZM163.664 27.05L154.502 34.7614L160.352 41.7114L169.514 34L178.675 26.2886L172.825 19.3386L163.664 27.05ZM169.514 34V22.0251H164.214V34V45.9749H169.514V34ZM171.093 23.225L160.415 17.8041C160.393 17.8479 160.371 17.8918 160.349 17.9359L171.093 23.225ZM173.318 20.725L179.664 30.8797V30.8797L173.318 20.725ZM179.018 20.45L173.284 30.9627C173.316 30.9807 173.349 30.9984 173.383 31.0161L179.018 20.45ZM180.743 22.025L170.544 28.301C173.352 32.8638 178.849 35.0063 184.004 33.5472C189.159 32.0882 192.718 27.3825 192.718 22.025H180.743ZM180.743 20.05V8.0751C174.129 8.0751 168.768 13.4364 168.768 20.05H180.743ZM185.018 20.05H196.993C196.993 13.4364 191.631 8.0751 185.018 8.0751V20.05ZM185.018 34V45.9749C191.631 45.9749 196.993 40.6136 196.993 34H185.018ZM180.743 34H168.768C168.768 40.6136 174.129 45.9749 180.743 45.9749V34ZM180.743 32.025H192.718C192.718 26.7083 189.212 22.0282 184.11 20.5332C179.008 19.0383 173.531 21.0865 170.661 25.5626L180.743 32.025ZM178.993 33.6L173.358 23.0339C173.324 23.0516 173.291 23.0693 173.259 23.0873L178.993 33.6ZM173.318 33.325L166.842 43.398C166.885 43.4255 166.928 43.4527 166.971 43.4797L173.318 33.325ZM171.093 30.8L160.318 36.0243C160.35 36.0902 160.382 36.1557 160.415 36.2209L171.093 30.8ZM179.843 24.5L171.143 32.7291C171.182 32.77 171.221 32.8105 171.26 32.8507L179.843 24.5ZM175.518 24.5L166.935 16.1492L166.932 16.1526L175.518 24.5ZM175.518 29.55L166.71 37.6627C166.784 37.7431 166.859 37.8224 166.935 37.9008L175.518 29.55ZM179.843 29.55L171.26 21.1992C171.221 21.2395 171.182 21.28 171.143 21.3209L179.843 29.55ZM170.293 27H182.268C182.268 27.0605 182.251 27.6717 181.836 28.5141L171.093 23.225L160.349 17.9359C158.868 20.9449 158.318 24.0729 158.318 27H170.293ZM171.093 23.225L181.77 28.6459C181.44 29.2973 180.767 30.1908 179.664 30.8797L173.318 20.725L166.971 10.5703C164.002 12.4258 161.846 14.9861 160.415 17.8041L171.093 23.225ZM173.318 20.725L179.664 30.8797C178.607 31.5406 177.431 31.8249 176.443 31.8249V19.85V7.8751C173.154 7.8751 169.895 8.74271 166.971 10.5703L173.318 20.725ZM176.443 19.85V31.8249C175.778 31.8249 174.597 31.6792 173.284 30.9627L179.018 20.45L184.752 9.93729C181.972 8.42081 179.074 7.8751 176.443 7.8751V19.85ZM179.018 20.45L173.383 31.0161C172.476 30.5327 171.381 29.6603 170.544 28.301L180.743 22.025L190.941 15.749C189.305 13.0897 187.059 11.1673 184.653 9.88392L179.018 20.45ZM180.743 22.025H192.718V20.05H180.743H168.768V22.025H180.743ZM180.743 20.05V32.0249H185.018V20.05V8.0751H180.743V20.05ZM185.018 20.05H173.043V34H185.018H196.993V20.05H185.018ZM185.018 34V22.0251H180.743V34V45.9749H185.018V34ZM180.743 34H192.718V32.025H180.743H168.768V34H180.743ZM180.743 32.025L170.661 25.5626C171.46 24.3166 172.486 23.4989 173.358 23.0339L178.993 33.6L184.628 44.1661C187 42.9011 189.192 41.0334 190.824 38.4874L180.743 32.025ZM178.993 33.6L173.259 23.0873C174.572 22.3708 175.753 22.2251 176.418 22.2251V34.2V46.1749C179.049 46.1749 181.947 45.6292 184.727 44.1127L178.993 33.6ZM176.418 34.2V22.2251C177.459 22.2251 178.636 22.5275 179.664 23.1703L173.318 33.325L166.971 43.4797C169.866 45.2892 173.11 46.1749 176.418 46.1749V34.2ZM173.318 33.325L179.793 23.252C180.816 23.9095 181.452 24.7516 181.77 25.3791L171.093 30.8L160.415 36.2209C161.834 39.0151 163.953 41.5405 166.842 43.398L173.318 33.325ZM171.093 30.8L181.868 25.5757C182.249 26.3621 182.268 26.9341 182.268 27H170.293H158.318C158.318 29.9326 158.87 33.0379 160.318 36.0243L171.093 30.8ZM180.743 27.025H192.718C192.718 23.6279 191.695 19.5093 188.425 16.1492L179.843 24.5L171.26 32.8507C169.191 30.724 168.768 28.2888 168.768 27.025H180.743ZM179.843 24.5L188.542 16.2709C185.694 13.2595 181.829 11.6001 177.693 11.6001V23.575V35.5499C176.637 35.5499 175.401 35.3509 174.135 34.8063C172.869 34.2615 171.872 33.4996 171.143 32.7291L179.843 24.5ZM177.693 23.575V11.6001C173.566 11.6001 169.758 13.2475 166.935 16.1492L175.518 24.5L184.1 32.8507C183.395 33.5763 182.428 34.3027 181.198 34.826C179.965 35.3505 178.75 35.5499 177.693 35.5499V23.575ZM175.518 24.5L166.932 16.1526C163.623 19.5563 162.668 23.7104 162.668 27H174.643H186.618C186.618 28.1562 186.246 30.6437 184.104 32.8474L175.518 24.5ZM174.643 27H162.668C162.668 30.3214 163.633 34.3219 166.71 37.6627L175.518 29.55L184.326 21.4373C186.236 23.5114 186.618 25.8119 186.618 27H174.643ZM175.518 29.55L166.935 37.9008C169.758 40.8025 173.566 42.4499 177.693 42.4499V30.475V18.5001C178.75 18.5001 179.965 18.6995 181.198 19.224C182.428 19.7472 183.395 20.4737 184.1 21.1992L175.518 29.55ZM177.693 30.475V42.4499C181.829 42.4499 185.694 40.7905 188.542 37.7791L179.843 29.55L171.143 21.3209C171.872 20.5504 172.869 19.7885 174.135 19.2437C175.401 18.6991 176.637 18.5001 177.693 18.5001V30.475ZM179.843 29.55L188.425 37.9008C191.695 34.5407 192.718 30.4221 192.718 27.025H180.743H168.768C168.768 25.7612 169.191 23.326 171.26 21.1992L179.843 29.55ZM188.061 23.225L177.383 17.8041C177.361 17.8479 177.339 17.8918 177.317 17.9359L188.061 23.225ZM190.286 20.725L196.632 30.8797V30.8797L190.286 20.725ZM195.911 20.425L190.461 31.0879C190.492 31.1039 190.524 31.1199 190.555 31.1357L195.911 20.425ZM197.711 21.975L187.747 28.6175C190.674 33.0082 196.13 34.9653 201.181 33.4361C206.231 31.9069 209.685 27.2519 209.685 21.975H197.711ZM197.711 15.5V3.5251C191.097 3.5251 185.736 8.88645 185.736 15.5H197.711ZM201.986 15.5H213.96C213.96 8.88645 208.599 3.5251 201.986 3.5251V15.5ZM201.986 34V45.9749C208.599 45.9749 213.96 40.6136 213.96 34H201.986ZM197.711 34H185.736C185.736 40.6136 191.097 45.9749 197.711 45.9749V34ZM197.711 32H209.685C209.685 26.6175 206.094 21.8964 200.907 20.4596C195.72 19.0228 190.211 21.2235 187.442 25.839L197.711 32ZM195.986 33.6L190.35 23.0339C190.317 23.0516 190.284 23.0693 190.251 23.0873L195.986 33.6ZM190.286 33.325L183.81 43.398C183.853 43.4255 183.896 43.4527 183.939 43.4797L190.286 33.325ZM188.061 30.8L177.285 36.0243C177.317 36.0902 177.35 36.1557 177.383 36.2209L188.061 30.8ZM196.811 24.5L188.111 32.7291C188.15 32.77 188.189 32.8105 188.228 32.8507L196.811 24.5ZM192.486 24.5L183.903 16.1492L183.9 16.1526L192.486 24.5ZM192.486 29.55L183.677 37.6627C183.751 37.7431 183.827 37.8224 183.903 37.9008L192.486 29.55ZM196.811 29.55L188.228 21.1992C188.189 21.2395 188.15 21.28 188.111 21.3209L196.811 29.55ZM187.261 27H199.235C199.235 27.0605 199.219 27.6717 198.804 28.5141L188.061 23.225L177.317 17.9359C175.836 20.9449 175.286 24.0729 175.286 27H187.261ZM188.061 23.225L198.738 28.6459C198.408 29.2973 197.734 30.1908 196.632 30.8797L190.286 20.725L183.939 10.5703C180.97 12.4258 178.814 14.9861 177.383 17.8041L188.061 23.225ZM190.286 20.725L196.632 30.8797C195.575 31.5406 194.399 31.8249 193.411 31.8249V19.85V7.8751C190.122 7.8751 186.863 8.74271 183.939 10.5703L190.286 20.725ZM193.411 19.85V31.8249C192.603 31.8249 191.544 31.6414 190.461 31.0879L195.911 20.425L201.36 9.76214C198.777 8.44196 196.051 7.8751 193.411 7.8751V19.85ZM195.911 20.425L190.555 31.1357C189.644 30.6801 188.58 29.8667 187.747 28.6175L197.711 21.975L207.674 15.3325C205.975 12.7833 203.71 10.9366 201.266 9.71433L195.911 20.425ZM197.711 21.975H209.685V15.5H197.711H185.736V21.975H197.711ZM197.711 15.5V27.4749H201.986V15.5V3.5251H197.711V15.5ZM201.986 15.5H190.011V34H201.986H213.96V15.5H201.986ZM201.986 34V22.0251H197.711V34V45.9749H201.986V34ZM197.711 34H209.685V32H197.711H185.736V34H197.711ZM197.711 32L187.442 25.839C188.262 24.4731 189.37 23.5569 190.35 23.0339L195.986 33.6L201.621 44.1661C204.101 42.8431 206.359 40.8603 207.979 38.161L197.711 32ZM195.986 33.6L190.251 23.0873C191.565 22.3708 192.746 22.2251 193.411 22.2251V34.2V46.1749C196.042 46.1749 198.94 45.6292 201.72 44.1127L195.986 33.6ZM193.411 34.2V22.2251C194.399 22.2251 195.575 22.5094 196.632 23.1703L190.286 33.325L183.939 43.4797C186.863 45.3073 190.122 46.1749 193.411 46.1749V34.2ZM190.286 33.325L196.761 23.252C197.784 23.9095 198.42 24.7516 198.738 25.3791L188.061 30.8L177.383 36.2209C178.801 39.0151 180.921 41.5405 183.81 43.398L190.286 33.325ZM188.061 30.8L198.836 25.5757C199.217 26.3621 199.235 26.9341 199.235 27H187.261H175.286C175.286 29.9326 175.837 33.0379 177.285 36.0243L188.061 30.8ZM197.711 27.025H209.685C209.685 23.6279 208.663 19.5093 205.393 16.1492L196.811 24.5L188.228 32.8507C186.159 30.724 185.736 28.2888 185.736 27.025H197.711ZM196.811 24.5L205.51 16.2709C202.661 13.2595 198.797 11.6001 194.661 11.6001V23.575V35.5499C193.605 35.5499 192.369 35.3509 191.103 34.8063C189.837 34.2615 188.84 33.4996 188.111 32.7291L196.811 24.5ZM194.661 23.575V11.6001C190.533 11.6001 186.726 13.2475 183.903 16.1492L192.486 24.5L201.068 32.8507C200.362 33.5763 199.396 34.3027 198.166 34.826C196.933 35.3505 195.718 35.5499 194.661 35.5499V23.575ZM192.486 24.5L183.9 16.1526C180.59 19.5563 179.636 23.7104 179.636 27H191.611H203.585C203.585 28.1562 203.214 30.6437 201.071 32.8474L192.486 24.5ZM191.611 27H179.636C179.636 30.3214 180.6 34.3219 183.677 37.6627L192.486 29.55L201.294 21.4373C203.204 23.5114 203.585 25.8119 203.585 27H191.611ZM192.486 29.55L183.903 37.9008C186.726 40.8025 190.533 42.4499 194.661 42.4499V30.475V18.5001C195.718 18.5001 196.933 18.6995 198.166 19.224C199.396 19.7472 200.362 20.4737 201.068 21.1992L192.486 29.55ZM194.661 30.475V42.4499C198.797 42.4499 202.661 40.7905 205.51 37.7791L196.811 29.55L188.111 21.3209C188.84 20.5504 189.837 19.7885 191.103 19.2437C192.369 18.6991 193.605 18.5001 194.661 18.5001V30.475ZM196.811 29.55L205.393 37.9008C208.663 34.5407 209.685 30.4221 209.685 27.025H197.711H185.736C185.736 25.7612 186.159 23.326 188.228 21.1992L196.811 29.55ZM218.153 28.05V40.0249C224.236 40.0249 229.352 35.465 230.049 29.4226L218.153 28.05ZM208.478 28.05V16.0751C205.143 16.0751 201.958 17.4663 199.692 19.9137C197.426 22.361 196.283 25.6427 196.539 28.9684L208.478 28.05ZM209.303 30.05L200.986 38.6648C201.086 38.7619 201.189 38.8573 201.293 38.9509L209.303 30.05ZM213.353 29.375V17.4001C208.688 17.4001 204.447 20.1101 202.486 24.3441L213.353 29.375ZM217.903 29.375L229.508 32.329C230.42 28.7467 229.626 24.9441 227.358 22.0257C225.089 19.1072 221.6 17.4001 217.903 17.4001V29.375ZM216.628 31.85L207.463 24.143C207.429 24.1841 207.394 24.2255 207.36 24.267L216.628 31.85ZM214.353 33.575L219.309 44.4765L214.353 33.575ZM207.628 33.325L201.883 43.8314L207.628 33.325ZM205.128 30.825L215.604 25.0232L205.128 30.825ZM205.103 23.225L194.628 17.4232C194.605 17.4645 194.582 17.5061 194.56 17.5477L205.103 23.225ZM207.603 20.725L213.349 31.2314V31.2314L207.603 20.725ZM214.878 20.7L209.191 31.2382L209.191 31.2382L214.878 20.7ZM217.328 23.125L206.86 28.9405C206.884 28.9826 206.907 29.0245 206.931 29.0662L217.328 23.125ZM213.853 25.675V37.6499C220.467 37.6499 225.828 32.2886 225.828 25.675H213.853ZM213.103 23.925L220.946 14.8757V14.8757L213.103 23.925ZM209.403 23.9L201.737 14.7006C201.686 14.7434 201.635 14.7865 201.584 14.8301L209.403 23.9ZM208.503 25.675L196.665 23.8735C196.14 27.3242 197.146 30.8323 199.421 33.4796C201.696 36.1269 205.013 37.6499 208.503 37.6499V25.675ZM218.228 26.8H206.253C206.253 26.7024 206.259 26.6593 206.257 26.6774L218.153 28.05L230.049 29.4226C230.147 28.574 230.203 27.6976 230.203 26.8H218.228ZM218.153 28.05V16.0751H208.478V28.05V40.0249H218.153V28.05ZM208.478 28.05L196.539 28.9684C196.762 31.8767 197.835 35.6226 200.986 38.6648L209.303 30.05L217.621 21.4352C219.805 23.544 220.328 25.9566 220.418 27.1316L208.478 28.05ZM209.303 30.05L201.293 38.9509C204.143 41.5166 207.664 42.6999 211.128 42.6999V30.725V18.7501C212.039 18.7501 213.131 18.8967 214.289 19.3249C215.459 19.7577 216.48 20.3986 217.314 21.1491L209.303 30.05ZM211.128 30.725V42.6999C213.35 42.6999 216.066 42.2214 218.696 40.6253C221.383 38.9953 223.16 36.6967 224.22 34.4059L213.353 29.375L202.486 24.3441C203.13 22.9533 204.328 21.3297 206.273 20.1497C208.162 19.0036 209.973 18.7501 211.128 18.7501V30.725ZM213.353 29.375V41.3499H217.903V29.375V17.4001H213.353V29.375ZM217.903 29.375L206.298 26.421C206.516 25.5665 206.935 24.7715 207.463 24.143L216.628 31.85L225.793 39.557C227.555 37.4618 228.824 35.0168 229.508 32.329L217.903 29.375ZM216.628 31.85L207.36 24.267C207.997 23.4892 208.749 22.9685 209.398 22.6735L214.353 33.575L219.309 44.4765C221.791 43.3482 224.06 41.6774 225.896 39.433L216.628 31.85ZM214.353 33.575L209.398 22.6735C210.222 22.2988 210.917 22.2251 211.278 22.2251V34.2V46.1749C213.906 46.1749 216.651 45.6845 219.309 44.4765L214.353 33.575ZM211.278 34.2V22.2251C211.666 22.2251 212.469 22.3238 213.374 22.8186L207.628 33.325L201.883 43.8314C204.921 45.4929 208.157 46.1749 211.278 46.1749V34.2ZM207.628 33.325L213.374 22.8186C213.809 23.0562 214.257 23.3807 214.671 23.795C215.084 24.208 215.39 24.6367 215.604 25.0232L205.128 30.825L194.653 36.6268C196.33 39.6557 198.787 42.1383 201.883 43.8314L207.628 33.325ZM205.128 30.825L215.604 25.0232C216.143 25.9973 216.203 26.7938 216.203 27.025H204.228H192.253C192.253 30.1562 192.913 33.486 194.653 36.6268L205.128 30.825ZM204.228 27.025H216.203C216.203 27.2027 216.158 27.9537 215.647 28.9023L205.103 23.225L194.56 17.5477C192.882 20.663 192.253 23.9473 192.253 27.025H204.228ZM205.103 23.225L215.579 29.0268C215.365 29.4133 215.059 29.842 214.646 30.255C214.232 30.6693 213.784 30.9938 213.349 31.2314L207.603 20.725L201.858 10.2186C198.762 11.9117 196.305 14.3943 194.628 17.4232L205.103 23.225ZM207.603 20.725L213.349 31.2314C212.423 31.7377 211.623 31.8249 211.278 31.8249V19.85V7.8751C208.167 7.8751 204.917 8.54566 201.858 10.2186L207.603 20.725ZM211.278 19.85V31.8249C210.907 31.8249 210.107 31.7326 209.191 31.2382L214.878 20.7L220.566 10.1618C217.549 8.53407 214.349 7.8751 211.278 7.8751V19.85ZM214.878 20.7L209.191 31.2382C208.751 31.0005 208.288 30.671 207.854 30.2421C207.421 29.8136 207.094 29.3611 206.86 28.9405L217.328 23.125L227.796 17.3095C226.111 14.2755 223.642 11.8219 220.566 10.1618L214.878 20.7ZM217.328 23.125L206.931 29.0662C206.344 28.0387 206.253 27.1517 206.253 26.8H218.228H230.203C230.203 23.6483 229.513 20.3113 227.725 17.1838L217.328 23.125ZM213.853 25.675H225.828C225.828 21.8911 224.374 17.8463 220.946 14.8757L213.103 23.925L205.261 32.9743C204.202 32.0567 203.278 30.849 202.659 29.4046C202.054 27.9919 201.878 26.68 201.878 25.675H213.853ZM213.103 23.925L220.946 14.8757C217.978 12.3031 214.449 11.3001 211.228 11.3001V23.275V35.2499C209.507 35.2499 207.229 34.6802 205.261 32.9743L213.103 23.925ZM211.228 23.275V11.3001C208.013 11.3001 204.611 12.3057 201.737 14.7006L209.403 23.9L217.069 33.0994C215.196 34.6609 213.01 35.2499 211.228 35.2499V23.275ZM209.403 23.9L201.584 14.8301C198.497 17.4921 197.115 20.9156 196.665 23.8735L208.503 25.675L220.342 27.4765C220.125 28.9011 219.343 31.1413 217.222 32.9699L209.403 23.9ZM208.503 25.675V37.6499H213.853V25.675V13.7001H208.503V25.675ZM242.409 21.475L233.806 29.8049C233.828 29.8282 233.851 29.8514 233.874 29.8745L242.409 21.475ZM243.959 34V45.9749C250.572 45.9749 255.933 40.6136 255.933 34H243.959ZM239.709 34H227.734C227.734 40.6136 233.095 45.9749 239.709 45.9749V34ZM238.984 24.35L230.229 32.5207C230.323 32.6213 230.419 32.7202 230.516 32.8175L238.984 24.35ZM235.059 24.35L226.449 16.0272L226.444 16.0323L235.059 24.35ZM234.359 34V45.9749C240.972 45.9749 246.333 40.6136 246.333 34H234.359ZM230.109 34H218.134C218.134 40.6136 223.495 45.9749 230.109 45.9749V34ZM229.384 24.35L220.629 32.5207C220.723 32.6213 220.819 32.7202 220.916 32.8175L229.384 24.35ZM225.459 24.35L216.849 16.0272L216.844 16.0323L225.459 24.35ZM224.759 34V45.9749C231.372 45.9749 236.733 40.6136 236.733 34H224.759ZM220.484 34H208.509C208.509 40.6136 213.87 45.9749 220.484 45.9749V34ZM220.484 20.05V8.0751C213.87 8.0751 208.509 13.4364 208.509 20.05H220.484ZM224.759 20.05H236.733C236.733 13.4364 231.372 8.0751 224.759 8.0751V20.05ZM224.759 21.8H212.784C212.784 26.9645 216.095 31.5471 220.998 33.169C225.901 34.7909 231.292 33.0867 234.371 28.9409L224.759 21.8ZM226.459 20.425L231.607 31.2367C231.676 31.2037 231.745 31.17 231.814 31.1357L226.459 20.425ZM231.634 20.575L225.854 31.0631C225.884 31.0794 225.914 31.0957 225.944 31.1118L231.634 20.575ZM233.584 22.5L223.135 28.351C225.199 32.0357 229.051 34.361 233.272 34.4708C237.494 34.5807 241.461 32.4586 243.713 28.8862L233.584 22.5ZM235.559 20.625L241.567 30.9837L235.559 20.625ZM238.284 19.9V31.8749C237.945 31.8749 237.239 31.8228 236.343 31.4809C235.407 31.1236 234.524 30.5466 233.806 29.8049L242.409 21.475L251.012 13.1451C247.323 9.3357 242.609 7.9251 238.284 7.9251V19.9ZM242.409 21.475L233.874 29.8745C233.1 29.0889 232.58 28.1917 232.284 27.3552C232.004 26.566 231.984 26.0062 231.984 25.85H243.959H255.933C255.933 21.721 254.73 16.9232 250.944 13.0755L242.409 21.475ZM243.959 25.85H231.984V34H243.959H255.933V25.85H243.959ZM243.959 34V22.0251H239.709V34V45.9749H243.959V34ZM239.709 34H251.683V26.425H239.709H227.734V34H239.709ZM239.709 26.425H251.683C251.683 23.3928 250.824 19.2552 247.451 15.8825L238.984 24.35L230.516 32.8175C228.11 30.4115 227.734 27.6572 227.734 26.425H239.709ZM238.984 24.35L247.738 16.1793C244.524 12.7355 240.405 11.6251 237.034 11.6251V23.6V35.5749C236.262 35.5749 235.135 35.4594 233.847 34.9642C232.511 34.4501 231.257 33.6222 230.229 32.5207L238.984 24.35ZM237.034 23.6V11.6251C233.647 11.6251 229.629 12.7378 226.449 16.0272L235.059 24.35L243.668 32.6728C242.67 33.7055 241.462 34.4903 240.166 34.9824C238.913 35.4582 237.809 35.5749 237.034 35.5749V23.6ZM235.059 24.35L226.444 16.0323C223.172 19.4206 222.384 23.5028 222.384 26.425H234.359H246.333C246.333 27.5472 246.012 30.246 243.673 32.6677L235.059 24.35ZM234.359 26.425H222.384V34H234.359H246.333V26.425H234.359ZM234.359 34V22.0251H230.109V34V45.9749H234.359V34ZM230.109 34H242.083V26.425H230.109H218.134V34H230.109ZM230.109 26.425H242.083C242.083 23.3927 241.224 19.2552 237.851 15.8825L229.384 24.35L220.916 32.8175C218.51 30.4115 218.134 27.6572 218.134 26.425H230.109ZM229.384 24.35L238.138 16.1793C234.924 12.7355 230.805 11.6251 227.434 11.6251V23.6V35.5749C226.662 35.5749 225.535 35.4594 224.247 34.9642C222.911 34.4501 221.657 33.6222 220.629 32.5207L229.384 24.35ZM227.434 23.6V11.6251C224.047 11.6251 220.029 12.7378 216.849 16.0272L225.459 24.35L234.068 32.6728C233.07 33.7055 231.862 34.4903 230.566 34.9824C229.313 35.4581 228.209 35.5749 227.434 35.5749V23.6ZM225.459 24.35L216.844 16.0323C213.572 19.4206 212.784 23.5028 212.784 26.425H224.759H236.733C236.733 27.5472 236.412 30.246 234.073 32.6677L225.459 24.35ZM224.759 26.425H212.784V34H224.759H236.733V26.425H224.759ZM224.759 34V22.0251H220.484V34V45.9749H224.759V34ZM220.484 34H232.458V20.05H220.484H208.509V34H220.484ZM220.484 20.05V32.0249H224.759V20.05V8.0751H220.484V20.05ZM224.759 20.05H212.784V21.8H224.759H236.733V20.05H224.759ZM224.759 21.8L234.371 28.9409C233.561 30.032 232.551 30.7872 231.607 31.2367L226.459 20.425L221.31 9.61334C218.966 10.7295 216.823 12.4014 215.146 14.6591L224.759 21.8ZM226.459 20.425L231.814 31.1357C230.648 31.7186 229.568 31.8749 228.834 31.8749V19.9V7.9251C226.332 7.9251 223.669 8.43141 221.103 9.71432L226.459 20.425ZM228.834 19.9V31.8749C228.122 31.8749 227.022 31.7062 225.854 31.0631L231.634 20.575L237.413 10.0869C234.612 8.54382 231.646 7.9251 228.834 7.9251V19.9ZM231.634 20.575L225.944 31.1118C224.761 30.473 223.768 29.4814 223.135 28.351L233.584 22.5L244.032 16.649C242.465 13.852 240.173 11.577 237.323 10.0382L231.634 20.575ZM233.584 22.5L243.713 28.8862C243.099 29.8603 242.3 30.5585 241.567 30.9837L235.559 20.625L229.551 10.2663C227.151 11.6582 225.035 13.6063 223.454 16.1138L233.584 22.5ZM235.559 20.625L241.567 30.9837C240.535 31.5818 239.364 31.8749 238.284 31.8749V19.9V7.9251C235.236 7.9251 232.248 8.70155 229.551 10.2663L235.559 20.625ZM247.248 17.95L238.936 26.5701C239.041 26.6707 239.147 26.7694 239.255 26.8661L247.248 17.95ZM247.248 14.65L255.397 23.4251C255.401 23.4215 255.404 23.4179 255.408 23.4144L247.248 14.65ZM250.898 14.65L242.586 23.2701C242.691 23.3707 242.797 23.4694 242.905 23.5661L250.898 14.65ZM250.898 17.95L259.047 26.7251C259.051 26.7215 259.054 26.7179 259.058 26.7144L250.898 17.95ZM251.223 20.05H263.198C263.198 13.4364 257.837 8.0751 251.223 8.0751V20.05ZM251.223 34V45.9749C257.837 45.9749 263.198 40.6136 263.198 34H251.223ZM246.948 34H234.974C234.974 40.6136 240.335 45.9749 246.948 45.9749V34ZM246.948 20.05V8.0751C240.335 8.0751 234.974 13.4364 234.974 20.05H246.948ZM249.098 18.6V6.6251C250.811 6.6251 253.19 7.19434 255.242 9.03385L247.248 17.95L239.255 26.8661C242.273 29.5723 245.886 30.5749 249.098 30.5749V18.6ZM247.248 17.95L255.561 9.32994C256.388 10.1275 257.183 11.1924 257.747 12.5232C258.312 13.8533 258.523 15.1606 258.523 16.3H246.548H234.574C234.574 20.1917 236.122 23.8564 238.936 26.5701L247.248 17.95ZM246.548 16.3H258.523C258.523 17.3872 258.327 18.6975 257.747 20.0643C257.162 21.4436 256.317 22.5705 255.397 23.4251L247.248 14.65L239.1 5.87488C236.067 8.69094 234.574 12.4793 234.574 16.3H246.548ZM247.248 14.65L255.408 23.4144C254.485 24.2738 253.383 24.9535 252.178 25.3932C250.998 25.8238 249.927 25.9499 249.098 25.9499V13.975V2.0001C245.763 2.0001 242.092 3.08936 239.089 5.88564L247.248 14.65ZM249.098 13.975V25.9499C248.234 25.9499 247.118 25.8151 245.894 25.3562C244.644 24.8874 243.516 24.1671 242.586 23.2701L250.898 14.65L259.211 6.02994C256.214 3.14003 252.492 2.0001 249.098 2.0001V13.975ZM250.898 14.65L242.905 23.5661C241.98 22.7367 241.099 21.6147 240.479 20.2047C239.863 18.8024 239.649 17.4423 239.649 16.3H251.623H263.598C263.598 12.3353 261.986 8.50758 258.892 5.73386L250.898 14.65ZM251.623 16.3H239.649C239.649 15.1041 239.879 13.7472 240.479 12.3828C241.077 11.0227 241.906 9.96079 242.739 9.18565L250.898 17.95L259.058 26.7144C261.931 24.0402 263.598 20.3342 263.598 16.3H251.623ZM250.898 17.95L242.75 9.17487C243.698 8.29448 244.82 7.61179 246.031 7.17446C247.215 6.74709 248.283 6.6251 249.098 6.6251V18.6V30.5749C252.363 30.5749 256.03 29.5265 259.047 26.7251L250.898 17.95ZM251.223 20.05H239.249V34H251.223H263.198V20.05H251.223ZM251.223 34V22.0251H246.948V34V45.9749H251.223V34ZM246.948 34H258.923V20.05H246.948H234.974V34H246.948ZM246.948 20.05V32.0249H251.223V20.05V8.0751H246.948V20.05ZM262.846 34L253.158 41.0384C255.411 44.1397 259.013 45.9749 262.846 45.9749V34ZM258.596 28.15L268.285 21.1116C265.235 16.9144 259.83 15.1581 254.896 16.7611C249.962 18.3642 246.622 22.9621 246.622 28.15H258.596ZM258.596 34V45.9749C265.21 45.9749 270.571 40.6136 270.571 34H258.596ZM254.321 34H242.347C242.347 40.6136 247.708 45.9749 254.321 45.9749V34ZM254.321 15.5V3.5251C247.708 3.5251 242.347 8.88645 242.347 15.5H254.321ZM258.596 15.5H270.571C270.571 8.88645 265.21 3.5251 258.596 3.5251V15.5ZM258.596 25.725H246.622C246.622 30.8871 249.93 35.4683 254.83 37.0921C259.73 38.7158 265.119 37.0167 268.202 32.876L258.596 25.725ZM262.821 20.05V8.0751C259.037 8.0751 255.476 9.86369 253.216 12.899L262.821 20.05ZM268.096 20.05L277.317 27.6902C280.278 24.117 280.908 19.155 278.934 14.9555C276.96 10.756 272.737 8.0751 268.096 8.0751V20.05ZM262.296 27.05L253.076 19.4098C249.381 23.8684 249.406 30.3316 253.135 34.7614L262.296 27.05ZM268.146 34V45.9749C272.804 45.9749 277.038 43.2748 279.003 39.0525C280.968 34.8301 280.307 29.8515 277.308 26.2886L268.146 34ZM262.846 34L272.535 26.9616L268.285 21.1116L258.596 28.15L248.908 35.1884L253.158 41.0384L262.846 34ZM258.596 28.15H246.622V34H258.596H270.571V28.15H258.596ZM258.596 34V22.0251H254.321V34V45.9749H258.596V34ZM254.321 34H266.296V15.5H254.321H242.347V34H254.321ZM254.321 15.5V27.4749H258.596V15.5V3.5251H254.321V15.5ZM258.596 15.5H246.622V25.725H258.596H270.571V15.5H258.596ZM258.596 25.725L268.202 32.876L272.427 27.201L262.821 20.05L253.216 12.899L248.991 18.574L258.596 25.725ZM262.821 20.05V32.0249H268.096V20.05V8.0751H262.821V20.05ZM268.096 20.05L258.876 12.4098L253.076 19.4098L262.296 27.05L271.517 34.6902L277.317 27.6902L268.096 20.05ZM262.296 27.05L253.135 34.7614L258.985 41.7114L268.146 34L277.308 26.2886L271.458 19.3386L262.296 27.05ZM268.146 34V22.0251H262.846V34V45.9749H268.146V34Z" fill="url(#paint0_linear_0_212)" mask="url(#path-1-outside-1_0_212)"/>
</g>
<path d="M21.85 34.175C20.2 34.175 18.6833 33.7917 17.3 33.025C15.9333 32.2583 14.8417 31.1917 14.025 29.825C13.225 28.4417 12.825 26.8917 12.825 25.175C12.825 23.4583 13.225 21.9167 14.025 20.55C14.8417 19.1833 15.9333 18.1167 17.3 17.35C18.6833 16.5833 20.2 16.2 21.85 16.2C23.5 16.2 25.0083 16.5833 26.375 17.35C27.7583 18.1167 28.8417 19.1833 29.625 20.55C30.425 21.9167 30.825 23.4583 30.825 25.175C30.825 26.8917 30.425 28.4417 29.625 29.825C28.825 31.1917 27.7417 32.2583 26.375 33.025C25.0083 33.7917 23.5 34.175 21.85 34.175ZM21.85 30.275C23.25 30.275 24.3667 29.8083 25.2 28.875C26.05 27.9417 26.475 26.7083 26.475 25.175C26.475 23.625 26.05 22.3917 25.2 21.475C24.3667 20.5417 23.25 20.075 21.85 20.075C20.4333 20.075 19.3 20.5333 18.45 21.45C17.6167 22.3667 17.2 23.6083 17.2 25.175C17.2 26.725 17.6167 27.9667 18.45 28.9C19.3 29.8167 20.4333 30.275 21.85 30.275ZM37.4783 22.375C37.9783 21.6083 38.6033 21.0083 39.3533 20.575C40.1033 20.125 40.9367 19.9 41.8533 19.9V24.425H40.6783C39.6117 24.425 38.8117 24.6583 38.2783 25.125C37.745 25.575 37.4783 26.375 37.4783 27.525V34H33.2033V20.05H37.4783V22.375ZM46.0467 18.6C45.2967 18.6 44.68 18.3833 44.1967 17.95C43.73 17.5 43.4967 16.95 43.4967 16.3C43.4967 15.6333 43.73 15.0833 44.1967 14.65C44.68 14.2 45.2967 13.975 46.0467 13.975C46.78 13.975 47.38 14.2 47.8467 14.65C48.33 15.0833 48.5717 15.6333 48.5717 16.3C48.5717 16.95 48.33 17.5 47.8467 17.95C47.38 18.3833 46.78 18.6 46.0467 18.6ZM48.1717 20.05V34H43.8967V20.05H48.1717ZM64.4197 26.8C64.4197 27.2 64.3947 27.6167 64.3447 28.05H54.6697C54.7364 28.9167 55.0114 29.5833 55.4947 30.05C55.9947 30.5 56.6031 30.725 57.3197 30.725C58.3864 30.725 59.1281 30.275 59.5447 29.375H64.0947C63.8614 30.2917 63.4364 31.1167 62.8197 31.85C62.2197 32.5833 61.4614 33.1583 60.5447 33.575C59.6281 33.9917 58.6031 34.2 57.4697 34.2C56.1031 34.2 54.8864 33.9083 53.8197 33.325C52.7531 32.7417 51.9197 31.9083 51.3197 30.825C50.7197 29.7417 50.4197 28.475 50.4197 27.025C50.4197 25.575 50.7114 24.3083 51.2947 23.225C51.8947 22.1417 52.7281 21.3083 53.7947 20.725C54.8614 20.1417 56.0864 19.85 57.4697 19.85C58.8197 19.85 60.0197 20.1333 61.0697 20.7C62.1197 21.2667 62.9364 22.075 63.5197 23.125C64.1197 24.175 64.4197 25.4 64.4197 26.8ZM60.0447 25.675C60.0447 24.9417 59.7947 24.3583 59.2947 23.925C58.7947 23.4917 58.1697 23.275 57.4197 23.275C56.7031 23.275 56.0947 23.4833 55.5947 23.9C55.1114 24.3167 54.8114 24.9083 54.6947 25.675H60.0447ZM75.175 19.9C76.8083 19.9 78.1083 20.4333 79.075 21.5C80.0583 22.55 80.55 24 80.55 25.85V34H76.3V26.425C76.3 25.4917 76.0583 24.7667 75.575 24.25C75.0917 23.7333 74.4417 23.475 73.625 23.475C72.8083 23.475 72.1583 23.7333 71.675 24.25C71.1917 24.7667 70.95 25.4917 70.95 26.425V34H66.675V20.05H70.95V21.9C71.3833 21.2833 71.9667 20.8 72.7 20.45C73.4333 20.0833 74.2583 19.9 75.175 19.9ZM91.2957 30.375V34H89.1207C87.5707 34 86.3624 33.625 85.4957 32.875C84.629 32.1083 84.1957 30.8667 84.1957 29.15V23.6H82.4957V20.05H84.1957V16.65H88.4707V20.05H91.2707V23.6H88.4707V29.2C88.4707 29.6167 88.5707 29.9167 88.7707 30.1C88.9707 30.2833 89.304 30.375 89.7707 30.375H91.2957ZM92.827 27C92.827 25.5667 93.0936 24.3083 93.627 23.225C94.177 22.1417 94.9186 21.3083 95.852 20.725C96.7853 20.1417 97.827 19.85 98.977 19.85C99.9603 19.85 100.819 20.05 101.552 20.45C102.302 20.85 102.877 21.375 103.277 22.025V20.05H107.552V34H103.277V32.025C102.86 32.675 102.277 33.2 101.527 33.6C100.794 34 99.9353 34.2 98.952 34.2C97.8186 34.2 96.7853 33.9083 95.852 33.325C94.9186 32.725 94.177 31.8833 93.627 30.8C93.0936 29.7 92.827 28.4333 92.827 27ZM103.277 27.025C103.277 25.9583 102.977 25.1167 102.377 24.5C101.794 23.8833 101.077 23.575 100.227 23.575C99.377 23.575 98.652 23.8833 98.052 24.5C97.4686 25.1 97.177 25.9333 97.177 27C97.177 28.0667 97.4686 28.9167 98.052 29.55C98.652 30.1667 99.377 30.475 100.227 30.475C101.077 30.475 101.794 30.1667 102.377 29.55C102.977 28.9333 103.277 28.0917 103.277 27.025ZM116.32 34.2C115.103 34.2 114.02 33.9917 113.07 33.575C112.12 33.1583 111.37 32.5917 110.82 31.875C110.27 31.1417 109.961 30.325 109.895 29.425H114.12C114.17 29.9083 114.395 30.3 114.795 30.6C115.195 30.9 115.686 31.05 116.27 31.05C116.803 31.05 117.211 30.95 117.495 30.75C117.795 30.5333 117.945 30.2583 117.945 29.925C117.945 29.525 117.736 29.2333 117.32 29.05C116.903 28.85 116.228 28.6333 115.295 28.4C114.295 28.1667 113.461 27.925 112.795 27.675C112.128 27.4083 111.553 27 111.07 26.45C110.586 25.8833 110.345 25.125 110.345 24.175C110.345 23.375 110.561 22.65 110.995 22C111.445 21.3333 112.095 20.8083 112.945 20.425C113.811 20.0417 114.836 19.85 116.02 19.85C117.77 19.85 119.145 20.2833 120.145 21.15C121.161 22.0167 121.745 23.1667 121.895 24.6H117.945C117.878 24.1167 117.661 23.7333 117.295 23.45C116.945 23.1667 116.478 23.025 115.895 23.025C115.395 23.025 115.011 23.125 114.745 23.325C114.478 23.5083 114.345 23.7667 114.345 24.1C114.345 24.5 114.553 24.8 114.97 25C115.403 25.2 116.07 25.4 116.97 25.6C118.003 25.8667 118.845 26.1333 119.495 26.4C120.145 26.65 120.711 27.0667 121.195 27.65C121.695 28.2167 121.953 28.9833 121.97 29.95C121.97 30.7667 121.736 31.5 121.27 32.15C120.82 32.7833 120.161 33.2833 119.295 33.65C118.445 34.0167 117.453 34.2 116.32 34.2ZM126.735 18.6C125.985 18.6 125.368 18.3833 124.885 17.95C124.418 17.5 124.185 16.95 124.185 16.3C124.185 15.6333 124.418 15.0833 124.885 14.65C125.368 14.2 125.985 13.975 126.735 13.975C127.468 13.975 128.068 14.2 128.535 14.65C129.018 15.0833 129.26 15.6333 129.26 16.3C129.26 16.95 129.018 17.5 128.535 17.95C128.068 18.3833 127.468 18.6 126.735 18.6ZM128.86 20.05V34H124.585V20.05H128.86ZM148.181 30.9H141.631L140.581 34H136.106L142.456 16.45H147.406L153.756 34H149.231L148.181 30.9ZM147.081 27.6L144.906 21.175L142.756 27.6H147.081ZM164.214 34L159.964 28.15V34H155.689V15.5H159.964V25.725L164.189 20.05H169.464L163.664 27.05L169.514 34H164.214ZM170.293 27C170.293 25.5667 170.559 24.3083 171.093 23.225C171.643 22.1417 172.384 21.3083 173.318 20.725C174.251 20.1417 175.293 19.85 176.443 19.85C177.426 19.85 178.284 20.05 179.018 20.45C179.768 20.85 180.343 21.375 180.743 22.025V20.05H185.018V34H180.743V32.025C180.326 32.675 179.743 33.2 178.993 33.6C178.259 34 177.401 34.2 176.418 34.2C175.284 34.2 174.251 33.9083 173.318 33.325C172.384 32.725 171.643 31.8833 171.093 30.8C170.559 29.7 170.293 28.4333 170.293 27ZM180.743 27.025C180.743 25.9583 180.443 25.1167 179.843 24.5C179.259 23.8833 178.543 23.575 177.693 23.575C176.843 23.575 176.118 23.8833 175.518 24.5C174.934 25.1 174.643 25.9333 174.643 27C174.643 28.0667 174.934 28.9167 175.518 29.55C176.118 30.1667 176.843 30.475 177.693 30.475C178.543 30.475 179.259 30.1667 179.843 29.55C180.443 28.9333 180.743 28.0917 180.743 27.025ZM187.261 27C187.261 25.5667 187.527 24.3083 188.061 23.225C188.611 22.1417 189.352 21.3083 190.286 20.725C191.219 20.1417 192.261 19.85 193.411 19.85C194.327 19.85 195.161 20.0417 195.911 20.425C196.677 20.8083 197.277 21.325 197.711 21.975V15.5H201.986V34H197.711V32C197.311 32.6667 196.736 33.2 195.986 33.6C195.252 34 194.394 34.2 193.411 34.2C192.261 34.2 191.219 33.9083 190.286 33.325C189.352 32.725 188.611 31.8833 188.061 30.8C187.527 29.7 187.261 28.4333 187.261 27ZM197.711 27.025C197.711 25.9583 197.411 25.1167 196.811 24.5C196.227 23.8833 195.511 23.575 194.661 23.575C193.811 23.575 193.086 23.8833 192.486 24.5C191.902 25.1 191.611 25.9333 191.611 27C191.611 28.0667 191.902 28.9167 192.486 29.55C193.086 30.1667 193.811 30.475 194.661 30.475C195.511 30.475 196.227 30.1667 196.811 29.55C197.411 28.9333 197.711 28.0917 197.711 27.025ZM218.228 26.8C218.228 27.2 218.203 27.6167 218.153 28.05H208.478C208.545 28.9167 208.82 29.5833 209.303 30.05C209.803 30.5 210.412 30.725 211.128 30.725C212.195 30.725 212.937 30.275 213.353 29.375H217.903C217.67 30.2917 217.245 31.1167 216.628 31.85C216.028 32.5833 215.27 33.1583 214.353 33.575C213.437 33.9917 212.412 34.2 211.278 34.2C209.912 34.2 208.695 33.9083 207.628 33.325C206.562 32.7417 205.728 31.9083 205.128 30.825C204.528 29.7417 204.228 28.475 204.228 27.025C204.228 25.575 204.52 24.3083 205.103 23.225C205.703 22.1417 206.537 21.3083 207.603 20.725C208.67 20.1417 209.895 19.85 211.278 19.85C212.628 19.85 213.828 20.1333 214.878 20.7C215.928 21.2667 216.745 22.075 217.328 23.125C217.928 24.175 218.228 25.4 218.228 26.8ZM213.853 25.675C213.853 24.9417 213.603 24.3583 213.103 23.925C212.603 23.4917 211.978 23.275 211.228 23.275C210.512 23.275 209.903 23.4833 209.403 23.9C208.92 24.3167 208.62 24.9083 208.503 25.675H213.853ZM238.284 19.9C240.017 19.9 241.392 20.425 242.409 21.475C243.442 22.525 243.959 23.9833 243.959 25.85V34H239.709V26.425C239.709 25.525 239.467 24.8333 238.984 24.35C238.517 23.85 237.867 23.6 237.034 23.6C236.2 23.6 235.542 23.85 235.059 24.35C234.592 24.8333 234.359 25.525 234.359 26.425V34H230.109V26.425C230.109 25.525 229.867 24.8333 229.384 24.35C228.917 23.85 228.267 23.6 227.434 23.6C226.6 23.6 225.942 23.85 225.459 24.35C224.992 24.8333 224.759 25.525 224.759 26.425V34H220.484V20.05H224.759V21.8C225.192 21.2167 225.759 20.7583 226.459 20.425C227.159 20.075 227.95 19.9 228.834 19.9C229.884 19.9 230.817 20.125 231.634 20.575C232.467 21.025 233.117 21.6667 233.584 22.5C234.067 21.7333 234.725 21.1083 235.559 20.625C236.392 20.1417 237.3 19.9 238.284 19.9ZM249.098 18.6C248.348 18.6 247.732 18.3833 247.248 17.95C246.782 17.5 246.548 16.95 246.548 16.3C246.548 15.6333 246.782 15.0833 247.248 14.65C247.732 14.2 248.348 13.975 249.098 13.975C249.832 13.975 250.432 14.2 250.898 14.65C251.382 15.0833 251.623 15.6333 251.623 16.3C251.623 16.95 251.382 17.5 250.898 17.95C250.432 18.3833 249.832 18.6 249.098 18.6ZM251.223 20.05V34H246.948V20.05H251.223ZM262.846 34L258.596 28.15V34H254.321V15.5H258.596V25.725L262.821 20.05H268.096L262.296 27.05L268.146 34H262.846Z" fill="#E2DC00"/>
<defs>
<filter id="filter0_ii_0_212" x="-0.14781" y="0.00430596" width="280.269" height="48.1664" filterUnits="userSpaceOnUse" color-interpolation-filters="sRGB">
<feFlood flood-opacity="0" result="BackgroundImageFix"/>
<feBlend mode="normal" in="SourceGraphic" in2="BackgroundImageFix" result="shape"/>
<feColorMatrix in="SourceAlpha" type="matrix" values="0 0 0 0 0 0 0 0 0 0 0 0 0 0 0 0 0 0 127 0" result="hardAlpha"/>
<feOffset dx="-0.997908" dy="1.99582"/>
<feGaussianBlur stdDeviation="1.99582"/>
<feComposite in2="hardAlpha" operator="arithmetic" k2="-1" k3="1"/>
<feColorMatrix type="matrix" values="0 0 0 0 1 0 0 0 0 1 0 0 0 0 1 0 0 0 0.5 0"/>
<feBlend mode="normal" in2="shape" result="effect1_innerShadow_0_212"/>
<feColorMatrix in="SourceAlpha" type="matrix" values="0 0 0 0 0 0 0 0 0 0 0 0 0 0 0 0 0 0 127 0" result="hardAlpha"/>
<feOffset dy="-1.99582"/>
<feGaussianBlur stdDeviation="2.99372"/>
<feComposite in2="hardAlpha" operator="arithmetic" k2="-1" k3="1"/>
<feColorMatrix type="matrix" values="0 0 0 0 0 0 0 0 0 0 0 0 0 0 0 0 0 0 0.5 0"/>
<feBlend mode="normal" in2="effect1_innerShadow_0_212" result="effect2_innerShadow_0_212"/>
</filter>
<linearGradient id="paint0_linear_0_212" x1="160.343" y1="-138.686" x2="161.465" y2="189.684" gradientUnits="userSpaceOnUse">
<stop offset="0.451923" stop-color="#000E61"/>
<stop offset="1" stop-color="#013EF9"/>
</linearGradient>
</defs>
</svg>
