<svg width="463" height="61" viewBox="0 0 463 61" fill="none" xmlns="http://www.w3.org/2000/svg">
<g filter="url(#filter0_ii_2060_18)">
<mask id="path-1-outside-1_2060_18" maskUnits="userSpaceOnUse" x="0" y="0" width="416" height="61" fill="black">
<rect fill="white" width="416" height="61"/>
<path d="M30.7 48.35C27.4 48.35 24.3667 47.5833 21.6 46.05C18.8667 44.5167 16.6833 42.3833 15.05 39.65C13.45 36.8833 12.65 33.7833 12.65 30.35C12.65 26.9167 13.45 23.8333 15.05 21.1C16.6833 18.3667 18.8667 16.2333 21.6 14.7C24.3667 13.1667 27.4 12.4 30.7 12.4C34 12.4 37.0167 13.1667 39.75 14.7C42.5167 16.2333 44.6833 18.3667 46.25 21.1C47.85 23.8333 48.65 26.9167 48.65 30.35C48.65 33.7833 47.85 36.8833 46.25 39.65C44.65 42.3833 42.4833 44.5167 39.75 46.05C37.0167 47.5833 34 48.35 30.7 48.35ZM30.7 40.55C33.5 40.55 35.7333 39.6167 37.4 37.75C39.1 35.8833 39.95 33.4167 39.95 30.35C39.95 27.25 39.1 24.7833 37.4 22.95C35.7333 21.0833 33.5 20.15 30.7 20.15C27.8667 20.15 25.6 21.0667 23.9 22.9C22.2333 24.7333 21.4 27.2167 21.4 30.35C21.4 33.45 22.2333 35.9333 23.9 37.8C25.6 39.6333 27.8667 40.55 30.7 40.55ZM71.3066 48L64.0066 34.75H61.9566V48H53.4066V12.9H67.7566C70.5233 12.9 72.8733 13.3833 74.8066 14.35C76.7733 15.3167 78.24 16.65 79.2066 18.35C80.1733 20.0167 80.6566 21.8833 80.6566 23.95C80.6566 26.2833 79.99 28.3667 78.6566 30.2C77.3566 32.0333 75.4233 33.3333 72.8566 34.1L80.9566 48H71.3066ZM61.9566 28.7H67.2566C68.8233 28.7 69.99 28.3167 70.7566 27.55C71.5566 26.7833 71.9566 25.7 71.9566 24.3C71.9566 22.9667 71.5566 21.9167 70.7566 21.15C69.99 20.3833 68.8233 20 67.2566 20H61.9566V28.7ZM125.774 12.9V48H117.224V26.95L109.374 48H102.474L94.5738 26.9V48H86.0238V12.9H96.1238L105.974 37.2L115.724 12.9H125.774ZM140.472 12.9V48H131.922V12.9H140.472ZM167.018 48L155.218 32.5V48H146.668V12.9H155.218V28.3L166.918 12.9H176.968L163.368 30.1L177.468 48H167.018ZM200.677 19.75V26.85H212.127V33.45H200.677V41.15H213.627V48H192.127V12.9H213.627V19.75H200.677ZM240.678 48L233.528 37.25L227.228 48H217.528L228.778 30.15L217.278 12.9H227.228L234.278 23.5L240.478 12.9H250.178L239.028 30.6L250.628 48H240.678ZM281.67 24.2C281.67 26.2333 281.204 28.1 280.27 29.8C279.337 31.4667 277.904 32.8167 275.97 33.85C274.037 34.8833 271.637 35.4 268.77 35.4H263.47V48H254.92V12.9H268.77C271.57 12.9 273.937 13.3833 275.87 14.35C277.804 15.3167 279.254 16.65 280.22 18.35C281.187 20.05 281.67 22 281.67 24.2ZM268.12 28.6C269.754 28.6 270.97 28.2167 271.77 27.45C272.57 26.6833 272.97 25.6 272.97 24.2C272.97 22.8 272.57 21.7167 271.77 20.95C270.97 20.1833 269.754 19.8 268.12 19.8H263.47V28.6H268.12ZM294.671 41.4H305.871V48H286.121V12.9H294.671V41.4ZM326.55 48.35C323.25 48.35 320.216 47.5833 317.45 46.05C314.716 44.5167 312.533 42.3833 310.9 39.65C309.3 36.8833 308.5 33.7833 308.5 30.35C308.5 26.9167 309.3 23.8333 310.9 21.1C312.533 18.3667 314.716 16.2333 317.45 14.7C320.216 13.1667 323.25 12.4 326.55 12.4C329.85 12.4 332.866 13.1667 335.6 14.7C338.366 16.2333 340.533 18.3667 342.1 21.1C343.7 23.8333 344.5 26.9167 344.5 30.35C344.5 33.7833 343.7 36.8833 342.1 39.65C340.5 42.3833 338.333 44.5167 335.6 46.05C332.866 47.5833 329.85 48.35 326.55 48.35ZM326.55 40.55C329.35 40.55 331.583 39.6167 333.25 37.75C334.95 35.8833 335.8 33.4167 335.8 30.35C335.8 27.25 334.95 24.7833 333.25 22.95C331.583 21.0833 329.35 20.15 326.55 20.15C323.716 20.15 321.45 21.0667 319.75 22.9C318.083 24.7333 317.25 27.2167 317.25 30.35C317.25 33.45 318.083 35.9333 319.75 37.8C321.45 39.6333 323.716 40.55 326.55 40.55ZM367.156 48L359.856 34.75H357.806V48H349.256V12.9H363.606C366.373 12.9 368.723 13.3833 370.656 14.35C372.623 15.3167 374.09 16.65 375.056 18.35C376.023 20.0167 376.506 21.8833 376.506 23.95C376.506 26.2833 375.84 28.3667 374.506 30.2C373.206 32.0333 371.273 33.3333 368.706 34.1L376.806 48H367.156ZM357.806 28.7H363.106C364.673 28.7 365.84 28.3167 366.606 27.55C367.406 26.7833 367.806 25.7 367.806 24.3C367.806 22.9667 367.406 21.9167 366.606 21.15C365.84 20.3833 364.673 20 363.106 20H357.806V28.7ZM390.423 19.75V26.85H401.873V33.45H390.423V41.15H403.373V48H381.873V12.9H403.373V19.75H390.423Z"/>
</mask>
<path d="M21.6 46.05L15.7413 56.4938C15.7592 56.5039 15.7772 56.5139 15.7952 56.5239L21.6 46.05ZM15.05 39.65L4.68376 45.6449C4.71234 45.6944 4.74128 45.7436 4.77057 45.7926L15.05 39.65ZM15.05 21.1L4.77057 14.9574C4.75207 14.9884 4.73371 15.0194 4.71549 15.0505L15.05 21.1ZM21.6 14.7L15.7952 4.22611C15.7772 4.23609 15.7592 4.24611 15.7413 4.25618L21.6 14.7ZM39.75 14.7L33.8913 25.1438C33.9092 25.1539 33.9272 25.1639 33.9452 25.1739L39.75 14.7ZM46.25 21.1L35.8607 27.0549C35.8788 27.0865 35.8971 27.118 35.9155 27.1495L46.25 21.1ZM46.25 39.65L56.5845 45.6995C56.5951 45.6813 56.6057 45.6631 56.6162 45.6449L46.25 39.65ZM39.75 46.05L45.6087 56.4938L45.6087 56.4938L39.75 46.05ZM37.4 37.75L28.5465 29.6869C28.52 29.716 28.4937 29.7452 28.4675 29.7745L37.4 37.75ZM37.4 22.95L28.4675 30.9255C28.5175 30.9815 28.5681 31.0371 28.6192 31.0922L37.4 22.95ZM23.9 22.9L15.1192 14.7578C15.0924 14.7867 15.0658 14.8157 15.0393 14.8448L23.9 22.9ZM23.9 37.8L14.9675 45.7755C15.0175 45.8315 15.0681 45.8871 15.1192 45.9422L23.9 37.8ZM30.7 48.35V36.3751C29.3397 36.3751 28.317 36.0817 27.4048 35.5761L21.6 46.05L15.7952 56.5239C20.4163 59.085 25.4603 60.3249 30.7 60.3249V48.35ZM21.6 46.05L27.4587 35.6062C26.5796 35.113 25.908 34.4757 25.3294 33.5074L15.05 39.65L4.77057 45.7926C7.45862 50.291 11.1537 53.9203 15.7413 56.4938L21.6 46.05ZM15.05 39.65L25.4162 33.6551C24.9481 32.8456 24.6249 31.84 24.6249 30.35H12.65H0.675103C0.675103 35.7267 1.95189 40.9211 4.68376 45.6449L15.05 39.65ZM12.65 30.35H24.6249C24.6249 28.8585 24.9482 27.8948 25.3845 27.1495L15.05 21.1L4.71549 15.0505C1.95177 19.7719 0.675103 24.9748 0.675103 30.35H12.65ZM15.05 21.1L25.3294 27.2426C25.908 26.2743 26.5796 25.637 27.4587 25.1438L21.6 14.7L15.7413 4.25618C11.1537 6.82968 7.45863 10.459 4.77057 14.9574L15.05 21.1ZM21.6 14.7L27.4048 25.1739C28.317 24.6683 29.3397 24.3749 30.7 24.3749V12.4V0.425103C25.4603 0.425103 20.4163 1.66499 15.7952 4.22611L21.6 14.7ZM30.7 12.4V24.3749C32.0608 24.3749 33.0432 24.6681 33.8913 25.1438L39.75 14.7L45.6087 4.25618C40.9901 1.66526 35.9392 0.425103 30.7 0.425103V12.4ZM39.75 14.7L33.9452 25.1739C34.808 25.6521 35.3857 26.2261 35.8607 27.0549L46.25 21.1L56.6393 15.1451C53.981 10.5072 50.2253 6.8146 45.5548 4.22611L39.75 14.7ZM46.25 21.1L35.9155 27.1495C36.3518 27.8948 36.6751 28.8585 36.6751 30.35H48.65H60.6249C60.6249 24.9748 59.3482 19.7719 56.5845 15.0505L46.25 21.1ZM48.65 30.35H36.6751C36.6751 31.84 36.3519 32.8456 35.8838 33.6551L46.25 39.65L56.6162 45.6449C59.3481 40.9211 60.6249 35.7267 60.6249 30.35H48.65ZM46.25 39.65L35.9155 33.6005C35.3785 34.5179 34.7482 35.1255 33.8913 35.6062L39.75 46.05L45.6087 56.4938C50.2185 53.9079 53.9215 50.2488 56.5845 45.6995L46.25 39.65ZM39.75 46.05L33.8913 35.6062C33.0432 36.0819 32.0608 36.3751 30.7 36.3751V48.35V60.3249C35.9392 60.3249 40.9901 59.0847 45.6087 56.4938L39.75 46.05ZM30.7 40.55V52.5249C36.4595 52.5249 42.1095 50.4553 46.3325 45.7255L37.4 37.75L28.4675 29.7745C28.7835 29.4206 29.2679 29.0476 29.8576 28.8011C30.4146 28.5683 30.7607 28.5751 30.7 28.5751V40.55ZM37.4 37.75L46.2535 45.8131C50.3731 41.2896 51.9249 35.7263 51.9249 30.35H39.95H27.9751C27.9751 30.7831 27.9151 30.8189 27.9909 30.5986C28.029 30.4883 28.0935 30.3368 28.1951 30.1642C28.2972 29.9907 28.4175 29.8285 28.5465 29.6869L37.4 37.75ZM39.95 30.35H51.9249C51.9249 24.9888 50.3974 19.355 46.1808 14.8078L37.4 22.95L28.6192 31.0922C28.4673 30.9284 28.3299 30.7445 28.2157 30.5519C28.1022 30.3605 28.0317 30.1945 27.9909 30.0763C27.9107 29.8435 27.9751 29.8845 27.9751 30.35H39.95ZM37.4 22.95L46.3325 14.9745C42.1095 10.2447 36.4595 8.1751 30.7 8.1751V20.15V32.1249C30.7607 32.1249 30.4146 32.1317 29.8576 31.8989C29.2679 31.6524 28.7835 31.2794 28.4675 30.9255L37.4 22.95ZM30.7 20.15V8.1751C25.0235 8.1751 19.398 10.1434 15.1192 14.7578L23.9 22.9L32.6808 31.0422C32.3629 31.3851 31.8991 31.7228 31.3646 31.9389C30.8635 32.1416 30.5807 32.1249 30.7 32.1249V20.15ZM23.9 22.9L15.0393 14.8448C10.8795 19.4206 9.4251 25.0554 9.4251 30.35H21.4H33.3749C33.3749 29.832 33.4448 29.7472 33.3777 29.9471C33.3432 30.0502 33.2787 30.2085 33.1687 30.3983C33.0578 30.5898 32.92 30.78 32.7607 30.9552L23.9 22.9ZM21.4 30.35H9.4251C9.4251 35.6602 10.9034 41.2237 14.9675 45.7755L23.9 37.8L32.8325 29.8245C32.9687 29.977 33.0896 30.1452 33.1887 30.3175C33.287 30.4885 33.3457 30.6323 33.3777 30.7279C33.4408 30.9157 33.3749 30.8361 33.3749 30.35H21.4ZM23.9 37.8L15.1192 45.9422C19.398 50.5566 25.0235 52.5249 30.7 52.5249V40.55V28.5751C30.5807 28.5751 30.8635 28.5584 31.3646 28.7611C31.8991 28.9772 32.3629 29.3149 32.6808 29.6578L23.9 37.8ZM71.3066 48L60.8182 53.7785C62.9241 57.6008 66.9426 59.9749 71.3066 59.9749V48ZM64.0066 34.75L74.4951 28.9715C72.3892 25.1492 68.3707 22.7751 64.0066 22.7751V34.75ZM61.9566 34.75V22.7751C55.3431 22.7751 49.9817 28.1364 49.9817 34.75H61.9566ZM61.9566 48V59.9749C68.5702 59.9749 73.9315 54.6136 73.9315 48H61.9566ZM53.4066 48H41.4317C41.4317 54.6136 46.7931 59.9749 53.4066 59.9749V48ZM53.4066 12.9V0.925102C46.7931 0.925102 41.4317 6.28645 41.4317 12.9H53.4066ZM74.8066 14.35L69.4513 25.0607C69.4756 25.0728 69.4999 25.0849 69.5243 25.0969L74.8066 14.35ZM79.2066 18.35L68.797 24.2692C68.8139 24.2989 68.8309 24.3285 68.848 24.358L79.2066 18.35ZM78.6566 30.2L68.9721 23.1567C68.944 23.1954 68.916 23.2343 68.8883 23.2734L78.6566 30.2ZM72.8566 34.1L69.4294 22.626C65.9115 23.6768 63.07 26.2834 61.7203 29.6977C60.3706 33.1121 60.6617 36.957 62.5103 40.1292L72.8566 34.1ZM80.9566 48V59.9749C85.2435 59.9749 89.2033 57.6834 91.3392 53.9665C93.4752 50.2497 93.4614 45.6747 91.303 41.9708L80.9566 48ZM61.9566 28.7H49.9817C49.9817 35.3136 55.3431 40.6749 61.9566 40.6749V28.7ZM70.7566 27.55L62.4711 18.9043C62.4098 18.963 62.3492 19.0224 62.2891 19.0825L70.7566 27.55ZM70.7566 21.15L62.2891 29.6175C62.3492 29.6776 62.4098 29.737 62.4711 29.7957L70.7566 21.15ZM61.9566 20V8.0251C55.3431 8.0251 49.9817 13.3864 49.9817 20H61.9566ZM71.3066 48L81.7951 42.2215L74.4951 28.9715L64.0066 34.75L53.5182 40.5285L60.8182 53.7785L71.3066 48ZM64.0066 34.75V22.7751H61.9566V34.75V46.7249H64.0066V34.75ZM61.9566 34.75H49.9817V48H61.9566H73.9315V34.75H61.9566ZM61.9566 48V36.0251H53.4066V48V59.9749H61.9566V48ZM53.4066 48H65.3815V12.9H53.4066H41.4317V48H53.4066ZM53.4066 12.9V24.8749H67.7566V12.9V0.925102H53.4066V12.9ZM67.7566 12.9V24.8749C69.1688 24.8749 69.5798 25.1249 69.4513 25.0607L74.8066 14.35L80.162 3.63932C76.1668 1.64174 71.8778 0.925102 67.7566 0.925102V12.9ZM74.8066 14.35L69.5243 25.0969C69.6046 25.1363 69.5068 25.0997 69.3265 24.9357C69.1375 24.764 68.9469 24.5328 68.797 24.2692L79.2066 18.35L89.6163 12.4308C87.3227 8.39728 83.9404 5.49619 80.089 3.60314L74.8066 14.35ZM79.2066 18.35L68.848 24.358C68.7849 24.2492 68.7325 24.121 68.7015 24.0017C68.6719 23.887 68.6817 23.8571 68.6817 23.95H80.6566H92.6315C92.6315 19.9318 91.6675 15.9664 89.5653 12.342L79.2066 18.35ZM80.6566 23.95H68.6817C68.6817 23.9607 68.6829 23.8272 68.7515 23.6128C68.8212 23.395 68.9156 23.2344 68.9721 23.1567L78.6566 30.2L88.3412 37.2433C91.2091 33.2999 92.6315 28.7347 92.6315 23.95H80.6566ZM78.6566 30.2L68.8883 23.2734C68.9899 23.1302 69.1058 22.9953 69.2294 22.8755C69.3524 22.7563 69.4644 22.67 69.5497 22.6127C69.7213 22.4973 69.7262 22.5374 69.4294 22.626L72.8566 34.1L76.2839 45.574C80.9034 44.1941 85.2966 41.5384 88.425 37.1266L78.6566 30.2ZM72.8566 34.1L62.5103 40.1292L70.6103 54.0292L80.9566 48L91.303 41.9708L83.203 28.0708L72.8566 34.1ZM80.9566 48V36.0251H71.3066V48V59.9749H80.9566V48ZM61.9566 28.7V40.6749H67.2566V28.7V16.7251H61.9566V28.7ZM67.2566 28.7V40.6749C70.5821 40.6749 75.3767 39.865 79.2242 36.0175L70.7566 27.55L62.2891 19.0825C64.6033 16.7683 67.0645 16.7251 67.2566 16.7251V28.7ZM70.7566 27.55L79.0421 36.1957C82.7846 32.6092 83.9315 28.053 83.9315 24.3H71.9566H59.9817C59.9817 23.8759 60.041 23.0494 60.423 22.0147C60.8247 20.9269 61.5044 19.8308 62.4711 18.9043L70.7566 27.55ZM71.9566 24.3H83.9315C83.9315 20.4169 82.6693 15.9803 79.0421 12.5043L70.7566 21.15L62.4711 29.7957C61.5716 28.9337 60.8887 27.8845 60.4663 26.7755C60.0607 25.7109 59.9817 24.8244 59.9817 24.3H71.9566ZM70.7566 21.15L79.2242 12.6825C75.3767 8.83495 70.5821 8.0251 67.2566 8.0251V20V31.9749C67.0645 31.9749 64.6033 31.9317 62.2891 29.6175L70.7566 21.15ZM67.2566 20V8.0251H61.9566V20V31.9749H67.2566V20ZM61.9566 20H49.9817V28.7H61.9566H73.9315V20H61.9566ZM125.774 12.9H137.749C137.749 6.28645 132.387 0.925102 125.774 0.925102V12.9ZM125.774 48V59.9749C132.387 59.9749 137.749 54.6136 137.749 48H125.774ZM117.224 48H105.249C105.249 54.6136 110.61 59.9749 117.224 59.9749V48ZM117.224 26.95H129.199C129.199 21.1565 125.051 16.1938 119.35 15.1653C113.648 14.1368 108.028 17.3374 106.004 22.7658L117.224 26.95ZM109.374 48V59.9749C114.373 59.9749 118.847 56.8687 120.594 52.1842L109.374 48ZM102.474 48L91.2592 52.1988C93.0103 56.8757 97.4799 59.9749 102.474 59.9749V48ZM94.5738 26.9L105.788 22.7012C103.758 17.2782 98.1382 14.085 92.4403 15.1167C86.7423 16.1484 82.5989 21.1094 82.5989 26.9H94.5738ZM94.5738 48V59.9749C101.187 59.9749 106.549 54.6136 106.549 48H94.5738ZM86.0238 48H74.0489C74.0489 54.6136 79.4103 59.9749 86.0238 59.9749V48ZM86.0238 12.9V0.925102C79.4103 0.925102 74.0489 6.28645 74.0489 12.9H86.0238ZM96.1238 12.9L107.222 8.4015C105.39 3.88217 101 0.925102 96.1238 0.925102V12.9ZM105.974 37.2L94.876 41.6985C96.7108 46.225 101.111 49.1835 105.995 49.1749C110.879 49.1662 115.269 46.1921 117.088 41.6592L105.974 37.2ZM115.724 12.9V0.925102C110.832 0.925102 106.432 3.90069 104.61 8.44081L115.724 12.9ZM125.774 12.9H113.799V48H125.774H137.749V12.9H125.774ZM125.774 48V36.0251H117.224V48V59.9749H125.774V48ZM117.224 48H129.199V26.95H117.224H105.249V48H117.224ZM117.224 26.95L106.004 22.7658L98.1537 43.8158L109.374 48L120.594 52.1842L128.444 31.1342L117.224 26.95ZM109.374 48V36.0251H102.474V48V59.9749H109.374V48ZM102.474 48L113.688 43.8012L105.788 22.7012L94.5738 26.9L83.3592 31.0988L91.2592 52.1988L102.474 48ZM94.5738 26.9H82.5989V48H94.5738H106.549V26.9H94.5738ZM94.5738 48V36.0251H86.0238V48V59.9749H94.5738V48ZM86.0238 48H97.9987V12.9H86.0238H74.0489V48H86.0238ZM86.0238 12.9V24.8749H96.1238V12.9V0.925102H86.0238V12.9ZM96.1238 12.9L85.026 17.3985L94.876 41.6985L105.974 37.2L117.072 32.7015L107.222 8.4015L96.1238 12.9ZM105.974 37.2L117.088 41.6592L126.838 17.3592L115.724 12.9L104.61 8.44081L94.8602 32.7408L105.974 37.2ZM115.724 12.9V24.8749H125.774V12.9V0.925102H115.724V12.9ZM140.472 12.9H152.447C152.447 6.28645 147.086 0.925102 140.472 0.925102V12.9ZM140.472 48V59.9749C147.086 59.9749 152.447 54.6136 152.447 48H140.472ZM131.922 48H119.947C119.947 54.6136 125.309 59.9749 131.922 59.9749V48ZM131.922 12.9V0.925102C125.309 0.925102 119.947 6.28645 119.947 12.9H131.922ZM140.472 12.9H128.497V48H140.472H152.447V12.9H140.472ZM140.472 48V36.0251H131.922V48V59.9749H140.472V48ZM131.922 48H143.897V12.9H131.922H119.947V48H131.922ZM131.922 12.9V24.8749H140.472V12.9V0.925102H131.922V12.9ZM167.018 48L157.49 55.2536C159.755 58.2285 163.279 59.9749 167.018 59.9749V48ZM155.218 32.5L164.746 25.2464C161.634 21.1578 156.26 19.5108 151.391 21.1533C146.522 22.7957 143.243 27.3615 143.243 32.5H155.218ZM155.218 48V59.9749C161.832 59.9749 167.193 54.6136 167.193 48H155.218ZM146.668 48H134.693C134.693 54.6136 140.055 59.9749 146.668 59.9749V48ZM146.668 12.9V0.925102C140.055 0.925102 134.693 6.28645 134.693 12.9H146.668ZM155.218 12.9H167.193C167.193 6.28645 161.832 0.925102 155.218 0.925102V12.9ZM155.218 28.3H143.243C143.243 33.4407 146.525 38.0078 151.396 39.6486C156.268 41.2893 161.644 39.6376 164.754 35.5442L155.218 28.3ZM166.918 12.9V0.925102C163.175 0.925102 159.648 2.67531 157.383 5.65576L166.918 12.9ZM176.968 12.9L186.362 20.3273C189.209 16.7261 189.747 11.814 187.747 7.68188C185.746 3.54977 181.559 0.925102 176.968 0.925102V12.9ZM163.368 30.1L153.975 22.6727C150.538 27.0196 150.532 33.1568 153.961 37.5099L163.368 30.1ZM177.468 48V59.9749C182.055 59.9749 186.239 57.3547 188.242 53.228C190.244 49.1014 189.714 44.1933 186.875 40.5901L177.468 48ZM167.018 48L176.546 40.7464L164.746 25.2464L155.218 32.5L145.69 39.7536L157.49 55.2536L167.018 48ZM155.218 32.5H143.243V48H155.218H167.193V32.5H155.218ZM155.218 48V36.0251H146.668V48V59.9749H155.218V48ZM146.668 48H158.643V12.9H146.668H134.693V48H146.668ZM146.668 12.9V24.8749H155.218V12.9V0.925102H146.668V12.9ZM155.218 12.9H143.243V28.3H155.218H167.193V12.9H155.218ZM155.218 28.3L164.754 35.5442L176.454 20.1442L166.918 12.9L157.383 5.65576L145.683 21.0558L155.218 28.3ZM166.918 12.9V24.8749H176.968V12.9V0.925102H166.918V12.9ZM176.968 12.9L167.575 5.47274L153.975 22.6727L163.368 30.1L172.762 37.5273L186.362 20.3273L176.968 12.9ZM163.368 30.1L153.961 37.5099L168.061 55.4099L177.468 48L186.875 40.5901L172.775 22.6901L163.368 30.1ZM177.468 48V36.0251H167.018V48V59.9749H177.468V48ZM200.677 19.75V7.7751C194.064 7.7751 188.702 13.1364 188.702 19.75H200.677ZM200.677 26.85H188.702C188.702 33.4636 194.064 38.8249 200.677 38.8249V26.85ZM212.127 26.85H224.102C224.102 20.2364 218.741 14.8751 212.127 14.8751V26.85ZM212.127 33.45V45.4249C218.741 45.4249 224.102 40.0636 224.102 33.45H212.127ZM200.677 33.45V21.4751C194.064 21.4751 188.702 26.8364 188.702 33.45H200.677ZM200.677 41.15H188.702C188.702 47.7636 194.064 53.1249 200.677 53.1249V41.15ZM213.627 41.15H225.602C225.602 34.5364 220.241 29.1751 213.627 29.1751V41.15ZM213.627 48V59.9749C220.241 59.9749 225.602 54.6136 225.602 48H213.627ZM192.127 48H180.152C180.152 54.6136 185.514 59.9749 192.127 59.9749V48ZM192.127 12.9V0.925102C185.514 0.925102 180.152 6.28645 180.152 12.9H192.127ZM213.627 12.9H225.602C225.602 6.28645 220.241 0.925102 213.627 0.925102V12.9ZM213.627 19.75V31.7249C220.241 31.7249 225.602 26.3636 225.602 19.75H213.627ZM200.677 19.75H188.702V26.85H200.677H212.652V19.75H200.677ZM200.677 26.85V38.8249H212.127V26.85V14.8751H200.677V26.85ZM212.127 26.85H200.152V33.45H212.127H224.102V26.85H212.127ZM212.127 33.45V21.4751H200.677V33.45V45.4249H212.127V33.45ZM200.677 33.45H188.702V41.15H200.677H212.652V33.45H200.677ZM200.677 41.15V53.1249H213.627V41.15V29.1751H200.677V41.15ZM213.627 41.15H201.652V48H213.627H225.602V41.15H213.627ZM213.627 48V36.0251H192.127V48V59.9749H213.627V48ZM192.127 48H204.102V12.9H192.127H180.152V48H192.127ZM192.127 12.9V24.8749H213.627V12.9V0.925102H192.127V12.9ZM213.627 12.9H201.652V19.75H213.627H225.602V12.9H213.627ZM213.627 19.75V7.7751H200.677V19.75V31.7249H213.627V19.75ZM240.678 48L230.707 54.6318C232.927 57.9693 236.67 59.9749 240.678 59.9749V48ZM233.528 37.25L243.499 30.6182C241.212 27.1801 237.315 25.1626 233.188 25.2799C229.06 25.3973 225.284 27.6328 223.197 31.1953L233.528 37.25ZM227.228 48V59.9749C231.479 59.9749 235.41 57.7218 237.56 54.0547L227.228 48ZM217.528 48L207.397 41.6151C205.072 45.3047 204.936 49.9668 207.043 53.7853C209.15 57.6038 213.167 59.9749 217.528 59.9749V48ZM228.778 30.15L238.909 36.5349C241.427 32.5394 241.362 27.4371 238.742 23.5075L228.778 30.15ZM217.278 12.9V0.925102C212.862 0.925102 208.804 3.35582 206.72 7.24955C204.636 11.1433 204.865 15.8679 207.314 19.5425L217.278 12.9ZM227.228 12.9L237.199 6.26838C234.979 2.93071 231.237 0.925102 227.228 0.925102V12.9ZM234.278 23.5L224.307 30.1316C226.595 33.5713 230.494 35.589 234.623 35.4699C238.753 35.3508 242.529 33.1118 244.615 29.5459L234.278 23.5ZM240.478 12.9V0.925102C236.224 0.925102 232.289 3.18202 230.142 6.85407L240.478 12.9ZM250.178 12.9L260.31 19.2827C262.635 15.5929 262.769 10.9314 260.662 7.11353C258.555 3.29566 254.539 0.925103 250.178 0.925103V12.9ZM239.028 30.6L228.896 24.2173C226.379 28.2125 226.445 33.3137 229.064 37.2425L239.028 30.6ZM250.628 48V59.9749C255.044 59.9749 259.102 57.5442 261.186 53.6504C263.27 49.7567 263.042 45.0321 260.592 41.3575L250.628 48ZM240.678 48L250.649 41.3682L243.499 30.6182L233.528 37.25L223.557 43.8818L230.707 54.6318L240.678 48ZM233.528 37.25L223.197 31.1953L216.897 41.9453L227.228 48L237.56 54.0547L243.86 43.3047L233.528 37.25ZM227.228 48V36.0251H217.528V48V59.9749H227.228V48ZM217.528 48L227.659 54.3849L238.909 36.5349L228.778 30.15L218.647 23.7651L207.397 41.6151L217.528 48ZM228.778 30.15L238.742 23.5075L227.242 6.25752L217.278 12.9L207.314 19.5425L218.814 36.7925L228.778 30.15ZM217.278 12.9V24.8749H227.228V12.9V0.925102H217.278V12.9ZM227.228 12.9L217.257 19.5316L224.307 30.1316L234.278 23.5L244.249 16.8684L237.199 6.26838L227.228 12.9ZM234.278 23.5L244.615 29.5459L250.815 18.9459L240.478 12.9L230.142 6.85407L223.942 17.4541L234.278 23.5ZM240.478 12.9V24.8749H250.178V12.9V0.925102H240.478V12.9ZM250.178 12.9L240.046 6.51734L228.896 24.2173L239.028 30.6L249.16 36.9827L260.31 19.2827L250.178 12.9ZM239.028 30.6L229.064 37.2425L240.664 54.6425L250.628 48L260.592 41.3575L248.992 23.9575L239.028 30.6ZM250.628 48V36.0251H240.678V48V59.9749H250.628V48ZM280.27 29.8L290.718 35.651C290.735 35.6217 290.751 35.5924 290.767 35.563L280.27 29.8ZM275.97 33.85L270.326 23.289V23.289L275.97 33.85ZM263.47 35.4V23.4251C256.857 23.4251 251.495 28.7864 251.495 35.4H263.47ZM263.47 48V59.9749C270.084 59.9749 275.445 54.6136 275.445 48H263.47ZM254.92 48H242.945C242.945 54.6136 248.307 59.9749 254.92 59.9749V48ZM254.92 12.9V0.925102C248.307 0.925102 242.945 6.28645 242.945 12.9H254.92ZM275.87 14.35L281.226 3.63932V3.63932L275.87 14.35ZM263.47 19.8V7.8251C256.857 7.8251 251.495 13.1864 251.495 19.8H263.47ZM263.47 28.6H251.495C251.495 35.2136 256.857 40.5749 263.47 40.5749V28.6ZM281.67 24.2H269.695C269.695 24.2495 269.693 24.2719 269.693 24.271C269.693 24.2697 269.695 24.2516 269.703 24.2207C269.711 24.1895 269.722 24.1543 269.736 24.1183C269.75 24.0824 269.764 24.0546 269.773 24.037L280.27 29.8L290.767 35.563C292.718 32.0103 293.645 28.1469 293.645 24.2H281.67ZM280.27 29.8L269.822 23.949C269.969 23.6861 270.142 23.4803 270.285 23.3454C270.42 23.2184 270.464 23.2153 270.326 23.289L275.97 33.85L281.615 44.411C285.261 42.4621 288.509 39.5963 290.718 35.651L280.27 29.8ZM275.97 33.85L270.326 23.289C270.581 23.1523 270.254 23.4251 268.77 23.4251V35.4V47.3749C273.02 47.3749 277.493 46.6143 281.615 44.411L275.97 33.85ZM268.77 35.4V23.4251H263.47V35.4V47.3749H268.77V35.4ZM263.47 35.4H251.495V48H263.47H275.445V35.4H263.47ZM263.47 48V36.0251H254.92V48V59.9749H263.47V48ZM254.92 48H266.895V12.9H254.92H242.945V48H254.92ZM254.92 12.9V24.8749H268.77V12.9V0.925102H254.92V12.9ZM268.77 12.9V24.8749C270.241 24.8749 270.661 25.1338 270.515 25.0607L275.87 14.35L281.226 3.63932C277.213 1.63283 272.899 0.925102 268.77 0.925102V12.9ZM275.87 14.35L270.515 25.0607C270.577 25.0918 270.477 25.0501 270.302 24.8897C270.121 24.7226 269.945 24.5059 269.811 24.2692L280.22 18.35L290.63 12.4308C288.368 8.45319 285.049 5.55086 281.226 3.63932L275.87 14.35ZM280.22 18.35L269.811 24.2692C269.777 24.2101 269.748 24.15 269.726 24.0929C269.703 24.0361 269.691 23.9928 269.685 23.9685C269.672 23.9164 269.695 23.9799 269.695 24.2H281.67H293.645C293.645 20.189 292.746 16.1515 290.63 12.4308L280.22 18.35ZM268.12 28.6V40.5749C271.394 40.5749 276.164 39.8253 280.056 36.0957L271.77 27.45L263.485 18.8043C265.777 16.608 268.113 16.6251 268.12 16.6251V28.6ZM271.77 27.45L280.056 36.0957C283.798 32.5092 284.945 27.953 284.945 24.2H272.97H260.995C260.995 23.7759 261.055 22.9494 261.437 21.9147C261.838 20.8269 262.518 19.7308 263.485 18.8043L271.77 27.45ZM272.97 24.2H284.945C284.945 20.447 283.798 15.8908 280.056 12.3043L271.77 20.95L263.485 29.5957C262.518 28.6692 261.838 27.5731 261.437 26.4853C261.055 25.4506 260.995 24.6241 260.995 24.2H272.97ZM271.77 20.95L280.056 12.3043C276.164 8.57466 271.394 7.8251 268.12 7.8251V19.8V31.7749C268.113 31.7749 265.777 31.792 263.485 29.5957L271.77 20.95ZM268.12 19.8V7.8251H263.47V19.8V31.7749H268.12V19.8ZM263.47 19.8H251.495V28.6H263.47H275.445V19.8H263.47ZM263.47 28.6V40.5749H268.12V28.6V16.6251H263.47V28.6ZM294.671 41.4H282.697C282.697 48.0136 288.058 53.3749 294.671 53.3749V41.4ZM305.871 41.4H317.846C317.846 34.7864 312.485 29.4251 305.871 29.4251V41.4ZM305.871 48V59.9749C312.485 59.9749 317.846 54.6136 317.846 48H305.871ZM286.121 48H274.147C274.147 54.6136 279.508 59.9749 286.121 59.9749V48ZM286.121 12.9V0.925102C279.508 0.925102 274.147 6.28645 274.147 12.9H286.121ZM294.671 12.9H306.646C306.646 6.28645 301.285 0.925102 294.671 0.925102V12.9ZM294.671 41.4V53.3749H305.871V41.4V29.4251H294.671V41.4ZM305.871 41.4H293.897V48H305.871H317.846V41.4H305.871ZM305.871 48V36.0251H286.121V48V59.9749H305.871V48ZM286.121 48H298.096V12.9H286.121H274.147V48H286.121ZM286.121 12.9V24.8749H294.671V12.9V0.925102H286.121V12.9ZM294.671 12.9H282.697V41.4H294.671H306.646V12.9H294.671ZM317.45 46.05L311.591 56.4938C311.609 56.5039 311.627 56.5139 311.645 56.5239L317.45 46.05ZM310.9 39.65L300.533 45.6449C300.562 45.6944 300.591 45.7436 300.62 45.7926L310.9 39.65ZM310.9 21.1L300.62 14.9574C300.602 14.9884 300.583 15.0194 300.565 15.0505L310.9 21.1ZM317.45 14.7L311.645 4.22611C311.627 4.23609 311.609 4.24611 311.591 4.25618L317.45 14.7ZM335.6 14.7L329.741 25.1438C329.759 25.1539 329.777 25.1639 329.795 25.1739L335.6 14.7ZM342.1 21.1L331.71 27.0549C331.728 27.0865 331.747 27.118 331.765 27.1495L342.1 21.1ZM342.1 39.65L352.434 45.6995C352.445 45.6813 352.455 45.6631 352.466 45.6449L342.1 39.65ZM335.6 46.05L341.458 56.4938V56.4938L335.6 46.05ZM333.25 37.75L324.396 29.6869C324.37 29.716 324.343 29.7452 324.317 29.7745L333.25 37.75ZM333.25 22.95L324.317 30.9255C324.367 30.9815 324.418 31.0371 324.469 31.0922L333.25 22.95ZM319.75 22.9L310.969 14.7578C310.942 14.7867 310.915 14.8157 310.889 14.8448L319.75 22.9ZM319.75 37.8L310.817 45.7755C310.867 45.8315 310.918 45.8871 310.969 45.9422L319.75 37.8ZM326.55 48.35V36.3751C325.189 36.3751 324.167 36.0817 323.254 35.5761L317.45 46.05L311.645 56.5239C316.266 59.085 321.31 60.3249 326.55 60.3249V48.35ZM317.45 46.05L323.308 35.6062C322.429 35.113 321.758 34.4757 321.179 33.5074L310.9 39.65L300.62 45.7926C303.308 50.291 307.003 53.9203 311.591 56.4938L317.45 46.05ZM310.9 39.65L321.266 33.6551C320.798 32.8456 320.475 31.84 320.475 30.35H308.5H296.525C296.525 35.7267 297.801 40.9211 300.533 45.6449L310.9 39.65ZM308.5 30.35H320.475C320.475 28.8585 320.798 27.8948 321.234 27.1495L310.9 21.1L300.565 15.0505C297.801 19.7719 296.525 24.9748 296.525 30.35H308.5ZM310.9 21.1L321.179 27.2426C321.758 26.2743 322.429 25.637 323.308 25.1438L317.45 14.7L311.591 4.25618C307.003 6.82968 303.308 10.459 300.62 14.9574L310.9 21.1ZM317.45 14.7L323.254 25.1739C324.167 24.6683 325.189 24.3749 326.55 24.3749V12.4V0.425103C321.31 0.425103 316.266 1.66499 311.645 4.22611L317.45 14.7ZM326.55 12.4V24.3749C327.91 24.3749 328.893 24.6681 329.741 25.1438L335.6 14.7L341.458 4.25618C336.84 1.66526 331.789 0.425103 326.55 0.425103V12.4ZM335.6 14.7L329.795 25.1739C330.658 25.6521 331.235 26.2261 331.71 27.0549L342.1 21.1L352.489 15.1451C349.831 10.5072 346.075 6.8146 341.404 4.22611L335.6 14.7ZM342.1 21.1L331.765 27.1495C332.201 27.8948 332.525 28.8585 332.525 30.35H344.5H356.475C356.475 24.9748 355.198 19.7719 352.434 15.0505L342.1 21.1ZM344.5 30.35H332.525C332.525 31.84 332.202 32.8456 331.733 33.6551L342.1 39.65L352.466 45.6449C355.198 40.9211 356.475 35.7267 356.475 30.35H344.5ZM342.1 39.65L331.765 33.6005C331.228 34.5179 330.598 35.1255 329.741 35.6062L335.6 46.05L341.458 56.4938C346.068 53.9079 349.771 50.2488 352.434 45.6995L342.1 39.65ZM335.6 46.05L329.741 35.6062C328.893 36.0819 327.91 36.3751 326.55 36.3751V48.35V60.3249C331.789 60.3249 336.84 59.0847 341.458 56.4938L335.6 46.05ZM326.55 40.55V52.5249C332.309 52.5249 337.959 50.4553 342.182 45.7255L333.25 37.75L324.317 29.7745C324.633 29.4206 325.118 29.0476 325.707 28.8011C326.264 28.5683 326.61 28.5751 326.55 28.5751V40.55ZM333.25 37.75L342.103 45.8131C346.223 41.2896 347.775 35.7263 347.775 30.35H335.8H323.825C323.825 30.7831 323.765 30.8189 323.841 30.5986C323.879 30.4883 323.943 30.3368 324.045 30.1642C324.147 29.9907 324.267 29.8285 324.396 29.6869L333.25 37.75ZM335.8 30.35H347.775C347.775 24.9888 346.247 19.355 342.03 14.8078L333.25 22.95L324.469 31.0922C324.317 30.9284 324.18 30.7445 324.065 30.5519C323.952 30.3605 323.881 30.1945 323.841 30.0763C323.76 29.8435 323.825 29.8845 323.825 30.35H335.8ZM333.25 22.95L342.182 14.9745C337.959 10.2447 332.309 8.1751 326.55 8.1751V20.15V32.1249C326.61 32.1249 326.264 32.1317 325.707 31.8989C325.118 31.6524 324.633 31.2794 324.317 30.9255L333.25 22.95ZM326.55 20.15V8.1751C320.873 8.1751 315.248 10.1434 310.969 14.7578L319.75 22.9L328.53 31.0422C328.212 31.3851 327.749 31.7228 327.214 31.9389C326.713 32.1416 326.43 32.1249 326.55 32.1249V20.15ZM319.75 22.9L310.889 14.8448C306.729 19.4206 305.275 25.0554 305.275 30.35H317.25H329.225C329.225 29.832 329.294 29.7472 329.227 29.9471C329.193 30.0502 329.128 30.2085 329.018 30.3983C328.907 30.5898 328.77 30.78 328.61 30.9552L319.75 22.9ZM317.25 30.35H305.275C305.275 35.6602 306.753 41.2237 310.817 45.7755L319.75 37.8L328.682 29.8245C328.818 29.977 328.939 30.1452 329.038 30.3175C329.137 30.4885 329.195 30.6323 329.227 30.7279C329.29 30.9157 329.225 30.8361 329.225 30.35H317.25ZM319.75 37.8L310.969 45.9422C315.248 50.5566 320.873 52.5249 326.55 52.5249V40.55V28.5751C326.43 28.5751 326.713 28.5584 327.214 28.7611C327.749 28.9772 328.212 29.3149 328.53 29.6578L319.75 37.8ZM367.156 48L356.668 53.7785C358.774 57.6008 362.792 59.9749 367.156 59.9749V48ZM359.856 34.75L370.345 28.9715C368.239 25.1492 364.22 22.7751 359.856 22.7751V34.75ZM357.806 34.75V22.7751C351.193 22.7751 345.831 28.1364 345.831 34.75H357.806ZM357.806 48V59.9749C364.42 59.9749 369.781 54.6136 369.781 48H357.806ZM349.256 48H337.281C337.281 54.6136 342.643 59.9749 349.256 59.9749V48ZM349.256 12.9V0.925102C342.643 0.925102 337.281 6.28645 337.281 12.9H349.256ZM370.656 14.35L365.301 25.0607C365.325 25.0728 365.35 25.0849 365.374 25.0969L370.656 14.35ZM375.056 18.35L364.647 24.2692C364.663 24.2989 364.68 24.3285 364.698 24.358L375.056 18.35ZM374.506 30.2L364.822 23.1567C364.794 23.1954 364.766 23.2343 364.738 23.2734L374.506 30.2ZM368.706 34.1L365.279 22.626C361.761 23.6768 358.92 26.2834 357.57 29.6977C356.22 33.1121 356.511 36.957 358.36 40.1292L368.706 34.1ZM376.806 48V59.9749C381.093 59.9749 385.053 57.6834 387.189 53.9665C389.325 50.2497 389.311 45.6747 387.153 41.9708L376.806 48ZM357.806 28.7H345.831C345.831 35.3136 351.193 40.6749 357.806 40.6749V28.7ZM366.606 27.55L358.321 18.9043C358.259 18.963 358.199 19.0224 358.139 19.0825L366.606 27.55ZM366.606 21.15L358.139 29.6175C358.199 29.6776 358.259 29.737 358.321 29.7957L366.606 21.15ZM357.806 20V8.0251C351.193 8.0251 345.831 13.3864 345.831 20H357.806ZM367.156 48L377.645 42.2215L370.345 28.9715L359.856 34.75L349.368 40.5285L356.668 53.7785L367.156 48ZM359.856 34.75V22.7751H357.806V34.75V46.7249H359.856V34.75ZM357.806 34.75H345.831V48H357.806H369.781V34.75H357.806ZM357.806 48V36.0251H349.256V48V59.9749H357.806V48ZM349.256 48H361.231V12.9H349.256H337.281V48H349.256ZM349.256 12.9V24.8749H363.606V12.9V0.925102H349.256V12.9ZM363.606 12.9V24.8749C365.018 24.8749 365.429 25.1249 365.301 25.0607L370.656 14.35L376.012 3.63932C372.016 1.64174 367.727 0.925102 363.606 0.925102V12.9ZM370.656 14.35L365.374 25.0969C365.454 25.1363 365.356 25.0997 365.176 24.9357C364.987 24.764 364.797 24.5328 364.647 24.2692L375.056 18.35L385.466 12.4308C383.172 8.39728 379.79 5.49619 375.939 3.60314L370.656 14.35ZM375.056 18.35L364.698 24.358C364.634 24.2492 364.582 24.121 364.551 24.0017C364.521 23.887 364.531 23.8571 364.531 23.95H376.506H388.481C388.481 19.9318 387.517 15.9664 385.415 12.342L375.056 18.35ZM376.506 23.95H364.531C364.531 23.9607 364.532 23.8272 364.601 23.6128C364.671 23.395 364.765 23.2344 364.822 23.1567L374.506 30.2L384.191 37.2433C387.059 33.2999 388.481 28.7347 388.481 23.95H376.506ZM374.506 30.2L364.738 23.2734C364.839 23.1302 364.955 22.9953 365.079 22.8755C365.202 22.7563 365.314 22.67 365.399 22.6127C365.571 22.4973 365.576 22.5374 365.279 22.626L368.706 34.1L372.134 45.574C376.753 44.1941 381.146 41.5384 384.275 37.1266L374.506 30.2ZM368.706 34.1L358.36 40.1292L366.46 54.0292L376.806 48L387.153 41.9708L379.053 28.0708L368.706 34.1ZM376.806 48V36.0251H367.156V48V59.9749H376.806V48ZM357.806 28.7V40.6749H363.106V28.7V16.7251H357.806V28.7ZM363.106 28.7V40.6749C366.432 40.6749 371.226 39.865 375.074 36.0175L366.606 27.55L358.139 19.0825C360.453 16.7683 362.914 16.7251 363.106 16.7251V28.7ZM366.606 27.55L374.892 36.1957C378.634 32.6092 379.781 28.053 379.781 24.3H367.806H355.831C355.831 23.8759 355.891 23.0494 356.273 22.0147C356.674 20.9269 357.354 19.8308 358.321 18.9043L366.606 27.55ZM367.806 24.3H379.781C379.781 20.4169 378.519 15.9803 374.892 12.5043L366.606 21.15L358.321 29.7957C357.421 28.9337 356.738 27.8845 356.316 26.7755C355.91 25.7109 355.831 24.8244 355.831 24.3H367.806ZM366.606 21.15L375.074 12.6825C371.226 8.83495 366.432 8.0251 363.106 8.0251V20V31.9749C362.914 31.9749 360.453 31.9317 358.139 29.6175L366.606 21.15ZM363.106 20V8.0251H357.806V20V31.9749H363.106V20ZM357.806 20H345.831V28.7H357.806H369.781V20H357.806ZM390.423 19.75V7.7751C383.81 7.7751 378.449 13.1364 378.449 19.75H390.423ZM390.423 26.85H378.449C378.449 33.4636 383.81 38.8249 390.423 38.8249V26.85ZM401.873 26.85H413.848C413.848 20.2364 408.487 14.8751 401.873 14.8751V26.85ZM401.873 33.45V45.4249C408.487 45.4249 413.848 40.0636 413.848 33.45H401.873ZM390.423 33.45V21.4751C383.81 21.4751 378.449 26.8364 378.449 33.45H390.423ZM390.423 41.15H378.449C378.449 47.7636 383.81 53.1249 390.423 53.1249V41.15ZM403.373 41.15H415.348C415.348 34.5364 409.987 29.1751 403.373 29.1751V41.15ZM403.373 48V59.9749C409.987 59.9749 415.348 54.6136 415.348 48H403.373ZM381.873 48H369.899C369.899 54.6136 375.26 59.9749 381.873 59.9749V48ZM381.873 12.9V0.925102C375.26 0.925102 369.899 6.28645 369.899 12.9H381.873ZM403.373 12.9H415.348C415.348 6.28645 409.987 0.925102 403.373 0.925102V12.9ZM403.373 19.75V31.7249C409.987 31.7249 415.348 26.3636 415.348 19.75H403.373ZM390.423 19.75H378.449V26.85H390.423H402.398V19.75H390.423ZM390.423 26.85V38.8249H401.873V26.85V14.8751H390.423V26.85ZM401.873 26.85H389.899V33.45H401.873H413.848V26.85H401.873ZM401.873 33.45V21.4751H390.423V33.45V45.4249H401.873V33.45ZM390.423 33.45H378.449V41.15H390.423H402.398V33.45H390.423ZM390.423 41.15V53.1249H403.373V41.15V29.1751H390.423V41.15ZM403.373 41.15H391.399V48H403.373H415.348V41.15H403.373ZM403.373 48V36.0251H381.873V48V59.9749H403.373V48ZM381.873 48H393.848V12.9H381.873H369.899V48H381.873ZM381.873 12.9V24.8749H403.373V12.9V0.925102H381.873V12.9ZM403.373 12.9H391.399V19.75H403.373H415.348V12.9H403.373ZM403.373 19.75V7.7751H390.423V19.75V31.7249H403.373V19.75Z" fill="url(#paint0_linear_2060_18)" mask="url(#path-1-outside-1_2060_18)"/>
</g>
<path d="M30.7 48.35C27.4 48.35 24.3667 47.5833 21.6 46.05C18.8667 44.5167 16.6833 42.3833 15.05 39.65C13.45 36.8833 12.65 33.7833 12.65 30.35C12.65 26.9167 13.45 23.8333 15.05 21.1C16.6833 18.3667 18.8667 16.2333 21.6 14.7C24.3667 13.1667 27.4 12.4 30.7 12.4C34 12.4 37.0167 13.1667 39.75 14.7C42.5167 16.2333 44.6833 18.3667 46.25 21.1C47.85 23.8333 48.65 26.9167 48.65 30.35C48.65 33.7833 47.85 36.8833 46.25 39.65C44.65 42.3833 42.4833 44.5167 39.75 46.05C37.0167 47.5833 34 48.35 30.7 48.35ZM30.7 40.55C33.5 40.55 35.7333 39.6167 37.4 37.75C39.1 35.8833 39.95 33.4167 39.95 30.35C39.95 27.25 39.1 24.7833 37.4 22.95C35.7333 21.0833 33.5 20.15 30.7 20.15C27.8667 20.15 25.6 21.0667 23.9 22.9C22.2333 24.7333 21.4 27.2167 21.4 30.35C21.4 33.45 22.2333 35.9333 23.9 37.8C25.6 39.6333 27.8667 40.55 30.7 40.55ZM71.3066 48L64.0066 34.75H61.9566V48H53.4066V12.9H67.7566C70.5233 12.9 72.8733 13.3833 74.8066 14.35C76.7733 15.3167 78.24 16.65 79.2066 18.35C80.1733 20.0167 80.6566 21.8833 80.6566 23.95C80.6566 26.2833 79.99 28.3667 78.6566 30.2C77.3566 32.0333 75.4233 33.3333 72.8566 34.1L80.9566 48H71.3066ZM61.9566 28.7H67.2566C68.8233 28.7 69.99 28.3167 70.7566 27.55C71.5566 26.7833 71.9566 25.7 71.9566 24.3C71.9566 22.9667 71.5566 21.9167 70.7566 21.15C69.99 20.3833 68.8233 20 67.2566 20H61.9566V28.7ZM125.774 12.9V48H117.224V26.95L109.374 48H102.474L94.5738 26.9V48H86.0238V12.9H96.1238L105.974 37.2L115.724 12.9H125.774ZM140.472 12.9V48H131.922V12.9H140.472ZM167.018 48L155.218 32.5V48H146.668V12.9H155.218V28.3L166.918 12.9H176.968L163.368 30.1L177.468 48H167.018ZM200.677 19.75V26.85H212.127V33.45H200.677V41.15H213.627V48H192.127V12.9H213.627V19.75H200.677ZM240.678 48L233.528 37.25L227.228 48H217.528L228.778 30.15L217.278 12.9H227.228L234.278 23.5L240.478 12.9H250.178L239.028 30.6L250.628 48H240.678ZM281.67 24.2C281.67 26.2333 281.204 28.1 280.27 29.8C279.337 31.4667 277.904 32.8167 275.97 33.85C274.037 34.8833 271.637 35.4 268.77 35.4H263.47V48H254.92V12.9H268.77C271.57 12.9 273.937 13.3833 275.87 14.35C277.804 15.3167 279.254 16.65 280.22 18.35C281.187 20.05 281.67 22 281.67 24.2ZM268.12 28.6C269.754 28.6 270.97 28.2167 271.77 27.45C272.57 26.6833 272.97 25.6 272.97 24.2C272.97 22.8 272.57 21.7167 271.77 20.95C270.97 20.1833 269.754 19.8 268.12 19.8H263.47V28.6H268.12ZM294.671 41.4H305.871V48H286.121V12.9H294.671V41.4ZM326.55 48.35C323.25 48.35 320.216 47.5833 317.45 46.05C314.716 44.5167 312.533 42.3833 310.9 39.65C309.3 36.8833 308.5 33.7833 308.5 30.35C308.5 26.9167 309.3 23.8333 310.9 21.1C312.533 18.3667 314.716 16.2333 317.45 14.7C320.216 13.1667 323.25 12.4 326.55 12.4C329.85 12.4 332.866 13.1667 335.6 14.7C338.366 16.2333 340.533 18.3667 342.1 21.1C343.7 23.8333 344.5 26.9167 344.5 30.35C344.5 33.7833 343.7 36.8833 342.1 39.65C340.5 42.3833 338.333 44.5167 335.6 46.05C332.866 47.5833 329.85 48.35 326.55 48.35ZM326.55 40.55C329.35 40.55 331.583 39.6167 333.25 37.75C334.95 35.8833 335.8 33.4167 335.8 30.35C335.8 27.25 334.95 24.7833 333.25 22.95C331.583 21.0833 329.35 20.15 326.55 20.15C323.716 20.15 321.45 21.0667 319.75 22.9C318.083 24.7333 317.25 27.2167 317.25 30.35C317.25 33.45 318.083 35.9333 319.75 37.8C321.45 39.6333 323.716 40.55 326.55 40.55ZM367.156 48L359.856 34.75H357.806V48H349.256V12.9H363.606C366.373 12.9 368.723 13.3833 370.656 14.35C372.623 15.3167 374.09 16.65 375.056 18.35C376.023 20.0167 376.506 21.8833 376.506 23.95C376.506 26.2833 375.84 28.3667 374.506 30.2C373.206 32.0333 371.273 33.3333 368.706 34.1L376.806 48H367.156ZM357.806 28.7H363.106C364.673 28.7 365.84 28.3167 366.606 27.55C367.406 26.7833 367.806 25.7 367.806 24.3C367.806 22.9667 367.406 21.9167 366.606 21.15C365.84 20.3833 364.673 20 363.106 20H357.806V28.7ZM390.423 19.75V26.85H401.873V33.45H390.423V41.15H403.373V48H381.873V12.9H403.373V19.75H390.423Z" fill="#E2DC00"/>
<defs>
<filter id="filter0_ii_2060_18" x="-0.322859" y="-1.57077" width="415.671" height="63.8915" filterUnits="userSpaceOnUse" color-interpolation-filters="sRGB">
<feFlood flood-opacity="0" result="BackgroundImageFix"/>
<feBlend mode="normal" in="SourceGraphic" in2="BackgroundImageFix" result="shape"/>
<feColorMatrix in="SourceAlpha" type="matrix" values="0 0 0 0 0 0 0 0 0 0 0 0 0 0 0 0 0 0 127 0" result="hardAlpha"/>
<feOffset dx="-0.997908" dy="1.99582"/>
<feGaussianBlur stdDeviation="1.99582"/>
<feComposite in2="hardAlpha" operator="arithmetic" k2="-1" k3="1"/>
<feColorMatrix type="matrix" values="0 0 0 0 1 0 0 0 0 1 0 0 0 0 1 0 0 0 0.5 0"/>
<feBlend mode="normal" in2="shape" result="effect1_innerShadow_2060_18"/>
<feColorMatrix in="SourceAlpha" type="matrix" values="0 0 0 0 0 0 0 0 0 0 0 0 0 0 0 0 0 0 127 0" result="hardAlpha"/>
<feOffset dy="-1.99582"/>
<feGaussianBlur stdDeviation="2.99372"/>
<feComposite in2="hardAlpha" operator="arithmetic" k2="-1" k3="1"/>
<feColorMatrix type="matrix" values="0 0 0 0 0 0 0 0 0 0 0 0 0 0 0 0 0 0 0.5 0"/>
<feBlend mode="normal" in2="effect1_innerShadow_2060_18" result="effect2_innerShadow_2060_18"/>
</filter>
<linearGradient id="paint0_linear_2060_18" x1="224.741" y1="-133.686" x2="225.52" y2="194.686" gradientUnits="userSpaceOnUse">
<stop offset="0.451923" stop-color="#000E61"/>
<stop offset="1" stop-color="#013EF9"/>
</linearGradient>
</defs>
</svg>
