<svg width="209" height="61" viewBox="0 0 209 61" fill="none" xmlns="http://www.w3.org/2000/svg">
<g filter="url(#filter0_ii_0_207)">
<mask id="path-1-outside-1_0_207" maskUnits="userSpaceOnUse" x="0" y="0" width="190" height="61" fill="black">
<rect fill="white" width="190" height="61"/>
<path d="M30.7 48.35C27.4 48.35 24.3667 47.5833 21.6 46.05C18.8667 44.5167 16.6833 42.3833 15.05 39.65C13.45 36.8833 12.65 33.7833 12.65 30.35C12.65 26.9167 13.45 23.8333 15.05 21.1C16.6833 18.3667 18.8667 16.2333 21.6 14.7C24.3667 13.1667 27.4 12.4 30.7 12.4C34 12.4 37.0167 13.1667 39.75 14.7C42.5167 16.2333 44.6833 18.3667 46.25 21.1C47.85 23.8333 48.65 26.9167 48.65 30.35C48.65 33.7833 47.85 36.8833 46.25 39.65C44.65 42.3833 42.4833 44.5167 39.75 46.05C37.0167 47.5833 34 48.35 30.7 48.35ZM30.7 40.55C33.5 40.55 35.7333 39.6167 37.4 37.75C39.1 35.8833 39.95 33.4167 39.95 30.35C39.95 27.25 39.1 24.7833 37.4 22.95C35.7333 21.0833 33.5 20.15 30.7 20.15C27.8667 20.15 25.6 21.0667 23.9 22.9C22.2333 24.7333 21.4 27.2167 21.4 30.35C21.4 33.45 22.2333 35.9333 23.9 37.8C25.6 39.6333 27.8667 40.55 30.7 40.55ZM71.3066 48L64.0066 34.75H61.9566V48H53.4066V12.9H67.7566C70.5233 12.9 72.8733 13.3833 74.8066 14.35C76.7733 15.3167 78.24 16.65 79.2066 18.35C80.1733 20.0167 80.6566 21.8833 80.6566 23.95C80.6566 26.2833 79.99 28.3667 78.6566 30.2C77.3566 32.0333 75.4233 33.3333 72.8566 34.1L80.9566 48H71.3066ZM61.9566 28.7H67.2566C68.8233 28.7 69.99 28.3167 70.7566 27.55C71.5566 26.7833 71.9566 25.7 71.9566 24.3C71.9566 22.9667 71.5566 21.9167 70.7566 21.15C69.99 20.3833 68.8233 20 67.2566 20H61.9566V28.7ZM125.774 12.9V48H117.224V26.95L109.374 48H102.474L94.5738 26.9V48H86.0238V12.9H96.1238L105.974 37.2L115.724 12.9H125.774ZM140.472 12.9V48H131.922V12.9H140.472ZM167.018 48L155.218 32.5V48H146.668V12.9H155.218V28.3L166.918 12.9H176.968L163.368 30.1L177.468 48H167.018Z"/>
</mask>
<path d="M21.6 46.05L15.7413 56.4938C15.7592 56.5039 15.7772 56.5139 15.7952 56.5239L21.6 46.05ZM15.05 39.65L4.68376 45.6449C4.71234 45.6944 4.74128 45.7436 4.77057 45.7926L15.05 39.65ZM15.05 21.1L4.77057 14.9574C4.75207 14.9884 4.73371 15.0194 4.71549 15.0505L15.05 21.1ZM21.6 14.7L15.7952 4.22611C15.7772 4.23609 15.7592 4.24611 15.7413 4.25618L21.6 14.7ZM39.75 14.7L33.8913 25.1438C33.9092 25.1539 33.9272 25.1639 33.9452 25.1739L39.75 14.7ZM46.25 21.1L35.8607 27.0549C35.8788 27.0865 35.8971 27.118 35.9155 27.1495L46.25 21.1ZM46.25 39.65L56.5845 45.6995C56.5951 45.6813 56.6057 45.6631 56.6162 45.6449L46.25 39.65ZM39.75 46.05L45.6087 56.4938L45.6087 56.4938L39.75 46.05ZM37.4 37.75L28.5465 29.6869C28.52 29.716 28.4937 29.7452 28.4675 29.7745L37.4 37.75ZM37.4 22.95L28.4675 30.9255C28.5175 30.9815 28.5681 31.0371 28.6192 31.0922L37.4 22.95ZM23.9 22.9L15.1192 14.7578C15.0924 14.7867 15.0658 14.8157 15.0393 14.8448L23.9 22.9ZM23.9 37.8L14.9675 45.7755C15.0175 45.8315 15.0681 45.8871 15.1192 45.9422L23.9 37.8ZM30.7 48.35V36.3751C29.3397 36.3751 28.317 36.0817 27.4048 35.5761L21.6 46.05L15.7952 56.5239C20.4163 59.085 25.4603 60.3249 30.7 60.3249V48.35ZM21.6 46.05L27.4587 35.6062C26.5796 35.113 25.908 34.4757 25.3294 33.5074L15.05 39.65L4.77057 45.7926C7.45862 50.291 11.1537 53.9203 15.7413 56.4938L21.6 46.05ZM15.05 39.65L25.4162 33.6551C24.9481 32.8456 24.6249 31.84 24.6249 30.35H12.65H0.675103C0.675103 35.7267 1.95189 40.9211 4.68376 45.6449L15.05 39.65ZM12.65 30.35H24.6249C24.6249 28.8585 24.9482 27.8948 25.3845 27.1495L15.05 21.1L4.71549 15.0505C1.95177 19.7719 0.675103 24.9748 0.675103 30.35H12.65ZM15.05 21.1L25.3294 27.2426C25.908 26.2743 26.5796 25.637 27.4587 25.1438L21.6 14.7L15.7413 4.25618C11.1537 6.82968 7.45863 10.459 4.77057 14.9574L15.05 21.1ZM21.6 14.7L27.4048 25.1739C28.317 24.6683 29.3397 24.3749 30.7 24.3749V12.4V0.425103C25.4603 0.425103 20.4163 1.66499 15.7952 4.22611L21.6 14.7ZM30.7 12.4V24.3749C32.0608 24.3749 33.0432 24.6681 33.8913 25.1438L39.75 14.7L45.6087 4.25618C40.9901 1.66526 35.9392 0.425103 30.7 0.425103V12.4ZM39.75 14.7L33.9452 25.1739C34.808 25.6521 35.3857 26.2261 35.8607 27.0549L46.25 21.1L56.6393 15.1451C53.981 10.5072 50.2253 6.8146 45.5548 4.22611L39.75 14.7ZM46.25 21.1L35.9155 27.1495C36.3518 27.8948 36.6751 28.8585 36.6751 30.35H48.65H60.6249C60.6249 24.9748 59.3482 19.7719 56.5845 15.0505L46.25 21.1ZM48.65 30.35H36.6751C36.6751 31.84 36.3519 32.8456 35.8838 33.6551L46.25 39.65L56.6162 45.6449C59.3481 40.9211 60.6249 35.7267 60.6249 30.35H48.65ZM46.25 39.65L35.9155 33.6005C35.3785 34.5179 34.7482 35.1255 33.8913 35.6062L39.75 46.05L45.6087 56.4938C50.2185 53.9079 53.9215 50.2488 56.5845 45.6995L46.25 39.65ZM39.75 46.05L33.8913 35.6062C33.0432 36.0819 32.0608 36.3751 30.7 36.3751V48.35V60.3249C35.9392 60.3249 40.9901 59.0847 45.6087 56.4938L39.75 46.05ZM30.7 40.55V52.5249C36.4595 52.5249 42.1095 50.4553 46.3325 45.7255L37.4 37.75L28.4675 29.7745C28.7835 29.4206 29.2679 29.0476 29.8576 28.8011C30.4146 28.5683 30.7607 28.5751 30.7 28.5751V40.55ZM37.4 37.75L46.2535 45.8131C50.3731 41.2896 51.9249 35.7263 51.9249 30.35H39.95H27.9751C27.9751 30.7831 27.9151 30.8189 27.9909 30.5986C28.029 30.4883 28.0935 30.3368 28.1951 30.1642C28.2972 29.9907 28.4175 29.8285 28.5465 29.6869L37.4 37.75ZM39.95 30.35H51.9249C51.9249 24.9888 50.3974 19.355 46.1808 14.8078L37.4 22.95L28.6192 31.0922C28.4673 30.9284 28.3299 30.7445 28.2157 30.5519C28.1022 30.3605 28.0317 30.1945 27.9909 30.0763C27.9107 29.8435 27.9751 29.8845 27.9751 30.35H39.95ZM37.4 22.95L46.3325 14.9745C42.1095 10.2447 36.4595 8.1751 30.7 8.1751V20.15V32.1249C30.7607 32.1249 30.4146 32.1317 29.8576 31.8989C29.2679 31.6524 28.7835 31.2794 28.4675 30.9255L37.4 22.95ZM30.7 20.15V8.1751C25.0235 8.1751 19.398 10.1434 15.1192 14.7578L23.9 22.9L32.6808 31.0422C32.3629 31.3851 31.8991 31.7228 31.3646 31.9389C30.8635 32.1416 30.5807 32.1249 30.7 32.1249V20.15ZM23.9 22.9L15.0393 14.8448C10.8795 19.4206 9.4251 25.0554 9.4251 30.35H21.4H33.3749C33.3749 29.832 33.4448 29.7472 33.3777 29.9471C33.3432 30.0502 33.2787 30.2085 33.1687 30.3983C33.0578 30.5898 32.92 30.78 32.7607 30.9552L23.9 22.9ZM21.4 30.35H9.4251C9.4251 35.6602 10.9034 41.2237 14.9675 45.7755L23.9 37.8L32.8325 29.8245C32.9687 29.977 33.0896 30.1452 33.1887 30.3175C33.287 30.4885 33.3457 30.6323 33.3777 30.7279C33.4408 30.9157 33.3749 30.8361 33.3749 30.35H21.4ZM23.9 37.8L15.1192 45.9422C19.398 50.5566 25.0235 52.5249 30.7 52.5249V40.55V28.5751C30.5807 28.5751 30.8635 28.5584 31.3646 28.7611C31.8991 28.9772 32.3629 29.3149 32.6808 29.6578L23.9 37.8ZM71.3066 48L60.8182 53.7785C62.9241 57.6008 66.9426 59.9749 71.3066 59.9749V48ZM64.0066 34.75L74.4951 28.9715C72.3892 25.1492 68.3707 22.7751 64.0066 22.7751V34.75ZM61.9566 34.75V22.7751C55.3431 22.7751 49.9817 28.1364 49.9817 34.75H61.9566ZM61.9566 48V59.9749C68.5702 59.9749 73.9315 54.6136 73.9315 48H61.9566ZM53.4066 48H41.4317C41.4317 54.6136 46.7931 59.9749 53.4066 59.9749V48ZM53.4066 12.9V0.925102C46.7931 0.925102 41.4317 6.28645 41.4317 12.9H53.4066ZM74.8066 14.35L69.4513 25.0607C69.4756 25.0728 69.4999 25.0849 69.5243 25.0969L74.8066 14.35ZM79.2066 18.35L68.797 24.2692C68.8139 24.2989 68.8309 24.3285 68.848 24.358L79.2066 18.35ZM78.6566 30.2L68.9721 23.1567C68.944 23.1954 68.916 23.2343 68.8883 23.2734L78.6566 30.2ZM72.8566 34.1L69.4294 22.626C65.9115 23.6768 63.07 26.2834 61.7203 29.6977C60.3706 33.1121 60.6617 36.957 62.5103 40.1292L72.8566 34.1ZM80.9566 48V59.9749C85.2435 59.9749 89.2033 57.6834 91.3392 53.9665C93.4752 50.2497 93.4614 45.6747 91.303 41.9708L80.9566 48ZM61.9566 28.7H49.9817C49.9817 35.3136 55.3431 40.6749 61.9566 40.6749V28.7ZM70.7566 27.55L62.4711 18.9043C62.4098 18.963 62.3492 19.0224 62.2891 19.0825L70.7566 27.55ZM70.7566 21.15L62.2891 29.6175C62.3492 29.6776 62.4098 29.737 62.4711 29.7957L70.7566 21.15ZM61.9566 20V8.0251C55.3431 8.0251 49.9817 13.3864 49.9817 20H61.9566ZM71.3066 48L81.7951 42.2215L74.4951 28.9715L64.0066 34.75L53.5182 40.5285L60.8182 53.7785L71.3066 48ZM64.0066 34.75V22.7751H61.9566V34.75V46.7249H64.0066V34.75ZM61.9566 34.75H49.9817V48H61.9566H73.9315V34.75H61.9566ZM61.9566 48V36.0251H53.4066V48V59.9749H61.9566V48ZM53.4066 48H65.3815V12.9H53.4066H41.4317V48H53.4066ZM53.4066 12.9V24.8749H67.7566V12.9V0.925102H53.4066V12.9ZM67.7566 12.9V24.8749C69.1688 24.8749 69.5798 25.1249 69.4513 25.0607L74.8066 14.35L80.162 3.63932C76.1668 1.64174 71.8778 0.925102 67.7566 0.925102V12.9ZM74.8066 14.35L69.5243 25.0969C69.6046 25.1363 69.5068 25.0997 69.3265 24.9357C69.1375 24.764 68.9469 24.5328 68.797 24.2692L79.2066 18.35L89.6163 12.4308C87.3227 8.39728 83.9404 5.49619 80.089 3.60314L74.8066 14.35ZM79.2066 18.35L68.848 24.358C68.7849 24.2492 68.7325 24.121 68.7015 24.0017C68.6719 23.887 68.6817 23.8571 68.6817 23.95H80.6566H92.6315C92.6315 19.9318 91.6675 15.9664 89.5653 12.342L79.2066 18.35ZM80.6566 23.95H68.6817C68.6817 23.9607 68.6829 23.8272 68.7515 23.6128C68.8212 23.395 68.9156 23.2344 68.9721 23.1567L78.6566 30.2L88.3412 37.2433C91.2091 33.2999 92.6315 28.7347 92.6315 23.95H80.6566ZM78.6566 30.2L68.8883 23.2734C68.9899 23.1302 69.1058 22.9953 69.2294 22.8755C69.3524 22.7563 69.4644 22.67 69.5497 22.6127C69.7213 22.4973 69.7262 22.5374 69.4294 22.626L72.8566 34.1L76.2839 45.574C80.9034 44.1941 85.2966 41.5384 88.425 37.1266L78.6566 30.2ZM72.8566 34.1L62.5103 40.1292L70.6103 54.0292L80.9566 48L91.303 41.9708L83.203 28.0708L72.8566 34.1ZM80.9566 48V36.0251H71.3066V48V59.9749H80.9566V48ZM61.9566 28.7V40.6749H67.2566V28.7V16.7251H61.9566V28.7ZM67.2566 28.7V40.6749C70.5821 40.6749 75.3767 39.865 79.2242 36.0175L70.7566 27.55L62.2891 19.0825C64.6033 16.7683 67.0645 16.7251 67.2566 16.7251V28.7ZM70.7566 27.55L79.0421 36.1957C82.7846 32.6092 83.9315 28.053 83.9315 24.3H71.9566H59.9817C59.9817 23.8759 60.041 23.0494 60.423 22.0147C60.8247 20.9269 61.5044 19.8308 62.4711 18.9043L70.7566 27.55ZM71.9566 24.3H83.9315C83.9315 20.4169 82.6693 15.9803 79.0421 12.5043L70.7566 21.15L62.4711 29.7957C61.5716 28.9337 60.8887 27.8845 60.4663 26.7755C60.0607 25.7109 59.9817 24.8244 59.9817 24.3H71.9566ZM70.7566 21.15L79.2242 12.6825C75.3767 8.83495 70.5821 8.0251 67.2566 8.0251V20V31.9749C67.0645 31.9749 64.6033 31.9317 62.2891 29.6175L70.7566 21.15ZM67.2566 20V8.0251H61.9566V20V31.9749H67.2566V20ZM61.9566 20H49.9817V28.7H61.9566H73.9315V20H61.9566ZM125.774 12.9H137.749C137.749 6.28645 132.387 0.925102 125.774 0.925102V12.9ZM125.774 48V59.9749C132.387 59.9749 137.749 54.6136 137.749 48H125.774ZM117.224 48H105.249C105.249 54.6136 110.61 59.9749 117.224 59.9749V48ZM117.224 26.95H129.199C129.199 21.1565 125.051 16.1938 119.35 15.1653C113.648 14.1368 108.028 17.3374 106.004 22.7658L117.224 26.95ZM109.374 48V59.9749C114.373 59.9749 118.847 56.8687 120.594 52.1842L109.374 48ZM102.474 48L91.2592 52.1988C93.0103 56.8757 97.4799 59.9749 102.474 59.9749V48ZM94.5738 26.9L105.788 22.7012C103.758 17.2782 98.1382 14.085 92.4403 15.1167C86.7423 16.1484 82.5989 21.1094 82.5989 26.9H94.5738ZM94.5738 48V59.9749C101.187 59.9749 106.549 54.6136 106.549 48H94.5738ZM86.0238 48H74.0489C74.0489 54.6136 79.4103 59.9749 86.0238 59.9749V48ZM86.0238 12.9V0.925102C79.4103 0.925102 74.0489 6.28645 74.0489 12.9H86.0238ZM96.1238 12.9L107.222 8.4015C105.39 3.88217 101 0.925102 96.1238 0.925102V12.9ZM105.974 37.2L94.876 41.6985C96.7108 46.225 101.111 49.1835 105.995 49.1749C110.879 49.1662 115.269 46.1921 117.088 41.6592L105.974 37.2ZM115.724 12.9V0.925102C110.832 0.925102 106.432 3.90069 104.61 8.44081L115.724 12.9ZM125.774 12.9H113.799V48H125.774H137.749V12.9H125.774ZM125.774 48V36.0251H117.224V48V59.9749H125.774V48ZM117.224 48H129.199V26.95H117.224H105.249V48H117.224ZM117.224 26.95L106.004 22.7658L98.1537 43.8158L109.374 48L120.594 52.1842L128.444 31.1342L117.224 26.95ZM109.374 48V36.0251H102.474V48V59.9749H109.374V48ZM102.474 48L113.688 43.8012L105.788 22.7012L94.5738 26.9L83.3592 31.0988L91.2592 52.1988L102.474 48ZM94.5738 26.9H82.5989V48H94.5738H106.549V26.9H94.5738ZM94.5738 48V36.0251H86.0238V48V59.9749H94.5738V48ZM86.0238 48H97.9987V12.9H86.0238H74.0489V48H86.0238ZM86.0238 12.9V24.8749H96.1238V12.9V0.925102H86.0238V12.9ZM96.1238 12.9L85.026 17.3985L94.876 41.6985L105.974 37.2L117.072 32.7015L107.222 8.4015L96.1238 12.9ZM105.974 37.2L117.088 41.6592L126.838 17.3592L115.724 12.9L104.61 8.44081L94.8602 32.7408L105.974 37.2ZM115.724 12.9V24.8749H125.774V12.9V0.925102H115.724V12.9ZM140.472 12.9H152.447C152.447 6.28645 147.086 0.925102 140.472 0.925102V12.9ZM140.472 48V59.9749C147.086 59.9749 152.447 54.6136 152.447 48H140.472ZM131.922 48H119.947C119.947 54.6136 125.309 59.9749 131.922 59.9749V48ZM131.922 12.9V0.925102C125.309 0.925102 119.947 6.28645 119.947 12.9H131.922ZM140.472 12.9H128.497V48H140.472H152.447V12.9H140.472ZM140.472 48V36.0251H131.922V48V59.9749H140.472V48ZM131.922 48H143.897V12.9H131.922H119.947V48H131.922ZM131.922 12.9V24.8749H140.472V12.9V0.925102H131.922V12.9ZM167.018 48L157.49 55.2536C159.755 58.2285 163.279 59.9749 167.018 59.9749V48ZM155.218 32.5L164.746 25.2464C161.634 21.1578 156.26 19.5108 151.391 21.1533C146.522 22.7957 143.243 27.3615 143.243 32.5H155.218ZM155.218 48V59.9749C161.832 59.9749 167.193 54.6136 167.193 48H155.218ZM146.668 48H134.693C134.693 54.6136 140.055 59.9749 146.668 59.9749V48ZM146.668 12.9V0.925102C140.055 0.925102 134.693 6.28645 134.693 12.9H146.668ZM155.218 12.9H167.193C167.193 6.28645 161.832 0.925102 155.218 0.925102V12.9ZM155.218 28.3H143.243C143.243 33.4407 146.525 38.0078 151.396 39.6486C156.268 41.2893 161.644 39.6376 164.754 35.5442L155.218 28.3ZM166.918 12.9V0.925102C163.175 0.925102 159.648 2.67531 157.383 5.65576L166.918 12.9ZM176.968 12.9L186.362 20.3273C189.209 16.7261 189.747 11.814 187.747 7.68188C185.746 3.54977 181.559 0.925102 176.968 0.925102V12.9ZM163.368 30.1L153.975 22.6727C150.538 27.0196 150.532 33.1568 153.961 37.5099L163.368 30.1ZM177.468 48V59.9749C182.055 59.9749 186.239 57.3547 188.242 53.228C190.244 49.1014 189.714 44.1933 186.875 40.5901L177.468 48ZM167.018 48L176.546 40.7464L164.746 25.2464L155.218 32.5L145.69 39.7536L157.49 55.2536L167.018 48ZM155.218 32.5H143.243V48H155.218H167.193V32.5H155.218ZM155.218 48V36.0251H146.668V48V59.9749H155.218V48ZM146.668 48H158.643V12.9H146.668H134.693V48H146.668ZM146.668 12.9V24.8749H155.218V12.9V0.925102H146.668V12.9ZM155.218 12.9H143.243V28.3H155.218H167.193V12.9H155.218ZM155.218 28.3L164.754 35.5442L176.454 20.1442L166.918 12.9L157.383 5.65576L145.683 21.0558L155.218 28.3ZM166.918 12.9V24.8749H176.968V12.9V0.925102H166.918V12.9ZM176.968 12.9L167.575 5.47274L153.975 22.6727L163.368 30.1L172.762 37.5273L186.362 20.3273L176.968 12.9ZM163.368 30.1L153.961 37.5099L168.061 55.4099L177.468 48L186.875 40.5901L172.775 22.6901L163.368 30.1ZM177.468 48V36.0251H167.018V48V59.9749H177.468V48Z" fill="url(#paint0_linear_0_207)" mask="url(#path-1-outside-1_0_207)"/>
</g>
<path d="M30.7 48.35C27.4 48.35 24.3667 47.5833 21.6 46.05C18.8667 44.5167 16.6833 42.3833 15.05 39.65C13.45 36.8833 12.65 33.7833 12.65 30.35C12.65 26.9167 13.45 23.8333 15.05 21.1C16.6833 18.3667 18.8667 16.2333 21.6 14.7C24.3667 13.1667 27.4 12.4 30.7 12.4C34 12.4 37.0167 13.1667 39.75 14.7C42.5167 16.2333 44.6833 18.3667 46.25 21.1C47.85 23.8333 48.65 26.9167 48.65 30.35C48.65 33.7833 47.85 36.8833 46.25 39.65C44.65 42.3833 42.4833 44.5167 39.75 46.05C37.0167 47.5833 34 48.35 30.7 48.35ZM30.7 40.55C33.5 40.55 35.7333 39.6167 37.4 37.75C39.1 35.8833 39.95 33.4167 39.95 30.35C39.95 27.25 39.1 24.7833 37.4 22.95C35.7333 21.0833 33.5 20.15 30.7 20.15C27.8667 20.15 25.6 21.0667 23.9 22.9C22.2333 24.7333 21.4 27.2167 21.4 30.35C21.4 33.45 22.2333 35.9333 23.9 37.8C25.6 39.6333 27.8667 40.55 30.7 40.55ZM71.3066 48L64.0066 34.75H61.9566V48H53.4066V12.9H67.7566C70.5233 12.9 72.8733 13.3833 74.8066 14.35C76.7733 15.3167 78.24 16.65 79.2066 18.35C80.1733 20.0167 80.6566 21.8833 80.6566 23.95C80.6566 26.2833 79.99 28.3667 78.6566 30.2C77.3566 32.0333 75.4233 33.3333 72.8566 34.1L80.9566 48H71.3066ZM61.9566 28.7H67.2566C68.8233 28.7 69.99 28.3167 70.7566 27.55C71.5566 26.7833 71.9566 25.7 71.9566 24.3C71.9566 22.9667 71.5566 21.9167 70.7566 21.15C69.99 20.3833 68.8233 20 67.2566 20H61.9566V28.7ZM125.774 12.9V48H117.224V26.95L109.374 48H102.474L94.5738 26.9V48H86.0238V12.9H96.1238L105.974 37.2L115.724 12.9H125.774ZM140.472 12.9V48H131.922V12.9H140.472ZM167.018 48L155.218 32.5V48H146.668V12.9H155.218V28.3L166.918 12.9H176.968L163.368 30.1L177.468 48H167.018Z" fill="#E2DC00"/>
<defs>
<filter id="filter0_ii_0_207" x="-0.322859" y="-1.57077" width="189.766" height="63.8915" filterUnits="userSpaceOnUse" color-interpolation-filters="sRGB">
<feFlood flood-opacity="0" result="BackgroundImageFix"/>
<feBlend mode="normal" in="SourceGraphic" in2="BackgroundImageFix" result="shape"/>
<feColorMatrix in="SourceAlpha" type="matrix" values="0 0 0 0 0 0 0 0 0 0 0 0 0 0 0 0 0 0 127 0" result="hardAlpha"/>
<feOffset dx="-0.997908" dy="1.99582"/>
<feGaussianBlur stdDeviation="1.99582"/>
<feComposite in2="hardAlpha" operator="arithmetic" k2="-1" k3="1"/>
<feColorMatrix type="matrix" values="0 0 0 0 1 0 0 0 0 1 0 0 0 0 1 0 0 0 0.5 0"/>
<feBlend mode="normal" in2="shape" result="effect1_innerShadow_0_207"/>
<feColorMatrix in="SourceAlpha" type="matrix" values="0 0 0 0 0 0 0 0 0 0 0 0 0 0 0 0 0 0 127 0" result="hardAlpha"/>
<feOffset dy="-1.99582"/>
<feGaussianBlur stdDeviation="2.99372"/>
<feComposite in2="hardAlpha" operator="arithmetic" k2="-1" k3="1"/>
<feColorMatrix type="matrix" values="0 0 0 0 0 0 0 0 0 0 0 0 0 0 0 0 0 0 0.5 0"/>
<feBlend mode="normal" in2="effect1_innerShadow_0_207" result="effect2_innerShadow_0_207"/>
</filter>
<linearGradient id="paint0_linear_0_207" x1="104.578" y1="-133.686" x2="106.358" y2="194.678" gradientUnits="userSpaceOnUse">
<stop offset="0.451923" stop-color="#000E61"/>
<stop offset="1" stop-color="#013EF9"/>
</linearGradient>
</defs>
</svg>
