<svg width="189" height="96" viewBox="0 0 189 96" fill="none" xmlns="http://www.w3.org/2000/svg">
<g filter="url(#filter0_ii_0_103)">
<mask id="path-1-outside-1_0_103" maskUnits="userSpaceOnUse" x="0" y="6" width="177" height="85" fill="black">
<rect fill="white" y="6" width="177" height="85"/>
<path d="M17.99 23.05V27.31H24.86V31.27H17.99V35.89H25.76V40H12.86V18.94H25.76V23.05H17.99ZM41.9905 40L37.7005 33.55L33.9205 40H28.1005L34.8505 29.29L27.9505 18.94H33.9205L38.1505 25.3L41.8705 18.94H47.6905L41.0005 29.56L47.9605 40H41.9905ZM66.5858 25.72C66.5858 26.94 66.3058 28.06 65.7458 29.08C65.1858 30.08 64.3258 30.89 63.1658 31.51C62.0058 32.13 60.5658 32.44 58.8458 32.44H55.6658V40H50.5358V18.94H58.8458C60.5258 18.94 61.9458 19.23 63.1058 19.81C64.2658 20.39 65.1358 21.19 65.7158 22.21C66.2958 23.23 66.5858 24.4 66.5858 25.72ZM58.4558 28.36C59.4358 28.36 60.1658 28.13 60.6458 27.67C61.1258 27.21 61.3658 26.56 61.3658 25.72C61.3658 24.88 61.1258 24.23 60.6458 23.77C60.1658 23.31 59.4358 23.08 58.4558 23.08H55.6658V28.36H58.4558ZM74.3865 36.04H81.1065V40H69.2565V18.94H74.3865V36.04ZM93.5134 40.21C91.5334 40.21 89.7134 39.75 88.0534 38.83C86.4134 37.91 85.1034 36.63 84.1234 34.99C83.1634 33.33 82.6834 31.47 82.6834 29.41C82.6834 27.35 83.1634 25.5 84.1234 23.86C85.1034 22.22 86.4134 20.94 88.0534 20.02C89.7134 19.1 91.5334 18.64 93.5134 18.64C95.4934 18.64 97.3034 19.1 98.9434 20.02C100.603 20.94 101.903 22.22 102.843 23.86C103.803 25.5 104.283 27.35 104.283 29.41C104.283 31.47 103.803 33.33 102.843 34.99C101.883 36.63 100.583 37.91 98.9434 38.83C97.3034 39.75 95.4934 40.21 93.5134 40.21ZM93.5134 35.53C95.1934 35.53 96.5334 34.97 97.5334 33.85C98.5534 32.73 99.0634 31.25 99.0634 29.41C99.0634 27.55 98.5534 26.07 97.5334 24.97C96.5334 23.85 95.1934 23.29 93.5134 23.29C91.8134 23.29 90.4534 23.84 89.4334 24.94C88.4334 26.04 87.9334 27.53 87.9334 29.41C87.9334 31.27 88.4334 32.76 89.4334 33.88C90.4534 34.98 91.8134 35.53 93.5134 35.53ZM117.877 40L113.497 32.05H112.267V40H107.137V18.94H115.747C117.407 18.94 118.817 19.23 119.977 19.81C121.157 20.39 122.037 21.19 122.617 22.21C123.197 23.21 123.487 24.33 123.487 25.57C123.487 26.97 123.087 28.22 122.287 29.32C121.507 30.42 120.347 31.2 118.807 31.66L123.667 40H117.877ZM112.267 28.42H115.447C116.387 28.42 117.087 28.19 117.547 27.73C118.027 27.27 118.267 26.62 118.267 25.78C118.267 24.98 118.027 24.35 117.547 23.89C117.087 23.43 116.387 23.2 115.447 23.2H112.267V28.42ZM131.838 23.05V27.31H138.708V31.27H131.838V35.89H139.608V40H126.708V18.94H139.608V23.05H131.838ZM22.82 78.21C20.84 78.21 19.02 77.75 17.36 76.83C15.72 75.91 14.41 74.63 13.43 72.99C12.47 71.33 11.99 69.47 11.99 67.41C11.99 65.35 12.47 63.5 13.43 61.86C14.41 60.22 15.72 58.94 17.36 58.02C19.02 57.1 20.84 56.64 22.82 56.64C24.8 56.64 26.61 57.1 28.25 58.02C29.91 58.94 31.21 60.22 32.15 61.86C33.11 63.5 33.59 65.35 33.59 67.41C33.59 69.47 33.11 71.33 32.15 72.99C31.19 74.63 29.89 75.91 28.25 76.83C26.61 77.75 24.8 78.21 22.82 78.21ZM22.82 73.53C24.5 73.53 25.84 72.97 26.84 71.85C27.86 70.73 28.37 69.25 28.37 67.41C28.37 65.55 27.86 64.07 26.84 62.97C25.84 61.85 24.5 61.29 22.82 61.29C21.12 61.29 19.76 61.84 18.74 62.94C17.74 64.04 17.24 65.53 17.24 67.41C17.24 69.27 17.74 70.76 18.74 71.88C19.76 72.98 21.12 73.53 22.82 73.53ZM41.484 56.94V69.54C41.484 70.8 41.794 71.77 42.414 72.45C43.034 73.13 43.944 73.47 45.144 73.47C46.344 73.47 47.264 73.13 47.904 72.45C48.544 71.77 48.864 70.8 48.864 69.54V56.94H53.994V69.51C53.994 71.39 53.594 72.98 52.794 74.28C51.994 75.58 50.914 76.56 49.554 77.22C48.214 77.88 46.714 78.21 45.054 78.21C43.394 78.21 41.904 77.89 40.584 77.25C39.284 76.59 38.254 75.61 37.494 74.31C36.734 72.99 36.354 71.39 36.354 69.51V56.94H41.484ZM68.3363 78L63.9563 70.05H62.7263V78H57.5963V56.94H66.2063C67.8663 56.94 69.2763 57.23 70.4363 57.81C71.6163 58.39 72.4963 59.19 73.0763 60.21C73.6563 61.21 73.9463 62.33 73.9463 63.57C73.9463 64.97 73.5463 66.22 72.7463 67.32C71.9663 68.42 70.8063 69.2 69.2663 69.66L74.1263 78H68.3363ZM62.7263 66.42H65.9063C66.8463 66.42 67.5463 66.19 68.0063 65.73C68.4863 65.27 68.7263 64.62 68.7263 63.78C68.7263 62.98 68.4863 62.35 68.0063 61.89C67.5463 61.43 66.8463 61.2 65.9063 61.2H62.7263V66.42ZM88.6541 74.04H95.3741V78H83.5241V56.94H88.6541V74.04ZM107.781 78.21C105.801 78.21 103.981 77.75 102.321 76.83C100.681 75.91 99.3709 74.63 98.3909 72.99C97.4309 71.33 96.9509 69.47 96.9509 67.41C96.9509 65.35 97.4309 63.5 98.3909 61.86C99.3709 60.22 100.681 58.94 102.321 58.02C103.981 57.1 105.801 56.64 107.781 56.64C109.761 56.64 111.571 57.1 113.211 58.02C114.871 58.94 116.171 60.22 117.111 61.86C118.071 63.5 118.551 65.35 118.551 67.41C118.551 69.47 118.071 71.33 117.111 72.99C116.151 74.63 114.851 75.91 113.211 76.83C111.571 77.75 109.761 78.21 107.781 78.21ZM107.781 73.53C109.461 73.53 110.801 72.97 111.801 71.85C112.821 70.73 113.331 69.25 113.331 67.41C113.331 65.55 112.821 64.07 111.801 62.97C110.801 61.85 109.461 61.29 107.781 61.29C106.081 61.29 104.721 61.84 103.701 62.94C102.701 64.04 102.201 65.53 102.201 67.41C102.201 69.27 102.701 70.76 103.701 71.88C104.721 72.98 106.081 73.53 107.781 73.53ZM135.385 63.6C135.005 62.9 134.455 62.37 133.735 62.01C133.035 61.63 132.205 61.44 131.245 61.44C129.585 61.44 128.255 61.99 127.255 63.09C126.255 64.17 125.755 65.62 125.755 67.44C125.755 69.38 126.275 70.9 127.315 72C128.375 73.08 129.825 73.62 131.665 73.62C132.925 73.62 133.985 73.3 134.845 72.66C135.725 72.02 136.365 71.1 136.765 69.9H130.255V66.12H141.415V70.89C141.035 72.17 140.385 73.36 139.465 74.46C138.565 75.56 137.415 76.45 136.015 77.13C134.615 77.81 133.035 78.15 131.275 78.15C129.195 78.15 127.335 77.7 125.695 76.8C124.075 75.88 122.805 74.61 121.885 72.99C120.985 71.37 120.535 69.52 120.535 67.44C120.535 65.36 120.985 63.51 121.885 61.89C122.805 60.25 124.075 58.98 125.695 58.08C127.315 57.16 129.165 56.7 131.245 56.7C133.765 56.7 135.885 57.31 137.605 58.53C139.345 59.75 140.495 61.44 141.055 63.6H135.385ZM154.216 78.21C152.236 78.21 150.416 77.75 148.756 76.83C147.116 75.91 145.806 74.63 144.826 72.99C143.866 71.33 143.386 69.47 143.386 67.41C143.386 65.35 143.866 63.5 144.826 61.86C145.806 60.22 147.116 58.94 148.756 58.02C150.416 57.1 152.236 56.64 154.216 56.64C156.196 56.64 158.006 57.1 159.646 58.02C161.306 58.94 162.606 60.22 163.546 61.86C164.506 63.5 164.986 65.35 164.986 67.41C164.986 69.47 164.506 71.33 163.546 72.99C162.586 74.63 161.286 75.91 159.646 76.83C158.006 77.75 156.196 78.21 154.216 78.21ZM154.216 73.53C155.896 73.53 157.236 72.97 158.236 71.85C159.256 70.73 159.766 69.25 159.766 67.41C159.766 65.55 159.256 64.07 158.236 62.97C157.236 61.85 155.896 61.29 154.216 61.29C152.516 61.29 151.156 61.84 150.136 62.94C149.136 64.04 148.636 65.53 148.636 67.41C148.636 69.27 149.136 70.76 150.136 71.88C151.156 72.98 152.516 73.53 154.216 73.53Z"/>
</mask>
<path d="M17.99 23.05V11.0751C11.3764 11.0751 6.0151 16.4364 6.0151 23.05H17.99ZM17.99 27.31H6.0151C6.0151 33.9236 11.3764 39.2849 17.99 39.2849V27.31ZM24.86 27.31H36.8349C36.8349 20.6964 31.4736 15.3351 24.86 15.3351V27.31ZM24.86 31.27V43.2449C31.4736 43.2449 36.8349 37.8836 36.8349 31.27H24.86ZM17.99 31.27V19.2951C11.3764 19.2951 6.0151 24.6564 6.0151 31.27H17.99ZM17.99 35.89H6.0151C6.0151 42.5036 11.3764 47.8649 17.99 47.8649V35.89ZM25.76 35.89H37.7349C37.7349 29.2764 32.3736 23.9151 25.76 23.9151V35.89ZM25.76 40V51.9749C32.3736 51.9749 37.7349 46.6136 37.7349 40H25.76ZM12.86 40H0.885103C0.885103 46.6136 6.24645 51.9749 12.86 51.9749V40ZM12.86 18.94V6.9651C6.24645 6.9651 0.885103 12.3264 0.885103 18.94H12.86ZM25.76 18.94H37.7349C37.7349 12.3264 32.3736 6.9651 25.76 6.9651V18.94ZM25.76 23.05V35.0249C32.3736 35.0249 37.7349 29.6636 37.7349 23.05H25.76ZM17.99 23.05H6.0151V27.31H17.99H29.9649V23.05H17.99ZM17.99 27.31V39.2849H24.86V27.31V15.3351H17.99V27.31ZM24.86 27.31H12.8851V31.27H24.86H36.8349V27.31H24.86ZM24.86 31.27V19.2951H17.99V31.27V43.2449H24.86V31.27ZM17.99 31.27H6.0151V35.89H17.99H29.9649V31.27H17.99ZM17.99 35.89V47.8649H25.76V35.89V23.9151H17.99V35.89ZM25.76 35.89H13.7851V40H25.76H37.7349V35.89H25.76ZM25.76 40V28.0251H12.86V40V51.9749H25.76V40ZM12.86 40H24.8349V18.94H12.86H0.885103V40H12.86ZM12.86 18.94V30.9149H25.76V18.94V6.9651H12.86V18.94ZM25.76 18.94H13.7851V23.05H25.76H37.7349V18.94H25.76ZM25.76 23.05V11.0751H17.99V23.05V35.0249H25.76V23.05ZM41.9905 40L32.0196 46.6318C34.2395 49.9693 37.9821 51.9749 41.9905 51.9749V40ZM37.7005 33.55L47.6713 26.9182C45.3845 23.4801 41.4878 21.4626 37.3602 21.5799C33.2327 21.6973 29.4568 23.9328 27.369 27.4953L37.7005 33.55ZM33.9205 40V51.9749C38.1709 51.9749 42.1028 49.7218 44.2519 46.0547L33.9205 40ZM28.1005 40L17.9698 33.6151C15.6444 37.3047 15.5088 41.9668 17.6158 45.7853C19.7228 49.6038 23.7392 51.9749 28.1005 51.9749V40ZM34.8505 29.29L44.9812 35.6749C47.4993 31.6794 47.4339 26.5771 44.8142 22.6475L34.8505 29.29ZM27.9505 18.94V6.9651C23.5342 6.9651 19.4764 9.39582 17.3925 13.2895C15.3086 17.1833 15.537 21.9079 17.9868 25.5825L27.9505 18.94ZM33.9205 18.94L43.8914 12.3084C41.6716 8.97071 37.9289 6.9651 33.9205 6.9651V18.94ZM38.1505 25.3L28.1795 31.9316C30.4673 35.3713 34.3664 37.389 38.4957 37.2699C42.625 37.1508 46.4014 34.9118 48.4871 31.3459L38.1505 25.3ZM41.8705 18.94V6.9651C37.6164 6.9651 33.6817 9.22202 31.5339 12.8941L41.8705 18.94ZM47.6905 18.94L57.8226 25.3227C60.1469 21.6329 60.2817 16.9714 58.1745 13.1535C56.0673 9.33566 52.0513 6.9651 47.6905 6.9651V18.94ZM41.0005 29.56L30.8684 23.1773C28.3516 27.1725 28.4176 32.2737 31.0368 36.2025L41.0005 29.56ZM47.9605 40V51.9749C52.3768 51.9749 56.4346 49.5442 58.5184 45.6504C60.6023 41.7567 60.3739 37.0321 57.9242 33.3575L47.9605 40ZM41.9905 40L51.9613 33.3682L47.6713 26.9182L37.7005 33.55L27.7296 40.1818L32.0196 46.6318L41.9905 40ZM37.7005 33.55L27.369 27.4953L23.589 33.9453L33.9205 40L44.2519 46.0547L48.0319 39.6047L37.7005 33.55ZM33.9205 40V28.0251H28.1005V40V51.9749H33.9205V40ZM28.1005 40L38.2312 46.3849L44.9812 35.6749L34.8505 29.29L24.7198 22.9051L17.9698 33.6151L28.1005 40ZM34.8505 29.29L44.8142 22.6475L37.9142 12.2975L27.9505 18.94L17.9868 25.5825L24.8868 35.9325L34.8505 29.29ZM27.9505 18.94V30.9149H33.9205V18.94V6.9651H27.9505V18.94ZM33.9205 18.94L23.9495 25.5716L28.1795 31.9316L38.1505 25.3L48.1214 18.6684L43.8914 12.3084L33.9205 18.94ZM38.1505 25.3L48.4871 31.3459L52.2071 24.9859L41.8705 18.94L31.5339 12.8941L27.8139 19.2541L38.1505 25.3ZM41.8705 18.94V30.9149H47.6905V18.94V6.9651H41.8705V18.94ZM47.6905 18.94L37.5584 12.5573L30.8684 23.1773L41.0005 29.56L51.1326 35.9427L57.8226 25.3227L47.6905 18.94ZM41.0005 29.56L31.0368 36.2025L37.9968 46.6425L47.9605 40L57.9242 33.3575L50.9642 22.9175L41.0005 29.56ZM47.9605 40V28.0251H41.9905V40V51.9749H47.9605V40ZM65.7458 29.08L76.194 34.931C76.2103 34.9017 76.2266 34.8724 76.2427 34.843L65.7458 29.08ZM63.1658 31.51L57.5211 20.949L57.5211 20.949L63.1658 31.51ZM55.6658 32.44V20.4651C49.0522 20.4651 43.6909 25.8264 43.6909 32.44H55.6658ZM55.6658 40V51.9749C62.2793 51.9749 67.6407 46.6136 67.6407 40H55.6658ZM50.5358 40H38.5609C38.5609 46.6136 43.9222 51.9749 50.5358 51.9749V40ZM50.5358 18.94V6.9651C43.9222 6.9651 38.5609 12.3264 38.5609 18.94H50.5358ZM63.1058 19.81L68.4611 9.09933L68.4611 9.09932L63.1058 19.81ZM60.6458 23.77L52.3603 32.4157L60.6458 23.77ZM55.6658 23.08V11.1051C49.0522 11.1051 43.6909 16.4664 43.6909 23.08H55.6658ZM55.6658 28.36H43.6909C43.6909 34.9736 49.0522 40.3349 55.6658 40.3349V28.36ZM66.5858 25.72H54.6109C54.6109 25.0264 54.7917 24.1497 55.2488 23.317L65.7458 29.08L76.2427 34.843C77.8199 31.9703 78.5607 28.8536 78.5607 25.72H66.5858ZM65.7458 29.08L55.2976 23.229C56.0137 21.9504 56.968 21.2446 57.5211 20.949L63.1658 31.51L68.8105 42.071C71.6836 40.5354 74.3579 38.2096 76.194 34.931L65.7458 29.08ZM63.1658 31.51L57.5211 20.949C58.55 20.399 59.1826 20.4651 58.8458 20.4651V32.44V44.4149C61.949 44.4149 65.4615 43.861 68.8105 42.071L63.1658 31.51ZM58.8458 32.44V20.4651H55.6658V32.44V44.4149H58.8458V32.44ZM55.6658 32.44H43.6909V40H55.6658H67.6407V32.44H55.6658ZM55.6658 40V28.0251H50.5358V40V51.9749H55.6658V40ZM50.5358 40H62.5107V18.94H50.5358H38.5609V40H50.5358ZM50.5358 18.94V30.9149H58.8458V18.94V6.9651H50.5358V18.94ZM58.8458 18.94V30.9149C59.1969 30.9149 58.6701 30.9805 57.7505 30.5207L63.1058 19.81L68.4611 9.09932C65.2215 7.47949 61.8546 6.9651 58.8458 6.9651V18.94ZM63.1058 19.81L57.7504 30.5207C57.4261 30.3585 56.9872 30.0868 56.5228 29.6597C56.0511 29.226 55.634 28.7059 55.3061 28.1292L65.7158 22.21L76.1254 16.2908C74.2503 12.9932 71.5109 10.6242 68.4611 9.09933L63.1058 19.81ZM65.7158 22.21L55.3061 28.1292C54.7371 27.1284 54.6109 26.211 54.6109 25.72H66.5858H78.5607C78.5607 22.589 77.8545 19.3315 76.1254 16.2908L65.7158 22.21ZM58.4558 28.36V40.3349C61.0763 40.3349 65.3595 39.7387 68.9313 36.3157L60.6458 27.67L52.3603 19.0243C54.972 16.5213 57.7953 16.3851 58.4558 16.3851V28.36ZM60.6458 27.67L68.9313 36.3157C72.3537 33.0359 73.3407 28.913 73.3407 25.72H61.3658H49.3909C49.3909 24.207 49.8979 21.3841 52.3603 19.0243L60.6458 27.67ZM61.3658 25.72H73.3407C73.3407 22.527 72.3537 18.4041 68.9313 15.1243L60.6458 23.77L52.3603 32.4157C49.8979 30.0559 49.3909 27.233 49.3909 25.72H61.3658ZM60.6458 23.77L68.9313 15.1243C65.3595 11.7013 61.0763 11.1051 58.4558 11.1051V23.08V35.0549C57.7953 35.0549 54.972 34.9187 52.3603 32.4157L60.6458 23.77ZM58.4558 23.08V11.1051H55.6658V23.08V35.0549H58.4558V23.08ZM55.6658 23.08H43.6909V28.36H55.6658H67.6407V23.08H55.6658ZM55.6658 28.36V40.3349H58.4558V28.36V16.3851H55.6658V28.36ZM74.3865 36.04H62.4116C62.4116 42.6536 67.7729 48.0149 74.3865 48.0149V36.04ZM81.1065 36.04H93.0814C93.0814 29.4264 87.72 24.0651 81.1065 24.0651V36.04ZM81.1065 40V51.9749C87.72 51.9749 93.0814 46.6136 93.0814 40H81.1065ZM69.2565 40H57.2816C57.2816 46.6136 62.6429 51.9749 69.2565 51.9749V40ZM69.2565 18.94V6.9651C62.6429 6.9651 57.2816 12.3264 57.2816 18.94H69.2565ZM74.3865 18.94H86.3614C86.3614 12.3264 81 6.9651 74.3865 6.9651V18.94ZM74.3865 36.04V48.0149H81.1065V36.04V24.0651H74.3865V36.04ZM81.1065 36.04H69.1316V40H81.1065H93.0814V36.04H81.1065ZM81.1065 40V28.0251H69.2565V40V51.9749H81.1065V40ZM69.2565 40H81.2314V18.94H69.2565H57.2816V40H69.2565ZM69.2565 18.94V30.9149H74.3865V18.94V6.9651H69.2565V18.94ZM74.3865 18.94H62.4116V36.04H74.3865H86.3614V18.94H74.3865ZM88.0534 38.83L82.1946 49.2738C82.2126 49.2839 82.2306 49.2939 82.2486 49.3039L88.0534 38.83ZM84.1234 34.99L73.7571 40.9849C73.7857 41.0344 73.8146 41.0836 73.8439 41.1326L84.1234 34.99ZM84.1234 23.86L73.8439 17.7174C73.8254 17.7484 73.8071 17.7794 73.7888 17.8105L84.1234 23.86ZM88.0534 20.02L82.2486 9.54611C82.2306 9.55609 82.2126 9.56611 82.1946 9.57618L88.0534 20.02ZM98.9434 20.02L93.0846 30.4638C93.1026 30.4739 93.1206 30.4839 93.1386 30.4939L98.9434 20.02ZM102.843 23.86L92.454 29.8149C92.4722 29.8465 92.4904 29.878 92.5089 29.9095L102.843 23.86ZM102.843 34.99L113.178 41.0395C113.188 41.0213 113.199 41.0031 113.21 40.9849L102.843 34.99ZM98.9434 38.83L104.802 49.2738L98.9434 38.83ZM97.5334 33.85L88.6798 25.7869C88.6533 25.816 88.627 25.8452 88.6008 25.8745L97.5334 33.85ZM97.5334 24.97L88.6008 32.9455C88.6509 33.0015 88.7015 33.0571 88.7525 33.1122L97.5334 24.97ZM89.4334 24.94L80.6525 16.7978C80.6258 16.8267 80.5991 16.8557 80.5727 16.8848L89.4334 24.94ZM89.4334 33.88L80.5008 41.8555C80.5509 41.9115 80.6015 41.9671 80.6525 42.0222L89.4334 33.88ZM93.5134 40.21V28.2351C93.4588 28.2351 93.4974 28.2298 93.5977 28.2552C93.7006 28.2812 93.7944 28.3208 93.8582 28.3561L88.0534 38.83L82.2486 49.3039C85.763 51.2517 89.5937 52.1849 93.5134 52.1849V40.21ZM88.0534 38.83L93.9121 28.3862C93.9829 28.4259 94.0941 28.5019 94.2097 28.615C94.3246 28.7272 94.3859 28.8192 94.4028 28.8474L84.1234 34.99L73.8439 41.1326C75.8786 44.5376 78.7004 47.3137 82.1946 49.2738L88.0534 38.83ZM84.1234 34.99L94.4896 28.9951C94.5545 29.1072 94.6074 29.2376 94.6384 29.3577C94.6681 29.4731 94.6583 29.5032 94.6583 29.41H82.6834H70.7085C70.7085 33.4133 71.6652 37.3677 73.7571 40.9849L84.1234 34.99ZM82.6834 29.41H94.6583C94.6583 29.3163 94.6683 29.3547 94.6345 29.4849C94.5992 29.6207 94.538 29.7726 94.4579 29.9095L84.1234 23.86L73.7888 17.8105C71.6651 21.4386 70.7085 25.4081 70.7085 29.41H82.6834ZM84.1234 23.86L94.4028 30.0026C94.3859 30.0308 94.3246 30.1228 94.2097 30.235C94.0941 30.3481 93.9829 30.4241 93.9121 30.4638L88.0534 20.02L82.1946 9.57618C78.7004 11.5363 75.8787 14.3124 73.8439 17.7174L84.1234 23.86ZM88.0534 20.02L93.8582 30.4939C93.7944 30.5292 93.7006 30.5688 93.5977 30.5948C93.4974 30.6202 93.4588 30.6149 93.5134 30.6149V18.64V6.6651C89.5937 6.6651 85.763 7.59832 82.2486 9.54611L88.0534 20.02ZM93.5134 18.64V30.6149C93.5684 30.6149 93.5215 30.6202 93.4063 30.591C93.2878 30.5608 93.1729 30.5133 93.0846 30.4638L98.9434 20.02L104.802 9.57618C101.277 7.5986 97.4325 6.6651 93.5134 6.6651V18.64ZM98.9434 20.02L93.1386 30.4939C93.0574 30.4489 92.916 30.3548 92.7617 30.2029C92.6072 30.0508 92.5065 29.9063 92.454 29.8149L102.843 23.86L113.233 17.9051C111.201 14.3605 108.312 11.5213 104.748 9.54611L98.9434 20.02ZM102.843 23.86L92.5089 29.9095C92.4287 29.7726 92.3675 29.6207 92.3323 29.4849C92.2985 29.3547 92.3085 29.3163 92.3085 29.41H104.283H116.258C116.258 25.4081 115.302 21.4386 113.178 17.8105L102.843 23.86ZM104.283 29.41H92.3085C92.3085 29.5032 92.2986 29.4731 92.3283 29.3577C92.3593 29.2376 92.4123 29.1072 92.4771 28.9951L102.843 34.99L113.21 40.9849C115.301 37.3677 116.258 33.4133 116.258 29.41H104.283ZM102.843 34.99L92.5089 28.9405C92.5389 28.8892 92.6153 28.7765 92.7467 28.6471C92.8787 28.5171 93.0045 28.4311 93.0846 28.3862L98.9434 38.83L104.802 49.2738C108.319 47.3012 111.155 44.4955 113.178 41.0395L102.843 34.99ZM98.9434 38.83L93.0846 28.3862C93.1729 28.3367 93.2878 28.2892 93.4063 28.259C93.5215 28.2298 93.5684 28.2351 93.5134 28.2351V40.21V52.1849C97.4325 52.1849 101.277 51.2514 104.802 49.2738L98.9434 38.83ZM93.5134 35.53V47.5049C98.1529 47.5049 102.91 45.8086 106.466 41.8255L97.5334 33.85L88.6008 25.8745C89.2502 25.1472 90.1246 24.4942 91.1609 24.0611C92.1647 23.6417 93.0141 23.5551 93.5134 23.5551V35.53ZM97.5334 33.85L106.387 41.9131C109.826 38.1363 111.038 33.5596 111.038 29.41H99.0634H87.0885C87.0885 29.2297 87.1134 28.7122 87.3593 27.9986C87.6171 27.2505 88.0557 26.4723 88.6798 25.7869L97.5334 33.85ZM99.0634 29.41H111.038C111.038 25.2888 109.851 20.6417 106.314 16.8278L97.5334 24.97L88.7525 33.1122C88.0806 32.3875 87.6229 31.5713 87.3593 30.8063C87.1091 30.0802 87.0885 29.5645 87.0885 29.41H99.0634ZM97.5334 24.97L106.466 16.9945C102.91 13.0114 98.1529 11.3151 93.5134 11.3151V23.29V35.2649C93.0141 35.2649 92.1647 35.1783 91.1609 34.7589C90.1246 34.3258 89.2502 33.6728 88.6008 32.9455L97.5334 24.97ZM93.5134 23.29V11.3151C88.9702 11.3151 84.2513 12.9167 80.6525 16.7978L89.4334 24.94L98.2142 33.0822C97.5563 33.7917 96.6958 34.4044 95.7079 34.8039C94.7535 35.1899 93.9607 35.2649 93.5134 35.2649V23.29ZM89.4334 24.94L80.5727 16.8848C77.0795 20.7273 75.9585 25.3687 75.9585 29.41H87.9334H99.9083C99.9083 29.5186 99.8949 29.9955 99.6611 30.6921C99.4142 31.428 98.973 32.2483 98.2941 32.9952L89.4334 24.94ZM87.9334 29.41H75.9585C75.9585 33.4802 77.1034 38.0504 80.5008 41.8555L89.4334 33.88L98.3659 25.9045C98.9968 26.6112 99.4195 27.3929 99.6611 28.1129C99.8908 28.7973 99.9083 29.2761 99.9083 29.41H87.9334ZM89.4334 33.88L80.6525 42.0222C84.2513 45.9033 88.9702 47.5049 93.5134 47.5049V35.53V23.5551C93.9607 23.5551 94.7535 23.6301 95.7079 24.0161C96.6958 24.4156 97.5563 25.0283 98.2142 25.7378L89.4334 33.88ZM117.877 40L107.389 45.7785C109.495 49.6008 113.513 51.9749 117.877 51.9749V40ZM113.497 32.05L123.986 26.2715C121.88 22.4492 117.861 20.0751 113.497 20.0751V32.05ZM112.267 32.05V20.0751C105.654 20.0751 100.292 25.4364 100.292 32.05H112.267ZM112.267 40V51.9749C118.881 51.9749 124.242 46.6136 124.242 40H112.267ZM107.137 40H95.1624C95.1624 46.6136 100.524 51.9749 107.137 51.9749V40ZM107.137 18.94V6.9651C100.524 6.9651 95.1624 12.3264 95.1624 18.94H107.137ZM119.977 19.81L114.622 30.5207C114.646 30.5328 114.671 30.5449 114.695 30.5569L119.977 19.81ZM122.617 22.21L112.208 28.1292C112.225 28.1589 112.242 28.1885 112.259 28.218L122.617 22.21ZM122.287 29.32L112.603 22.2767C112.575 22.3154 112.547 22.3543 112.519 22.3934L122.287 29.32ZM118.807 31.66L115.38 20.186C111.862 21.2368 109.021 23.8434 107.671 27.2577C106.321 30.6721 106.612 34.517 108.461 37.6892L118.807 31.66ZM123.667 40V51.9749C127.954 51.9749 131.914 49.6834 134.05 45.9665C136.186 42.2497 136.172 37.6747 134.014 33.9708L123.667 40ZM112.267 28.42H100.292C100.292 35.0336 105.654 40.3949 112.267 40.3949V28.42ZM117.547 27.73L109.262 19.0843C109.201 19.143 109.14 19.2024 109.08 19.2625L117.547 27.73ZM117.547 23.89L109.08 32.3575C109.14 32.4176 109.201 32.477 109.262 32.5357L117.547 23.89ZM112.267 23.2V11.2251C105.654 11.2251 100.292 16.5864 100.292 23.2H112.267ZM117.877 40L128.366 34.2215L123.986 26.2715L113.497 32.05L103.009 37.8285L107.389 45.7785L117.877 40ZM113.497 32.05V20.0751H112.267V32.05V44.0249H113.497V32.05ZM112.267 32.05H100.292V40H112.267H124.242V32.05H112.267ZM112.267 40V28.0251H107.137V40V51.9749H112.267V40ZM107.137 40H119.112V18.94H107.137H95.1624V40H107.137ZM107.137 18.94V30.9149H115.747V18.94V6.9651H107.137V18.94ZM115.747 18.94V30.9149C116.053 30.9149 115.524 30.9716 114.622 30.5207L119.977 19.81L125.333 9.09933C122.111 7.48841 118.762 6.9651 115.747 6.9651V18.94ZM119.977 19.81L114.695 30.5569C114.382 30.403 113.941 30.1364 113.467 29.7057C112.985 29.2673 112.551 28.7328 112.208 28.1292L122.617 22.21L133.027 16.2908C131.12 12.9373 128.324 10.5695 125.26 9.06314L119.977 19.81ZM122.617 22.21L112.259 28.218C111.703 27.2603 111.512 26.2815 111.512 25.57H123.487H135.462C135.462 22.3785 134.692 19.1597 132.976 16.202L122.617 22.21ZM123.487 25.57H111.512C111.512 25.114 111.58 24.5389 111.782 23.9078C111.985 23.2733 112.28 22.7211 112.603 22.2767L122.287 29.32L131.972 36.3633C134.306 33.1533 135.462 29.4214 135.462 25.57H123.487ZM122.287 29.32L112.519 22.3934C112.998 21.7182 113.573 21.1812 114.15 20.7927C114.709 20.4173 115.164 20.2507 115.38 20.186L118.807 31.66L122.235 43.134C125.827 42.0608 129.447 39.9251 132.056 36.2466L122.287 29.32ZM118.807 31.66L108.461 37.6892L113.321 46.0292L123.667 40L134.014 33.9708L129.154 25.6308L118.807 31.66ZM123.667 40V28.0251H117.877V40V51.9749H123.667V40ZM112.267 28.42V40.3949H115.447V28.42V16.4451H112.267V28.42ZM115.447 28.42V40.3949C118.146 40.3949 122.474 39.7384 126.015 36.1975L117.547 27.73L109.08 19.2625C111.701 16.6416 114.629 16.4451 115.447 16.4451V28.42ZM117.547 27.73L125.833 36.3757C129.255 33.0959 130.242 28.973 130.242 25.78H118.267H106.292C106.292 24.267 106.799 21.4441 109.262 19.0843L117.547 27.73ZM118.267 25.78H130.242C130.242 22.4302 129.14 18.4137 125.833 15.2443L117.547 23.89L109.262 32.5357C108.202 31.5204 107.399 30.2895 106.897 28.9705C106.411 27.6959 106.292 26.571 106.292 25.78H118.267ZM117.547 23.89L126.015 15.4225C122.474 11.8816 118.146 11.2251 115.447 11.2251V23.2V35.1749C114.629 35.1749 111.701 34.9784 109.08 32.3575L117.547 23.89ZM115.447 23.2V11.2251H112.267V23.2V35.1749H115.447V23.2ZM112.267 23.2H100.292V28.42H112.267H124.242V23.2H112.267ZM131.838 23.05V11.0751C125.224 11.0751 119.863 16.4364 119.863 23.05H131.838ZM131.838 27.31H119.863C119.863 33.9236 125.224 39.2849 131.838 39.2849V27.31ZM138.708 27.31H150.683C150.683 20.6964 145.321 15.3351 138.708 15.3351V27.31ZM138.708 31.27V43.2449C145.321 43.2449 150.683 37.8836 150.683 31.27H138.708ZM131.838 31.27V19.2951C125.224 19.2951 119.863 24.6564 119.863 31.27H131.838ZM131.838 35.89H119.863C119.863 42.5036 125.224 47.8649 131.838 47.8649V35.89ZM139.608 35.89H151.583C151.583 29.2764 146.221 23.9151 139.608 23.9151V35.89ZM139.608 40V51.9749C146.221 51.9749 151.583 46.6136 151.583 40H139.608ZM126.708 40H114.733C114.733 46.6136 120.094 51.9749 126.708 51.9749V40ZM126.708 18.94V6.9651C120.094 6.9651 114.733 12.3264 114.733 18.94H126.708ZM139.608 18.94H151.583C151.583 12.3264 146.221 6.9651 139.608 6.9651V18.94ZM139.608 23.05V35.0249C146.221 35.0249 151.583 29.6636 151.583 23.05H139.608ZM131.838 23.05H119.863V27.31H131.838H143.813V23.05H131.838ZM131.838 27.31V39.2849H138.708V27.31V15.3351H131.838V27.31ZM138.708 27.31H126.733V31.27H138.708H150.683V27.31H138.708ZM138.708 31.27V19.2951H131.838V31.27V43.2449H138.708V31.27ZM131.838 31.27H119.863V35.89H131.838H143.813V31.27H131.838ZM131.838 35.89V47.8649H139.608V35.89V23.9151H131.838V35.89ZM139.608 35.89H127.633V40H139.608H151.583V35.89H139.608ZM139.608 40V28.0251H126.708V40V51.9749H139.608V40ZM126.708 40H138.683V18.94H126.708H114.733V40H126.708ZM126.708 18.94V30.9149H139.608V18.94V6.9651H126.708V18.94ZM139.608 18.94H127.633V23.05H139.608H151.583V18.94H139.608ZM139.608 23.05V11.0751H131.838V23.05V35.0249H139.608V23.05ZM17.36 76.83L11.5013 87.2738C11.5192 87.2839 11.5372 87.2939 11.5552 87.3039L17.36 76.83ZM13.43 72.99L3.06376 78.9849C3.09234 79.0344 3.12128 79.0836 3.15057 79.1326L13.43 72.99ZM13.43 61.86L3.15057 55.7174C3.13207 55.7484 3.11371 55.7794 3.09549 55.8105L13.43 61.86ZM17.36 58.02L11.5552 47.5461C11.5372 47.5561 11.5192 47.5661 11.5013 47.5762L17.36 58.02ZM28.25 58.02L22.3913 68.4638C22.4092 68.4739 22.4272 68.4839 22.4452 68.4939L28.25 58.02ZM32.15 61.86L21.7607 67.8148C21.7788 67.8465 21.7971 67.878 21.8155 67.9095L32.15 61.86ZM32.15 72.99L42.4845 79.0395C42.4951 79.0213 42.5057 79.0031 42.5162 78.9849L32.15 72.99ZM28.25 76.83L34.1087 87.2738L34.1087 87.2738L28.25 76.83ZM26.84 71.85L17.9865 63.7869C17.96 63.816 17.9337 63.8452 17.9075 63.8745L26.84 71.85ZM26.84 62.97L17.9075 70.9455C17.9575 71.0015 18.0081 71.0571 18.0592 71.1122L26.84 62.97ZM18.74 62.94L9.95919 54.7978C9.93242 54.8267 9.90578 54.8557 9.8793 54.8848L18.74 62.94ZM18.74 71.88L9.80747 79.8555C9.85752 79.9115 9.9081 79.9671 9.95919 80.0222L18.74 71.88ZM22.82 78.21V66.2351C22.7654 66.2351 22.8041 66.2298 22.9043 66.2552C23.0072 66.2812 23.1011 66.3208 23.1648 66.3561L17.36 76.83L11.5552 87.3039C15.0697 89.2517 18.9003 90.1849 22.82 90.1849V78.21ZM17.36 76.83L23.2187 66.3862C23.2896 66.4259 23.4007 66.5019 23.5164 66.615C23.6313 66.7272 23.6926 66.8192 23.7094 66.8474L13.43 72.99L3.15057 79.1326C5.18529 82.5376 8.00706 85.3137 11.5013 87.2738L17.36 76.83ZM13.43 72.99L23.7962 66.9951C23.8611 67.1072 23.914 67.2376 23.945 67.3577C23.9748 67.4731 23.9649 67.5032 23.9649 67.41H11.99H0.0151033C0.0151033 71.4133 0.971887 75.3677 3.06376 78.9849L13.43 72.99ZM11.99 67.41H23.9649C23.9649 67.3163 23.9749 67.3547 23.9411 67.4849C23.9059 67.6207 23.8446 67.7726 23.7645 67.9095L13.43 61.86L3.09549 55.8105C0.971768 59.4386 0.0151033 63.4081 0.0151033 67.41H11.99ZM13.43 61.86L23.7094 68.0026C23.6926 68.0308 23.6313 68.1228 23.5164 68.235C23.4007 68.3481 23.2896 68.4241 23.2187 68.4638L17.36 58.02L11.5013 47.5762C8.00706 49.5363 5.18529 52.3124 3.15057 55.7174L13.43 61.86ZM17.36 58.02L23.1648 68.4939C23.1011 68.5292 23.0072 68.5688 22.9043 68.5948C22.8041 68.6202 22.7654 68.6149 22.82 68.6149V56.64V44.6651C18.9003 44.6651 15.0697 45.5983 11.5552 47.5461L17.36 58.02ZM22.82 56.64V68.6149C22.875 68.6149 22.8282 68.6202 22.7129 68.591C22.5944 68.5608 22.4795 68.5133 22.3913 68.4638L28.25 58.02L34.1087 47.5762C30.5835 45.5986 26.7392 44.6651 22.82 44.6651V56.64ZM28.25 58.02L22.4452 68.4939C22.364 68.4489 22.2227 68.3548 22.0684 68.2029C21.9138 68.0508 21.8131 67.9063 21.7607 67.8148L32.15 61.86L42.5393 55.9051C40.5077 52.3605 37.6187 49.5213 34.0548 47.5461L28.25 58.02ZM32.15 61.86L21.8155 67.9095C21.7354 67.7726 21.6741 67.6207 21.6389 67.4849C21.6051 67.3547 21.6151 67.3163 21.6151 67.41H33.59H45.5649C45.5649 63.4081 44.6082 59.4386 42.4845 55.8105L32.15 61.86ZM33.59 67.41H21.6151C21.6151 67.5032 21.6052 67.4731 21.635 67.3577C21.666 67.2376 21.7189 67.1072 21.7838 66.9951L32.15 72.99L42.5162 78.9849C44.6081 75.3677 45.5649 71.4133 45.5649 67.41H33.59ZM32.15 72.99L21.8155 66.9405C21.8455 66.8892 21.9219 66.7765 22.0534 66.6471C22.1853 66.5171 22.3111 66.4311 22.3913 66.3862L28.25 76.83L34.1087 87.2738C37.6251 85.3012 40.4615 82.4955 42.4845 79.0395L32.15 72.99ZM28.25 76.83L22.3913 66.3862C22.4795 66.3367 22.5944 66.2892 22.7129 66.259C22.8282 66.2298 22.875 66.2351 22.82 66.2351V78.21V90.1849C26.7392 90.1849 30.5835 89.2514 34.1087 87.2738L28.25 76.83ZM22.82 73.53V85.5049C27.4595 85.5049 32.2161 83.8086 35.7725 79.8255L26.84 71.85L17.9075 63.8745C18.5568 63.1472 19.4312 62.4942 20.4676 62.0611C21.4713 61.6417 22.3207 61.5551 22.82 61.5551V73.53ZM26.84 71.85L35.6935 79.9131C39.1331 76.1363 40.3449 71.5596 40.3449 67.41H28.37H16.3951C16.3951 67.2297 16.4201 66.7122 16.6659 65.9986C16.9237 65.2505 17.3623 64.4723 17.9865 63.7869L26.84 71.85ZM28.37 67.41H40.3449C40.3449 63.2888 39.1574 58.6417 35.6208 54.8278L26.84 62.97L18.0592 71.1122C17.3872 70.3875 16.9295 69.5713 16.6659 68.8064C16.4157 68.0802 16.3951 67.5645 16.3951 67.41H28.37ZM26.84 62.97L35.7725 54.9945C32.2161 51.0114 27.4595 49.3151 22.82 49.3151V61.29V73.2649C22.3207 73.2649 21.4713 73.1783 20.4676 72.7589C19.4312 72.3258 18.5568 71.6728 17.9075 70.9455L26.84 62.97ZM22.82 61.29V49.3151C18.2768 49.3151 13.558 50.9167 9.95919 54.7978L18.74 62.94L27.5208 71.0822C26.8629 71.7917 26.0025 72.4044 25.0146 72.8039C24.0602 73.1899 23.2674 73.2649 22.82 73.2649V61.29ZM18.74 62.94L9.8793 54.8848C6.38612 58.7273 5.2651 63.3687 5.2651 67.41H17.24H29.2149C29.2149 67.5186 29.2015 67.9955 28.9677 68.6921C28.7208 69.428 28.2797 70.2483 27.6007 70.9952L18.74 62.94ZM17.24 67.41H5.2651C5.2651 71.4802 6.41006 76.0504 9.80747 79.8555L18.74 71.88L27.6725 63.9045C28.3035 64.6112 28.7262 65.3929 28.9677 66.1129C29.1974 66.7973 29.2149 67.2761 29.2149 67.41H17.24ZM18.74 71.88L9.95919 80.0222C13.558 83.9033 18.2768 85.5049 22.82 85.5049V73.53V61.5551C23.2674 61.5551 24.0602 61.6301 25.0146 62.0161C26.0025 62.4156 26.8629 63.0283 27.5208 63.7378L18.74 71.88ZM41.484 56.94H53.4589C53.4589 50.3264 48.0975 44.9651 41.484 44.9651V56.94ZM42.414 72.45L33.5651 80.5181H33.5651L42.414 72.45ZM47.904 72.45L56.6241 80.6572L56.6241 80.6572L47.904 72.45ZM48.864 56.94V44.9651C42.2504 44.9651 36.8891 50.3264 36.8891 56.94H48.864ZM53.994 56.94H65.9689C65.9689 50.3264 60.6075 44.9651 53.994 44.9651V56.94ZM52.794 74.28L62.9925 80.556L62.9925 80.556L52.794 74.28ZM49.554 77.22L44.3258 66.4467C44.3048 66.4569 44.2838 66.4671 44.2629 66.4775L49.554 77.22ZM40.584 77.25L35.163 87.9276C35.2283 87.9607 35.2938 87.9933 35.3597 88.0252L40.584 77.25ZM37.494 74.31L27.1163 80.285C27.1295 80.308 27.1427 80.3309 27.1561 80.3537L37.494 74.31ZM36.354 56.94V44.9651C29.7404 44.9651 24.3791 50.3264 24.3791 56.94H36.354ZM41.484 56.94H29.5091V69.54H41.484H53.4589V56.94H41.484ZM41.484 69.54H29.5091C29.5091 72.6726 30.2927 76.9291 33.5651 80.5181L42.414 72.45L51.2629 64.3819C53.2953 66.6109 53.4589 68.9274 53.4589 69.54H41.484ZM42.414 72.45L33.5651 80.5181C37.093 84.3874 41.6582 85.4449 45.144 85.4449V73.47V61.4951C45.6503 61.4951 46.5932 61.5643 47.7526 61.9975C48.9762 62.4546 50.2209 63.239 51.2629 64.3819L42.414 72.45ZM45.144 73.47V85.4449C48.6513 85.4449 53.1195 84.3808 56.6241 80.6572L47.904 72.45L39.1839 64.2428C40.1966 63.1668 41.3964 62.4211 42.5829 61.9826C43.7115 61.5655 44.6335 61.4951 45.144 61.4951V73.47ZM47.904 72.45L56.6241 80.6572C59.9962 77.0743 60.8389 72.7643 60.8389 69.54H48.864H36.8891C36.8891 68.8357 37.0917 66.4657 39.1839 64.2428L47.904 72.45ZM48.864 69.54H60.8389V56.94H48.864H36.8891V69.54H48.864ZM48.864 56.94V68.9149H53.994V56.94V44.9651H48.864V56.94ZM53.994 56.94H42.0191V69.51H53.994H65.9689V56.94H53.994ZM53.994 69.51H42.0191C42.0191 69.6865 41.9919 68.9848 42.5955 68.004L52.794 74.28L62.9925 80.556C65.1961 76.9752 65.9689 73.0935 65.9689 69.51H53.994ZM52.794 74.28L42.5955 68.004C42.7592 67.7379 43.003 67.4249 43.337 67.1219C43.6716 66.8182 44.018 66.5961 44.3258 66.4467L49.554 77.22L54.7822 87.9933C58.2144 86.3277 61.01 83.7776 62.9925 80.556L52.794 74.28ZM49.554 77.22L44.2629 66.4775C44.4815 66.3698 44.6866 66.3035 44.851 66.2673C45.011 66.2321 45.0879 66.2351 45.054 66.2351V78.21V90.1849C48.3422 90.1849 51.6833 89.5199 54.8451 87.9625L49.554 77.22ZM45.054 78.21V66.2351C44.9948 66.2351 45.0549 66.2296 45.2059 66.2621C45.3619 66.2956 45.5727 66.3606 45.8083 66.4748L40.584 77.25L35.3597 88.0252C38.5106 89.5529 41.8236 90.1849 45.054 90.1849V78.21ZM40.584 77.25L46.0049 66.5724C46.3649 66.7551 46.7422 67.0128 47.0908 67.3445C47.4373 67.6742 47.6779 68.003 47.8319 68.2663L37.494 74.31L27.1561 80.3537C29.0361 83.5694 31.7433 86.1914 35.163 87.9276L40.584 77.25ZM37.494 74.31L47.8717 68.335C48.3771 69.2127 48.3289 69.7802 48.3289 69.51H36.354H24.3791C24.3791 72.9998 25.0909 76.7673 27.1163 80.285L37.494 74.31ZM36.354 69.51H48.3289V56.94H36.354H24.3791V69.51H36.354ZM36.354 56.94V68.9149H41.484V56.94V44.9651H36.354V56.94ZM68.3363 78L57.8479 83.7785C59.9538 87.6008 63.9723 89.9749 68.3363 89.9749V78ZM63.9563 70.05L74.4447 64.2715C72.3389 60.4492 68.3204 58.0751 63.9563 58.0751V70.05ZM62.7263 70.05V58.0751C56.1128 58.0751 50.7514 63.4364 50.7514 70.05H62.7263ZM62.7263 78V89.9749C69.3399 89.9749 74.7012 84.6136 74.7012 78H62.7263ZM57.5963 78H45.6214C45.6214 84.6136 50.9828 89.9749 57.5963 89.9749V78ZM57.5963 56.94V44.9651C50.9828 44.9651 45.6214 50.3264 45.6214 56.94H57.5963ZM70.4363 57.81L65.081 68.5207C65.1053 68.5328 65.1296 68.5449 65.154 68.5569L70.4363 57.81ZM73.0763 60.21L62.6667 66.1292C62.6835 66.1589 62.7005 66.1885 62.7177 66.218L73.0763 60.21ZM72.7463 67.32L63.0618 60.2767C63.0336 60.3154 63.0057 60.3543 62.978 60.3934L72.7463 67.32ZM69.2663 69.66L65.839 58.186C62.3211 59.2368 59.4797 61.8434 58.13 65.2577C56.7803 68.6721 57.0714 72.517 58.92 75.6892L69.2663 69.66ZM74.1263 78V89.9749C78.4132 89.9749 82.373 87.6834 84.5089 83.9665C86.6449 80.2497 86.6311 75.6747 84.4727 71.9708L74.1263 78ZM62.7263 66.42H50.7514C50.7514 73.0336 56.1128 78.3949 62.7263 78.3949V66.42ZM68.0063 65.73L59.7208 57.0843C59.6595 57.143 59.5988 57.2024 59.5388 57.2625L68.0063 65.73ZM68.0063 61.89L59.5388 70.3575C59.5988 70.4176 59.6595 70.477 59.7208 70.5357L68.0063 61.89ZM62.7263 61.2V49.2251C56.1128 49.2251 50.7514 54.5864 50.7514 61.2H62.7263ZM68.3363 78L78.8247 72.2215L74.4447 64.2715L63.9563 70.05L53.4679 75.8285L57.8479 83.7785L68.3363 78ZM63.9563 70.05V58.0751H62.7263V70.05V82.0249H63.9563V70.05ZM62.7263 70.05H50.7514V78H62.7263H74.7012V70.05H62.7263ZM62.7263 78V66.0251H57.5963V78V89.9749H62.7263V78ZM57.5963 78H69.5712V56.94H57.5963H45.6214V78H57.5963ZM57.5963 56.94V68.9149H66.2063V56.94V44.9651H57.5963V56.94ZM66.2063 56.94V68.9149C66.5118 68.9149 65.9828 68.9716 65.081 68.5207L70.4363 57.81L75.7917 47.0993C72.5698 45.4884 69.2209 44.9651 66.2063 44.9651V56.94ZM70.4363 57.81L65.154 68.5569C64.841 68.403 64.3999 68.1364 63.9261 67.7057C63.4439 67.2673 63.0099 66.7328 62.6667 66.1292L73.0763 60.21L83.486 54.2908C81.5791 50.9373 78.7834 48.5695 75.7187 47.0631L70.4363 57.81ZM73.0763 60.21L62.7177 66.218C62.1622 65.2603 61.9714 64.2815 61.9714 63.57H73.9463H85.9212C85.9212 60.3785 85.1505 57.1597 83.435 54.202L73.0763 60.21ZM73.9463 63.57H61.9714C61.9714 63.114 62.0392 62.5389 62.2411 61.9078C62.4442 61.2733 62.7386 60.7211 63.0618 60.2767L72.7463 67.32L82.4309 74.3633C84.7654 71.1533 85.9212 67.4214 85.9212 63.57H73.9463ZM72.7463 67.32L62.978 60.3934C63.4568 59.7182 64.0316 59.1812 64.6094 58.7927C65.1676 58.4173 65.6225 58.2507 65.839 58.186L69.2663 69.66L72.6936 81.134C76.2864 80.0608 79.9063 77.9251 82.5146 74.2466L72.7463 67.32ZM69.2663 69.66L58.92 75.6892L63.78 84.0292L74.1263 78L84.4727 71.9708L79.6127 63.6308L69.2663 69.66ZM74.1263 78V66.0251H68.3363V78V89.9749H74.1263V78ZM62.7263 66.42V78.3949H65.9063V66.42V54.4451H62.7263V66.42ZM65.9063 66.42V78.3949C68.6051 78.3949 72.933 77.7384 76.4739 74.1975L68.0063 65.73L59.5388 57.2625C62.1596 54.6416 65.0875 54.4451 65.9063 54.4451V66.42ZM68.0063 65.73L76.2918 74.3757C79.7143 71.0959 80.7012 66.973 80.7012 63.78H68.7263H56.7514C56.7514 62.267 57.2584 59.4441 59.7208 57.0843L68.0063 65.73ZM68.7263 63.78H80.7012C80.7012 60.4302 79.599 56.4137 76.2918 53.2443L68.0063 61.89L59.7208 70.5357C58.6613 69.5204 57.8584 68.2895 57.3559 66.9705C56.8704 65.6959 56.7514 64.571 56.7514 63.78H68.7263ZM68.0063 61.89L76.4739 53.4225C72.933 49.8816 68.6051 49.2251 65.9063 49.2251V61.2V73.1749C65.0875 73.1749 62.1596 72.9784 59.5388 70.3575L68.0063 61.89ZM65.9063 61.2V49.2251H62.7263V61.2V73.1749H65.9063V61.2ZM62.7263 61.2H50.7514V66.42H62.7263H74.7012V61.2H62.7263ZM88.6541 74.04H76.6792C76.6792 80.6535 82.0405 86.0149 88.6541 86.0149V74.04ZM95.3741 74.04H107.349C107.349 67.4264 101.988 62.0651 95.3741 62.0651V74.04ZM95.3741 78V89.9749C101.988 89.9749 107.349 84.6136 107.349 78H95.3741ZM83.5241 78H71.5492C71.5492 84.6136 76.9105 89.9749 83.5241 89.9749V78ZM83.5241 56.94V44.9651C76.9105 44.9651 71.5492 50.3264 71.5492 56.94H83.5241ZM88.6541 56.94H100.629C100.629 50.3264 95.2676 44.9651 88.6541 44.9651V56.94ZM88.6541 74.04V86.0149H95.3741V74.04V62.0651H88.6541V74.04ZM95.3741 74.04H83.3992V78H95.3741H107.349V74.04H95.3741ZM95.3741 78V66.0251H83.5241V78V89.9749H95.3741V78ZM83.5241 78H95.499V56.94H83.5241H71.5492V78H83.5241ZM83.5241 56.94V68.9149H88.6541V56.94V44.9651H83.5241V56.94ZM88.6541 56.94H76.6792V74.04H88.6541H100.629V56.94H88.6541ZM102.321 76.83L96.4622 87.2738C96.4802 87.2839 96.4981 87.2939 96.5161 87.3039L102.321 76.83ZM98.3909 72.99L88.0247 78.9849C88.0533 79.0344 88.0822 79.0836 88.1115 79.1326L98.3909 72.99ZM98.3909 61.86L88.1115 55.7174C88.093 55.7484 88.0746 55.7794 88.0564 55.8105L98.3909 61.86ZM102.321 58.02L96.5161 47.5461C96.4981 47.5561 96.4802 47.5661 96.4622 47.5762L102.321 58.02ZM113.211 58.02L107.352 68.4638C107.37 68.4739 107.388 68.4839 107.406 68.4939L113.211 58.02ZM117.111 61.86L106.722 67.8148C106.74 67.8465 106.758 67.878 106.776 67.9095L117.111 61.86ZM117.111 72.99L127.445 79.0395C127.456 79.0213 127.467 79.0031 127.477 78.9849L117.111 72.99ZM113.211 76.83L119.07 87.2738V87.2738L113.211 76.83ZM111.801 71.85L102.947 63.7869C102.921 63.816 102.895 63.8452 102.868 63.8745L111.801 71.85ZM111.801 62.97L102.868 70.9455C102.918 71.0015 102.969 71.0571 103.02 71.1122L111.801 62.97ZM103.701 62.94L94.9201 54.7978C94.8934 54.8267 94.8667 54.8557 94.8402 54.8848L103.701 62.94ZM103.701 71.88L94.7684 79.8555C94.8185 79.9115 94.869 79.9671 94.9201 80.0222L103.701 71.88ZM107.781 78.21V66.2351C107.726 66.2351 107.765 66.2298 107.865 66.2552C107.968 66.2812 108.062 66.3208 108.126 66.3561L102.321 76.83L96.5161 87.3039C100.031 89.2517 103.861 90.1849 107.781 90.1849V78.21ZM102.321 76.83L108.18 66.3862C108.251 66.4259 108.362 66.5019 108.477 66.615C108.592 66.7272 108.654 66.8192 108.67 66.8474L98.3909 72.99L88.1115 79.1326C90.1462 82.5376 92.968 85.3137 96.4622 87.2738L102.321 76.83ZM98.3909 72.99L108.757 66.9951C108.822 67.1072 108.875 67.2376 108.906 67.3577C108.936 67.4731 108.926 67.5032 108.926 67.41H96.9509H84.976C84.976 71.4133 85.9328 75.3677 88.0247 78.9849L98.3909 72.99ZM96.9509 67.41H108.926C108.926 67.3163 108.936 67.3547 108.902 67.4849C108.867 67.6207 108.806 67.7726 108.725 67.9095L98.3909 61.86L88.0564 55.8105C85.9327 59.4386 84.976 63.4081 84.976 67.41H96.9509ZM98.3909 61.86L108.67 68.0026C108.654 68.0308 108.592 68.1228 108.477 68.235C108.362 68.3481 108.251 68.4241 108.18 68.4638L102.321 58.02L96.4622 47.5762C92.968 49.5363 90.1462 52.3124 88.1115 55.7174L98.3909 61.86ZM102.321 58.02L108.126 68.4939C108.062 68.5292 107.968 68.5688 107.865 68.5948C107.765 68.6202 107.726 68.6149 107.781 68.6149V56.64V44.6651C103.861 44.6651 100.031 45.5983 96.5161 47.5461L102.321 58.02ZM107.781 56.64V68.6149C107.836 68.6149 107.789 68.6202 107.674 68.591C107.555 68.5608 107.44 68.5133 107.352 68.4638L113.211 58.02L119.07 47.5762C115.544 45.5986 111.7 44.6651 107.781 44.6651V56.64ZM113.211 58.02L107.406 68.4939C107.325 68.4489 107.184 68.3548 107.029 68.2029C106.875 68.0508 106.774 67.9063 106.722 67.8148L117.111 61.86L127.5 55.9051C125.469 52.3605 122.58 49.5213 119.016 47.5461L113.211 58.02ZM117.111 61.86L106.776 67.9095C106.696 67.7726 106.635 67.6207 106.6 67.4849C106.566 67.3547 106.576 67.3163 106.576 67.41H118.551H130.526C130.526 63.4081 129.569 59.4386 127.445 55.8105L117.111 61.86ZM118.551 67.41H106.576C106.576 67.5032 106.566 67.4731 106.596 67.3577C106.627 67.2376 106.68 67.1072 106.745 66.9951L117.111 72.99L127.477 78.9849C129.569 75.3677 130.526 71.4133 130.526 67.41H118.551ZM117.111 72.99L106.776 66.9405C106.806 66.8892 106.883 66.7765 107.014 66.6471C107.146 66.5171 107.272 66.4311 107.352 66.3862L113.211 76.83L119.07 87.2738C122.586 85.3012 125.422 82.4955 127.445 79.0395L117.111 72.99ZM113.211 76.83L107.352 66.3862C107.44 66.3367 107.555 66.2892 107.674 66.259C107.789 66.2298 107.836 66.2351 107.781 66.2351V78.21V90.1849C111.7 90.1849 115.544 89.2514 119.07 87.2738L113.211 76.83ZM107.781 73.53V85.5049C112.42 85.5049 117.177 83.8086 120.733 79.8255L111.801 71.85L102.868 63.8745C103.518 63.1472 104.392 62.4942 105.428 62.0611C106.432 61.6417 107.282 61.5551 107.781 61.5551V73.53ZM111.801 71.85L120.654 79.9131C124.094 76.1363 125.306 71.5596 125.306 67.41H113.331H101.356C101.356 67.2297 101.381 66.7122 101.627 65.9986C101.885 65.2505 102.323 64.4723 102.947 63.7869L111.801 71.85ZM113.331 67.41H125.306C125.306 63.2888 124.118 58.6417 120.582 54.8278L111.801 62.97L103.02 71.1122C102.348 70.3875 101.89 69.5713 101.627 68.8064C101.377 68.0802 101.356 67.5645 101.356 67.41H113.331ZM111.801 62.97L120.733 54.9945C117.177 51.0114 112.42 49.3151 107.781 49.3151V61.29V73.2649C107.282 73.2649 106.432 73.1783 105.429 72.7589C104.392 72.3258 103.518 71.6728 102.868 70.9455L111.801 62.97ZM107.781 61.29V49.3151C103.238 49.3151 98.5189 50.9167 94.9201 54.7978L103.701 62.94L112.482 71.0822C111.824 71.7917 110.963 72.4044 109.975 72.8039C109.021 73.1899 108.228 73.2649 107.781 73.2649V61.29ZM103.701 62.94L94.8402 54.8848C91.3471 58.7273 90.226 63.3687 90.226 67.41H102.201H114.176C114.176 67.5186 114.162 67.9955 113.929 68.6921C113.682 69.428 113.241 70.2483 112.562 70.9952L103.701 62.94ZM102.201 67.41H90.226C90.226 71.4802 91.371 76.0504 94.7684 79.8555L103.701 71.88L112.633 63.9045C113.264 64.6112 113.687 65.3929 113.929 66.1129C114.158 66.7973 114.176 67.2761 114.176 67.41H102.201ZM103.701 71.88L94.9201 80.0222C98.5189 83.9033 103.238 85.5049 107.781 85.5049V73.53V61.5551C108.228 61.5551 109.021 61.6301 109.975 62.0161C110.963 62.4156 111.824 63.0283 112.482 63.7378L103.701 71.88ZM135.385 63.6L124.861 69.3131C126.956 73.1719 130.994 75.5749 135.385 75.5749V63.6ZM133.735 62.01L128.022 72.5342C128.14 72.5983 128.259 72.6605 128.38 72.7207L133.735 62.01ZM127.255 63.09L136.042 71.2258C136.066 71.1991 136.091 71.1722 136.116 71.1452L127.255 63.09ZM127.315 72L118.613 80.2269C118.665 80.2811 118.716 80.3348 118.769 80.388L127.315 72ZM134.845 72.66L127.802 62.9755C127.766 63.0012 127.731 63.0272 127.696 63.0533L134.845 72.66ZM136.765 69.9L148.125 73.6868C149.343 70.0351 148.73 66.0208 146.479 62.8982C144.229 59.7755 140.614 57.9251 136.765 57.9251V69.9ZM130.255 69.9H118.28C118.28 76.5135 123.641 81.8749 130.255 81.8749V69.9ZM130.255 66.12V54.1451C123.641 54.1451 118.28 59.5064 118.28 66.12H130.255ZM141.415 66.12H153.39C153.39 59.5064 148.028 54.1451 141.415 54.1451V66.12ZM141.415 70.89L152.895 74.298C153.223 73.1918 153.39 72.0439 153.39 70.89H141.415ZM139.465 74.46L130.279 66.7774C130.252 66.8105 130.224 66.8437 130.197 66.877L139.465 74.46ZM136.015 77.13L130.783 66.3585L136.015 77.13ZM125.695 76.8L119.781 87.2129C119.832 87.2416 119.883 87.27 119.934 87.298L125.695 76.8ZM121.885 72.99L111.417 78.8055C111.435 78.8383 111.454 78.8709 111.472 78.9035L121.885 72.99ZM121.885 61.89L111.441 56.0313C111.433 56.0457 111.425 56.0601 111.417 56.0745L121.885 61.89ZM125.695 58.08L131.51 68.5479C131.543 68.5297 131.576 68.5114 131.608 68.4929L125.695 58.08ZM137.605 58.53L130.677 68.2973C130.695 68.3099 130.712 68.3224 130.73 68.3349L137.605 58.53ZM141.055 63.6V75.5749C144.761 75.5749 148.258 73.8592 150.526 70.9284C152.793 67.9976 153.577 64.1819 152.647 60.5948L141.055 63.6ZM135.385 63.6L145.909 57.8869C144.345 55.0064 141.979 52.7439 139.09 51.2993L133.735 62.01L128.38 72.7207C126.93 71.9961 125.664 70.7936 124.861 69.3131L135.385 63.6ZM133.735 62.01L139.448 51.4858C136.668 49.9767 133.793 49.4651 131.245 49.4651V61.44V73.4149C130.617 73.4149 129.402 73.2833 128.022 72.5342L133.735 62.01ZM131.245 61.44V49.4651C126.648 49.4651 121.942 51.1322 118.394 55.0348L127.255 63.09L136.116 71.1452C135.467 71.8583 134.601 72.4958 133.579 72.9185C132.587 73.3284 131.747 73.4149 131.245 73.4149V61.44ZM127.255 63.09L118.468 54.9542C114.962 58.7412 113.78 63.3509 113.78 67.44H125.755H137.73C137.73 67.6171 137.706 68.1508 137.451 68.8912C137.182 69.6699 136.718 70.4949 136.042 71.2258L127.255 63.09ZM125.755 67.44H113.78C113.78 71.5451 114.928 76.3289 118.613 80.2269L127.315 72L136.016 63.7731C136.745 64.544 137.215 65.3984 137.475 66.1589C137.72 66.8748 137.73 67.3563 137.73 67.44H125.755ZM127.315 72L118.769 80.388C122.552 84.2427 127.352 85.5949 131.665 85.5949V73.62V61.6451C131.908 61.6451 132.538 61.6808 133.377 61.993C134.259 62.3218 135.133 62.8698 135.861 63.612L127.315 72ZM131.665 73.62V85.5949C135.034 85.5949 138.722 84.7017 141.994 82.2667L134.845 72.66L127.696 63.0533C129.248 61.8983 130.816 61.6451 131.665 61.6451V73.62ZM134.845 72.66L141.888 82.3445C145.101 80.0081 147.068 76.8573 148.125 73.6868L136.765 69.9L125.405 66.1132C125.661 65.3427 126.349 64.0319 127.802 62.9755L134.845 72.66ZM136.765 69.9V57.9251H130.255V69.9V81.8749H136.765V69.9ZM130.255 69.9H142.23V66.12H130.255H118.28V69.9H130.255ZM130.255 66.12V78.0949H141.415V66.12V54.1451H130.255V66.12ZM141.415 66.12H129.44V70.89H141.415H153.39V66.12H141.415ZM141.415 70.89L129.935 67.482C129.989 67.2999 130.06 67.1366 130.133 67.0021C130.205 66.8696 130.264 66.7954 130.279 66.7774L139.465 74.46L148.651 82.1426C150.54 79.8831 152.016 77.2578 152.895 74.298L141.415 70.89ZM139.465 74.46L130.197 66.877C130.333 66.7107 130.474 66.5783 130.598 66.4824C130.72 66.3885 130.793 66.3538 130.783 66.3585L136.015 77.13L141.247 87.9015C144.057 86.5365 146.633 84.609 148.733 82.043L139.465 74.46ZM136.015 77.13L130.783 66.3585C130.979 66.2633 131.148 66.2123 131.261 66.1881C131.368 66.165 131.382 66.1751 131.275 66.1751V78.15V90.1249C134.609 90.1249 138.015 89.4714 141.247 87.9015L136.015 77.13ZM131.275 78.15V66.1751C131.102 66.1751 131.068 66.1569 131.136 66.1734C131.168 66.1812 131.216 66.1951 131.276 66.218C131.335 66.241 131.396 66.2693 131.456 66.302L125.695 76.8L119.934 87.298C123.53 89.2718 127.411 90.1249 131.275 90.1249V78.15ZM125.695 76.8L131.608 66.3871C131.698 66.4381 131.842 66.5369 131.995 66.69C132.148 66.8431 132.247 66.9867 132.298 67.0765L121.885 72.99L111.472 78.9035C113.459 82.4016 116.283 85.2263 119.781 87.2129L125.695 76.8ZM121.885 72.99L132.353 67.1745C132.393 67.2466 132.427 67.3198 132.454 67.3901C132.482 67.4601 132.498 67.5176 132.508 67.5572C132.528 67.6397 132.51 67.6135 132.51 67.44H120.535H108.56C108.56 71.3016 109.412 75.1974 111.417 78.8055L121.885 72.99ZM120.535 67.44H132.51C132.51 67.2665 132.528 67.2403 132.508 67.3228C132.498 67.3624 132.482 67.4199 132.454 67.4899C132.427 67.5602 132.393 67.6334 132.353 67.7055L121.885 61.89L111.417 56.0745C109.412 59.6826 108.56 63.5784 108.56 67.44H120.535ZM121.885 61.89L132.329 67.7487C132.278 67.8397 132.171 67.9993 131.995 68.175C131.818 68.3516 131.642 68.4749 131.51 68.5479L125.695 58.08L119.879 47.6121C116.289 49.6065 113.43 52.4857 111.441 56.0313L121.885 61.89ZM125.695 58.08L131.608 68.4929C131.448 68.5839 131.295 68.6391 131.187 68.666C131.085 68.6913 131.091 68.6749 131.245 68.6749V56.7V44.7251C127.338 44.7251 123.407 45.6081 119.781 47.6671L125.695 58.08ZM131.245 56.7V68.6749C131.541 68.6749 131.57 68.7106 131.414 68.6655C131.239 68.6152 130.966 68.5024 130.677 68.2973L137.605 58.53L144.533 48.7627C140.419 45.8443 135.752 44.7251 131.245 44.7251V56.7ZM137.605 58.53L130.73 68.3349C130.462 68.147 130.144 67.8487 129.872 67.4493C129.605 67.0572 129.497 66.7351 129.463 66.6052L141.055 63.6L152.647 60.5948C151.411 55.8295 148.674 51.6658 144.48 48.7251L137.605 58.53ZM141.055 63.6V51.6251H135.385V63.6V75.5749H141.055V63.6ZM148.756 76.83L142.898 87.2738C142.916 87.2839 142.934 87.2939 142.952 87.3039L148.756 76.83ZM144.826 72.99L134.46 78.9849C134.489 79.0344 134.518 79.0836 134.547 79.1326L144.826 72.99ZM144.826 61.86L134.547 55.7174C134.529 55.7484 134.51 55.7794 134.492 55.8105L144.826 61.86ZM148.756 58.02L142.952 47.5461C142.934 47.5561 142.916 47.5661 142.898 47.5762L148.756 58.02ZM159.646 58.02L153.788 68.4638C153.806 68.4739 153.824 68.4839 153.842 68.4939L159.646 58.02ZM163.546 61.86L153.157 67.8148C153.175 67.8465 153.194 67.878 153.212 67.9095L163.546 61.86ZM163.546 72.99L173.881 79.0395C173.892 79.0213 173.902 79.0031 173.913 78.9849L163.546 72.99ZM159.646 76.83L165.505 87.2738V87.2738L159.646 76.83ZM158.236 71.85L149.383 63.7869C149.356 63.816 149.33 63.8452 149.304 63.8745L158.236 71.85ZM158.236 62.97L149.304 70.9455C149.354 71.0015 149.405 71.0571 149.456 71.1122L158.236 62.97ZM150.136 62.94L141.356 54.7978C141.329 54.8267 141.302 54.8557 141.276 54.8848L150.136 62.94ZM150.136 71.88L141.204 79.8555C141.254 79.9115 141.305 79.9671 141.356 80.0222L150.136 71.88ZM154.216 78.21V66.2351C154.162 66.2351 154.201 66.2298 154.301 66.2552C154.404 66.2812 154.498 66.3208 154.561 66.3561L148.756 76.83L142.952 87.3039C146.466 89.2517 150.297 90.1849 154.216 90.1849V78.21ZM148.756 76.83L154.615 66.3862C154.686 66.4259 154.797 66.5019 154.913 66.615C155.028 66.7272 155.089 66.8192 155.106 66.8474L144.826 72.99L134.547 79.1326C136.582 82.5376 139.404 85.3137 142.898 87.2738L148.756 76.83ZM144.826 72.99L155.193 66.9951C155.258 67.1072 155.311 67.2376 155.342 67.3577C155.371 67.4731 155.361 67.5032 155.361 67.41H143.386H131.412C131.412 71.4133 132.368 75.3677 134.46 78.9849L144.826 72.99ZM143.386 67.41H155.361C155.361 67.3163 155.371 67.3547 155.338 67.4849C155.302 67.6207 155.241 67.7726 155.161 67.9095L144.826 61.86L134.492 55.8105C132.368 59.4386 131.412 63.4081 131.412 67.41H143.386ZM144.826 61.86L155.106 68.0026C155.089 68.0308 155.028 68.1228 154.913 68.235C154.797 68.3481 154.686 68.4241 154.615 68.4638L148.756 58.02L142.898 47.5762C139.404 49.5363 136.582 52.3124 134.547 55.7174L144.826 61.86ZM148.756 58.02L154.561 68.4939C154.498 68.5292 154.404 68.5688 154.301 68.5948C154.201 68.6202 154.162 68.6149 154.216 68.6149V56.64V44.6651C150.297 44.6651 146.466 45.5983 142.952 47.5461L148.756 58.02ZM154.216 56.64V68.6149C154.271 68.6149 154.225 68.6202 154.109 68.591C153.991 68.5608 153.876 68.5133 153.788 68.4638L159.646 58.02L165.505 47.5762C161.98 45.5986 158.136 44.6651 154.216 44.6651V56.64ZM159.646 58.02L153.842 68.4939C153.76 68.4489 153.619 68.3548 153.465 68.2029C153.31 68.0508 153.21 67.9063 153.157 67.8148L163.546 61.86L173.936 55.9051C171.904 52.3605 169.015 49.5213 165.451 47.5461L159.646 58.02ZM163.546 61.86L153.212 67.9095C153.132 67.7726 153.071 67.6207 153.035 67.4849C153.002 67.3547 153.012 67.3163 153.012 67.41H164.986H176.961C176.961 63.4081 176.005 59.4386 173.881 55.8105L163.546 61.86ZM164.986 67.41H153.012C153.012 67.5032 153.002 67.4731 153.031 67.3577C153.062 67.2376 153.115 67.1072 153.18 66.9951L163.546 72.99L173.913 78.9849C176.005 75.3677 176.961 71.4133 176.961 67.41H164.986ZM163.546 72.99L153.212 66.9405C153.242 66.8892 153.318 66.7765 153.45 66.6471C153.582 66.5171 153.708 66.4311 153.788 66.3862L159.646 76.83L165.505 87.2738C169.022 85.3012 171.858 82.4955 173.881 79.0395L163.546 72.99ZM159.646 76.83L153.788 66.3862C153.876 66.3367 153.991 66.2892 154.109 66.259C154.225 66.2298 154.271 66.2351 154.216 66.2351V78.21V90.1849C158.136 90.1849 161.98 89.2514 165.505 87.2738L159.646 76.83ZM154.216 73.53V85.5049C158.856 85.5049 163.613 83.8086 167.169 79.8255L158.236 71.85L149.304 63.8745C149.953 63.1472 150.828 62.4942 151.864 62.0611C152.868 61.6417 153.717 61.5551 154.216 61.5551V73.53ZM158.236 71.85L167.09 79.9131C170.53 76.1363 171.741 71.5596 171.741 67.41H159.766H147.792C147.792 67.2297 147.817 66.7122 148.062 65.9986C148.32 65.2505 148.759 64.4723 149.383 63.7869L158.236 71.85ZM159.766 67.41H171.741C171.741 63.2888 170.554 58.6417 167.017 54.8278L158.236 62.97L149.456 71.1122C148.784 70.3875 148.326 69.5713 148.062 68.8064C147.812 68.0802 147.792 67.5645 147.792 67.41H159.766ZM158.236 62.97L167.169 54.9945C163.613 51.0114 158.856 49.3151 154.216 49.3151V61.29V73.2649C153.717 73.2649 152.868 73.1783 151.864 72.7589C150.828 72.3258 149.953 71.6728 149.304 70.9455L158.236 62.97ZM154.216 61.29V49.3151C149.673 49.3151 144.954 50.9167 141.356 54.7978L150.136 62.94L158.917 71.0822C158.259 71.7917 157.399 72.4044 156.411 72.8039C155.457 73.1899 154.664 73.2649 154.216 73.2649V61.29ZM150.136 62.94L141.276 54.8848C137.783 58.7273 136.662 63.3687 136.662 67.41H148.636H160.611C160.611 67.5186 160.598 67.9955 160.364 68.6921C160.117 69.428 159.676 70.2483 158.997 70.9952L150.136 62.94ZM148.636 67.41H136.662C136.662 71.4802 137.807 76.0504 141.204 79.8555L150.136 71.88L159.069 63.9045C159.7 64.6112 160.123 65.3929 160.364 66.1129C160.594 66.7973 160.611 67.2761 160.611 67.41H148.636ZM150.136 71.88L141.356 80.0222C144.954 83.9033 149.673 85.5049 154.216 85.5049V73.53V61.5551C154.664 61.5551 155.457 61.6301 156.411 62.0161C157.399 62.4156 158.259 63.0283 158.917 63.7378L150.136 71.88Z" fill="url(#paint0_linear_0_103)" mask="url(#path-1-outside-1_0_103)"/>
</g>
<path d="M17.99 23.05V27.31H24.86V31.27H17.99V35.89H25.76V40H12.86V18.94H25.76V23.05H17.99ZM41.9905 40L37.7005 33.55L33.9205 40H28.1005L34.8505 29.29L27.9505 18.94H33.9205L38.1505 25.3L41.8705 18.94H47.6905L41.0005 29.56L47.9605 40H41.9905ZM66.5858 25.72C66.5858 26.94 66.3058 28.06 65.7458 29.08C65.1858 30.08 64.3258 30.89 63.1658 31.51C62.0058 32.13 60.5658 32.44 58.8458 32.44H55.6658V40H50.5358V18.94H58.8458C60.5258 18.94 61.9458 19.23 63.1058 19.81C64.2658 20.39 65.1358 21.19 65.7158 22.21C66.2958 23.23 66.5858 24.4 66.5858 25.72ZM58.4558 28.36C59.4358 28.36 60.1658 28.13 60.6458 27.67C61.1258 27.21 61.3658 26.56 61.3658 25.72C61.3658 24.88 61.1258 24.23 60.6458 23.77C60.1658 23.31 59.4358 23.08 58.4558 23.08H55.6658V28.36H58.4558ZM74.3865 36.04H81.1065V40H69.2565V18.94H74.3865V36.04ZM93.5134 40.21C91.5334 40.21 89.7134 39.75 88.0534 38.83C86.4134 37.91 85.1034 36.63 84.1234 34.99C83.1634 33.33 82.6834 31.47 82.6834 29.41C82.6834 27.35 83.1634 25.5 84.1234 23.86C85.1034 22.22 86.4134 20.94 88.0534 20.02C89.7134 19.1 91.5334 18.64 93.5134 18.64C95.4934 18.64 97.3034 19.1 98.9434 20.02C100.603 20.94 101.903 22.22 102.843 23.86C103.803 25.5 104.283 27.35 104.283 29.41C104.283 31.47 103.803 33.33 102.843 34.99C101.883 36.63 100.583 37.91 98.9434 38.83C97.3034 39.75 95.4934 40.21 93.5134 40.21ZM93.5134 35.53C95.1934 35.53 96.5334 34.97 97.5334 33.85C98.5534 32.73 99.0634 31.25 99.0634 29.41C99.0634 27.55 98.5534 26.07 97.5334 24.97C96.5334 23.85 95.1934 23.29 93.5134 23.29C91.8134 23.29 90.4534 23.84 89.4334 24.94C88.4334 26.04 87.9334 27.53 87.9334 29.41C87.9334 31.27 88.4334 32.76 89.4334 33.88C90.4534 34.98 91.8134 35.53 93.5134 35.53ZM117.877 40L113.497 32.05H112.267V40H107.137V18.94H115.747C117.407 18.94 118.817 19.23 119.977 19.81C121.157 20.39 122.037 21.19 122.617 22.21C123.197 23.21 123.487 24.33 123.487 25.57C123.487 26.97 123.087 28.22 122.287 29.32C121.507 30.42 120.347 31.2 118.807 31.66L123.667 40H117.877ZM112.267 28.42H115.447C116.387 28.42 117.087 28.19 117.547 27.73C118.027 27.27 118.267 26.62 118.267 25.78C118.267 24.98 118.027 24.35 117.547 23.89C117.087 23.43 116.387 23.2 115.447 23.2H112.267V28.42ZM131.838 23.05V27.31H138.708V31.27H131.838V35.89H139.608V40H126.708V18.94H139.608V23.05H131.838ZM22.82 78.21C20.84 78.21 19.02 77.75 17.36 76.83C15.72 75.91 14.41 74.63 13.43 72.99C12.47 71.33 11.99 69.47 11.99 67.41C11.99 65.35 12.47 63.5 13.43 61.86C14.41 60.22 15.72 58.94 17.36 58.02C19.02 57.1 20.84 56.64 22.82 56.64C24.8 56.64 26.61 57.1 28.25 58.02C29.91 58.94 31.21 60.22 32.15 61.86C33.11 63.5 33.59 65.35 33.59 67.41C33.59 69.47 33.11 71.33 32.15 72.99C31.19 74.63 29.89 75.91 28.25 76.83C26.61 77.75 24.8 78.21 22.82 78.21ZM22.82 73.53C24.5 73.53 25.84 72.97 26.84 71.85C27.86 70.73 28.37 69.25 28.37 67.41C28.37 65.55 27.86 64.07 26.84 62.97C25.84 61.85 24.5 61.29 22.82 61.29C21.12 61.29 19.76 61.84 18.74 62.94C17.74 64.04 17.24 65.53 17.24 67.41C17.24 69.27 17.74 70.76 18.74 71.88C19.76 72.98 21.12 73.53 22.82 73.53ZM41.484 56.94V69.54C41.484 70.8 41.794 71.77 42.414 72.45C43.034 73.13 43.944 73.47 45.144 73.47C46.344 73.47 47.264 73.13 47.904 72.45C48.544 71.77 48.864 70.8 48.864 69.54V56.94H53.994V69.51C53.994 71.39 53.594 72.98 52.794 74.28C51.994 75.58 50.914 76.56 49.554 77.22C48.214 77.88 46.714 78.21 45.054 78.21C43.394 78.21 41.904 77.89 40.584 77.25C39.284 76.59 38.254 75.61 37.494 74.31C36.734 72.99 36.354 71.39 36.354 69.51V56.94H41.484ZM68.3363 78L63.9563 70.05H62.7263V78H57.5963V56.94H66.2063C67.8663 56.94 69.2763 57.23 70.4363 57.81C71.6163 58.39 72.4963 59.19 73.0763 60.21C73.6563 61.21 73.9463 62.33 73.9463 63.57C73.9463 64.97 73.5463 66.22 72.7463 67.32C71.9663 68.42 70.8063 69.2 69.2663 69.66L74.1263 78H68.3363ZM62.7263 66.42H65.9063C66.8463 66.42 67.5463 66.19 68.0063 65.73C68.4863 65.27 68.7263 64.62 68.7263 63.78C68.7263 62.98 68.4863 62.35 68.0063 61.89C67.5463 61.43 66.8463 61.2 65.9063 61.2H62.7263V66.42ZM88.6541 74.04H95.3741V78H83.5241V56.94H88.6541V74.04ZM107.781 78.21C105.801 78.21 103.981 77.75 102.321 76.83C100.681 75.91 99.3709 74.63 98.3909 72.99C97.4309 71.33 96.9509 69.47 96.9509 67.41C96.9509 65.35 97.4309 63.5 98.3909 61.86C99.3709 60.22 100.681 58.94 102.321 58.02C103.981 57.1 105.801 56.64 107.781 56.64C109.761 56.64 111.571 57.1 113.211 58.02C114.871 58.94 116.171 60.22 117.111 61.86C118.071 63.5 118.551 65.35 118.551 67.41C118.551 69.47 118.071 71.33 117.111 72.99C116.151 74.63 114.851 75.91 113.211 76.83C111.571 77.75 109.761 78.21 107.781 78.21ZM107.781 73.53C109.461 73.53 110.801 72.97 111.801 71.85C112.821 70.73 113.331 69.25 113.331 67.41C113.331 65.55 112.821 64.07 111.801 62.97C110.801 61.85 109.461 61.29 107.781 61.29C106.081 61.29 104.721 61.84 103.701 62.94C102.701 64.04 102.201 65.53 102.201 67.41C102.201 69.27 102.701 70.76 103.701 71.88C104.721 72.98 106.081 73.53 107.781 73.53ZM135.385 63.6C135.005 62.9 134.455 62.37 133.735 62.01C133.035 61.63 132.205 61.44 131.245 61.44C129.585 61.44 128.255 61.99 127.255 63.09C126.255 64.17 125.755 65.62 125.755 67.44C125.755 69.38 126.275 70.9 127.315 72C128.375 73.08 129.825 73.62 131.665 73.62C132.925 73.62 133.985 73.3 134.845 72.66C135.725 72.02 136.365 71.1 136.765 69.9H130.255V66.12H141.415V70.89C141.035 72.17 140.385 73.36 139.465 74.46C138.565 75.56 137.415 76.45 136.015 77.13C134.615 77.81 133.035 78.15 131.275 78.15C129.195 78.15 127.335 77.7 125.695 76.8C124.075 75.88 122.805 74.61 121.885 72.99C120.985 71.37 120.535 69.52 120.535 67.44C120.535 65.36 120.985 63.51 121.885 61.89C122.805 60.25 124.075 58.98 125.695 58.08C127.315 57.16 129.165 56.7 131.245 56.7C133.765 56.7 135.885 57.31 137.605 58.53C139.345 59.75 140.495 61.44 141.055 63.6H135.385ZM154.216 78.21C152.236 78.21 150.416 77.75 148.756 76.83C147.116 75.91 145.806 74.63 144.826 72.99C143.866 71.33 143.386 69.47 143.386 67.41C143.386 65.35 143.866 63.5 144.826 61.86C145.806 60.22 147.116 58.94 148.756 58.02C150.416 57.1 152.236 56.64 154.216 56.64C156.196 56.64 158.006 57.1 159.646 58.02C161.306 58.94 162.606 60.22 163.546 61.86C164.506 63.5 164.986 65.35 164.986 67.41C164.986 69.47 164.506 71.33 163.546 72.99C162.586 74.63 161.286 75.91 159.646 76.83C158.006 77.75 156.196 78.21 154.216 78.21ZM154.216 73.53C155.896 73.53 157.236 72.97 158.236 71.85C159.256 70.73 159.766 69.25 159.766 67.41C159.766 65.55 159.256 64.07 158.236 62.97C157.236 61.85 155.896 61.29 154.216 61.29C152.516 61.29 151.156 61.84 150.136 62.94C149.136 64.04 148.636 65.53 148.636 67.41C148.636 69.27 149.136 70.76 150.136 71.88C151.156 72.98 152.516 73.53 154.216 73.53Z" fill="#E2DC00"/>
<defs>
<filter id="filter0_ii_0_103" x="-0.982771" y="4.66928" width="177.944" height="87.5114" filterUnits="userSpaceOnUse" color-interpolation-filters="sRGB">
<feFlood flood-opacity="0" result="BackgroundImageFix"/>
<feBlend mode="normal" in="SourceGraphic" in2="BackgroundImageFix" result="shape"/>
<feColorMatrix in="SourceAlpha" type="matrix" values="0 0 0 0 0 0 0 0 0 0 0 0 0 0 0 0 0 0 127 0" result="hardAlpha"/>
<feOffset dx="-0.997908" dy="1.99582"/>
<feGaussianBlur stdDeviation="1.99582"/>
<feComposite in2="hardAlpha" operator="arithmetic" k2="-1" k3="1"/>
<feColorMatrix type="matrix" values="0 0 0 0 1 0 0 0 0 1 0 0 0 0 1 0 0 0 0.5 0"/>
<feBlend mode="normal" in2="shape" result="effect1_innerShadow_0_103"/>
<feColorMatrix in="SourceAlpha" type="matrix" values="0 0 0 0 0 0 0 0 0 0 0 0 0 0 0 0 0 0 127 0" result="hardAlpha"/>
<feOffset dy="-1.99582"/>
<feGaussianBlur stdDeviation="2.99372"/>
<feComposite in2="hardAlpha" operator="arithmetic" k2="-1" k3="1"/>
<feColorMatrix type="matrix" values="0 0 0 0 0 0 0 0 0 0 0 0 0 0 0 0 0 0 0.5 0"/>
<feBlend mode="normal" in2="effect1_innerShadow_0_103" result="effect2_innerShadow_0_103"/>
</filter>
<linearGradient id="paint0_linear_0_103" x1="95.0078" y1="-261.057" x2="102.03" y2="356.979" gradientUnits="userSpaceOnUse">
<stop offset="0.451923" stop-color="#000E61"/>
<stop offset="1" stop-color="#013EF9"/>
</linearGradient>
</defs>
</svg>
